M48
; DRILL file {KiCad (5.1.6)-1} date 08/22/21 23:35:55
; FORMAT={-:-/ absolute / metric / decimal}
; #@! TF.CreationDate,2021-08-22T23:35:55+02:00
; #@! TF.GenerationSoftware,Kicad,Pcbnew,(5.1.6)-1
; #@! TF.FileFunction,Plated,1,2,PTH
FMAT,2
METRIC
T1C0.400
T2C0.600
T3C0.800
%
G90
G05
T1
X74.486Y-82.398
X74.546Y-87.925
X78.041Y-87.236
X78.066Y-104.242
X79.427Y-82.395
X80.669Y-95.936
X80.759Y-85.369
X81.013Y-83.896
X81.191Y-100.266
X81.394Y-142.684
X86.57Y-159.874
X86.627Y-104.586
X89.725Y-112.585
X91.161Y-123.636
X92.558Y-97.523
X98.476Y-88.252
X99.873Y-121.501
X103.239Y-144.665
X107.658Y-129.921
X108.001Y-106.731
X108.052Y-161.736
X112.725Y-129.921
X112.764Y-126.314
X116.459Y-159.741
X117.526Y-87.643
X122.289Y-140.589
X127.051Y-106.591
X128.384Y-140.678
X131.814Y-125.615
X132.905Y-149.225
X133.032Y-89.218
X135.636Y-132.613
X136.576Y-88.061
X136.678Y-154.241
X141.339Y-144.703
X142.723Y-94.043
X143.929Y-159.915
X144.018Y-161.544
X144.691Y-160.804
X144.691Y-162.284
X146.101Y-107.34
X146.177Y-166.56
X150.864Y-126.288
X152.971Y-149.225
X153.445Y-159.908
X153.543Y-161.544
X153.543Y-163.068
X154.207Y-160.797
X154.25Y-162.269
X155.626Y-88.061
X157.162Y-157.861
X158.178Y-163.512
X160.389Y-144.703
X160.528Y-149.225
X163.703Y-147.13
X164.655Y-166.751
X165.151Y-107.34
X167.957Y-149.225
X169.481Y-161.925
X169.914Y-126.415
X169.989Y-149.987
X172.237Y-89.497
X174.676Y-88.112
X174.879Y-167.386
X175.958Y-169.227
X176.162Y-121.704
X178.816Y-158.623
X179.006Y-129.921
X181.712Y-92.037
X182.118Y-149.225
X183.706Y-118.427
X184.201Y-107.251
X188.964Y-126.428
X190.881Y-129.921
X191.986Y-151.143
X193.726Y-88.087
X198.462Y-149.949
X202.133Y-114.109
X202.222Y-139.649
X203.251Y-107.15
X205.067Y-94.399
X206.426Y-118.3
X208.013Y-117.792
X208.014Y-126.2
X208.026Y-149.161
X210.325Y-90.462
X211.976Y-154.343
X212.103Y-158.547
X212.103Y-160.503
X212.776Y-88.036
X216.052Y-158.547
X216.052Y-160.503
X216.103Y-154.343
X216.573Y-150.114
X222.301Y-107.137
X222.44Y-149.225
X223.164Y-138.43
X223.774Y-141.021
X227.064Y-113.842
X227.064Y-126.225
X231.826Y-88.087
X240.716Y-139.535
X241.351Y-107.048
X242.811Y-140.881
X243.929Y-157.861
X246.113Y-116.624
X246.114Y-126.174
X248.475Y-90.868
X250.876Y-88.1
X258.61Y-157.277
X258.648Y-93.675
X259.702Y-138.227
X260.401Y-107.175
X265.163Y-132.359
X265.164Y-126.187
X269.926Y-88.087
X274.689Y-145.224
X279.286Y-139.725
X279.451Y-107.175
X284.214Y-126.2
X284.214Y-131.813
X286.537Y-90.424
X288.112Y-156.629
X288.976Y-88.087
X298.501Y-107.175
X300.882Y-131.464
X300.882Y-145.37
X303.264Y-126.187
X304.0Y-93.281
X314.033Y-156.794
X317.894Y-112.014
X317.932Y-108.979
X321.5Y-139.065
X322.923Y-137.35
X324.695Y-116.643
X327.076Y-145.224
X332.69Y-82.996
X336.383Y-153.289
X340.36Y-90.919
X342.712Y-107.432
X343.662Y-136.779
X346.126Y-88.061
X346.126Y-107.124
X346.126Y-126.225
X346.126Y-158.331
X346.773Y-132.905
X350.139Y-135.319
X352.844Y-94.92
X360.083Y-116.637
T3
X225.704Y-169.024
X228.244Y-169.024
T2
X72.657Y-75.343G85X72.657Y-75.943
G05
X72.657Y-79.273G85X72.657Y-80.373
G05
X81.297Y-75.343G85X81.297Y-75.943
G05
X81.297Y-79.273G85X81.297Y-80.373
G05
T0
M30
