M48
; DRILL file {KiCad (5.1.6)-1} date 08/22/21 23:35:55
; FORMAT={-:-/ absolute / metric / decimal}
; #@! TF.CreationDate,2021-08-22T23:35:55+02:00
; #@! TF.GenerationSoftware,Kicad,Pcbnew,(5.1.6)-1
; #@! TF.FileFunction,NonPlated,1,2,NPTH
FMAT,2
METRIC
T1C0.650
T2C1.750
T3C3.000
T4C3.048
T5C3.988
%
G90
G05
T1
X74.087Y-79.293
X79.867Y-79.293
T2
X302.887Y-145.226
X313.047Y-145.226
X257.644Y-145.226
X267.804Y-145.226
X176.681Y-88.076
X186.841Y-88.076
X143.344Y-145.226
X153.504Y-145.226
X326.7Y-116.651
X336.86Y-116.651
X243.356Y-107.126
X253.516Y-107.126
X171.919Y-126.176
X182.079Y-126.176
X205.256Y-107.126
X215.416Y-107.126
X67.144Y-107.126
X77.304Y-107.126
X210.019Y-126.176
X220.179Y-126.176
X310.031Y-164.276
X320.191Y-164.276
X119.531Y-88.076
X129.691Y-88.076
X100.481Y-88.076
X110.641Y-88.076
X329.081Y-145.226
X339.241Y-145.226
X64.762Y-164.276
X74.922Y-164.276
X186.206Y-107.126
X196.366Y-107.126
X348.131Y-126.176
X358.291Y-126.176
X305.269Y-126.176
X315.429Y-126.176
X348.131Y-164.276
X358.291Y-164.276
X286.219Y-126.176
X296.379Y-126.176
X129.056Y-107.126
X139.216Y-107.126
X267.169Y-126.176
X277.329Y-126.176
X348.131Y-145.226
X358.291Y-145.226
X112.387Y-164.276
X122.547Y-164.276
X195.731Y-88.076
X205.891Y-88.076
X133.819Y-126.176
X143.979Y-126.176
X138.581Y-88.076
X148.741Y-88.076
X348.131Y-88.076
X358.291Y-88.076
X114.769Y-126.176
X124.929Y-126.176
X252.881Y-88.076
X263.041Y-88.076
X190.969Y-126.176
X201.129Y-126.176
X64.762Y-145.226
X74.922Y-145.226
X329.081Y-164.276
X339.241Y-164.276
X81.431Y-88.076
X91.591Y-88.076
X88.575Y-164.276
X98.735Y-164.276
X276.694Y-145.226
X286.854Y-145.226
X214.781Y-88.076
X224.941Y-88.076
X248.119Y-126.176
X258.279Y-126.176
X167.156Y-107.126
X177.316Y-107.126
X348.131Y-107.126
X358.291Y-107.126
X300.506Y-107.126
X310.666Y-107.126
X233.831Y-88.076
X243.991Y-88.076
X69.532Y-126.2
X79.692Y-126.2
X181.444Y-145.226
X191.604Y-145.226
X183.825Y-164.276
X193.985Y-164.276
X255.262Y-164.276
X265.422Y-164.276
X290.981Y-88.076
X301.141Y-88.076
X86.194Y-145.226
X96.354Y-145.226
X224.306Y-107.126
X234.466Y-107.126
X152.869Y-126.176
X163.029Y-126.176
X319.556Y-88.076
X329.716Y-88.076
X162.394Y-145.226
X172.554Y-145.226
X62.381Y-88.076
X72.541Y-88.076
X200.494Y-145.226
X210.654Y-145.226
X279.075Y-164.276
X289.235Y-164.276
X105.244Y-145.226
X115.404Y-145.226
X90.956Y-107.126
X101.116Y-107.126
X229.069Y-126.176
X239.229Y-126.176
X271.931Y-88.076
X282.091Y-88.076
X262.406Y-107.126
X272.566Y-107.126
X238.594Y-145.226
X248.754Y-145.226
X219.544Y-145.226
X229.704Y-145.226
X157.631Y-88.076
X167.791Y-88.076
X124.294Y-145.226
X134.454Y-145.226
X148.106Y-107.126
X158.266Y-107.126
X95.719Y-126.176
X105.879Y-126.176
X110.006Y-107.126
X120.166Y-107.126
X281.456Y-107.126
X291.616Y-107.126
T3
X304.157Y-142.686
X310.507Y-140.146
X258.914Y-142.686
X265.264Y-140.146
X177.951Y-85.536
X184.301Y-82.996
X144.614Y-142.686
X150.964Y-140.146
X327.97Y-114.111
X334.32Y-111.571
X244.626Y-104.586
X250.976Y-102.046
X173.189Y-123.636
X179.539Y-121.096
X206.526Y-104.586
X212.876Y-102.046
X68.414Y-104.586
X74.764Y-102.046
X211.289Y-123.636
X217.639Y-121.096
X311.301Y-161.736
X317.651Y-159.196
X120.801Y-85.536
X127.151Y-82.996
X101.751Y-85.536
X108.101Y-82.996
X330.351Y-142.686
X336.701Y-140.146
X66.032Y-161.736
X72.382Y-159.196
X187.476Y-104.586
X193.826Y-102.046
X349.401Y-123.636
X355.751Y-121.096
X306.539Y-123.636
X312.889Y-121.096
X349.401Y-161.736
X355.751Y-159.196
X287.489Y-123.636
X293.839Y-121.096
X130.326Y-104.586
X136.676Y-102.046
X268.439Y-123.636
X274.789Y-121.096
X349.401Y-142.686
X355.751Y-140.146
X113.657Y-161.736
X120.007Y-159.196
X197.001Y-85.536
X203.351Y-82.996
X135.089Y-123.636
X141.439Y-121.096
X139.851Y-85.536
X146.201Y-82.996
X349.401Y-85.536
X355.751Y-82.996
X116.039Y-123.636
X122.389Y-121.096
X254.151Y-85.536
X260.501Y-82.996
X192.239Y-123.636
X198.589Y-121.096
X66.032Y-142.686
X72.382Y-140.146
X330.351Y-161.736
X336.701Y-159.196
X83.971Y-93.156
X90.321Y-90.616
X89.845Y-161.736
X96.195Y-159.196
X277.964Y-142.686
X284.314Y-140.146
X216.051Y-85.536
X222.401Y-82.996
X249.389Y-123.636
X255.739Y-121.096
X168.426Y-104.586
X174.776Y-102.046
X349.401Y-104.586
X355.751Y-102.046
X301.776Y-104.586
X308.126Y-102.046
X235.101Y-85.536
X241.451Y-82.996
X70.802Y-123.66
X77.153Y-121.12
X182.714Y-142.686
X189.064Y-140.146
X185.095Y-161.736
X191.445Y-159.196
X256.532Y-161.736
X262.882Y-159.196
X292.251Y-85.536
X298.601Y-82.996
X87.464Y-142.686
X93.814Y-140.146
X225.576Y-104.586
X231.926Y-102.046
X154.139Y-123.636
X160.489Y-121.096
X320.826Y-85.536
X327.176Y-82.996
X163.664Y-142.686
X170.014Y-140.146
X64.921Y-93.156
X71.271Y-90.616
X201.764Y-142.686
X208.114Y-140.146
X280.345Y-161.736
X286.695Y-159.196
X106.514Y-142.686
X112.864Y-140.146
X92.226Y-104.586
X98.576Y-102.046
X230.339Y-123.636
X236.689Y-121.096
X273.201Y-85.536
X279.551Y-82.996
X263.676Y-104.586
X270.026Y-102.046
X239.864Y-142.686
X246.214Y-140.146
X220.814Y-142.686
X227.164Y-140.146
X158.901Y-85.536
X165.251Y-82.996
X125.564Y-142.686
X131.914Y-140.146
X149.376Y-104.586
X155.726Y-102.046
X96.989Y-123.636
X103.339Y-121.096
X111.276Y-104.586
X117.626Y-102.046
X282.726Y-104.586
X289.076Y-102.046
T4
X138.905Y-171.261
X238.905Y-171.261
X312.698Y-81.091
X336.574Y-81.091
X338.765Y-104.713
X338.765Y-128.589
T5
X186.524Y-145.226
X138.905Y-156.021
X188.905Y-164.276
X238.905Y-156.021
X260.342Y-164.276
X296.061Y-88.076
X91.274Y-145.226
X229.386Y-107.126
X157.949Y-126.176
X312.698Y-96.331
X324.636Y-88.076
X336.574Y-96.331
X167.474Y-145.226
X67.461Y-88.076
X205.574Y-145.226
X284.155Y-164.276
X110.324Y-145.226
X96.036Y-107.126
X234.149Y-126.176
X277.011Y-88.076
X267.486Y-107.126
X243.674Y-145.226
X224.624Y-145.226
X162.711Y-88.076
X129.374Y-145.226
X153.186Y-107.126
X100.799Y-126.176
X115.086Y-107.126
X286.536Y-107.126
X307.967Y-145.226
X262.724Y-145.226
X181.761Y-88.076
X148.424Y-145.226
X323.525Y-104.713
X323.525Y-128.589
X331.78Y-116.651
X248.436Y-107.126
X176.999Y-126.176
X210.336Y-107.126
X72.224Y-107.126
X215.099Y-126.176
X315.111Y-164.276
X124.611Y-88.076
X105.561Y-88.076
X334.161Y-145.226
X69.842Y-164.276
X191.286Y-107.126
X353.211Y-126.176
X310.349Y-126.176
X353.211Y-164.276
X291.299Y-126.176
X134.136Y-107.126
X272.249Y-126.176
X353.211Y-145.226
X117.467Y-164.276
X200.811Y-88.076
X138.899Y-126.176
X143.661Y-88.076
X353.211Y-88.076
X119.849Y-126.176
X257.961Y-88.076
X196.049Y-126.176
X69.842Y-145.226
X334.161Y-164.276
X86.511Y-88.076
X93.655Y-164.276
X281.774Y-145.226
X219.861Y-88.076
X253.199Y-126.176
X172.236Y-107.126
X353.211Y-107.126
X305.586Y-107.126
X238.911Y-88.076
X74.612Y-126.2
T0
M30
