%TF.GenerationSoftware,KiCad,Pcbnew,(5.1.6)-1*%
%TF.CreationDate,2021-08-22T23:35:52+02:00*%
%TF.ProjectId,67_E,36375f45-2e6b-4696-9361-645f70636258,rev?*%
%TF.SameCoordinates,Original*%
%TF.FileFunction,Legend,Bot*%
%TF.FilePolarity,Positive*%
%FSLAX46Y46*%
G04 Gerber Fmt 4.6, Leading zero omitted, Abs format (unit mm)*
G04 Created by KiCad (PCBNEW (5.1.6)-1) date 2021-08-22 23:35:52*
%MOMM*%
%LPD*%
G01*
G04 APERTURE LIST*
%ADD10C,0.300000*%
%ADD11C,0.400000*%
%ADD12C,0.010000*%
%ADD13C,0.150000*%
%ADD14C,0.120000*%
%ADD15C,1.400000*%
%ADD16R,2.550000X2.500000*%
%ADD17C,1.750000*%
%ADD18C,3.000000*%
%ADD19C,3.987800*%
%ADD20R,1.500000X1.000000*%
%ADD21C,3.048000*%
%ADD22R,0.800000X0.900000*%
%ADD23C,0.100000*%
%ADD24R,0.600000X1.450000*%
%ADD25R,0.300000X1.450000*%
%ADD26O,1.000000X2.100000*%
%ADD27C,0.650000*%
%ADD28O,1.000000X1.600000*%
%ADD29R,1.060000X0.650000*%
G04 APERTURE END LIST*
D10*
X284666428Y-116534214D02*
X283595000Y-116534214D01*
X283380714Y-116605642D01*
X283237857Y-116748500D01*
X283166428Y-116962785D01*
X283166428Y-117105642D01*
X283166428Y-115819928D02*
X284666428Y-115819928D01*
X283166428Y-114962785D02*
X284023571Y-115605642D01*
X284666428Y-114962785D02*
X283809285Y-115819928D01*
X283952142Y-113819928D02*
X283880714Y-113605642D01*
X283809285Y-113534214D01*
X283666428Y-113462785D01*
X283452142Y-113462785D01*
X283309285Y-113534214D01*
X283237857Y-113605642D01*
X283166428Y-113748500D01*
X283166428Y-114319928D01*
X284666428Y-114319928D01*
X284666428Y-113819928D01*
X284595000Y-113677071D01*
X284523571Y-113605642D01*
X284380714Y-113534214D01*
X284237857Y-113534214D01*
X284095000Y-113605642D01*
X284023571Y-113677071D01*
X283952142Y-113819928D01*
X283952142Y-114319928D01*
D11*
X132270500Y-119308071D02*
X132270500Y-112165214D01*
X281051000Y-118927071D02*
X281051000Y-111784214D01*
D10*
X278014500Y-112071571D02*
X278300214Y-112071571D01*
X278443071Y-112143000D01*
X278514500Y-112214428D01*
X278657357Y-112428714D01*
X278728785Y-112714428D01*
X278728785Y-113285857D01*
X278657357Y-113428714D01*
X278585928Y-113500142D01*
X278443071Y-113571571D01*
X278157357Y-113571571D01*
X278014500Y-113500142D01*
X277943071Y-113428714D01*
X277871642Y-113285857D01*
X277871642Y-112928714D01*
X277943071Y-112785857D01*
X278014500Y-112714428D01*
X278157357Y-112643000D01*
X278443071Y-112643000D01*
X278585928Y-112714428D01*
X278657357Y-112785857D01*
X278728785Y-112928714D01*
X277371642Y-112071571D02*
X276371642Y-112071571D01*
X277014500Y-113571571D01*
X275800214Y-113571571D02*
X275800214Y-112571571D01*
X275800214Y-112714428D02*
X275728785Y-112643000D01*
X275585928Y-112571571D01*
X275371642Y-112571571D01*
X275228785Y-112643000D01*
X275157357Y-112785857D01*
X275157357Y-113571571D01*
X275157357Y-112785857D02*
X275085928Y-112643000D01*
X274943071Y-112571571D01*
X274728785Y-112571571D01*
X274585928Y-112643000D01*
X274514500Y-112785857D01*
X274514500Y-113571571D01*
X273800214Y-113571571D02*
X273800214Y-112071571D01*
X273657357Y-113000142D02*
X273228785Y-113571571D01*
X273228785Y-112571571D02*
X273800214Y-113143000D01*
X272943071Y-113714428D02*
X271800214Y-113714428D01*
X271443071Y-112785857D02*
X270943071Y-112785857D01*
X270728785Y-113571571D02*
X271443071Y-113571571D01*
X271443071Y-112071571D01*
X270728785Y-112071571D01*
X268943071Y-113571571D02*
X268943071Y-112071571D01*
X268943071Y-112785857D02*
X268085928Y-112785857D01*
X268085928Y-113571571D02*
X268085928Y-112071571D01*
X267157357Y-113571571D02*
X267300214Y-113500142D01*
X267371642Y-113428714D01*
X267443071Y-113285857D01*
X267443071Y-112857285D01*
X267371642Y-112714428D01*
X267300214Y-112643000D01*
X267157357Y-112571571D01*
X266943071Y-112571571D01*
X266800214Y-112643000D01*
X266728785Y-112714428D01*
X266657357Y-112857285D01*
X266657357Y-113285857D01*
X266728785Y-113428714D01*
X266800214Y-113500142D01*
X266943071Y-113571571D01*
X267157357Y-113571571D01*
X266228785Y-112571571D02*
X265657357Y-112571571D01*
X266014500Y-112071571D02*
X266014500Y-113357285D01*
X265943071Y-113500142D01*
X265800214Y-113571571D01*
X265657357Y-113571571D01*
X265228785Y-113500142D02*
X265085928Y-113571571D01*
X264800214Y-113571571D01*
X264657357Y-113500142D01*
X264585928Y-113357285D01*
X264585928Y-113285857D01*
X264657357Y-113143000D01*
X264800214Y-113071571D01*
X265014500Y-113071571D01*
X265157357Y-113000142D01*
X265228785Y-112857285D01*
X265228785Y-112785857D01*
X265157357Y-112643000D01*
X265014500Y-112571571D01*
X264800214Y-112571571D01*
X264657357Y-112643000D01*
X264085928Y-112571571D02*
X263800214Y-113571571D01*
X263514500Y-112857285D01*
X263228785Y-113571571D01*
X262943071Y-112571571D01*
X261728785Y-113571571D02*
X261728785Y-112785857D01*
X261800214Y-112643000D01*
X261943071Y-112571571D01*
X262228785Y-112571571D01*
X262371642Y-112643000D01*
X261728785Y-113500142D02*
X261871642Y-113571571D01*
X262228785Y-113571571D01*
X262371642Y-113500142D01*
X262443071Y-113357285D01*
X262443071Y-113214428D01*
X262371642Y-113071571D01*
X262228785Y-113000142D01*
X261871642Y-113000142D01*
X261728785Y-112928714D01*
X261014500Y-112571571D02*
X261014500Y-114071571D01*
X261014500Y-112643000D02*
X260871642Y-112571571D01*
X260585928Y-112571571D01*
X260443071Y-112643000D01*
X260371642Y-112714428D01*
X260300214Y-112857285D01*
X260300214Y-113285857D01*
X260371642Y-113428714D01*
X260443071Y-113500142D01*
X260585928Y-113571571D01*
X260871642Y-113571571D01*
X261014500Y-113500142D01*
X257657357Y-113571571D02*
X258157357Y-112857285D01*
X258514500Y-113571571D02*
X258514500Y-112071571D01*
X257943071Y-112071571D01*
X257800214Y-112143000D01*
X257728785Y-112214428D01*
X257657357Y-112357285D01*
X257657357Y-112571571D01*
X257728785Y-112714428D01*
X257800214Y-112785857D01*
X257943071Y-112857285D01*
X258514500Y-112857285D01*
X256228785Y-112143000D02*
X256371642Y-112071571D01*
X256585928Y-112071571D01*
X256800214Y-112143000D01*
X256943071Y-112285857D01*
X257014500Y-112428714D01*
X257085928Y-112714428D01*
X257085928Y-112928714D01*
X257014500Y-113214428D01*
X256943071Y-113357285D01*
X256800214Y-113500142D01*
X256585928Y-113571571D01*
X256443071Y-113571571D01*
X256228785Y-113500142D01*
X256157357Y-113428714D01*
X256157357Y-112928714D01*
X256443071Y-112928714D01*
X255014500Y-112785857D02*
X254800214Y-112857285D01*
X254728785Y-112928714D01*
X254657357Y-113071571D01*
X254657357Y-113285857D01*
X254728785Y-113428714D01*
X254800214Y-113500142D01*
X254943071Y-113571571D01*
X255514500Y-113571571D01*
X255514500Y-112071571D01*
X255014500Y-112071571D01*
X254871642Y-112143000D01*
X254800214Y-112214428D01*
X254728785Y-112357285D01*
X254728785Y-112500142D01*
X254800214Y-112643000D01*
X254871642Y-112714428D01*
X255014500Y-112785857D01*
X255514500Y-112785857D01*
X252871642Y-113571571D02*
X252871642Y-112571571D01*
X252871642Y-112857285D02*
X252800214Y-112714428D01*
X252728785Y-112643000D01*
X252585928Y-112571571D01*
X252443071Y-112571571D01*
X251371642Y-113500142D02*
X251514500Y-113571571D01*
X251800214Y-113571571D01*
X251943071Y-113500142D01*
X252014500Y-113357285D01*
X252014500Y-112785857D01*
X251943071Y-112643000D01*
X251800214Y-112571571D01*
X251514500Y-112571571D01*
X251371642Y-112643000D01*
X251300214Y-112785857D01*
X251300214Y-112928714D01*
X252014500Y-113071571D01*
X250800214Y-112571571D02*
X250443071Y-113571571D01*
X250085928Y-112571571D01*
X249514500Y-113428714D02*
X249443071Y-113500142D01*
X249514500Y-113571571D01*
X249585928Y-113500142D01*
X249514500Y-113428714D01*
X249514500Y-113571571D01*
X248014500Y-113571571D02*
X248871642Y-113571571D01*
X248443071Y-113571571D02*
X248443071Y-112071571D01*
X248585928Y-112285857D01*
X248728785Y-112428714D01*
X248871642Y-112500142D01*
X278657357Y-116121571D02*
X278657357Y-114621571D01*
X278657357Y-115193000D02*
X278514500Y-115121571D01*
X278228785Y-115121571D01*
X278085928Y-115193000D01*
X278014500Y-115264428D01*
X277943071Y-115407285D01*
X277943071Y-115835857D01*
X278014500Y-115978714D01*
X278085928Y-116050142D01*
X278228785Y-116121571D01*
X278514500Y-116121571D01*
X278657357Y-116050142D01*
X277443071Y-115121571D02*
X277085928Y-116121571D01*
X276728785Y-115121571D02*
X277085928Y-116121571D01*
X277228785Y-116478714D01*
X277300214Y-116550142D01*
X277443071Y-116621571D01*
X274585928Y-114621571D02*
X274585928Y-115693000D01*
X274657357Y-115907285D01*
X274800214Y-116050142D01*
X275014500Y-116121571D01*
X275157357Y-116121571D01*
X273228785Y-116121571D02*
X273228785Y-115335857D01*
X273300214Y-115193000D01*
X273443071Y-115121571D01*
X273728785Y-115121571D01*
X273871642Y-115193000D01*
X273228785Y-116050142D02*
X273371642Y-116121571D01*
X273728785Y-116121571D01*
X273871642Y-116050142D01*
X273943071Y-115907285D01*
X273943071Y-115764428D01*
X273871642Y-115621571D01*
X273728785Y-115550142D01*
X273371642Y-115550142D01*
X273228785Y-115478714D01*
X272514500Y-116121571D02*
X272514500Y-114621571D01*
X272371642Y-115550142D02*
X271943071Y-116121571D01*
X271943071Y-115121571D02*
X272514500Y-115693000D01*
X271085928Y-116121571D02*
X271228785Y-116050142D01*
X271300214Y-115978714D01*
X271371642Y-115835857D01*
X271371642Y-115407285D01*
X271300214Y-115264428D01*
X271228785Y-115193000D01*
X271085928Y-115121571D01*
X270871642Y-115121571D01*
X270728785Y-115193000D01*
X270657357Y-115264428D01*
X270585928Y-115407285D01*
X270585928Y-115835857D01*
X270657357Y-115978714D01*
X270728785Y-116050142D01*
X270871642Y-116121571D01*
X271085928Y-116121571D01*
X269943071Y-116121571D02*
X269943071Y-114621571D01*
X269943071Y-115193000D02*
X269800214Y-115121571D01*
X269514500Y-115121571D01*
X269371642Y-115193000D01*
X269300214Y-115264428D01*
X269228785Y-115407285D01*
X269228785Y-115835857D01*
X269300214Y-115978714D01*
X269371642Y-116050142D01*
X269514500Y-116121571D01*
X269800214Y-116121571D01*
X269943071Y-116050142D01*
X278657357Y-118671571D02*
X278657357Y-117171571D01*
X278657357Y-117743000D02*
X278514500Y-117671571D01*
X278228785Y-117671571D01*
X278085928Y-117743000D01*
X278014500Y-117814428D01*
X277943071Y-117957285D01*
X277943071Y-118385857D01*
X278014500Y-118528714D01*
X278085928Y-118600142D01*
X278228785Y-118671571D01*
X278514500Y-118671571D01*
X278657357Y-118600142D01*
X276657357Y-118671571D02*
X276657357Y-117885857D01*
X276728785Y-117743000D01*
X276871642Y-117671571D01*
X277157357Y-117671571D01*
X277300214Y-117743000D01*
X276657357Y-118600142D02*
X276800214Y-118671571D01*
X277157357Y-118671571D01*
X277300214Y-118600142D01*
X277371642Y-118457285D01*
X277371642Y-118314428D01*
X277300214Y-118171571D01*
X277157357Y-118100142D01*
X276800214Y-118100142D01*
X276657357Y-118028714D01*
X276014500Y-118600142D02*
X275871642Y-118671571D01*
X275585928Y-118671571D01*
X275443071Y-118600142D01*
X275371642Y-118457285D01*
X275371642Y-118385857D01*
X275443071Y-118243000D01*
X275585928Y-118171571D01*
X275800214Y-118171571D01*
X275943071Y-118100142D01*
X276014500Y-117957285D01*
X276014500Y-117885857D01*
X275943071Y-117743000D01*
X275800214Y-117671571D01*
X275585928Y-117671571D01*
X275443071Y-117743000D01*
X274157357Y-118600142D02*
X274300214Y-118671571D01*
X274585928Y-118671571D01*
X274728785Y-118600142D01*
X274800214Y-118457285D01*
X274800214Y-117885857D01*
X274728785Y-117743000D01*
X274585928Y-117671571D01*
X274300214Y-117671571D01*
X274157357Y-117743000D01*
X274085928Y-117885857D01*
X274085928Y-118028714D01*
X274800214Y-118171571D01*
X272800214Y-118671571D02*
X272800214Y-117171571D01*
X272800214Y-118600142D02*
X272943071Y-118671571D01*
X273228785Y-118671571D01*
X273371642Y-118600142D01*
X273443071Y-118528714D01*
X273514500Y-118385857D01*
X273514500Y-117957285D01*
X273443071Y-117814428D01*
X273371642Y-117743000D01*
X273228785Y-117671571D01*
X272943071Y-117671571D01*
X272800214Y-117743000D01*
X270728785Y-118671571D02*
X270871642Y-118600142D01*
X270943071Y-118528714D01*
X271014500Y-118385857D01*
X271014500Y-117957285D01*
X270943071Y-117814428D01*
X270871642Y-117743000D01*
X270728785Y-117671571D01*
X270514500Y-117671571D01*
X270371642Y-117743000D01*
X270300214Y-117814428D01*
X270228785Y-117957285D01*
X270228785Y-118385857D01*
X270300214Y-118528714D01*
X270371642Y-118600142D01*
X270514500Y-118671571D01*
X270728785Y-118671571D01*
X269585928Y-117671571D02*
X269585928Y-118671571D01*
X269585928Y-117814428D02*
X269514500Y-117743000D01*
X269371642Y-117671571D01*
X269157357Y-117671571D01*
X269014500Y-117743000D01*
X268943071Y-117885857D01*
X268943071Y-118671571D01*
X266443071Y-118671571D02*
X266443071Y-117885857D01*
X266514500Y-117743000D01*
X266657357Y-117671571D01*
X266943071Y-117671571D01*
X267085928Y-117743000D01*
X266443071Y-118600142D02*
X266585928Y-118671571D01*
X266943071Y-118671571D01*
X267085928Y-118600142D01*
X267157357Y-118457285D01*
X267157357Y-118314428D01*
X267085928Y-118171571D01*
X266943071Y-118100142D01*
X266585928Y-118100142D01*
X266443071Y-118028714D01*
X263943071Y-118671571D02*
X263943071Y-117171571D01*
X263943071Y-118600142D02*
X264085928Y-118671571D01*
X264371642Y-118671571D01*
X264514500Y-118600142D01*
X264585928Y-118528714D01*
X264657357Y-118385857D01*
X264657357Y-117957285D01*
X264585928Y-117814428D01*
X264514500Y-117743000D01*
X264371642Y-117671571D01*
X264085928Y-117671571D01*
X263943071Y-117743000D01*
X262657357Y-118600142D02*
X262800214Y-118671571D01*
X263085928Y-118671571D01*
X263228785Y-118600142D01*
X263300214Y-118457285D01*
X263300214Y-117885857D01*
X263228785Y-117743000D01*
X263085928Y-117671571D01*
X262800214Y-117671571D01*
X262657357Y-117743000D01*
X262585928Y-117885857D01*
X262585928Y-118028714D01*
X263300214Y-118171571D01*
X262014500Y-118600142D02*
X261871642Y-118671571D01*
X261585928Y-118671571D01*
X261443071Y-118600142D01*
X261371642Y-118457285D01*
X261371642Y-118385857D01*
X261443071Y-118243000D01*
X261585928Y-118171571D01*
X261800214Y-118171571D01*
X261943071Y-118100142D01*
X262014500Y-117957285D01*
X262014500Y-117885857D01*
X261943071Y-117743000D01*
X261800214Y-117671571D01*
X261585928Y-117671571D01*
X261443071Y-117743000D01*
X260728785Y-118671571D02*
X260728785Y-117671571D01*
X260728785Y-117171571D02*
X260800214Y-117243000D01*
X260728785Y-117314428D01*
X260657357Y-117243000D01*
X260728785Y-117171571D01*
X260728785Y-117314428D01*
X259371642Y-117671571D02*
X259371642Y-118885857D01*
X259443071Y-119028714D01*
X259514500Y-119100142D01*
X259657357Y-119171571D01*
X259871642Y-119171571D01*
X260014500Y-119100142D01*
X259371642Y-118600142D02*
X259514500Y-118671571D01*
X259800214Y-118671571D01*
X259943071Y-118600142D01*
X260014500Y-118528714D01*
X260085928Y-118385857D01*
X260085928Y-117957285D01*
X260014500Y-117814428D01*
X259943071Y-117743000D01*
X259800214Y-117671571D01*
X259514500Y-117671571D01*
X259371642Y-117743000D01*
X258657357Y-117671571D02*
X258657357Y-118671571D01*
X258657357Y-117814428D02*
X258585928Y-117743000D01*
X258443071Y-117671571D01*
X258228785Y-117671571D01*
X258085928Y-117743000D01*
X258014500Y-117885857D01*
X258014500Y-118671571D01*
X256371642Y-117671571D02*
X255800214Y-117671571D01*
X256157357Y-118671571D02*
X256157357Y-117385857D01*
X256085928Y-117243000D01*
X255943071Y-117171571D01*
X255800214Y-117171571D01*
X255300214Y-118671571D02*
X255300214Y-117671571D01*
X255300214Y-117957285D02*
X255228785Y-117814428D01*
X255157357Y-117743000D01*
X255014500Y-117671571D01*
X254871642Y-117671571D01*
X254157357Y-118671571D02*
X254300214Y-118600142D01*
X254371642Y-118528714D01*
X254443071Y-118385857D01*
X254443071Y-117957285D01*
X254371642Y-117814428D01*
X254300214Y-117743000D01*
X254157357Y-117671571D01*
X253943071Y-117671571D01*
X253800214Y-117743000D01*
X253728785Y-117814428D01*
X253657357Y-117957285D01*
X253657357Y-118385857D01*
X253728785Y-118528714D01*
X253800214Y-118600142D01*
X253943071Y-118671571D01*
X254157357Y-118671571D01*
X253014500Y-118671571D02*
X253014500Y-117671571D01*
X253014500Y-117814428D02*
X252943071Y-117743000D01*
X252800214Y-117671571D01*
X252585928Y-117671571D01*
X252443071Y-117743000D01*
X252371642Y-117885857D01*
X252371642Y-118671571D01*
X252371642Y-117885857D02*
X252300214Y-117743000D01*
X252157357Y-117671571D01*
X251943071Y-117671571D01*
X251800214Y-117743000D01*
X251728785Y-117885857D01*
X251728785Y-118671571D01*
X249871642Y-118671571D02*
X249871642Y-117171571D01*
X249728785Y-118100142D02*
X249300214Y-118671571D01*
X249300214Y-117671571D02*
X249871642Y-118243000D01*
X248085928Y-118600142D02*
X248228785Y-118671571D01*
X248514500Y-118671571D01*
X248657357Y-118600142D01*
X248728785Y-118457285D01*
X248728785Y-117885857D01*
X248657357Y-117743000D01*
X248514500Y-117671571D01*
X248228785Y-117671571D01*
X248085928Y-117743000D01*
X248014500Y-117885857D01*
X248014500Y-118028714D01*
X248728785Y-118171571D01*
X247514500Y-117671571D02*
X247157357Y-118671571D01*
X246800214Y-117671571D02*
X247157357Y-118671571D01*
X247300214Y-119028714D01*
X247371642Y-119100142D01*
X247514500Y-119171571D01*
X246228785Y-118671571D02*
X246228785Y-117171571D01*
X246228785Y-117743000D02*
X246085928Y-117671571D01*
X245800214Y-117671571D01*
X245657357Y-117743000D01*
X245585928Y-117814428D01*
X245514500Y-117957285D01*
X245514500Y-118385857D01*
X245585928Y-118528714D01*
X245657357Y-118600142D01*
X245800214Y-118671571D01*
X246085928Y-118671571D01*
X246228785Y-118600142D01*
X244657357Y-118671571D02*
X244800214Y-118600142D01*
X244871642Y-118528714D01*
X244943071Y-118385857D01*
X244943071Y-117957285D01*
X244871642Y-117814428D01*
X244800214Y-117743000D01*
X244657357Y-117671571D01*
X244443071Y-117671571D01*
X244300214Y-117743000D01*
X244228785Y-117814428D01*
X244157357Y-117957285D01*
X244157357Y-118385857D01*
X244228785Y-118528714D01*
X244300214Y-118600142D01*
X244443071Y-118671571D01*
X244657357Y-118671571D01*
X242871642Y-118671571D02*
X242871642Y-117885857D01*
X242943071Y-117743000D01*
X243085928Y-117671571D01*
X243371642Y-117671571D01*
X243514500Y-117743000D01*
X242871642Y-118600142D02*
X243014500Y-118671571D01*
X243371642Y-118671571D01*
X243514500Y-118600142D01*
X243585928Y-118457285D01*
X243585928Y-118314428D01*
X243514500Y-118171571D01*
X243371642Y-118100142D01*
X243014500Y-118100142D01*
X242871642Y-118028714D01*
X242157357Y-118671571D02*
X242157357Y-117671571D01*
X242157357Y-117957285D02*
X242085928Y-117814428D01*
X242014500Y-117743000D01*
X241871642Y-117671571D01*
X241728785Y-117671571D01*
X240585928Y-118671571D02*
X240585928Y-117171571D01*
X240585928Y-118600142D02*
X240728785Y-118671571D01*
X241014500Y-118671571D01*
X241157357Y-118600142D01*
X241228785Y-118528714D01*
X241300214Y-118385857D01*
X241300214Y-117957285D01*
X241228785Y-117814428D01*
X241157357Y-117743000D01*
X241014500Y-117671571D01*
X240728785Y-117671571D01*
X240585928Y-117743000D01*
X239943071Y-118600142D02*
X239800214Y-118671571D01*
X239514500Y-118671571D01*
X239371642Y-118600142D01*
X239300214Y-118457285D01*
X239300214Y-118385857D01*
X239371642Y-118243000D01*
X239514500Y-118171571D01*
X239728785Y-118171571D01*
X239871642Y-118100142D01*
X239943071Y-117957285D01*
X239943071Y-117885857D01*
X239871642Y-117743000D01*
X239728785Y-117671571D01*
X239514500Y-117671571D01*
X239371642Y-117743000D01*
X238657357Y-118528714D02*
X238585928Y-118600142D01*
X238657357Y-118671571D01*
X238728785Y-118600142D01*
X238657357Y-118528714D01*
X238657357Y-118671571D01*
X237371642Y-118600142D02*
X237514500Y-118671571D01*
X237800214Y-118671571D01*
X237943071Y-118600142D01*
X238014500Y-118457285D01*
X238014500Y-117885857D01*
X237943071Y-117743000D01*
X237800214Y-117671571D01*
X237514500Y-117671571D01*
X237371642Y-117743000D01*
X237300214Y-117885857D01*
X237300214Y-118028714D01*
X238014500Y-118171571D01*
X236443071Y-118671571D02*
X236585928Y-118600142D01*
X236657357Y-118457285D01*
X236657357Y-117171571D01*
X235871642Y-118671571D02*
X235871642Y-117671571D01*
X235871642Y-117814428D02*
X235800214Y-117743000D01*
X235657357Y-117671571D01*
X235443071Y-117671571D01*
X235300214Y-117743000D01*
X235228785Y-117885857D01*
X235228785Y-118671571D01*
X235228785Y-117885857D02*
X235157357Y-117743000D01*
X235014500Y-117671571D01*
X234800214Y-117671571D01*
X234657357Y-117743000D01*
X234585928Y-117885857D01*
X234585928Y-118671571D01*
X233657357Y-118671571D02*
X233800214Y-118600142D01*
X233871642Y-118528714D01*
X233943071Y-118385857D01*
X233943071Y-117957285D01*
X233871642Y-117814428D01*
X233800214Y-117743000D01*
X233657357Y-117671571D01*
X233443071Y-117671571D01*
X233300214Y-117743000D01*
X233228785Y-117814428D01*
X233157357Y-117957285D01*
X233157357Y-118385857D01*
X233228785Y-118528714D01*
X233300214Y-118600142D01*
X233443071Y-118671571D01*
X233657357Y-118671571D01*
X232514500Y-118528714D02*
X232443071Y-118600142D01*
X232514500Y-118671571D01*
X232585928Y-118600142D01*
X232514500Y-118528714D01*
X232514500Y-118671571D01*
X231871642Y-118600142D02*
X231728785Y-118671571D01*
X231443071Y-118671571D01*
X231300214Y-118600142D01*
X231228785Y-118457285D01*
X231228785Y-118385857D01*
X231300214Y-118243000D01*
X231443071Y-118171571D01*
X231657357Y-118171571D01*
X231800214Y-118100142D01*
X231871642Y-117957285D01*
X231871642Y-117885857D01*
X231800214Y-117743000D01*
X231657357Y-117671571D01*
X231443071Y-117671571D01*
X231300214Y-117743000D01*
X230585928Y-117671571D02*
X230585928Y-119171571D01*
X230585928Y-117743000D02*
X230443071Y-117671571D01*
X230157357Y-117671571D01*
X230014500Y-117743000D01*
X229943071Y-117814428D01*
X229871642Y-117957285D01*
X229871642Y-118385857D01*
X229943071Y-118528714D01*
X230014500Y-118600142D01*
X230157357Y-118671571D01*
X230443071Y-118671571D01*
X230585928Y-118600142D01*
X228585928Y-118671571D02*
X228585928Y-117885857D01*
X228657357Y-117743000D01*
X228800214Y-117671571D01*
X229085928Y-117671571D01*
X229228785Y-117743000D01*
X228585928Y-118600142D02*
X228728785Y-118671571D01*
X229085928Y-118671571D01*
X229228785Y-118600142D01*
X229300214Y-118457285D01*
X229300214Y-118314428D01*
X229228785Y-118171571D01*
X229085928Y-118100142D01*
X228728785Y-118100142D01*
X228585928Y-118028714D01*
X227228785Y-118600142D02*
X227371642Y-118671571D01*
X227657357Y-118671571D01*
X227800214Y-118600142D01*
X227871642Y-118528714D01*
X227943071Y-118385857D01*
X227943071Y-117957285D01*
X227871642Y-117814428D01*
X227800214Y-117743000D01*
X227657357Y-117671571D01*
X227371642Y-117671571D01*
X227228785Y-117743000D01*
X226014500Y-118600142D02*
X226157357Y-118671571D01*
X226443071Y-118671571D01*
X226585928Y-118600142D01*
X226657357Y-118457285D01*
X226657357Y-117885857D01*
X226585928Y-117743000D01*
X226443071Y-117671571D01*
X226157357Y-117671571D01*
X226014500Y-117743000D01*
X225943071Y-117885857D01*
X225943071Y-118028714D01*
X226657357Y-118171571D01*
D12*
G36*
X138602921Y-114226873D02*
G01*
X138542014Y-114236724D01*
X138496087Y-114260503D01*
X138447246Y-114304235D01*
X138440160Y-114311288D01*
X138386655Y-114371983D01*
X138361207Y-114428843D01*
X138353941Y-114506515D01*
X138353800Y-114526788D01*
X138374789Y-114652222D01*
X138434885Y-114748304D01*
X138529784Y-114812062D01*
X138655183Y-114840529D01*
X138796846Y-114832483D01*
X138909432Y-114790731D01*
X138989446Y-114712048D01*
X139032824Y-114601553D01*
X139039600Y-114526788D01*
X139034793Y-114441970D01*
X139013787Y-114382910D01*
X138966704Y-114324962D01*
X138953240Y-114311289D01*
X138902805Y-114264686D01*
X138857485Y-114238777D01*
X138799386Y-114227537D01*
X138710617Y-114224945D01*
X138696700Y-114224928D01*
X138602921Y-114226873D01*
G37*
X138602921Y-114226873D02*
X138542014Y-114236724D01*
X138496087Y-114260503D01*
X138447246Y-114304235D01*
X138440160Y-114311288D01*
X138386655Y-114371983D01*
X138361207Y-114428843D01*
X138353941Y-114506515D01*
X138353800Y-114526788D01*
X138374789Y-114652222D01*
X138434885Y-114748304D01*
X138529784Y-114812062D01*
X138655183Y-114840529D01*
X138796846Y-114832483D01*
X138909432Y-114790731D01*
X138989446Y-114712048D01*
X139032824Y-114601553D01*
X139039600Y-114526788D01*
X139034793Y-114441970D01*
X139013787Y-114382910D01*
X138966704Y-114324962D01*
X138953240Y-114311289D01*
X138902805Y-114264686D01*
X138857485Y-114238777D01*
X138799386Y-114227537D01*
X138710617Y-114224945D01*
X138696700Y-114224928D01*
X138602921Y-114226873D01*
G36*
X134137400Y-117069729D02*
G01*
X134747000Y-117069729D01*
X134747000Y-114224929D01*
X134137400Y-114224929D01*
X134137400Y-117069729D01*
G37*
X134137400Y-117069729D02*
X134747000Y-117069729D01*
X134747000Y-114224929D01*
X134137400Y-114224929D01*
X134137400Y-117069729D01*
G36*
X138404600Y-117069729D02*
G01*
X139014200Y-117069729D01*
X139014200Y-115139329D01*
X138404600Y-115139329D01*
X138404600Y-117069729D01*
G37*
X138404600Y-117069729D02*
X139014200Y-117069729D01*
X139014200Y-115139329D01*
X138404600Y-115139329D01*
X138404600Y-117069729D01*
G36*
X141658806Y-114459879D02*
G01*
X141638360Y-114525770D01*
X141606846Y-114629626D01*
X141566275Y-114764640D01*
X141518660Y-114924003D01*
X141466013Y-115100908D01*
X141410345Y-115288548D01*
X141353669Y-115480115D01*
X141297996Y-115668802D01*
X141245340Y-115847802D01*
X141197711Y-116010306D01*
X141157122Y-116149508D01*
X141125586Y-116258599D01*
X141105113Y-116330773D01*
X141098322Y-116356187D01*
X141083899Y-116404894D01*
X141075571Y-116405324D01*
X141074152Y-116391451D01*
X141066724Y-116358347D01*
X141046583Y-116282974D01*
X141015597Y-116171726D01*
X140975634Y-116030998D01*
X140928562Y-115867183D01*
X140876249Y-115686675D01*
X140820563Y-115495868D01*
X140763372Y-115301156D01*
X140706545Y-115108932D01*
X140651950Y-114925590D01*
X140601454Y-114757525D01*
X140556925Y-114611131D01*
X140520233Y-114492800D01*
X140509805Y-114459879D01*
X140483461Y-114377329D01*
X140152513Y-114377329D01*
X140011696Y-114378463D01*
X139915714Y-114382259D01*
X139858642Y-114389307D01*
X139834557Y-114400195D01*
X139833571Y-114409079D01*
X139843898Y-114438456D01*
X139869222Y-114511376D01*
X139907993Y-114623352D01*
X139958662Y-114769897D01*
X140019678Y-114946524D01*
X140089491Y-115148746D01*
X140166551Y-115372077D01*
X140249307Y-115612031D01*
X140298693Y-115755279D01*
X140751809Y-117069729D01*
X141448062Y-117069729D01*
X141523915Y-116847479D01*
X141547869Y-116777224D01*
X141586131Y-116664911D01*
X141636649Y-116516572D01*
X141697368Y-116338240D01*
X141766234Y-116135948D01*
X141841193Y-115915731D01*
X141920191Y-115683621D01*
X141982243Y-115501279D01*
X142364718Y-114377329D01*
X141685140Y-114377329D01*
X141658806Y-114459879D01*
G37*
X141658806Y-114459879D02*
X141638360Y-114525770D01*
X141606846Y-114629626D01*
X141566275Y-114764640D01*
X141518660Y-114924003D01*
X141466013Y-115100908D01*
X141410345Y-115288548D01*
X141353669Y-115480115D01*
X141297996Y-115668802D01*
X141245340Y-115847802D01*
X141197711Y-116010306D01*
X141157122Y-116149508D01*
X141125586Y-116258599D01*
X141105113Y-116330773D01*
X141098322Y-116356187D01*
X141083899Y-116404894D01*
X141075571Y-116405324D01*
X141074152Y-116391451D01*
X141066724Y-116358347D01*
X141046583Y-116282974D01*
X141015597Y-116171726D01*
X140975634Y-116030998D01*
X140928562Y-115867183D01*
X140876249Y-115686675D01*
X140820563Y-115495868D01*
X140763372Y-115301156D01*
X140706545Y-115108932D01*
X140651950Y-114925590D01*
X140601454Y-114757525D01*
X140556925Y-114611131D01*
X140520233Y-114492800D01*
X140509805Y-114459879D01*
X140483461Y-114377329D01*
X140152513Y-114377329D01*
X140011696Y-114378463D01*
X139915714Y-114382259D01*
X139858642Y-114389307D01*
X139834557Y-114400195D01*
X139833571Y-114409079D01*
X139843898Y-114438456D01*
X139869222Y-114511376D01*
X139907993Y-114623352D01*
X139958662Y-114769897D01*
X140019678Y-114946524D01*
X140089491Y-115148746D01*
X140166551Y-115372077D01*
X140249307Y-115612031D01*
X140298693Y-115755279D01*
X140751809Y-117069729D01*
X141448062Y-117069729D01*
X141523915Y-116847479D01*
X141547869Y-116777224D01*
X141586131Y-116664911D01*
X141636649Y-116516572D01*
X141697368Y-116338240D01*
X141766234Y-116135948D01*
X141841193Y-115915731D01*
X141920191Y-115683621D01*
X141982243Y-115501279D01*
X142364718Y-114377329D01*
X141685140Y-114377329D01*
X141658806Y-114459879D01*
G36*
X136447033Y-115102136D02*
G01*
X136345367Y-115104138D01*
X136272505Y-115109862D01*
X136217451Y-115121031D01*
X136169206Y-115139371D01*
X136116773Y-115166606D01*
X136093200Y-115179794D01*
X135955132Y-115285880D01*
X135850804Y-115428659D01*
X135782086Y-115605264D01*
X135765396Y-115682377D01*
X135757453Y-115753685D01*
X135750395Y-115866262D01*
X135744564Y-116010578D01*
X135740302Y-116177105D01*
X135737953Y-116356313D01*
X135737600Y-116455859D01*
X135737600Y-117069729D01*
X136321800Y-117069729D01*
X136321800Y-116830819D01*
X136417050Y-116923633D01*
X136519117Y-117007598D01*
X136627491Y-117060731D01*
X136756665Y-117088165D01*
X136901190Y-117095129D01*
X137019652Y-117091533D01*
X137106579Y-117078360D01*
X137180881Y-117052025D01*
X137213155Y-117036028D01*
X137297724Y-116977121D01*
X137377450Y-116899193D01*
X137400888Y-116869328D01*
X137443115Y-116801323D01*
X137467997Y-116734155D01*
X137481198Y-116648257D01*
X137486107Y-116574947D01*
X137484319Y-116474399D01*
X136921747Y-116474399D01*
X136896018Y-116557031D01*
X136852791Y-116622098D01*
X136832820Y-116637758D01*
X136754235Y-116661036D01*
X136654216Y-116661884D01*
X136555878Y-116642281D01*
X136487135Y-116608175D01*
X136412751Y-116523858D01*
X136355467Y-116410369D01*
X136324936Y-116288789D01*
X136322358Y-116248346D01*
X136321800Y-116150863D01*
X136429750Y-116167221D01*
X136598211Y-116195742D01*
X136722965Y-116225120D01*
X136811049Y-116258655D01*
X136869496Y-116299648D01*
X136905342Y-116351400D01*
X136921270Y-116397825D01*
X136921747Y-116474399D01*
X137484319Y-116474399D01*
X137482951Y-116397528D01*
X137451588Y-116250385D01*
X137388514Y-116130243D01*
X137290225Y-116033821D01*
X137153215Y-115957842D01*
X136973981Y-115899028D01*
X136749017Y-115854100D01*
X136709026Y-115848051D01*
X136584181Y-115830184D01*
X136476035Y-115815326D01*
X136395337Y-115804912D01*
X136352835Y-115800375D01*
X136350797Y-115800293D01*
X136327016Y-115781957D01*
X136330701Y-115736447D01*
X136357386Y-115676097D01*
X136402601Y-115613237D01*
X136427988Y-115587248D01*
X136468646Y-115552208D01*
X136506242Y-115531381D01*
X136554518Y-115521901D01*
X136627214Y-115520902D01*
X136726593Y-115524967D01*
X136847673Y-115533671D01*
X136940543Y-115549947D01*
X137027759Y-115579511D01*
X137130205Y-115627244D01*
X137314186Y-115719021D01*
X137299700Y-115228229D01*
X137121900Y-115165632D01*
X137042243Y-115139683D01*
X136968252Y-115121921D01*
X136887053Y-115110812D01*
X136785769Y-115104824D01*
X136651525Y-115102424D01*
X136588500Y-115102132D01*
X136447033Y-115102136D01*
G37*
X136447033Y-115102136D02*
X136345367Y-115104138D01*
X136272505Y-115109862D01*
X136217451Y-115121031D01*
X136169206Y-115139371D01*
X136116773Y-115166606D01*
X136093200Y-115179794D01*
X135955132Y-115285880D01*
X135850804Y-115428659D01*
X135782086Y-115605264D01*
X135765396Y-115682377D01*
X135757453Y-115753685D01*
X135750395Y-115866262D01*
X135744564Y-116010578D01*
X135740302Y-116177105D01*
X135737953Y-116356313D01*
X135737600Y-116455859D01*
X135737600Y-117069729D01*
X136321800Y-117069729D01*
X136321800Y-116830819D01*
X136417050Y-116923633D01*
X136519117Y-117007598D01*
X136627491Y-117060731D01*
X136756665Y-117088165D01*
X136901190Y-117095129D01*
X137019652Y-117091533D01*
X137106579Y-117078360D01*
X137180881Y-117052025D01*
X137213155Y-117036028D01*
X137297724Y-116977121D01*
X137377450Y-116899193D01*
X137400888Y-116869328D01*
X137443115Y-116801323D01*
X137467997Y-116734155D01*
X137481198Y-116648257D01*
X137486107Y-116574947D01*
X137484319Y-116474399D01*
X136921747Y-116474399D01*
X136896018Y-116557031D01*
X136852791Y-116622098D01*
X136832820Y-116637758D01*
X136754235Y-116661036D01*
X136654216Y-116661884D01*
X136555878Y-116642281D01*
X136487135Y-116608175D01*
X136412751Y-116523858D01*
X136355467Y-116410369D01*
X136324936Y-116288789D01*
X136322358Y-116248346D01*
X136321800Y-116150863D01*
X136429750Y-116167221D01*
X136598211Y-116195742D01*
X136722965Y-116225120D01*
X136811049Y-116258655D01*
X136869496Y-116299648D01*
X136905342Y-116351400D01*
X136921270Y-116397825D01*
X136921747Y-116474399D01*
X137484319Y-116474399D01*
X137482951Y-116397528D01*
X137451588Y-116250385D01*
X137388514Y-116130243D01*
X137290225Y-116033821D01*
X137153215Y-115957842D01*
X136973981Y-115899028D01*
X136749017Y-115854100D01*
X136709026Y-115848051D01*
X136584181Y-115830184D01*
X136476035Y-115815326D01*
X136395337Y-115804912D01*
X136352835Y-115800375D01*
X136350797Y-115800293D01*
X136327016Y-115781957D01*
X136330701Y-115736447D01*
X136357386Y-115676097D01*
X136402601Y-115613237D01*
X136427988Y-115587248D01*
X136468646Y-115552208D01*
X136506242Y-115531381D01*
X136554518Y-115521901D01*
X136627214Y-115520902D01*
X136726593Y-115524967D01*
X136847673Y-115533671D01*
X136940543Y-115549947D01*
X137027759Y-115579511D01*
X137130205Y-115627244D01*
X137314186Y-115719021D01*
X137299700Y-115228229D01*
X137121900Y-115165632D01*
X137042243Y-115139683D01*
X136968252Y-115121921D01*
X136887053Y-115110812D01*
X136785769Y-115104824D01*
X136651525Y-115102424D01*
X136588500Y-115102132D01*
X136447033Y-115102136D01*
G36*
X144348200Y-113310529D02*
G01*
X144780000Y-113310529D01*
X144780000Y-114097929D01*
X144779305Y-114295465D01*
X144777329Y-114474020D01*
X144774240Y-114627721D01*
X144770205Y-114750694D01*
X144765393Y-114837067D01*
X144759969Y-114880968D01*
X144757563Y-114885328D01*
X144731519Y-114905946D01*
X144719759Y-114929778D01*
X144694692Y-114982861D01*
X144659646Y-115041332D01*
X144623763Y-115096691D01*
X144572273Y-115177968D01*
X144516169Y-115267807D01*
X144514852Y-115269932D01*
X144464715Y-115349571D01*
X144424486Y-115411097D01*
X144401893Y-115442732D01*
X144400552Y-115444129D01*
X144372947Y-115479468D01*
X144336893Y-115536956D01*
X144306861Y-115593402D01*
X144305442Y-115596529D01*
X144281350Y-115637502D01*
X144272228Y-115647329D01*
X144253554Y-115672899D01*
X144214624Y-115733180D01*
X144161108Y-115819193D01*
X144098678Y-115921963D01*
X144097959Y-115923159D01*
X144033081Y-116029162D01*
X143974441Y-116121377D01*
X143928619Y-116189680D01*
X143902735Y-116223423D01*
X143871753Y-116270747D01*
X143865600Y-116296843D01*
X143851559Y-116329467D01*
X143840684Y-116333129D01*
X143816609Y-116354680D01*
X143799831Y-116396629D01*
X143782212Y-116444115D01*
X143767023Y-116460129D01*
X143745481Y-116480312D01*
X143712575Y-116530589D01*
X143702277Y-116549029D01*
X143666687Y-116605408D01*
X143637161Y-116636068D01*
X143631502Y-116637929D01*
X143618769Y-116653005D01*
X143621355Y-116658563D01*
X143614750Y-116689223D01*
X143582287Y-116739002D01*
X143572054Y-116751414D01*
X143531134Y-116807567D01*
X143510572Y-116852488D01*
X143510000Y-116857779D01*
X143495205Y-116888967D01*
X143485084Y-116891929D01*
X143461009Y-116913480D01*
X143444231Y-116955429D01*
X143426612Y-117002915D01*
X143411423Y-117018929D01*
X143389881Y-117039112D01*
X143356975Y-117089389D01*
X143346677Y-117107829D01*
X143311735Y-117164148D01*
X143283726Y-117194835D01*
X143278552Y-117196729D01*
X143261046Y-117218906D01*
X143244092Y-117273488D01*
X143241625Y-117285629D01*
X143224995Y-117344235D01*
X143205599Y-117373703D01*
X143202374Y-117374529D01*
X143192433Y-117398034D01*
X143184726Y-117460996D01*
X143180372Y-117552083D01*
X143179800Y-117603129D01*
X143182086Y-117703795D01*
X143188207Y-117781845D01*
X143197063Y-117825945D01*
X143202025Y-117831729D01*
X143221870Y-117853699D01*
X143239257Y-117906824D01*
X143239785Y-117909403D01*
X143263970Y-117980053D01*
X143295272Y-118030053D01*
X143406621Y-118146451D01*
X143491943Y-118227369D01*
X143556481Y-118277359D01*
X143605479Y-118300975D01*
X143608066Y-118301659D01*
X143664551Y-118324499D01*
X143692959Y-118348092D01*
X143710267Y-118354282D01*
X143755705Y-118359694D01*
X143831764Y-118364372D01*
X143940932Y-118368363D01*
X144085700Y-118371712D01*
X144268558Y-118374464D01*
X144491994Y-118376664D01*
X144758500Y-118378358D01*
X145070564Y-118379590D01*
X145430677Y-118380408D01*
X145471213Y-118380471D01*
X145768227Y-118380765D01*
X146052213Y-118380753D01*
X146318785Y-118380454D01*
X146563557Y-118379886D01*
X146782145Y-118379068D01*
X146970163Y-118378019D01*
X147123226Y-118376756D01*
X147236949Y-118375299D01*
X147306945Y-118373667D01*
X147326350Y-118372588D01*
X147387583Y-118360848D01*
X147420036Y-118344932D01*
X147421600Y-118340949D01*
X147443159Y-118319932D01*
X147487275Y-118303352D01*
X147576300Y-118261976D01*
X147670936Y-118187456D01*
X147761103Y-118091815D01*
X147836719Y-117987076D01*
X147887705Y-117885262D01*
X147904200Y-117806091D01*
X147913783Y-117770183D01*
X147929600Y-117768229D01*
X147944071Y-117754315D01*
X147952758Y-117694655D01*
X147955000Y-117617328D01*
X147951441Y-117530462D01*
X147941997Y-117470923D01*
X147929600Y-117450729D01*
X147907729Y-117429888D01*
X147904200Y-117408463D01*
X147894853Y-117360316D01*
X147871885Y-117295274D01*
X147842907Y-117230735D01*
X147815530Y-117184097D01*
X147800466Y-117171329D01*
X147781795Y-117149861D01*
X147766770Y-117107829D01*
X147746374Y-117060257D01*
X147725917Y-117044329D01*
X147703515Y-117023880D01*
X147701000Y-117008043D01*
X147684277Y-116960655D01*
X147665192Y-116935949D01*
X147633290Y-116895806D01*
X147586857Y-116827983D01*
X147545544Y-116762684D01*
X147498948Y-116689883D01*
X147460935Y-116636921D01*
X147441652Y-116616762D01*
X147422783Y-116587533D01*
X147421600Y-116576198D01*
X147406113Y-116535322D01*
X147388814Y-116510929D01*
X147040600Y-116510929D01*
X147020183Y-116533813D01*
X147004617Y-116536329D01*
X146966644Y-116547964D01*
X146960167Y-116555813D01*
X146934398Y-116585566D01*
X146882032Y-116631725D01*
X146817136Y-116683369D01*
X146753777Y-116729574D01*
X146706022Y-116759418D01*
X146690851Y-116764929D01*
X146657973Y-116779683D01*
X146655367Y-116783979D01*
X146621933Y-116815800D01*
X146559207Y-116850566D01*
X146487209Y-116879007D01*
X146425957Y-116891852D01*
X146422231Y-116891929D01*
X146367493Y-116900954D01*
X146342100Y-116917329D01*
X146310557Y-116930054D01*
X146242791Y-116939167D01*
X146153349Y-116942727D01*
X146151600Y-116942729D01*
X146061897Y-116939288D01*
X145993603Y-116930259D01*
X145961266Y-116917582D01*
X145961100Y-116917329D01*
X145927797Y-116901093D01*
X145864626Y-116892393D01*
X145845301Y-116891929D01*
X145782235Y-116886216D01*
X145747529Y-116871971D01*
X145745200Y-116866529D01*
X145731017Y-116845157D01*
X145726150Y-116845404D01*
X145682379Y-116844289D01*
X145620645Y-116831886D01*
X145560589Y-116813623D01*
X145521854Y-116794925D01*
X145516600Y-116787502D01*
X145495382Y-116768932D01*
X145467615Y-116764929D01*
X145409379Y-116747657D01*
X145380529Y-116726829D01*
X145338514Y-116695655D01*
X145317029Y-116688729D01*
X145278442Y-116672942D01*
X145258065Y-116656934D01*
X145195018Y-116606949D01*
X145111036Y-116552165D01*
X145025186Y-116503982D01*
X144956537Y-116473798D01*
X144947156Y-116471075D01*
X144898685Y-116452549D01*
X144881600Y-116435260D01*
X144858347Y-116423041D01*
X144796387Y-116407311D01*
X144707424Y-116390851D01*
X144672050Y-116385430D01*
X144554953Y-116368746D01*
X144474321Y-116359086D01*
X144416374Y-116355993D01*
X144367329Y-116359016D01*
X144313407Y-116367699D01*
X144286917Y-116372745D01*
X144187534Y-116391917D01*
X144325017Y-116191073D01*
X144385883Y-116103154D01*
X144436480Y-116031918D01*
X144469712Y-115987264D01*
X144478127Y-115977529D01*
X144497269Y-115945583D01*
X144511589Y-115907679D01*
X144531995Y-115863445D01*
X144547336Y-115850529D01*
X144569553Y-115830326D01*
X144602840Y-115780006D01*
X144613124Y-115761629D01*
X144646930Y-115705416D01*
X144672284Y-115674681D01*
X144676581Y-115672729D01*
X144696532Y-115652394D01*
X144730611Y-115600345D01*
X144754600Y-115558429D01*
X144793583Y-115493463D01*
X144825143Y-115452055D01*
X144836620Y-115444129D01*
X144855921Y-115424966D01*
X144856200Y-115421089D01*
X144869177Y-115391517D01*
X144903013Y-115332041D01*
X144950065Y-115254807D01*
X145002689Y-115171964D01*
X145053244Y-115095657D01*
X145094087Y-115038035D01*
X145108719Y-115019751D01*
X145117256Y-114983801D01*
X145124188Y-114897622D01*
X145129498Y-114761756D01*
X145133169Y-114576750D01*
X145135184Y-114343146D01*
X145135600Y-114149801D01*
X145135600Y-113310529D01*
X145973800Y-113310529D01*
X145973800Y-114145303D01*
X145973931Y-114373825D01*
X145974532Y-114557071D01*
X145975913Y-114700564D01*
X145978389Y-114809829D01*
X145982269Y-114890389D01*
X145987868Y-114947767D01*
X145995496Y-114987489D01*
X146005465Y-115015076D01*
X146018088Y-115036053D01*
X146024600Y-115044659D01*
X146059744Y-115093842D01*
X146075353Y-115124600D01*
X146075400Y-115125357D01*
X146087034Y-115151703D01*
X146125601Y-115201269D01*
X146170650Y-115252696D01*
X146197811Y-115295123D01*
X146202400Y-115313198D01*
X146218158Y-115344921D01*
X146221450Y-115346762D01*
X146250221Y-115374026D01*
X146290144Y-115426454D01*
X146328408Y-115485233D01*
X146352203Y-115531550D01*
X146354800Y-115542583D01*
X146371009Y-115573827D01*
X146373850Y-115575362D01*
X146403278Y-115603162D01*
X146443463Y-115656311D01*
X146481605Y-115715809D01*
X146504902Y-115762654D01*
X146507200Y-115773300D01*
X146521354Y-115798874D01*
X146526250Y-115799778D01*
X146549166Y-115819326D01*
X146589996Y-115870237D01*
X146634200Y-115933122D01*
X146686288Y-116009064D01*
X146731191Y-116070792D01*
X146754850Y-116099987D01*
X146782068Y-116137913D01*
X146786600Y-116152353D01*
X146802254Y-116182587D01*
X146838390Y-116226739D01*
X146870250Y-116265413D01*
X146875902Y-116282301D01*
X146875462Y-116282329D01*
X146881015Y-116298446D01*
X146913103Y-116338496D01*
X146925273Y-116351919D01*
X146967783Y-116405742D01*
X146989190Y-116448467D01*
X146989800Y-116453519D01*
X147005734Y-116483210D01*
X147015200Y-116485529D01*
X147039862Y-116504857D01*
X147040600Y-116510929D01*
X147388814Y-116510929D01*
X147370800Y-116485529D01*
X147334303Y-116432971D01*
X147320000Y-116392742D01*
X147308190Y-116361472D01*
X147300162Y-116358529D01*
X147279515Y-116338166D01*
X147239536Y-116283212D01*
X147186638Y-116202868D01*
X147145255Y-116136279D01*
X147062281Y-116000797D01*
X146976053Y-115861825D01*
X146891379Y-115726919D01*
X146813065Y-115603637D01*
X146745919Y-115499535D01*
X146694746Y-115422173D01*
X146664355Y-115379106D01*
X146661262Y-115375351D01*
X146637274Y-115340621D01*
X146634200Y-115330681D01*
X146620521Y-115303821D01*
X146585536Y-115250460D01*
X146558000Y-115211498D01*
X146514096Y-115144972D01*
X146486557Y-115091862D01*
X146481800Y-115074134D01*
X146468494Y-115038281D01*
X146461669Y-115033495D01*
X146436952Y-115008222D01*
X146399331Y-114955151D01*
X146385469Y-114933130D01*
X146369542Y-114905402D01*
X146356956Y-114876327D01*
X146347318Y-114839897D01*
X146340237Y-114790104D01*
X146335317Y-114720940D01*
X146332167Y-114626396D01*
X146330394Y-114500465D01*
X146329604Y-114337137D01*
X146329404Y-114130404D01*
X146329400Y-114075880D01*
X146329400Y-113310529D01*
X146788655Y-113310529D01*
X146781278Y-113100979D01*
X146773900Y-112891429D01*
X145561050Y-112884832D01*
X144348200Y-112878236D01*
X144348200Y-113310529D01*
G37*
X144348200Y-113310529D02*
X144780000Y-113310529D01*
X144780000Y-114097929D01*
X144779305Y-114295465D01*
X144777329Y-114474020D01*
X144774240Y-114627721D01*
X144770205Y-114750694D01*
X144765393Y-114837067D01*
X144759969Y-114880968D01*
X144757563Y-114885328D01*
X144731519Y-114905946D01*
X144719759Y-114929778D01*
X144694692Y-114982861D01*
X144659646Y-115041332D01*
X144623763Y-115096691D01*
X144572273Y-115177968D01*
X144516169Y-115267807D01*
X144514852Y-115269932D01*
X144464715Y-115349571D01*
X144424486Y-115411097D01*
X144401893Y-115442732D01*
X144400552Y-115444129D01*
X144372947Y-115479468D01*
X144336893Y-115536956D01*
X144306861Y-115593402D01*
X144305442Y-115596529D01*
X144281350Y-115637502D01*
X144272228Y-115647329D01*
X144253554Y-115672899D01*
X144214624Y-115733180D01*
X144161108Y-115819193D01*
X144098678Y-115921963D01*
X144097959Y-115923159D01*
X144033081Y-116029162D01*
X143974441Y-116121377D01*
X143928619Y-116189680D01*
X143902735Y-116223423D01*
X143871753Y-116270747D01*
X143865600Y-116296843D01*
X143851559Y-116329467D01*
X143840684Y-116333129D01*
X143816609Y-116354680D01*
X143799831Y-116396629D01*
X143782212Y-116444115D01*
X143767023Y-116460129D01*
X143745481Y-116480312D01*
X143712575Y-116530589D01*
X143702277Y-116549029D01*
X143666687Y-116605408D01*
X143637161Y-116636068D01*
X143631502Y-116637929D01*
X143618769Y-116653005D01*
X143621355Y-116658563D01*
X143614750Y-116689223D01*
X143582287Y-116739002D01*
X143572054Y-116751414D01*
X143531134Y-116807567D01*
X143510572Y-116852488D01*
X143510000Y-116857779D01*
X143495205Y-116888967D01*
X143485084Y-116891929D01*
X143461009Y-116913480D01*
X143444231Y-116955429D01*
X143426612Y-117002915D01*
X143411423Y-117018929D01*
X143389881Y-117039112D01*
X143356975Y-117089389D01*
X143346677Y-117107829D01*
X143311735Y-117164148D01*
X143283726Y-117194835D01*
X143278552Y-117196729D01*
X143261046Y-117218906D01*
X143244092Y-117273488D01*
X143241625Y-117285629D01*
X143224995Y-117344235D01*
X143205599Y-117373703D01*
X143202374Y-117374529D01*
X143192433Y-117398034D01*
X143184726Y-117460996D01*
X143180372Y-117552083D01*
X143179800Y-117603129D01*
X143182086Y-117703795D01*
X143188207Y-117781845D01*
X143197063Y-117825945D01*
X143202025Y-117831729D01*
X143221870Y-117853699D01*
X143239257Y-117906824D01*
X143239785Y-117909403D01*
X143263970Y-117980053D01*
X143295272Y-118030053D01*
X143406621Y-118146451D01*
X143491943Y-118227369D01*
X143556481Y-118277359D01*
X143605479Y-118300975D01*
X143608066Y-118301659D01*
X143664551Y-118324499D01*
X143692959Y-118348092D01*
X143710267Y-118354282D01*
X143755705Y-118359694D01*
X143831764Y-118364372D01*
X143940932Y-118368363D01*
X144085700Y-118371712D01*
X144268558Y-118374464D01*
X144491994Y-118376664D01*
X144758500Y-118378358D01*
X145070564Y-118379590D01*
X145430677Y-118380408D01*
X145471213Y-118380471D01*
X145768227Y-118380765D01*
X146052213Y-118380753D01*
X146318785Y-118380454D01*
X146563557Y-118379886D01*
X146782145Y-118379068D01*
X146970163Y-118378019D01*
X147123226Y-118376756D01*
X147236949Y-118375299D01*
X147306945Y-118373667D01*
X147326350Y-118372588D01*
X147387583Y-118360848D01*
X147420036Y-118344932D01*
X147421600Y-118340949D01*
X147443159Y-118319932D01*
X147487275Y-118303352D01*
X147576300Y-118261976D01*
X147670936Y-118187456D01*
X147761103Y-118091815D01*
X147836719Y-117987076D01*
X147887705Y-117885262D01*
X147904200Y-117806091D01*
X147913783Y-117770183D01*
X147929600Y-117768229D01*
X147944071Y-117754315D01*
X147952758Y-117694655D01*
X147955000Y-117617328D01*
X147951441Y-117530462D01*
X147941997Y-117470923D01*
X147929600Y-117450729D01*
X147907729Y-117429888D01*
X147904200Y-117408463D01*
X147894853Y-117360316D01*
X147871885Y-117295274D01*
X147842907Y-117230735D01*
X147815530Y-117184097D01*
X147800466Y-117171329D01*
X147781795Y-117149861D01*
X147766770Y-117107829D01*
X147746374Y-117060257D01*
X147725917Y-117044329D01*
X147703515Y-117023880D01*
X147701000Y-117008043D01*
X147684277Y-116960655D01*
X147665192Y-116935949D01*
X147633290Y-116895806D01*
X147586857Y-116827983D01*
X147545544Y-116762684D01*
X147498948Y-116689883D01*
X147460935Y-116636921D01*
X147441652Y-116616762D01*
X147422783Y-116587533D01*
X147421600Y-116576198D01*
X147406113Y-116535322D01*
X147388814Y-116510929D01*
X147040600Y-116510929D01*
X147020183Y-116533813D01*
X147004617Y-116536329D01*
X146966644Y-116547964D01*
X146960167Y-116555813D01*
X146934398Y-116585566D01*
X146882032Y-116631725D01*
X146817136Y-116683369D01*
X146753777Y-116729574D01*
X146706022Y-116759418D01*
X146690851Y-116764929D01*
X146657973Y-116779683D01*
X146655367Y-116783979D01*
X146621933Y-116815800D01*
X146559207Y-116850566D01*
X146487209Y-116879007D01*
X146425957Y-116891852D01*
X146422231Y-116891929D01*
X146367493Y-116900954D01*
X146342100Y-116917329D01*
X146310557Y-116930054D01*
X146242791Y-116939167D01*
X146153349Y-116942727D01*
X146151600Y-116942729D01*
X146061897Y-116939288D01*
X145993603Y-116930259D01*
X145961266Y-116917582D01*
X145961100Y-116917329D01*
X145927797Y-116901093D01*
X145864626Y-116892393D01*
X145845301Y-116891929D01*
X145782235Y-116886216D01*
X145747529Y-116871971D01*
X145745200Y-116866529D01*
X145731017Y-116845157D01*
X145726150Y-116845404D01*
X145682379Y-116844289D01*
X145620645Y-116831886D01*
X145560589Y-116813623D01*
X145521854Y-116794925D01*
X145516600Y-116787502D01*
X145495382Y-116768932D01*
X145467615Y-116764929D01*
X145409379Y-116747657D01*
X145380529Y-116726829D01*
X145338514Y-116695655D01*
X145317029Y-116688729D01*
X145278442Y-116672942D01*
X145258065Y-116656934D01*
X145195018Y-116606949D01*
X145111036Y-116552165D01*
X145025186Y-116503982D01*
X144956537Y-116473798D01*
X144947156Y-116471075D01*
X144898685Y-116452549D01*
X144881600Y-116435260D01*
X144858347Y-116423041D01*
X144796387Y-116407311D01*
X144707424Y-116390851D01*
X144672050Y-116385430D01*
X144554953Y-116368746D01*
X144474321Y-116359086D01*
X144416374Y-116355993D01*
X144367329Y-116359016D01*
X144313407Y-116367699D01*
X144286917Y-116372745D01*
X144187534Y-116391917D01*
X144325017Y-116191073D01*
X144385883Y-116103154D01*
X144436480Y-116031918D01*
X144469712Y-115987264D01*
X144478127Y-115977529D01*
X144497269Y-115945583D01*
X144511589Y-115907679D01*
X144531995Y-115863445D01*
X144547336Y-115850529D01*
X144569553Y-115830326D01*
X144602840Y-115780006D01*
X144613124Y-115761629D01*
X144646930Y-115705416D01*
X144672284Y-115674681D01*
X144676581Y-115672729D01*
X144696532Y-115652394D01*
X144730611Y-115600345D01*
X144754600Y-115558429D01*
X144793583Y-115493463D01*
X144825143Y-115452055D01*
X144836620Y-115444129D01*
X144855921Y-115424966D01*
X144856200Y-115421089D01*
X144869177Y-115391517D01*
X144903013Y-115332041D01*
X144950065Y-115254807D01*
X145002689Y-115171964D01*
X145053244Y-115095657D01*
X145094087Y-115038035D01*
X145108719Y-115019751D01*
X145117256Y-114983801D01*
X145124188Y-114897622D01*
X145129498Y-114761756D01*
X145133169Y-114576750D01*
X145135184Y-114343146D01*
X145135600Y-114149801D01*
X145135600Y-113310529D01*
X145973800Y-113310529D01*
X145973800Y-114145303D01*
X145973931Y-114373825D01*
X145974532Y-114557071D01*
X145975913Y-114700564D01*
X145978389Y-114809829D01*
X145982269Y-114890389D01*
X145987868Y-114947767D01*
X145995496Y-114987489D01*
X146005465Y-115015076D01*
X146018088Y-115036053D01*
X146024600Y-115044659D01*
X146059744Y-115093842D01*
X146075353Y-115124600D01*
X146075400Y-115125357D01*
X146087034Y-115151703D01*
X146125601Y-115201269D01*
X146170650Y-115252696D01*
X146197811Y-115295123D01*
X146202400Y-115313198D01*
X146218158Y-115344921D01*
X146221450Y-115346762D01*
X146250221Y-115374026D01*
X146290144Y-115426454D01*
X146328408Y-115485233D01*
X146352203Y-115531550D01*
X146354800Y-115542583D01*
X146371009Y-115573827D01*
X146373850Y-115575362D01*
X146403278Y-115603162D01*
X146443463Y-115656311D01*
X146481605Y-115715809D01*
X146504902Y-115762654D01*
X146507200Y-115773300D01*
X146521354Y-115798874D01*
X146526250Y-115799778D01*
X146549166Y-115819326D01*
X146589996Y-115870237D01*
X146634200Y-115933122D01*
X146686288Y-116009064D01*
X146731191Y-116070792D01*
X146754850Y-116099987D01*
X146782068Y-116137913D01*
X146786600Y-116152353D01*
X146802254Y-116182587D01*
X146838390Y-116226739D01*
X146870250Y-116265413D01*
X146875902Y-116282301D01*
X146875462Y-116282329D01*
X146881015Y-116298446D01*
X146913103Y-116338496D01*
X146925273Y-116351919D01*
X146967783Y-116405742D01*
X146989190Y-116448467D01*
X146989800Y-116453519D01*
X147005734Y-116483210D01*
X147015200Y-116485529D01*
X147039862Y-116504857D01*
X147040600Y-116510929D01*
X147388814Y-116510929D01*
X147370800Y-116485529D01*
X147334303Y-116432971D01*
X147320000Y-116392742D01*
X147308190Y-116361472D01*
X147300162Y-116358529D01*
X147279515Y-116338166D01*
X147239536Y-116283212D01*
X147186638Y-116202868D01*
X147145255Y-116136279D01*
X147062281Y-116000797D01*
X146976053Y-115861825D01*
X146891379Y-115726919D01*
X146813065Y-115603637D01*
X146745919Y-115499535D01*
X146694746Y-115422173D01*
X146664355Y-115379106D01*
X146661262Y-115375351D01*
X146637274Y-115340621D01*
X146634200Y-115330681D01*
X146620521Y-115303821D01*
X146585536Y-115250460D01*
X146558000Y-115211498D01*
X146514096Y-115144972D01*
X146486557Y-115091862D01*
X146481800Y-115074134D01*
X146468494Y-115038281D01*
X146461669Y-115033495D01*
X146436952Y-115008222D01*
X146399331Y-114955151D01*
X146385469Y-114933130D01*
X146369542Y-114905402D01*
X146356956Y-114876327D01*
X146347318Y-114839897D01*
X146340237Y-114790104D01*
X146335317Y-114720940D01*
X146332167Y-114626396D01*
X146330394Y-114500465D01*
X146329604Y-114337137D01*
X146329404Y-114130404D01*
X146329400Y-114075880D01*
X146329400Y-113310529D01*
X146788655Y-113310529D01*
X146781278Y-113100979D01*
X146773900Y-112891429D01*
X145561050Y-112884832D01*
X144348200Y-112878236D01*
X144348200Y-113310529D01*
G36*
X94577405Y-114280298D02*
G01*
X94507949Y-114313712D01*
X94481650Y-114364552D01*
X94501728Y-114409023D01*
X94558652Y-114494639D01*
X94647463Y-114614753D01*
X94763199Y-114762715D01*
X94900901Y-114931877D01*
X94940012Y-114978898D01*
X95398374Y-115527570D01*
X94906634Y-116185421D01*
X94774151Y-116365087D01*
X94655943Y-116530067D01*
X94556985Y-116673034D01*
X94482252Y-116786658D01*
X94436719Y-116863614D01*
X94424758Y-116895199D01*
X94460107Y-116929920D01*
X94536354Y-116952143D01*
X94631865Y-116960434D01*
X94725007Y-116953357D01*
X94794149Y-116929477D01*
X94805411Y-116920454D01*
X94836387Y-116882844D01*
X94899018Y-116801576D01*
X94987554Y-116684304D01*
X95096241Y-116538682D01*
X95219328Y-116372362D01*
X95309269Y-116250051D01*
X95767525Y-115625248D01*
X95799275Y-116947126D01*
X95959245Y-116956489D01*
X96055460Y-116957734D01*
X96123863Y-116950542D01*
X96141808Y-116943260D01*
X96146694Y-116907615D01*
X96151217Y-116815276D01*
X96155260Y-116673048D01*
X96158708Y-116487737D01*
X96161442Y-116266146D01*
X96163348Y-116015083D01*
X96164307Y-115741351D01*
X96164400Y-115623423D01*
X96164400Y-114326179D01*
X96077088Y-114292939D01*
X95958550Y-114276374D01*
X95894525Y-114286930D01*
X95799275Y-114314160D01*
X95767525Y-115478554D01*
X95308390Y-114899820D01*
X95161634Y-114717881D01*
X95029753Y-114560306D01*
X94918200Y-114433253D01*
X94832427Y-114342881D01*
X94777886Y-114295349D01*
X94768971Y-114290562D01*
X94670821Y-114270931D01*
X94577405Y-114280298D01*
G37*
X94577405Y-114280298D02*
X94507949Y-114313712D01*
X94481650Y-114364552D01*
X94501728Y-114409023D01*
X94558652Y-114494639D01*
X94647463Y-114614753D01*
X94763199Y-114762715D01*
X94900901Y-114931877D01*
X94940012Y-114978898D01*
X95398374Y-115527570D01*
X94906634Y-116185421D01*
X94774151Y-116365087D01*
X94655943Y-116530067D01*
X94556985Y-116673034D01*
X94482252Y-116786658D01*
X94436719Y-116863614D01*
X94424758Y-116895199D01*
X94460107Y-116929920D01*
X94536354Y-116952143D01*
X94631865Y-116960434D01*
X94725007Y-116953357D01*
X94794149Y-116929477D01*
X94805411Y-116920454D01*
X94836387Y-116882844D01*
X94899018Y-116801576D01*
X94987554Y-116684304D01*
X95096241Y-116538682D01*
X95219328Y-116372362D01*
X95309269Y-116250051D01*
X95767525Y-115625248D01*
X95799275Y-116947126D01*
X95959245Y-116956489D01*
X96055460Y-116957734D01*
X96123863Y-116950542D01*
X96141808Y-116943260D01*
X96146694Y-116907615D01*
X96151217Y-116815276D01*
X96155260Y-116673048D01*
X96158708Y-116487737D01*
X96161442Y-116266146D01*
X96163348Y-116015083D01*
X96164307Y-115741351D01*
X96164400Y-115623423D01*
X96164400Y-114326179D01*
X96077088Y-114292939D01*
X95958550Y-114276374D01*
X95894525Y-114286930D01*
X95799275Y-114314160D01*
X95767525Y-115478554D01*
X95308390Y-114899820D01*
X95161634Y-114717881D01*
X95029753Y-114560306D01*
X94918200Y-114433253D01*
X94832427Y-114342881D01*
X94777886Y-114295349D01*
X94768971Y-114290562D01*
X94670821Y-114270931D01*
X94577405Y-114280298D01*
G36*
X96969155Y-114309731D02*
G01*
X96892036Y-114337210D01*
X96880685Y-114346251D01*
X96868052Y-114364657D01*
X96857811Y-114396010D01*
X96849778Y-114446187D01*
X96843765Y-114521068D01*
X96839588Y-114626530D01*
X96837059Y-114768452D01*
X96835993Y-114952712D01*
X96836204Y-115185189D01*
X96837505Y-115471760D01*
X96838730Y-115671814D01*
X96847025Y-116947126D01*
X97196275Y-116947126D01*
X97228025Y-114671806D01*
X97669647Y-115777716D01*
X97770231Y-116028643D01*
X97864391Y-116261715D01*
X97949335Y-116470161D01*
X98022275Y-116647214D01*
X98080421Y-116786106D01*
X98120982Y-116880069D01*
X98141170Y-116922334D01*
X98141847Y-116923313D01*
X98190564Y-116948053D01*
X98275423Y-116961920D01*
X98307525Y-116963001D01*
X98398290Y-116954297D01*
X98461975Y-116932525D01*
X98472640Y-116923313D01*
X98490494Y-116885528D01*
X98528261Y-116795214D01*
X98583239Y-116659178D01*
X98652726Y-116484229D01*
X98734019Y-116277173D01*
X98824415Y-116044818D01*
X98921213Y-115793971D01*
X98928965Y-115773798D01*
X99355275Y-114663970D01*
X99387025Y-116947126D01*
X99530066Y-116956485D01*
X99633086Y-116953781D01*
X99703059Y-116933616D01*
X99712628Y-116926323D01*
X99723473Y-116884347D01*
X99732707Y-116787386D01*
X99740335Y-116643931D01*
X99746363Y-116462476D01*
X99750795Y-116251515D01*
X99753635Y-116019541D01*
X99754890Y-115775046D01*
X99754563Y-115526524D01*
X99752659Y-115282468D01*
X99749184Y-115051371D01*
X99744142Y-114841727D01*
X99737538Y-114662029D01*
X99729376Y-114520769D01*
X99719662Y-114426442D01*
X99711186Y-114391251D01*
X99683220Y-114348415D01*
X99642149Y-114323207D01*
X99571132Y-114309799D01*
X99454408Y-114302413D01*
X99305724Y-114302938D01*
X99205812Y-114321122D01*
X99163891Y-114341286D01*
X99135582Y-114372165D01*
X99097253Y-114436376D01*
X99046898Y-114538395D01*
X98982511Y-114682696D01*
X98902087Y-114873754D01*
X98803620Y-115116043D01*
X98700649Y-115374685D01*
X98607274Y-115609349D01*
X98520714Y-115824010D01*
X98443827Y-116011807D01*
X98379467Y-116165881D01*
X98330490Y-116279371D01*
X98299752Y-116345419D01*
X98290586Y-116359751D01*
X98274038Y-116331484D01*
X98236458Y-116251217D01*
X98180790Y-116125746D01*
X98109981Y-115961869D01*
X98026975Y-115766384D01*
X97934719Y-115546088D01*
X97863452Y-115374063D01*
X97737099Y-115071245D01*
X97628290Y-114817867D01*
X97537977Y-114616014D01*
X97467118Y-114467769D01*
X97416665Y-114375219D01*
X97390964Y-114342188D01*
X97313529Y-114312360D01*
X97202410Y-114297127D01*
X97080116Y-114296310D01*
X96969155Y-114309731D01*
G37*
X96969155Y-114309731D02*
X96892036Y-114337210D01*
X96880685Y-114346251D01*
X96868052Y-114364657D01*
X96857811Y-114396010D01*
X96849778Y-114446187D01*
X96843765Y-114521068D01*
X96839588Y-114626530D01*
X96837059Y-114768452D01*
X96835993Y-114952712D01*
X96836204Y-115185189D01*
X96837505Y-115471760D01*
X96838730Y-115671814D01*
X96847025Y-116947126D01*
X97196275Y-116947126D01*
X97228025Y-114671806D01*
X97669647Y-115777716D01*
X97770231Y-116028643D01*
X97864391Y-116261715D01*
X97949335Y-116470161D01*
X98022275Y-116647214D01*
X98080421Y-116786106D01*
X98120982Y-116880069D01*
X98141170Y-116922334D01*
X98141847Y-116923313D01*
X98190564Y-116948053D01*
X98275423Y-116961920D01*
X98307525Y-116963001D01*
X98398290Y-116954297D01*
X98461975Y-116932525D01*
X98472640Y-116923313D01*
X98490494Y-116885528D01*
X98528261Y-116795214D01*
X98583239Y-116659178D01*
X98652726Y-116484229D01*
X98734019Y-116277173D01*
X98824415Y-116044818D01*
X98921213Y-115793971D01*
X98928965Y-115773798D01*
X99355275Y-114663970D01*
X99387025Y-116947126D01*
X99530066Y-116956485D01*
X99633086Y-116953781D01*
X99703059Y-116933616D01*
X99712628Y-116926323D01*
X99723473Y-116884347D01*
X99732707Y-116787386D01*
X99740335Y-116643931D01*
X99746363Y-116462476D01*
X99750795Y-116251515D01*
X99753635Y-116019541D01*
X99754890Y-115775046D01*
X99754563Y-115526524D01*
X99752659Y-115282468D01*
X99749184Y-115051371D01*
X99744142Y-114841727D01*
X99737538Y-114662029D01*
X99729376Y-114520769D01*
X99719662Y-114426442D01*
X99711186Y-114391251D01*
X99683220Y-114348415D01*
X99642149Y-114323207D01*
X99571132Y-114309799D01*
X99454408Y-114302413D01*
X99305724Y-114302938D01*
X99205812Y-114321122D01*
X99163891Y-114341286D01*
X99135582Y-114372165D01*
X99097253Y-114436376D01*
X99046898Y-114538395D01*
X98982511Y-114682696D01*
X98902087Y-114873754D01*
X98803620Y-115116043D01*
X98700649Y-115374685D01*
X98607274Y-115609349D01*
X98520714Y-115824010D01*
X98443827Y-116011807D01*
X98379467Y-116165881D01*
X98330490Y-116279371D01*
X98299752Y-116345419D01*
X98290586Y-116359751D01*
X98274038Y-116331484D01*
X98236458Y-116251217D01*
X98180790Y-116125746D01*
X98109981Y-115961869D01*
X98026975Y-115766384D01*
X97934719Y-115546088D01*
X97863452Y-115374063D01*
X97737099Y-115071245D01*
X97628290Y-114817867D01*
X97537977Y-114616014D01*
X97467118Y-114467769D01*
X97416665Y-114375219D01*
X97390964Y-114342188D01*
X97313529Y-114312360D01*
X97202410Y-114297127D01*
X97080116Y-114296310D01*
X96969155Y-114309731D01*
G36*
X113276219Y-114971965D02*
G01*
X113198785Y-115006185D01*
X113160657Y-115075275D01*
X113150650Y-115186395D01*
X113150650Y-115344305D01*
X113326798Y-115323603D01*
X113465437Y-115317735D01*
X113572300Y-115343714D01*
X113665663Y-115410282D01*
X113763806Y-115526179D01*
X113771122Y-115536084D01*
X113879527Y-115683762D01*
X113896775Y-116947126D01*
X114040833Y-116956527D01*
X114132176Y-116957594D01*
X114195097Y-116949349D01*
X114207520Y-116943298D01*
X114213168Y-116907029D01*
X114218302Y-116815214D01*
X114222738Y-116675808D01*
X114226294Y-116496765D01*
X114228789Y-116286037D01*
X114230039Y-116051580D01*
X114230150Y-115955844D01*
X114230150Y-114991021D01*
X114079338Y-115000698D01*
X113928525Y-115010376D01*
X113918808Y-115144390D01*
X113909090Y-115278404D01*
X113810907Y-115166581D01*
X113678596Y-115044914D01*
X113539474Y-114979425D01*
X113404140Y-114962751D01*
X113276219Y-114971965D01*
G37*
X113276219Y-114971965D02*
X113198785Y-115006185D01*
X113160657Y-115075275D01*
X113150650Y-115186395D01*
X113150650Y-115344305D01*
X113326798Y-115323603D01*
X113465437Y-115317735D01*
X113572300Y-115343714D01*
X113665663Y-115410282D01*
X113763806Y-115526179D01*
X113771122Y-115536084D01*
X113879527Y-115683762D01*
X113896775Y-116947126D01*
X114040833Y-116956527D01*
X114132176Y-116957594D01*
X114195097Y-116949349D01*
X114207520Y-116943298D01*
X114213168Y-116907029D01*
X114218302Y-116815214D01*
X114222738Y-116675808D01*
X114226294Y-116496765D01*
X114228789Y-116286037D01*
X114230039Y-116051580D01*
X114230150Y-115955844D01*
X114230150Y-114991021D01*
X114079338Y-115000698D01*
X113928525Y-115010376D01*
X113918808Y-115144390D01*
X113909090Y-115278404D01*
X113810907Y-115166581D01*
X113678596Y-115044914D01*
X113539474Y-114979425D01*
X113404140Y-114962751D01*
X113276219Y-114971965D01*
G36*
X119044754Y-115256438D02*
G01*
X118996517Y-115418215D01*
X118944353Y-115595196D01*
X118899193Y-115750283D01*
X118897400Y-115756501D01*
X118853440Y-115907454D01*
X118801482Y-116083529D01*
X118752044Y-116249104D01*
X118747406Y-116264501D01*
X118666025Y-116534376D01*
X118467880Y-115799090D01*
X118411473Y-115591574D01*
X118359519Y-115403846D01*
X118314564Y-115244831D01*
X118279154Y-115123458D01*
X118255836Y-115048654D01*
X118248319Y-115029152D01*
X118206467Y-115008942D01*
X118124060Y-114996455D01*
X118071519Y-114994501D01*
X117977613Y-114997427D01*
X117927351Y-115013614D01*
X117900913Y-115054171D01*
X117887442Y-115097688D01*
X117828339Y-115307869D01*
X117766357Y-115524129D01*
X117704085Y-115737864D01*
X117644109Y-115940468D01*
X117589018Y-116123337D01*
X117541399Y-116277865D01*
X117503839Y-116395448D01*
X117478927Y-116467479D01*
X117469813Y-116486526D01*
X117456082Y-116457480D01*
X117428372Y-116376947D01*
X117389747Y-116254613D01*
X117343272Y-116100159D01*
X117296452Y-115938838D01*
X117240989Y-115745170D01*
X117186841Y-115557108D01*
X117138325Y-115389578D01*
X117099760Y-115257501D01*
X117080639Y-115192938D01*
X117021150Y-114994501D01*
X116865774Y-114994501D01*
X116771568Y-115000458D01*
X116706193Y-115015617D01*
X116690867Y-115026103D01*
X116695906Y-115061363D01*
X116717227Y-115148135D01*
X116752124Y-115277338D01*
X116797891Y-115439889D01*
X116851825Y-115626704D01*
X116911218Y-115828703D01*
X116973367Y-116036801D01*
X117035566Y-116241917D01*
X117095111Y-116434968D01*
X117149295Y-116606871D01*
X117195415Y-116748545D01*
X117230764Y-116850906D01*
X117246474Y-116891563D01*
X117271604Y-116932215D01*
X117314458Y-116953790D01*
X117392572Y-116962046D01*
X117464082Y-116963001D01*
X117580900Y-116956227D01*
X117660995Y-116937924D01*
X117683942Y-116923313D01*
X117702192Y-116882079D01*
X117734713Y-116789354D01*
X117778416Y-116654730D01*
X117830216Y-116487799D01*
X117887025Y-116298152D01*
X117906190Y-116232751D01*
X118095871Y-115581876D01*
X118133999Y-115724751D01*
X118221823Y-116053034D01*
X118294649Y-116323397D01*
X118353458Y-116539374D01*
X118399231Y-116704500D01*
X118432950Y-116822311D01*
X118455595Y-116896342D01*
X118468148Y-116930129D01*
X118468880Y-116931420D01*
X118511895Y-116951235D01*
X118595493Y-116961258D01*
X118697586Y-116961914D01*
X118796085Y-116953627D01*
X118868901Y-116936822D01*
X118890685Y-116923313D01*
X118908686Y-116882899D01*
X118941718Y-116790927D01*
X118986885Y-116656757D01*
X119041290Y-116489747D01*
X119102038Y-116299257D01*
X119166232Y-116094645D01*
X119230975Y-115885271D01*
X119293371Y-115680494D01*
X119350525Y-115489672D01*
X119399539Y-115322166D01*
X119437517Y-115187334D01*
X119461564Y-115094535D01*
X119468900Y-115054888D01*
X119460277Y-115019699D01*
X119424491Y-115001462D01*
X119346665Y-114994973D01*
X119296197Y-114994501D01*
X119123493Y-114994501D01*
X119044754Y-115256438D01*
G37*
X119044754Y-115256438D02*
X118996517Y-115418215D01*
X118944353Y-115595196D01*
X118899193Y-115750283D01*
X118897400Y-115756501D01*
X118853440Y-115907454D01*
X118801482Y-116083529D01*
X118752044Y-116249104D01*
X118747406Y-116264501D01*
X118666025Y-116534376D01*
X118467880Y-115799090D01*
X118411473Y-115591574D01*
X118359519Y-115403846D01*
X118314564Y-115244831D01*
X118279154Y-115123458D01*
X118255836Y-115048654D01*
X118248319Y-115029152D01*
X118206467Y-115008942D01*
X118124060Y-114996455D01*
X118071519Y-114994501D01*
X117977613Y-114997427D01*
X117927351Y-115013614D01*
X117900913Y-115054171D01*
X117887442Y-115097688D01*
X117828339Y-115307869D01*
X117766357Y-115524129D01*
X117704085Y-115737864D01*
X117644109Y-115940468D01*
X117589018Y-116123337D01*
X117541399Y-116277865D01*
X117503839Y-116395448D01*
X117478927Y-116467479D01*
X117469813Y-116486526D01*
X117456082Y-116457480D01*
X117428372Y-116376947D01*
X117389747Y-116254613D01*
X117343272Y-116100159D01*
X117296452Y-115938838D01*
X117240989Y-115745170D01*
X117186841Y-115557108D01*
X117138325Y-115389578D01*
X117099760Y-115257501D01*
X117080639Y-115192938D01*
X117021150Y-114994501D01*
X116865774Y-114994501D01*
X116771568Y-115000458D01*
X116706193Y-115015617D01*
X116690867Y-115026103D01*
X116695906Y-115061363D01*
X116717227Y-115148135D01*
X116752124Y-115277338D01*
X116797891Y-115439889D01*
X116851825Y-115626704D01*
X116911218Y-115828703D01*
X116973367Y-116036801D01*
X117035566Y-116241917D01*
X117095111Y-116434968D01*
X117149295Y-116606871D01*
X117195415Y-116748545D01*
X117230764Y-116850906D01*
X117246474Y-116891563D01*
X117271604Y-116932215D01*
X117314458Y-116953790D01*
X117392572Y-116962046D01*
X117464082Y-116963001D01*
X117580900Y-116956227D01*
X117660995Y-116937924D01*
X117683942Y-116923313D01*
X117702192Y-116882079D01*
X117734713Y-116789354D01*
X117778416Y-116654730D01*
X117830216Y-116487799D01*
X117887025Y-116298152D01*
X117906190Y-116232751D01*
X118095871Y-115581876D01*
X118133999Y-115724751D01*
X118221823Y-116053034D01*
X118294649Y-116323397D01*
X118353458Y-116539374D01*
X118399231Y-116704500D01*
X118432950Y-116822311D01*
X118455595Y-116896342D01*
X118468148Y-116930129D01*
X118468880Y-116931420D01*
X118511895Y-116951235D01*
X118595493Y-116961258D01*
X118697586Y-116961914D01*
X118796085Y-116953627D01*
X118868901Y-116936822D01*
X118890685Y-116923313D01*
X118908686Y-116882899D01*
X118941718Y-116790927D01*
X118986885Y-116656757D01*
X119041290Y-116489747D01*
X119102038Y-116299257D01*
X119166232Y-116094645D01*
X119230975Y-115885271D01*
X119293371Y-115680494D01*
X119350525Y-115489672D01*
X119399539Y-115322166D01*
X119437517Y-115187334D01*
X119461564Y-115094535D01*
X119468900Y-115054888D01*
X119460277Y-115019699D01*
X119424491Y-115001462D01*
X119346665Y-114994973D01*
X119296197Y-114994501D01*
X119123493Y-114994501D01*
X119044754Y-115256438D01*
G36*
X122849887Y-114297394D02*
G01*
X122686702Y-114305651D01*
X122541643Y-114318785D01*
X122428271Y-114336658D01*
X122395216Y-114344988D01*
X122194852Y-114433900D01*
X122039725Y-114566175D01*
X121932620Y-114737951D01*
X121876324Y-114945367D01*
X121868030Y-115075735D01*
X121894672Y-115318172D01*
X121972213Y-115523705D01*
X122098713Y-115690652D01*
X122272235Y-115817331D01*
X122490840Y-115902059D01*
X122752590Y-115943154D01*
X122871913Y-115947001D01*
X123120150Y-115947001D01*
X123120150Y-116416901D01*
X123122480Y-116631334D01*
X123129626Y-116785558D01*
X123141822Y-116882697D01*
X123158250Y-116924901D01*
X123210774Y-116947372D01*
X123296762Y-116960365D01*
X123389042Y-116962450D01*
X123460442Y-116952197D01*
X123479984Y-116941834D01*
X123484601Y-116906474D01*
X123488871Y-116814473D01*
X123492681Y-116672691D01*
X123495920Y-116487987D01*
X123498476Y-116267220D01*
X123500236Y-116017249D01*
X123501087Y-115744934D01*
X123501150Y-115646434D01*
X123500627Y-115303684D01*
X123498975Y-115020258D01*
X123496074Y-114791989D01*
X123491802Y-114614708D01*
X123491749Y-114613501D01*
X123120150Y-114613501D01*
X123120150Y-115629501D01*
X122874088Y-115629451D01*
X122696897Y-115621020D01*
X122568716Y-115594512D01*
X122519157Y-115573889D01*
X122396249Y-115489040D01*
X122318220Y-115376930D01*
X122277913Y-115225214D01*
X122270410Y-115144971D01*
X122277960Y-114958156D01*
X122326755Y-114814866D01*
X122420053Y-114712152D01*
X122561113Y-114647065D01*
X122753192Y-114616656D01*
X122857718Y-114613501D01*
X123120150Y-114613501D01*
X123491749Y-114613501D01*
X123486039Y-114484247D01*
X123478665Y-114396440D01*
X123469557Y-114347117D01*
X123463051Y-114334101D01*
X123412658Y-114315899D01*
X123312584Y-114303267D01*
X123176390Y-114296064D01*
X123017637Y-114294152D01*
X122849887Y-114297394D01*
G37*
X122849887Y-114297394D02*
X122686702Y-114305651D01*
X122541643Y-114318785D01*
X122428271Y-114336658D01*
X122395216Y-114344988D01*
X122194852Y-114433900D01*
X122039725Y-114566175D01*
X121932620Y-114737951D01*
X121876324Y-114945367D01*
X121868030Y-115075735D01*
X121894672Y-115318172D01*
X121972213Y-115523705D01*
X122098713Y-115690652D01*
X122272235Y-115817331D01*
X122490840Y-115902059D01*
X122752590Y-115943154D01*
X122871913Y-115947001D01*
X123120150Y-115947001D01*
X123120150Y-116416901D01*
X123122480Y-116631334D01*
X123129626Y-116785558D01*
X123141822Y-116882697D01*
X123158250Y-116924901D01*
X123210774Y-116947372D01*
X123296762Y-116960365D01*
X123389042Y-116962450D01*
X123460442Y-116952197D01*
X123479984Y-116941834D01*
X123484601Y-116906474D01*
X123488871Y-116814473D01*
X123492681Y-116672691D01*
X123495920Y-116487987D01*
X123498476Y-116267220D01*
X123500236Y-116017249D01*
X123501087Y-115744934D01*
X123501150Y-115646434D01*
X123500627Y-115303684D01*
X123498975Y-115020258D01*
X123496074Y-114791989D01*
X123491802Y-114614708D01*
X123491749Y-114613501D01*
X123120150Y-114613501D01*
X123120150Y-115629501D01*
X122874088Y-115629451D01*
X122696897Y-115621020D01*
X122568716Y-115594512D01*
X122519157Y-115573889D01*
X122396249Y-115489040D01*
X122318220Y-115376930D01*
X122277913Y-115225214D01*
X122270410Y-115144971D01*
X122277960Y-114958156D01*
X122326755Y-114814866D01*
X122420053Y-114712152D01*
X122561113Y-114647065D01*
X122753192Y-114616656D01*
X122857718Y-114613501D01*
X123120150Y-114613501D01*
X123491749Y-114613501D01*
X123486039Y-114484247D01*
X123478665Y-114396440D01*
X123469557Y-114347117D01*
X123463051Y-114334101D01*
X123412658Y-114315899D01*
X123312584Y-114303267D01*
X123176390Y-114296064D01*
X123017637Y-114294152D01*
X122849887Y-114297394D01*
G36*
X107330041Y-114103403D02*
G01*
X107245150Y-114135679D01*
X107245150Y-115224287D01*
X107134013Y-115139519D01*
X106950760Y-115027296D01*
X106763556Y-114971534D01*
X106641900Y-114962751D01*
X106429740Y-114989645D01*
X106251672Y-115069218D01*
X106108941Y-115199805D01*
X106002792Y-115379740D01*
X105934471Y-115607357D01*
X105905221Y-115880990D01*
X105904152Y-115949686D01*
X105924868Y-116242327D01*
X105986946Y-116488282D01*
X106090067Y-116686885D01*
X106233914Y-116837469D01*
X106365980Y-116917403D01*
X106564499Y-116980445D01*
X106762747Y-116988850D01*
X106946387Y-116942333D01*
X106974086Y-116929461D01*
X107076995Y-116868499D01*
X107171067Y-116797794D01*
X107186250Y-116783969D01*
X107272604Y-116701236D01*
X107282690Y-116824181D01*
X107291675Y-116898434D01*
X107314546Y-116935776D01*
X107369207Y-116950962D01*
X107443588Y-116956803D01*
X107594400Y-116966480D01*
X107594400Y-116346529D01*
X107245150Y-116346529D01*
X107110213Y-116478496D01*
X106954821Y-116604012D01*
X106806882Y-116667690D01*
X106663116Y-116670276D01*
X106520678Y-116612785D01*
X106411898Y-116515010D01*
X106336945Y-116372844D01*
X106294329Y-116182217D01*
X106282392Y-115962876D01*
X106292489Y-115752607D01*
X106324497Y-115589905D01*
X106382442Y-115461404D01*
X106464085Y-115359929D01*
X106573712Y-115292016D01*
X106707233Y-115274774D01*
X106853901Y-115305655D01*
X107002971Y-115382111D01*
X107143696Y-115501593D01*
X107166453Y-115526497D01*
X107199652Y-115568583D01*
X107221657Y-115614000D01*
X107234798Y-115676366D01*
X107241410Y-115769297D01*
X107243825Y-115906411D01*
X107244147Y-115980077D01*
X107245150Y-116346529D01*
X107594400Y-116346529D01*
X107594400Y-114110546D01*
X107504666Y-114090837D01*
X107405548Y-114087317D01*
X107330041Y-114103403D01*
G37*
X107330041Y-114103403D02*
X107245150Y-114135679D01*
X107245150Y-115224287D01*
X107134013Y-115139519D01*
X106950760Y-115027296D01*
X106763556Y-114971534D01*
X106641900Y-114962751D01*
X106429740Y-114989645D01*
X106251672Y-115069218D01*
X106108941Y-115199805D01*
X106002792Y-115379740D01*
X105934471Y-115607357D01*
X105905221Y-115880990D01*
X105904152Y-115949686D01*
X105924868Y-116242327D01*
X105986946Y-116488282D01*
X106090067Y-116686885D01*
X106233914Y-116837469D01*
X106365980Y-116917403D01*
X106564499Y-116980445D01*
X106762747Y-116988850D01*
X106946387Y-116942333D01*
X106974086Y-116929461D01*
X107076995Y-116868499D01*
X107171067Y-116797794D01*
X107186250Y-116783969D01*
X107272604Y-116701236D01*
X107282690Y-116824181D01*
X107291675Y-116898434D01*
X107314546Y-116935776D01*
X107369207Y-116950962D01*
X107443588Y-116956803D01*
X107594400Y-116966480D01*
X107594400Y-116346529D01*
X107245150Y-116346529D01*
X107110213Y-116478496D01*
X106954821Y-116604012D01*
X106806882Y-116667690D01*
X106663116Y-116670276D01*
X106520678Y-116612785D01*
X106411898Y-116515010D01*
X106336945Y-116372844D01*
X106294329Y-116182217D01*
X106282392Y-115962876D01*
X106292489Y-115752607D01*
X106324497Y-115589905D01*
X106382442Y-115461404D01*
X106464085Y-115359929D01*
X106573712Y-115292016D01*
X106707233Y-115274774D01*
X106853901Y-115305655D01*
X107002971Y-115382111D01*
X107143696Y-115501593D01*
X107166453Y-115526497D01*
X107199652Y-115568583D01*
X107221657Y-115614000D01*
X107234798Y-115676366D01*
X107241410Y-115769297D01*
X107243825Y-115906411D01*
X107244147Y-115980077D01*
X107245150Y-116346529D01*
X107594400Y-116346529D01*
X107594400Y-114110546D01*
X107504666Y-114090837D01*
X107405548Y-114087317D01*
X107330041Y-114103403D01*
G36*
X109321704Y-114111500D02*
G01*
X109166025Y-114121376D01*
X109166025Y-116947126D01*
X109451775Y-116947126D01*
X109467650Y-116808464D01*
X109483525Y-116669803D01*
X109546987Y-116740317D01*
X109691827Y-116858762D01*
X109871037Y-116941166D01*
X110065771Y-116982717D01*
X110257182Y-116978606D01*
X110368564Y-116950041D01*
X110543443Y-116852395D01*
X110680864Y-116704314D01*
X110780019Y-116507217D01*
X110840103Y-116262523D01*
X110857257Y-116089876D01*
X110855520Y-115978751D01*
X110483296Y-115978751D01*
X110473662Y-116188727D01*
X110442228Y-116350729D01*
X110385202Y-116477678D01*
X110308928Y-116572573D01*
X110184691Y-116656374D01*
X110043774Y-116681600D01*
X109895047Y-116647812D01*
X109803775Y-116597691D01*
X109696328Y-116520981D01*
X109621780Y-116452331D01*
X109574113Y-116377640D01*
X109547307Y-116282806D01*
X109535343Y-116153728D01*
X109532200Y-115976304D01*
X109532154Y-115961382D01*
X109531150Y-115578888D01*
X109650213Y-115465073D01*
X109762434Y-115367184D01*
X109858911Y-115310453D01*
X109961572Y-115284919D01*
X110057127Y-115280251D01*
X110157904Y-115287165D01*
X110229720Y-115317100D01*
X110303925Y-115383845D01*
X110311986Y-115392335D01*
X110393130Y-115497963D01*
X110445793Y-115619510D01*
X110474377Y-115772050D01*
X110483287Y-115970655D01*
X110483296Y-115978751D01*
X110855520Y-115978751D01*
X110852648Y-115795103D01*
X110806737Y-115540855D01*
X110721454Y-115329728D01*
X110598729Y-115164320D01*
X110440491Y-115047226D01*
X110248670Y-114981045D01*
X110025194Y-114968372D01*
X110024096Y-114968442D01*
X109889841Y-114983490D01*
X109788444Y-115014763D01*
X109689579Y-115072166D01*
X109674526Y-115082632D01*
X109531150Y-115183692D01*
X109530664Y-114684284D01*
X109528885Y-114510272D01*
X109524293Y-114357184D01*
X109517482Y-114236961D01*
X109509045Y-114161544D01*
X109503780Y-114143250D01*
X109449565Y-114115468D01*
X109337675Y-114110609D01*
X109321704Y-114111500D01*
G37*
X109321704Y-114111500D02*
X109166025Y-114121376D01*
X109166025Y-116947126D01*
X109451775Y-116947126D01*
X109467650Y-116808464D01*
X109483525Y-116669803D01*
X109546987Y-116740317D01*
X109691827Y-116858762D01*
X109871037Y-116941166D01*
X110065771Y-116982717D01*
X110257182Y-116978606D01*
X110368564Y-116950041D01*
X110543443Y-116852395D01*
X110680864Y-116704314D01*
X110780019Y-116507217D01*
X110840103Y-116262523D01*
X110857257Y-116089876D01*
X110855520Y-115978751D01*
X110483296Y-115978751D01*
X110473662Y-116188727D01*
X110442228Y-116350729D01*
X110385202Y-116477678D01*
X110308928Y-116572573D01*
X110184691Y-116656374D01*
X110043774Y-116681600D01*
X109895047Y-116647812D01*
X109803775Y-116597691D01*
X109696328Y-116520981D01*
X109621780Y-116452331D01*
X109574113Y-116377640D01*
X109547307Y-116282806D01*
X109535343Y-116153728D01*
X109532200Y-115976304D01*
X109532154Y-115961382D01*
X109531150Y-115578888D01*
X109650213Y-115465073D01*
X109762434Y-115367184D01*
X109858911Y-115310453D01*
X109961572Y-115284919D01*
X110057127Y-115280251D01*
X110157904Y-115287165D01*
X110229720Y-115317100D01*
X110303925Y-115383845D01*
X110311986Y-115392335D01*
X110393130Y-115497963D01*
X110445793Y-115619510D01*
X110474377Y-115772050D01*
X110483287Y-115970655D01*
X110483296Y-115978751D01*
X110855520Y-115978751D01*
X110852648Y-115795103D01*
X110806737Y-115540855D01*
X110721454Y-115329728D01*
X110598729Y-115164320D01*
X110440491Y-115047226D01*
X110248670Y-114981045D01*
X110025194Y-114968372D01*
X110024096Y-114968442D01*
X109889841Y-114983490D01*
X109788444Y-115014763D01*
X109689579Y-115072166D01*
X109674526Y-115082632D01*
X109531150Y-115183692D01*
X109530664Y-114684284D01*
X109528885Y-114510272D01*
X109524293Y-114357184D01*
X109517482Y-114236961D01*
X109509045Y-114161544D01*
X109503780Y-114143250D01*
X109449565Y-114115468D01*
X109337675Y-114110609D01*
X109321704Y-114111500D01*
G36*
X111981663Y-114967817D02*
G01*
X111758348Y-115007488D01*
X111572541Y-115097589D01*
X111426622Y-115235650D01*
X111322969Y-115419202D01*
X111263963Y-115645776D01*
X111255351Y-115721435D01*
X111246853Y-115824431D01*
X111245822Y-115902657D01*
X111259650Y-115959514D01*
X111295727Y-115998403D01*
X111361444Y-116022726D01*
X111464191Y-116035883D01*
X111611361Y-116041278D01*
X111810343Y-116042310D01*
X111952461Y-116042251D01*
X112587995Y-116042251D01*
X112568935Y-116203189D01*
X112524092Y-116390175D01*
X112438273Y-116529966D01*
X112309529Y-116624147D01*
X112135912Y-116674303D01*
X111977732Y-116684009D01*
X111826829Y-116672147D01*
X111663941Y-116643883D01*
X111573392Y-116620168D01*
X111445849Y-116586445D01*
X111365540Y-116584395D01*
X111323142Y-116616816D01*
X111309333Y-116686506D01*
X111309150Y-116699475D01*
X111333589Y-116786497D01*
X111409753Y-116857000D01*
X111541920Y-116914018D01*
X111653437Y-116943831D01*
X111935822Y-116987588D01*
X112184167Y-116981764D01*
X112373439Y-116937555D01*
X112567866Y-116851661D01*
X112713146Y-116740353D01*
X112819314Y-116592545D01*
X112896404Y-116397152D01*
X112911337Y-116343318D01*
X112952463Y-116085293D01*
X112947298Y-115821833D01*
X112932681Y-115748563D01*
X112578973Y-115748563D01*
X112562967Y-115764471D01*
X112510231Y-115775845D01*
X112413936Y-115783234D01*
X112267251Y-115787184D01*
X112083492Y-115788251D01*
X111587834Y-115788251D01*
X111609964Y-115670285D01*
X111665676Y-115488691D01*
X111755840Y-115360040D01*
X111882402Y-115282729D01*
X112047305Y-115255152D01*
X112111191Y-115256739D01*
X112226833Y-115269714D01*
X112307224Y-115297946D01*
X112380497Y-115352862D01*
X112405189Y-115376144D01*
X112497551Y-115495372D01*
X112559696Y-115634466D01*
X112578973Y-115748563D01*
X112932681Y-115748563D01*
X112897502Y-115572239D01*
X112830566Y-115403180D01*
X112742970Y-115277215D01*
X112617819Y-115155099D01*
X112476640Y-115054850D01*
X112342959Y-114995042D01*
X112234632Y-114975971D01*
X112096391Y-114966514D01*
X111981663Y-114967817D01*
G37*
X111981663Y-114967817D02*
X111758348Y-115007488D01*
X111572541Y-115097589D01*
X111426622Y-115235650D01*
X111322969Y-115419202D01*
X111263963Y-115645776D01*
X111255351Y-115721435D01*
X111246853Y-115824431D01*
X111245822Y-115902657D01*
X111259650Y-115959514D01*
X111295727Y-115998403D01*
X111361444Y-116022726D01*
X111464191Y-116035883D01*
X111611361Y-116041278D01*
X111810343Y-116042310D01*
X111952461Y-116042251D01*
X112587995Y-116042251D01*
X112568935Y-116203189D01*
X112524092Y-116390175D01*
X112438273Y-116529966D01*
X112309529Y-116624147D01*
X112135912Y-116674303D01*
X111977732Y-116684009D01*
X111826829Y-116672147D01*
X111663941Y-116643883D01*
X111573392Y-116620168D01*
X111445849Y-116586445D01*
X111365540Y-116584395D01*
X111323142Y-116616816D01*
X111309333Y-116686506D01*
X111309150Y-116699475D01*
X111333589Y-116786497D01*
X111409753Y-116857000D01*
X111541920Y-116914018D01*
X111653437Y-116943831D01*
X111935822Y-116987588D01*
X112184167Y-116981764D01*
X112373439Y-116937555D01*
X112567866Y-116851661D01*
X112713146Y-116740353D01*
X112819314Y-116592545D01*
X112896404Y-116397152D01*
X112911337Y-116343318D01*
X112952463Y-116085293D01*
X112947298Y-115821833D01*
X112932681Y-115748563D01*
X112578973Y-115748563D01*
X112562967Y-115764471D01*
X112510231Y-115775845D01*
X112413936Y-115783234D01*
X112267251Y-115787184D01*
X112083492Y-115788251D01*
X111587834Y-115788251D01*
X111609964Y-115670285D01*
X111665676Y-115488691D01*
X111755840Y-115360040D01*
X111882402Y-115282729D01*
X112047305Y-115255152D01*
X112111191Y-115256739D01*
X112226833Y-115269714D01*
X112307224Y-115297946D01*
X112380497Y-115352862D01*
X112405189Y-115376144D01*
X112497551Y-115495372D01*
X112559696Y-115634466D01*
X112578973Y-115748563D01*
X112932681Y-115748563D01*
X112897502Y-115572239D01*
X112830566Y-115403180D01*
X112742970Y-115277215D01*
X112617819Y-115155099D01*
X112476640Y-115054850D01*
X112342959Y-114995042D01*
X112234632Y-114975971D01*
X112096391Y-114966514D01*
X111981663Y-114967817D01*
G36*
X115310972Y-114988691D02*
G01*
X115111889Y-115063671D01*
X114952655Y-115186845D01*
X114835402Y-115356745D01*
X114783099Y-115490240D01*
X114755077Y-115616555D01*
X114741161Y-115750493D01*
X114741601Y-115873358D01*
X114756645Y-115966454D01*
X114776250Y-116004151D01*
X114814345Y-116018769D01*
X114898447Y-116029632D01*
X115033030Y-116036993D01*
X115222566Y-116041109D01*
X115443000Y-116042251D01*
X116071650Y-116042251D01*
X116070257Y-116129563D01*
X116039402Y-116308841D01*
X115958872Y-116469287D01*
X115837935Y-116595191D01*
X115770592Y-116637542D01*
X115658218Y-116671178D01*
X115505784Y-116683749D01*
X115332920Y-116675858D01*
X115159254Y-116648108D01*
X115041841Y-116615167D01*
X114931881Y-116580463D01*
X114866601Y-116570381D01*
X114832836Y-116583349D01*
X114828015Y-116589628D01*
X114804644Y-116665855D01*
X114807963Y-116754691D01*
X114835790Y-116823303D01*
X114844079Y-116831688D01*
X114945446Y-116887460D01*
X115092310Y-116932543D01*
X115267256Y-116964881D01*
X115452870Y-116982416D01*
X115631739Y-116983091D01*
X115786447Y-116964848D01*
X115843898Y-116949803D01*
X116049698Y-116854520D01*
X116210297Y-116717214D01*
X116327641Y-116535399D01*
X116403679Y-116306587D01*
X116421248Y-116212664D01*
X116436748Y-115978426D01*
X116416419Y-115737346D01*
X116405554Y-115692378D01*
X116071000Y-115692378D01*
X116068691Y-115737824D01*
X116032200Y-115766022D01*
X115954741Y-115781085D01*
X115829530Y-115787125D01*
X115649780Y-115788255D01*
X115579525Y-115788251D01*
X115392175Y-115787682D01*
X115259172Y-115785289D01*
X115171369Y-115780037D01*
X115119617Y-115770893D01*
X115094768Y-115756825D01*
X115087675Y-115736799D01*
X115087578Y-115732688D01*
X115113336Y-115584691D01*
X115180397Y-115441292D01*
X115245917Y-115359849D01*
X115319279Y-115302323D01*
X115402736Y-115270923D01*
X115522732Y-115255741D01*
X115523931Y-115255656D01*
X115697625Y-115266609D01*
X115837274Y-115328982D01*
X115949374Y-115446562D01*
X116000213Y-115533297D01*
X116045912Y-115625573D01*
X116071000Y-115692378D01*
X116405554Y-115692378D01*
X116363176Y-115516991D01*
X116341610Y-115459974D01*
X116229701Y-115270182D01*
X116073440Y-115122195D01*
X115879727Y-115020331D01*
X115655464Y-114968907D01*
X115547775Y-114963371D01*
X115310972Y-114988691D01*
G37*
X115310972Y-114988691D02*
X115111889Y-115063671D01*
X114952655Y-115186845D01*
X114835402Y-115356745D01*
X114783099Y-115490240D01*
X114755077Y-115616555D01*
X114741161Y-115750493D01*
X114741601Y-115873358D01*
X114756645Y-115966454D01*
X114776250Y-116004151D01*
X114814345Y-116018769D01*
X114898447Y-116029632D01*
X115033030Y-116036993D01*
X115222566Y-116041109D01*
X115443000Y-116042251D01*
X116071650Y-116042251D01*
X116070257Y-116129563D01*
X116039402Y-116308841D01*
X115958872Y-116469287D01*
X115837935Y-116595191D01*
X115770592Y-116637542D01*
X115658218Y-116671178D01*
X115505784Y-116683749D01*
X115332920Y-116675858D01*
X115159254Y-116648108D01*
X115041841Y-116615167D01*
X114931881Y-116580463D01*
X114866601Y-116570381D01*
X114832836Y-116583349D01*
X114828015Y-116589628D01*
X114804644Y-116665855D01*
X114807963Y-116754691D01*
X114835790Y-116823303D01*
X114844079Y-116831688D01*
X114945446Y-116887460D01*
X115092310Y-116932543D01*
X115267256Y-116964881D01*
X115452870Y-116982416D01*
X115631739Y-116983091D01*
X115786447Y-116964848D01*
X115843898Y-116949803D01*
X116049698Y-116854520D01*
X116210297Y-116717214D01*
X116327641Y-116535399D01*
X116403679Y-116306587D01*
X116421248Y-116212664D01*
X116436748Y-115978426D01*
X116416419Y-115737346D01*
X116405554Y-115692378D01*
X116071000Y-115692378D01*
X116068691Y-115737824D01*
X116032200Y-115766022D01*
X115954741Y-115781085D01*
X115829530Y-115787125D01*
X115649780Y-115788255D01*
X115579525Y-115788251D01*
X115392175Y-115787682D01*
X115259172Y-115785289D01*
X115171369Y-115780037D01*
X115119617Y-115770893D01*
X115094768Y-115756825D01*
X115087675Y-115736799D01*
X115087578Y-115732688D01*
X115113336Y-115584691D01*
X115180397Y-115441292D01*
X115245917Y-115359849D01*
X115319279Y-115302323D01*
X115402736Y-115270923D01*
X115522732Y-115255741D01*
X115523931Y-115255656D01*
X115697625Y-115266609D01*
X115837274Y-115328982D01*
X115949374Y-115446562D01*
X116000213Y-115533297D01*
X116045912Y-115625573D01*
X116071000Y-115692378D01*
X116405554Y-115692378D01*
X116363176Y-115516991D01*
X116341610Y-115459974D01*
X116229701Y-115270182D01*
X116073440Y-115122195D01*
X115879727Y-115020331D01*
X115655464Y-114968907D01*
X115547775Y-114963371D01*
X115310972Y-114988691D01*
G36*
X120568496Y-114969357D02*
G01*
X120349020Y-114996494D01*
X120175074Y-115054473D01*
X120033982Y-115148750D01*
X119951570Y-115234876D01*
X119853106Y-115397535D01*
X119784569Y-115601484D01*
X119748092Y-115830919D01*
X119745806Y-116070038D01*
X119779844Y-116303037D01*
X119798195Y-116371858D01*
X119882065Y-116555680D01*
X120011529Y-116721855D01*
X120171908Y-116855389D01*
X120348518Y-116941291D01*
X120358968Y-116944501D01*
X120540180Y-116980226D01*
X120737738Y-116990182D01*
X120921340Y-116973704D01*
X120988473Y-116958320D01*
X121189012Y-116871426D01*
X121349088Y-116737049D01*
X121470067Y-116553658D01*
X121551222Y-116328001D01*
X121591197Y-116071017D01*
X121588394Y-115987047D01*
X121215150Y-115987047D01*
X121195162Y-116211883D01*
X121137030Y-116398281D01*
X121043504Y-116540572D01*
X120917335Y-116633087D01*
X120897634Y-116641581D01*
X120792968Y-116665705D01*
X120659392Y-116674255D01*
X120528481Y-116666823D01*
X120442452Y-116647469D01*
X120316779Y-116567146D01*
X120217226Y-116437357D01*
X120148122Y-116268280D01*
X120113795Y-116070093D01*
X120115814Y-115879453D01*
X120149217Y-115665043D01*
X120207364Y-115503791D01*
X120295014Y-115388581D01*
X120416927Y-115312297D01*
X120516608Y-115280261D01*
X120706111Y-115261633D01*
X120871426Y-115299277D01*
X121008722Y-115389316D01*
X121114166Y-115527875D01*
X121183929Y-115711075D01*
X121214177Y-115935041D01*
X121215150Y-115987047D01*
X121588394Y-115987047D01*
X121582720Y-115817159D01*
X121528434Y-115578687D01*
X121430983Y-115367864D01*
X121311176Y-115214503D01*
X121160392Y-115089966D01*
X120996116Y-115010612D01*
X120804509Y-114971873D01*
X120571733Y-114969182D01*
X120568496Y-114969357D01*
G37*
X120568496Y-114969357D02*
X120349020Y-114996494D01*
X120175074Y-115054473D01*
X120033982Y-115148750D01*
X119951570Y-115234876D01*
X119853106Y-115397535D01*
X119784569Y-115601484D01*
X119748092Y-115830919D01*
X119745806Y-116070038D01*
X119779844Y-116303037D01*
X119798195Y-116371858D01*
X119882065Y-116555680D01*
X120011529Y-116721855D01*
X120171908Y-116855389D01*
X120348518Y-116941291D01*
X120358968Y-116944501D01*
X120540180Y-116980226D01*
X120737738Y-116990182D01*
X120921340Y-116973704D01*
X120988473Y-116958320D01*
X121189012Y-116871426D01*
X121349088Y-116737049D01*
X121470067Y-116553658D01*
X121551222Y-116328001D01*
X121591197Y-116071017D01*
X121588394Y-115987047D01*
X121215150Y-115987047D01*
X121195162Y-116211883D01*
X121137030Y-116398281D01*
X121043504Y-116540572D01*
X120917335Y-116633087D01*
X120897634Y-116641581D01*
X120792968Y-116665705D01*
X120659392Y-116674255D01*
X120528481Y-116666823D01*
X120442452Y-116647469D01*
X120316779Y-116567146D01*
X120217226Y-116437357D01*
X120148122Y-116268280D01*
X120113795Y-116070093D01*
X120115814Y-115879453D01*
X120149217Y-115665043D01*
X120207364Y-115503791D01*
X120295014Y-115388581D01*
X120416927Y-115312297D01*
X120516608Y-115280261D01*
X120706111Y-115261633D01*
X120871426Y-115299277D01*
X121008722Y-115389316D01*
X121114166Y-115527875D01*
X121183929Y-115711075D01*
X121214177Y-115935041D01*
X121215150Y-115987047D01*
X121588394Y-115987047D01*
X121582720Y-115817159D01*
X121528434Y-115578687D01*
X121430983Y-115367864D01*
X121311176Y-115214503D01*
X121160392Y-115089966D01*
X120996116Y-115010612D01*
X120804509Y-114971873D01*
X120571733Y-114969182D01*
X120568496Y-114969357D01*
G36*
X101193980Y-114288467D02*
G01*
X100947406Y-114359265D01*
X100742503Y-114477650D01*
X100578971Y-114643938D01*
X100456508Y-114858448D01*
X100374814Y-115121495D01*
X100333587Y-115433398D01*
X100331122Y-115478909D01*
X100330932Y-115789509D01*
X100362705Y-116053766D01*
X100428632Y-116281425D01*
X100530908Y-116482233D01*
X100569881Y-116539918D01*
X100641486Y-116639899D01*
X100522256Y-116733854D01*
X100428178Y-116799341D01*
X100306292Y-116872973D01*
X100208588Y-116925592D01*
X100078017Y-117004767D01*
X100005599Y-117085784D01*
X99986347Y-117177251D01*
X100008557Y-117270956D01*
X100033835Y-117318609D01*
X100071642Y-117337483D01*
X100135854Y-117327972D01*
X100240347Y-117290472D01*
X100270368Y-117278404D01*
X100399999Y-117214902D01*
X100564414Y-117114813D01*
X100768271Y-116975213D01*
X100868307Y-116902973D01*
X100915142Y-116878491D01*
X100969600Y-116880310D01*
X101055410Y-116909596D01*
X101062731Y-116912515D01*
X101262631Y-116967135D01*
X101490119Y-116988125D01*
X101724784Y-116976657D01*
X101946220Y-116933901D01*
X102134016Y-116861030D01*
X102154073Y-116849883D01*
X102306898Y-116735436D01*
X102446124Y-116584638D01*
X102552556Y-116419913D01*
X102584845Y-116346653D01*
X102651805Y-116101080D01*
X102688501Y-115823538D01*
X102689347Y-115763923D01*
X102290070Y-115763923D01*
X102274895Y-115955431D01*
X102259427Y-116046837D01*
X102200242Y-116232216D01*
X102110520Y-116395412D01*
X102000447Y-116519863D01*
X101943183Y-116561087D01*
X101789102Y-116622576D01*
X101603481Y-116653116D01*
X101410720Y-116651805D01*
X101235221Y-116617741D01*
X101165025Y-116589860D01*
X101000637Y-116475627D01*
X100868611Y-116315617D01*
X100798456Y-116173976D01*
X100744099Y-115972315D01*
X100716296Y-115742297D01*
X100714549Y-115502733D01*
X100738360Y-115272430D01*
X100787228Y-115070200D01*
X100830488Y-114966002D01*
X100951389Y-114793106D01*
X101109635Y-114671516D01*
X101304907Y-114601412D01*
X101505318Y-114582448D01*
X101725743Y-114607578D01*
X101908933Y-114682977D01*
X102058721Y-114811177D01*
X102178945Y-114994711D01*
X102201519Y-115042126D01*
X102243815Y-115177266D01*
X102273416Y-115355503D01*
X102289206Y-115557502D01*
X102290070Y-115763923D01*
X102689347Y-115763923D01*
X102692541Y-115539110D01*
X102677772Y-115371609D01*
X102613651Y-115066463D01*
X102509139Y-114810219D01*
X102364381Y-114603012D01*
X102179521Y-114444977D01*
X101954705Y-114336246D01*
X101690076Y-114276954D01*
X101482525Y-114264938D01*
X101193980Y-114288467D01*
G37*
X101193980Y-114288467D02*
X100947406Y-114359265D01*
X100742503Y-114477650D01*
X100578971Y-114643938D01*
X100456508Y-114858448D01*
X100374814Y-115121495D01*
X100333587Y-115433398D01*
X100331122Y-115478909D01*
X100330932Y-115789509D01*
X100362705Y-116053766D01*
X100428632Y-116281425D01*
X100530908Y-116482233D01*
X100569881Y-116539918D01*
X100641486Y-116639899D01*
X100522256Y-116733854D01*
X100428178Y-116799341D01*
X100306292Y-116872973D01*
X100208588Y-116925592D01*
X100078017Y-117004767D01*
X100005599Y-117085784D01*
X99986347Y-117177251D01*
X100008557Y-117270956D01*
X100033835Y-117318609D01*
X100071642Y-117337483D01*
X100135854Y-117327972D01*
X100240347Y-117290472D01*
X100270368Y-117278404D01*
X100399999Y-117214902D01*
X100564414Y-117114813D01*
X100768271Y-116975213D01*
X100868307Y-116902973D01*
X100915142Y-116878491D01*
X100969600Y-116880310D01*
X101055410Y-116909596D01*
X101062731Y-116912515D01*
X101262631Y-116967135D01*
X101490119Y-116988125D01*
X101724784Y-116976657D01*
X101946220Y-116933901D01*
X102134016Y-116861030D01*
X102154073Y-116849883D01*
X102306898Y-116735436D01*
X102446124Y-116584638D01*
X102552556Y-116419913D01*
X102584845Y-116346653D01*
X102651805Y-116101080D01*
X102688501Y-115823538D01*
X102689347Y-115763923D01*
X102290070Y-115763923D01*
X102274895Y-115955431D01*
X102259427Y-116046837D01*
X102200242Y-116232216D01*
X102110520Y-116395412D01*
X102000447Y-116519863D01*
X101943183Y-116561087D01*
X101789102Y-116622576D01*
X101603481Y-116653116D01*
X101410720Y-116651805D01*
X101235221Y-116617741D01*
X101165025Y-116589860D01*
X101000637Y-116475627D01*
X100868611Y-116315617D01*
X100798456Y-116173976D01*
X100744099Y-115972315D01*
X100716296Y-115742297D01*
X100714549Y-115502733D01*
X100738360Y-115272430D01*
X100787228Y-115070200D01*
X100830488Y-114966002D01*
X100951389Y-114793106D01*
X101109635Y-114671516D01*
X101304907Y-114601412D01*
X101505318Y-114582448D01*
X101725743Y-114607578D01*
X101908933Y-114682977D01*
X102058721Y-114811177D01*
X102178945Y-114994711D01*
X102201519Y-115042126D01*
X102243815Y-115177266D01*
X102273416Y-115355503D01*
X102289206Y-115557502D01*
X102290070Y-115763923D01*
X102689347Y-115763923D01*
X102692541Y-115539110D01*
X102677772Y-115371609D01*
X102613651Y-115066463D01*
X102509139Y-114810219D01*
X102364381Y-114603012D01*
X102179521Y-114444977D01*
X101954705Y-114336246D01*
X101690076Y-114276954D01*
X101482525Y-114264938D01*
X101193980Y-114288467D01*
G36*
X103973866Y-114997857D02*
G01*
X103927040Y-115012249D01*
X103912047Y-115044158D01*
X103911400Y-115059063D01*
X103921933Y-115101792D01*
X103951693Y-115196388D01*
X103997920Y-115335146D01*
X104057856Y-115510361D01*
X104128743Y-115714328D01*
X104207822Y-115939341D01*
X104292335Y-116177696D01*
X104379522Y-116421686D01*
X104466626Y-116663608D01*
X104550887Y-116895754D01*
X104629547Y-117110421D01*
X104699847Y-117299903D01*
X104759029Y-117456495D01*
X104804335Y-117572491D01*
X104833004Y-117640186D01*
X104840278Y-117653563D01*
X104888304Y-117676596D01*
X104972188Y-117689683D01*
X105067639Y-117692231D01*
X105150367Y-117683648D01*
X105196081Y-117663340D01*
X105196806Y-117662261D01*
X105193610Y-117621758D01*
X105170170Y-117535991D01*
X105130557Y-117418356D01*
X105089184Y-117308326D01*
X104962410Y-116985381D01*
X105310030Y-116053758D01*
X105395884Y-115821687D01*
X105474029Y-115606644D01*
X105541755Y-115416387D01*
X105596353Y-115258675D01*
X105635113Y-115141267D01*
X105655326Y-115071921D01*
X105657650Y-115058318D01*
X105650007Y-115021167D01*
X105616954Y-115001979D01*
X105543304Y-114995097D01*
X105486422Y-114994501D01*
X105379134Y-114999511D01*
X105319349Y-115017489D01*
X105292729Y-115050063D01*
X105275847Y-115095328D01*
X105241156Y-115190956D01*
X105192066Y-115327456D01*
X105131984Y-115495340D01*
X105064319Y-115685118D01*
X105034617Y-115768627D01*
X104965156Y-115963027D01*
X104902002Y-116137827D01*
X104848492Y-116283947D01*
X104807963Y-116392311D01*
X104783750Y-116453841D01*
X104779139Y-116463717D01*
X104763833Y-116444186D01*
X104731410Y-116372204D01*
X104684889Y-116255541D01*
X104627293Y-116101967D01*
X104561643Y-115919251D01*
X104512361Y-115777726D01*
X104442245Y-115574886D01*
X104378174Y-115391519D01*
X104323257Y-115236359D01*
X104280600Y-115118142D01*
X104253313Y-115045602D01*
X104245284Y-115027073D01*
X104204278Y-115008169D01*
X104122339Y-114996416D01*
X104068277Y-114994501D01*
X103973866Y-114997857D01*
G37*
X103973866Y-114997857D02*
X103927040Y-115012249D01*
X103912047Y-115044158D01*
X103911400Y-115059063D01*
X103921933Y-115101792D01*
X103951693Y-115196388D01*
X103997920Y-115335146D01*
X104057856Y-115510361D01*
X104128743Y-115714328D01*
X104207822Y-115939341D01*
X104292335Y-116177696D01*
X104379522Y-116421686D01*
X104466626Y-116663608D01*
X104550887Y-116895754D01*
X104629547Y-117110421D01*
X104699847Y-117299903D01*
X104759029Y-117456495D01*
X104804335Y-117572491D01*
X104833004Y-117640186D01*
X104840278Y-117653563D01*
X104888304Y-117676596D01*
X104972188Y-117689683D01*
X105067639Y-117692231D01*
X105150367Y-117683648D01*
X105196081Y-117663340D01*
X105196806Y-117662261D01*
X105193610Y-117621758D01*
X105170170Y-117535991D01*
X105130557Y-117418356D01*
X105089184Y-117308326D01*
X104962410Y-116985381D01*
X105310030Y-116053758D01*
X105395884Y-115821687D01*
X105474029Y-115606644D01*
X105541755Y-115416387D01*
X105596353Y-115258675D01*
X105635113Y-115141267D01*
X105655326Y-115071921D01*
X105657650Y-115058318D01*
X105650007Y-115021167D01*
X105616954Y-115001979D01*
X105543304Y-114995097D01*
X105486422Y-114994501D01*
X105379134Y-114999511D01*
X105319349Y-115017489D01*
X105292729Y-115050063D01*
X105275847Y-115095328D01*
X105241156Y-115190956D01*
X105192066Y-115327456D01*
X105131984Y-115495340D01*
X105064319Y-115685118D01*
X105034617Y-115768627D01*
X104965156Y-115963027D01*
X104902002Y-116137827D01*
X104848492Y-116283947D01*
X104807963Y-116392311D01*
X104783750Y-116453841D01*
X104779139Y-116463717D01*
X104763833Y-116444186D01*
X104731410Y-116372204D01*
X104684889Y-116255541D01*
X104627293Y-116101967D01*
X104561643Y-115919251D01*
X104512361Y-115777726D01*
X104442245Y-115574886D01*
X104378174Y-115391519D01*
X104323257Y-115236359D01*
X104280600Y-115118142D01*
X104253313Y-115045602D01*
X104245284Y-115027073D01*
X104204278Y-115008169D01*
X104122339Y-114996416D01*
X104068277Y-114994501D01*
X103973866Y-114997857D01*
G36*
X128811338Y-112841698D02*
G01*
X128660525Y-112851376D01*
X128651352Y-113129188D01*
X128642178Y-113407001D01*
X128329623Y-113407001D01*
X128320449Y-113129188D01*
X128311275Y-112851376D01*
X128025525Y-112851376D01*
X128016352Y-113129188D01*
X128007178Y-113407001D01*
X127694623Y-113407001D01*
X127685449Y-113129188D01*
X127676275Y-112851376D01*
X127536547Y-112841378D01*
X127428159Y-112844313D01*
X127371728Y-112871106D01*
X127370346Y-112873128D01*
X127357600Y-112923424D01*
X127348073Y-113018292D01*
X127343535Y-113138818D01*
X127343387Y-113160938D01*
X127342900Y-113407001D01*
X127027873Y-113407001D01*
X127018699Y-113129188D01*
X127009525Y-112851376D01*
X126723775Y-112851376D01*
X126714602Y-113129188D01*
X126705428Y-113407001D01*
X126568783Y-113407001D01*
X126388624Y-113436868D01*
X126226521Y-113519855D01*
X126092923Y-113646039D01*
X125998277Y-113805496D01*
X125953034Y-113988305D01*
X125952709Y-113992082D01*
X125938233Y-114166640D01*
X125390275Y-114184876D01*
X125380278Y-114324604D01*
X125383213Y-114432992D01*
X125410006Y-114489423D01*
X125412028Y-114490805D01*
X125462324Y-114503551D01*
X125557192Y-114513078D01*
X125677718Y-114517616D01*
X125699838Y-114517764D01*
X125945900Y-114518251D01*
X125945900Y-114804001D01*
X125699838Y-114804487D01*
X125576785Y-114807979D01*
X125476112Y-114816767D01*
X125416731Y-114829082D01*
X125412028Y-114831446D01*
X125384031Y-114884978D01*
X125379821Y-114990836D01*
X125380278Y-114997647D01*
X125390275Y-115137376D01*
X125668088Y-115146549D01*
X125945901Y-115155723D01*
X125945901Y-115468278D01*
X125390275Y-115486626D01*
X125390275Y-115772376D01*
X125668088Y-115781549D01*
X125945900Y-115790723D01*
X125945900Y-116103278D01*
X125668088Y-116112452D01*
X125390275Y-116121626D01*
X125380278Y-116261354D01*
X125383213Y-116369742D01*
X125410006Y-116426173D01*
X125412028Y-116427555D01*
X125462261Y-116440259D01*
X125557158Y-116449775D01*
X125677902Y-116454349D01*
X125701578Y-116454514D01*
X125949380Y-116455001D01*
X125939703Y-116605813D01*
X125930025Y-116756626D01*
X125650525Y-116765824D01*
X125371024Y-116775022D01*
X125380650Y-116924574D01*
X125390275Y-117074126D01*
X125664254Y-117083243D01*
X125938233Y-117092361D01*
X125952709Y-117266919D01*
X125996871Y-117450088D01*
X126090642Y-117610103D01*
X126223573Y-117737039D01*
X126385214Y-117820976D01*
X126565117Y-117851988D01*
X126568783Y-117852001D01*
X126705428Y-117852001D01*
X126714602Y-118129813D01*
X126723775Y-118407626D01*
X126874588Y-118417303D01*
X127025400Y-118426980D01*
X127025400Y-117852001D01*
X127342900Y-117852001D01*
X127343387Y-118098063D01*
X127346879Y-118221116D01*
X127355667Y-118321789D01*
X127367982Y-118381170D01*
X127370346Y-118385873D01*
X127423878Y-118413870D01*
X127529736Y-118418080D01*
X127536547Y-118417623D01*
X127676275Y-118407626D01*
X127685449Y-118129813D01*
X127694623Y-117852001D01*
X128007178Y-117852001D01*
X128016352Y-118129813D01*
X128025525Y-118407626D01*
X128311275Y-118407626D01*
X128320449Y-118129813D01*
X128329623Y-117852001D01*
X128642178Y-117852001D01*
X128651352Y-118129813D01*
X128660525Y-118407626D01*
X128811338Y-118417303D01*
X128962150Y-118426980D01*
X128962150Y-117852001D01*
X129279650Y-117852001D01*
X129279650Y-118087529D01*
X129281707Y-118236854D01*
X129291709Y-118333905D01*
X129315410Y-118389867D01*
X129358560Y-118415927D01*
X129426912Y-118423273D01*
X129452381Y-118423501D01*
X129540385Y-118418887D01*
X129598920Y-118407337D01*
X129607734Y-118402334D01*
X129617530Y-118362750D01*
X129624922Y-118276157D01*
X129628671Y-118159036D01*
X129628900Y-118120515D01*
X129628900Y-117859864D01*
X129796518Y-117845964D01*
X129985698Y-117800446D01*
X130148904Y-117703268D01*
X130276557Y-117563992D01*
X130359077Y-117392179D01*
X130384766Y-117258798D01*
X130398568Y-117092361D01*
X130672547Y-117083243D01*
X130946525Y-117074126D01*
X130946525Y-116788376D01*
X130668713Y-116779202D01*
X130390900Y-116770028D01*
X130390900Y-116455001D01*
X130636963Y-116454514D01*
X130760016Y-116451022D01*
X130860689Y-116442234D01*
X130920070Y-116429919D01*
X130924773Y-116427555D01*
X130952770Y-116374023D01*
X130956980Y-116268165D01*
X130956523Y-116261354D01*
X130946525Y-116121626D01*
X130668713Y-116112452D01*
X130390900Y-116103278D01*
X130390900Y-115790723D01*
X130668713Y-115781549D01*
X130946525Y-115772376D01*
X130946525Y-115486626D01*
X130668713Y-115477452D01*
X130390900Y-115468278D01*
X130390900Y-115155723D01*
X130668713Y-115146549D01*
X130946525Y-115137376D01*
X130956523Y-114997647D01*
X130953588Y-114889259D01*
X130926795Y-114832828D01*
X130924773Y-114831446D01*
X130874477Y-114818700D01*
X130779609Y-114809173D01*
X130659083Y-114804635D01*
X130636963Y-114804487D01*
X130390900Y-114804001D01*
X130390900Y-114723225D01*
X129437253Y-114723225D01*
X129435220Y-114938798D01*
X129433505Y-115038320D01*
X129421296Y-115685944D01*
X129310528Y-115903785D01*
X129191074Y-116090410D01*
X129042325Y-116231073D01*
X128856488Y-116330635D01*
X128625771Y-116393958D01*
X128493838Y-116413245D01*
X128327150Y-116432134D01*
X128327150Y-116694922D01*
X128322866Y-116845743D01*
X128309648Y-116937462D01*
X128287463Y-116973723D01*
X128182576Y-116991454D01*
X128072249Y-116975641D01*
X128039313Y-116961883D01*
X128007825Y-116936446D01*
X127989211Y-116892142D01*
X127980295Y-116814393D01*
X127977906Y-116688624D01*
X127977900Y-116679792D01*
X127977900Y-116430567D01*
X127807658Y-116409297D01*
X127580645Y-116354569D01*
X127369235Y-116253906D01*
X127187184Y-116116292D01*
X127048253Y-115950712D01*
X127013980Y-115891009D01*
X126971837Y-115786375D01*
X126940197Y-115653958D01*
X126918112Y-115485629D01*
X126904631Y-115273257D01*
X126898806Y-115008712D01*
X126898400Y-114901085D01*
X126898708Y-114691351D01*
X126901245Y-114536720D01*
X126908435Y-114428795D01*
X126922701Y-114359181D01*
X126946467Y-114319480D01*
X126982155Y-114301297D01*
X127032190Y-114296233D01*
X127073026Y-114296000D01*
X127132489Y-114296937D01*
X127176645Y-114305229D01*
X127207776Y-114329102D01*
X127228160Y-114376781D01*
X127240079Y-114456490D01*
X127245812Y-114576454D01*
X127247641Y-114744899D01*
X127247828Y-114926460D01*
X127249578Y-115122442D01*
X127254331Y-115303997D01*
X127261516Y-115458569D01*
X127270564Y-115573599D01*
X127279910Y-115633235D01*
X127362571Y-115819819D01*
X127493087Y-115967525D01*
X127665503Y-116071193D01*
X127842963Y-116121224D01*
X127977900Y-116143082D01*
X127977900Y-115257641D01*
X127978156Y-114985609D01*
X127979675Y-114770416D01*
X127983581Y-114605403D01*
X127991000Y-114483911D01*
X128003057Y-114399278D01*
X128020879Y-114344845D01*
X128045590Y-114313953D01*
X128078316Y-114299940D01*
X128120183Y-114296148D01*
X128140404Y-114296001D01*
X128193724Y-114295713D01*
X128235810Y-114299319D01*
X128267988Y-114313521D01*
X128291582Y-114345022D01*
X128307920Y-114400523D01*
X128318326Y-114486729D01*
X128324126Y-114610340D01*
X128326647Y-114778060D01*
X128327215Y-114996592D01*
X128327150Y-115240080D01*
X128327150Y-116145616D01*
X128462088Y-116124578D01*
X128675928Y-116064452D01*
X128848734Y-115958117D01*
X128977361Y-115807511D01*
X128977858Y-115806700D01*
X129073275Y-115650525D01*
X129084146Y-114997137D01*
X129089883Y-114744383D01*
X129097756Y-114552669D01*
X129107935Y-114419561D01*
X129120592Y-114342629D01*
X129131771Y-114320360D01*
X129205544Y-114298702D01*
X129298336Y-114300424D01*
X129378718Y-114322895D01*
X129406420Y-114343348D01*
X129420468Y-114378667D01*
X129430124Y-114449515D01*
X129435637Y-114562250D01*
X129437253Y-114723225D01*
X130390900Y-114723225D01*
X130390900Y-114518251D01*
X130622957Y-114518251D01*
X130777769Y-114512428D01*
X130879027Y-114491146D01*
X130935924Y-114448687D01*
X130957655Y-114379332D01*
X130956777Y-114310609D01*
X130946525Y-114184876D01*
X130673034Y-114175765D01*
X130399542Y-114166654D01*
X130381846Y-113995197D01*
X130332709Y-113802497D01*
X130233295Y-113639094D01*
X130092294Y-113513648D01*
X129918395Y-113434817D01*
X129797698Y-113413135D01*
X129631261Y-113399333D01*
X129622143Y-113125354D01*
X129613025Y-112851376D01*
X129473297Y-112841378D01*
X129364909Y-112844313D01*
X129308478Y-112871106D01*
X129307096Y-112873128D01*
X129294350Y-112923424D01*
X129284823Y-113018292D01*
X129280285Y-113138818D01*
X129280137Y-113160938D01*
X129279650Y-113407001D01*
X128962150Y-113407001D01*
X128962150Y-112832021D01*
X128811338Y-112841698D01*
G37*
X128811338Y-112841698D02*
X128660525Y-112851376D01*
X128651352Y-113129188D01*
X128642178Y-113407001D01*
X128329623Y-113407001D01*
X128320449Y-113129188D01*
X128311275Y-112851376D01*
X128025525Y-112851376D01*
X128016352Y-113129188D01*
X128007178Y-113407001D01*
X127694623Y-113407001D01*
X127685449Y-113129188D01*
X127676275Y-112851376D01*
X127536547Y-112841378D01*
X127428159Y-112844313D01*
X127371728Y-112871106D01*
X127370346Y-112873128D01*
X127357600Y-112923424D01*
X127348073Y-113018292D01*
X127343535Y-113138818D01*
X127343387Y-113160938D01*
X127342900Y-113407001D01*
X127027873Y-113407001D01*
X127018699Y-113129188D01*
X127009525Y-112851376D01*
X126723775Y-112851376D01*
X126714602Y-113129188D01*
X126705428Y-113407001D01*
X126568783Y-113407001D01*
X126388624Y-113436868D01*
X126226521Y-113519855D01*
X126092923Y-113646039D01*
X125998277Y-113805496D01*
X125953034Y-113988305D01*
X125952709Y-113992082D01*
X125938233Y-114166640D01*
X125390275Y-114184876D01*
X125380278Y-114324604D01*
X125383213Y-114432992D01*
X125410006Y-114489423D01*
X125412028Y-114490805D01*
X125462324Y-114503551D01*
X125557192Y-114513078D01*
X125677718Y-114517616D01*
X125699838Y-114517764D01*
X125945900Y-114518251D01*
X125945900Y-114804001D01*
X125699838Y-114804487D01*
X125576785Y-114807979D01*
X125476112Y-114816767D01*
X125416731Y-114829082D01*
X125412028Y-114831446D01*
X125384031Y-114884978D01*
X125379821Y-114990836D01*
X125380278Y-114997647D01*
X125390275Y-115137376D01*
X125668088Y-115146549D01*
X125945901Y-115155723D01*
X125945901Y-115468278D01*
X125390275Y-115486626D01*
X125390275Y-115772376D01*
X125668088Y-115781549D01*
X125945900Y-115790723D01*
X125945900Y-116103278D01*
X125668088Y-116112452D01*
X125390275Y-116121626D01*
X125380278Y-116261354D01*
X125383213Y-116369742D01*
X125410006Y-116426173D01*
X125412028Y-116427555D01*
X125462261Y-116440259D01*
X125557158Y-116449775D01*
X125677902Y-116454349D01*
X125701578Y-116454514D01*
X125949380Y-116455001D01*
X125939703Y-116605813D01*
X125930025Y-116756626D01*
X125650525Y-116765824D01*
X125371024Y-116775022D01*
X125380650Y-116924574D01*
X125390275Y-117074126D01*
X125664254Y-117083243D01*
X125938233Y-117092361D01*
X125952709Y-117266919D01*
X125996871Y-117450088D01*
X126090642Y-117610103D01*
X126223573Y-117737039D01*
X126385214Y-117820976D01*
X126565117Y-117851988D01*
X126568783Y-117852001D01*
X126705428Y-117852001D01*
X126714602Y-118129813D01*
X126723775Y-118407626D01*
X126874588Y-118417303D01*
X127025400Y-118426980D01*
X127025400Y-117852001D01*
X127342900Y-117852001D01*
X127343387Y-118098063D01*
X127346879Y-118221116D01*
X127355667Y-118321789D01*
X127367982Y-118381170D01*
X127370346Y-118385873D01*
X127423878Y-118413870D01*
X127529736Y-118418080D01*
X127536547Y-118417623D01*
X127676275Y-118407626D01*
X127685449Y-118129813D01*
X127694623Y-117852001D01*
X128007178Y-117852001D01*
X128016352Y-118129813D01*
X128025525Y-118407626D01*
X128311275Y-118407626D01*
X128320449Y-118129813D01*
X128329623Y-117852001D01*
X128642178Y-117852001D01*
X128651352Y-118129813D01*
X128660525Y-118407626D01*
X128811338Y-118417303D01*
X128962150Y-118426980D01*
X128962150Y-117852001D01*
X129279650Y-117852001D01*
X129279650Y-118087529D01*
X129281707Y-118236854D01*
X129291709Y-118333905D01*
X129315410Y-118389867D01*
X129358560Y-118415927D01*
X129426912Y-118423273D01*
X129452381Y-118423501D01*
X129540385Y-118418887D01*
X129598920Y-118407337D01*
X129607734Y-118402334D01*
X129617530Y-118362750D01*
X129624922Y-118276157D01*
X129628671Y-118159036D01*
X129628900Y-118120515D01*
X129628900Y-117859864D01*
X129796518Y-117845964D01*
X129985698Y-117800446D01*
X130148904Y-117703268D01*
X130276557Y-117563992D01*
X130359077Y-117392179D01*
X130384766Y-117258798D01*
X130398568Y-117092361D01*
X130672547Y-117083243D01*
X130946525Y-117074126D01*
X130946525Y-116788376D01*
X130668713Y-116779202D01*
X130390900Y-116770028D01*
X130390900Y-116455001D01*
X130636963Y-116454514D01*
X130760016Y-116451022D01*
X130860689Y-116442234D01*
X130920070Y-116429919D01*
X130924773Y-116427555D01*
X130952770Y-116374023D01*
X130956980Y-116268165D01*
X130956523Y-116261354D01*
X130946525Y-116121626D01*
X130668713Y-116112452D01*
X130390900Y-116103278D01*
X130390900Y-115790723D01*
X130668713Y-115781549D01*
X130946525Y-115772376D01*
X130946525Y-115486626D01*
X130668713Y-115477452D01*
X130390900Y-115468278D01*
X130390900Y-115155723D01*
X130668713Y-115146549D01*
X130946525Y-115137376D01*
X130956523Y-114997647D01*
X130953588Y-114889259D01*
X130926795Y-114832828D01*
X130924773Y-114831446D01*
X130874477Y-114818700D01*
X130779609Y-114809173D01*
X130659083Y-114804635D01*
X130636963Y-114804487D01*
X130390900Y-114804001D01*
X130390900Y-114723225D01*
X129437253Y-114723225D01*
X129435220Y-114938798D01*
X129433505Y-115038320D01*
X129421296Y-115685944D01*
X129310528Y-115903785D01*
X129191074Y-116090410D01*
X129042325Y-116231073D01*
X128856488Y-116330635D01*
X128625771Y-116393958D01*
X128493838Y-116413245D01*
X128327150Y-116432134D01*
X128327150Y-116694922D01*
X128322866Y-116845743D01*
X128309648Y-116937462D01*
X128287463Y-116973723D01*
X128182576Y-116991454D01*
X128072249Y-116975641D01*
X128039313Y-116961883D01*
X128007825Y-116936446D01*
X127989211Y-116892142D01*
X127980295Y-116814393D01*
X127977906Y-116688624D01*
X127977900Y-116679792D01*
X127977900Y-116430567D01*
X127807658Y-116409297D01*
X127580645Y-116354569D01*
X127369235Y-116253906D01*
X127187184Y-116116292D01*
X127048253Y-115950712D01*
X127013980Y-115891009D01*
X126971837Y-115786375D01*
X126940197Y-115653958D01*
X126918112Y-115485629D01*
X126904631Y-115273257D01*
X126898806Y-115008712D01*
X126898400Y-114901085D01*
X126898708Y-114691351D01*
X126901245Y-114536720D01*
X126908435Y-114428795D01*
X126922701Y-114359181D01*
X126946467Y-114319480D01*
X126982155Y-114301297D01*
X127032190Y-114296233D01*
X127073026Y-114296000D01*
X127132489Y-114296937D01*
X127176645Y-114305229D01*
X127207776Y-114329102D01*
X127228160Y-114376781D01*
X127240079Y-114456490D01*
X127245812Y-114576454D01*
X127247641Y-114744899D01*
X127247828Y-114926460D01*
X127249578Y-115122442D01*
X127254331Y-115303997D01*
X127261516Y-115458569D01*
X127270564Y-115573599D01*
X127279910Y-115633235D01*
X127362571Y-115819819D01*
X127493087Y-115967525D01*
X127665503Y-116071193D01*
X127842963Y-116121224D01*
X127977900Y-116143082D01*
X127977900Y-115257641D01*
X127978156Y-114985609D01*
X127979675Y-114770416D01*
X127983581Y-114605403D01*
X127991000Y-114483911D01*
X128003057Y-114399278D01*
X128020879Y-114344845D01*
X128045590Y-114313953D01*
X128078316Y-114299940D01*
X128120183Y-114296148D01*
X128140404Y-114296001D01*
X128193724Y-114295713D01*
X128235810Y-114299319D01*
X128267988Y-114313521D01*
X128291582Y-114345022D01*
X128307920Y-114400523D01*
X128318326Y-114486729D01*
X128324126Y-114610340D01*
X128326647Y-114778060D01*
X128327215Y-114996592D01*
X128327150Y-115240080D01*
X128327150Y-116145616D01*
X128462088Y-116124578D01*
X128675928Y-116064452D01*
X128848734Y-115958117D01*
X128977361Y-115807511D01*
X128977858Y-115806700D01*
X129073275Y-115650525D01*
X129084146Y-114997137D01*
X129089883Y-114744383D01*
X129097756Y-114552669D01*
X129107935Y-114419561D01*
X129120592Y-114342629D01*
X129131771Y-114320360D01*
X129205544Y-114298702D01*
X129298336Y-114300424D01*
X129378718Y-114322895D01*
X129406420Y-114343348D01*
X129420468Y-114378667D01*
X129430124Y-114449515D01*
X129435637Y-114562250D01*
X129437253Y-114723225D01*
X130390900Y-114723225D01*
X130390900Y-114518251D01*
X130622957Y-114518251D01*
X130777769Y-114512428D01*
X130879027Y-114491146D01*
X130935924Y-114448687D01*
X130957655Y-114379332D01*
X130956777Y-114310609D01*
X130946525Y-114184876D01*
X130673034Y-114175765D01*
X130399542Y-114166654D01*
X130381846Y-113995197D01*
X130332709Y-113802497D01*
X130233295Y-113639094D01*
X130092294Y-113513648D01*
X129918395Y-113434817D01*
X129797698Y-113413135D01*
X129631261Y-113399333D01*
X129622143Y-113125354D01*
X129613025Y-112851376D01*
X129473297Y-112841378D01*
X129364909Y-112844313D01*
X129308478Y-112871106D01*
X129307096Y-112873128D01*
X129294350Y-112923424D01*
X129284823Y-113018292D01*
X129280285Y-113138818D01*
X129280137Y-113160938D01*
X129279650Y-113407001D01*
X128962150Y-113407001D01*
X128962150Y-112832021D01*
X128811338Y-112841698D01*
D13*
X225174400Y-169924300D02*
X228774400Y-169924300D01*
X228774400Y-169924300D02*
X229274400Y-169424300D01*
X229274400Y-169424300D02*
X229274400Y-168624300D01*
X229274400Y-168624300D02*
X228774400Y-168124300D01*
X228774400Y-168124300D02*
X225174400Y-168124300D01*
X225174400Y-168124300D02*
X224674400Y-168624300D01*
X224674400Y-168624300D02*
X224674400Y-169424300D01*
X224674400Y-169424300D02*
X225174400Y-169924300D01*
D14*
X93085900Y-98673100D02*
X100385900Y-98673100D01*
X93085900Y-93173100D02*
X100385900Y-93173100D01*
X100385900Y-93173100D02*
X100385900Y-94323100D01*
X129026900Y-98685800D02*
X136326900Y-98685800D01*
X129026900Y-93185800D02*
X136326900Y-93185800D01*
X136326900Y-93185800D02*
X136326900Y-94335800D01*
X192361800Y-98685800D02*
X199661800Y-98685800D01*
X192361800Y-93185800D02*
X199661800Y-93185800D01*
X199661800Y-93185800D02*
X199661800Y-94335800D01*
X241980700Y-98685800D02*
X249280700Y-98685800D01*
X241980700Y-93185800D02*
X249280700Y-93185800D01*
X249280700Y-93185800D02*
X249280700Y-94335800D01*
X201410500Y-151823922D02*
X201410500Y-152341078D01*
X202830500Y-151823922D02*
X202830500Y-152341078D01*
X350521200Y-151582622D02*
X350521200Y-152099778D01*
X351941200Y-151582622D02*
X351941200Y-152099778D01*
X301232500Y-151582622D02*
X301232500Y-152099778D01*
X302652500Y-151582622D02*
X302652500Y-152099778D01*
X250915100Y-151582622D02*
X250915100Y-152099778D01*
X252335100Y-151582622D02*
X252335100Y-152099778D01*
X292361600Y-98685800D02*
X299661600Y-98685800D01*
X292361600Y-93185800D02*
X299661600Y-93185800D01*
X299661600Y-93185800D02*
X299661600Y-94335800D01*
X341688400Y-98685800D02*
X348988400Y-98685800D01*
X341688400Y-93185800D02*
X348988400Y-93185800D01*
X348988400Y-93185800D02*
X348988400Y-94335800D01*
X348988400Y-149751600D02*
X341688400Y-149751600D01*
X348988400Y-155251600D02*
X341688400Y-155251600D01*
X341688400Y-155251600D02*
X341688400Y-154101600D01*
X299661600Y-149751600D02*
X292361600Y-149751600D01*
X299661600Y-155251600D02*
X292361600Y-155251600D01*
X292361600Y-155251600D02*
X292361600Y-154101600D01*
X249280700Y-149751600D02*
X241980700Y-149751600D01*
X249280700Y-155251600D02*
X241980700Y-155251600D01*
X241980700Y-155251600D02*
X241980700Y-154101600D01*
X199661800Y-149992900D02*
X192361800Y-149992900D01*
X199661800Y-155492900D02*
X192361800Y-155492900D01*
X192361800Y-155492900D02*
X192361800Y-154342900D01*
X136326900Y-149891300D02*
X129026900Y-149891300D01*
X136326900Y-155391300D02*
X129026900Y-155391300D01*
X129026900Y-155391300D02*
X129026900Y-154241300D01*
X85374500Y-149891300D02*
X78074500Y-149891300D01*
X85374500Y-155391300D02*
X78074500Y-155391300D01*
X78074500Y-155391300D02*
X78074500Y-154241300D01*
X125870900Y-153043122D02*
X125870900Y-153560278D01*
X127290900Y-153043122D02*
X127290900Y-153560278D01*
X103376800Y-95508578D02*
X103376800Y-94991422D01*
X101956800Y-95508578D02*
X101956800Y-94991422D01*
X86335800Y-151150822D02*
X86335800Y-151667978D01*
X87755800Y-151150822D02*
X87755800Y-151667978D01*
X252297000Y-95521278D02*
X252297000Y-95004122D01*
X250877000Y-95521278D02*
X250877000Y-95004122D01*
X139571800Y-95521278D02*
X139571800Y-95004122D01*
X138151800Y-95521278D02*
X138151800Y-95004122D01*
X203148000Y-95521278D02*
X203148000Y-95004122D01*
X201728000Y-95521278D02*
X201728000Y-95004122D01*
X302703300Y-95533978D02*
X302703300Y-95016822D01*
X301283300Y-95533978D02*
X301283300Y-95016822D01*
X351915800Y-95533978D02*
X351915800Y-95016822D01*
X350495800Y-95533978D02*
X350495800Y-95016822D01*
X133215500Y-168400000D02*
X133215500Y-166940000D01*
X130055500Y-168400000D02*
X130055500Y-166240000D01*
X130055500Y-168400000D02*
X130985500Y-168400000D01*
X133215500Y-168400000D02*
X132285500Y-168400000D01*
X345242000Y-110742000D02*
X345242000Y-109282000D01*
X342082000Y-110742000D02*
X342082000Y-108582000D01*
X342082000Y-110742000D02*
X343012000Y-110742000D01*
X345242000Y-110742000D02*
X344312000Y-110742000D01*
X99268400Y-91806300D02*
X99268400Y-90346300D01*
X96108400Y-91806300D02*
X96108400Y-89646300D01*
X96108400Y-91806300D02*
X97038400Y-91806300D01*
X99268400Y-91806300D02*
X98338400Y-91806300D01*
D13*
X167640000Y-166576555D02*
X167233414Y-166169969D01*
X174958555Y-159258000D02*
X174481258Y-158780703D01*
X167640000Y-151939445D02*
X168117297Y-152416742D01*
X160321445Y-159258000D02*
X160798742Y-159735297D01*
X167640000Y-166576555D02*
X168117297Y-166099258D01*
X160321445Y-159258000D02*
X160798742Y-158780703D01*
X167640000Y-151939445D02*
X167162703Y-152416742D01*
X174958555Y-159258000D02*
X174481258Y-159735297D01*
X167233414Y-166169969D02*
X166331852Y-167071530D01*
D14*
X345242000Y-167892000D02*
X344312000Y-167892000D01*
X342082000Y-167892000D02*
X343012000Y-167892000D01*
X342082000Y-167892000D02*
X342082000Y-165732000D01*
X345242000Y-167892000D02*
X345242000Y-166432000D01*
X302570000Y-167892000D02*
X301640000Y-167892000D01*
X299410000Y-167892000D02*
X300340000Y-167892000D01*
X299410000Y-167892000D02*
X299410000Y-165732000D01*
X302570000Y-167892000D02*
X302570000Y-166432000D01*
X249103000Y-167892000D02*
X248173000Y-167892000D01*
X245943000Y-167892000D02*
X246873000Y-167892000D01*
X245943000Y-167892000D02*
X245943000Y-165732000D01*
X249103000Y-167892000D02*
X249103000Y-166432000D01*
X84638000Y-168400000D02*
X83708000Y-168400000D01*
X81478000Y-168400000D02*
X82408000Y-168400000D01*
X81478000Y-168400000D02*
X81478000Y-166240000D01*
X84638000Y-168400000D02*
X84638000Y-166940000D01*
X323017000Y-148969000D02*
X322087000Y-148969000D01*
X319857000Y-148969000D02*
X320787000Y-148969000D01*
X319857000Y-148969000D02*
X319857000Y-146809000D01*
X323017000Y-148969000D02*
X323017000Y-147509000D01*
X273868000Y-148969000D02*
X272938000Y-148969000D01*
X270708000Y-148969000D02*
X271638000Y-148969000D01*
X270708000Y-148969000D02*
X270708000Y-146809000D01*
X273868000Y-148969000D02*
X273868000Y-147509000D01*
X235768000Y-148969000D02*
X234838000Y-148969000D01*
X232608000Y-148969000D02*
X233538000Y-148969000D01*
X232608000Y-148969000D02*
X232608000Y-146809000D01*
X235768000Y-148969000D02*
X235768000Y-147509000D01*
X197668000Y-148969000D02*
X196738000Y-148969000D01*
X194508000Y-148969000D02*
X195438000Y-148969000D01*
X194508000Y-148969000D02*
X194508000Y-146809000D01*
X197668000Y-148969000D02*
X197668000Y-147509000D01*
X159568000Y-148969000D02*
X158638000Y-148969000D01*
X156408000Y-148969000D02*
X157338000Y-148969000D01*
X156408000Y-148969000D02*
X156408000Y-146809000D01*
X159568000Y-148969000D02*
X159568000Y-147509000D01*
X121595000Y-148969000D02*
X120665000Y-148969000D01*
X118435000Y-148969000D02*
X119365000Y-148969000D01*
X118435000Y-148969000D02*
X118435000Y-146809000D01*
X121595000Y-148969000D02*
X121595000Y-147509000D01*
X102545000Y-148969000D02*
X101615000Y-148969000D01*
X99385000Y-148969000D02*
X100315000Y-148969000D01*
X99385000Y-148969000D02*
X99385000Y-146809000D01*
X102545000Y-148969000D02*
X102545000Y-147509000D01*
X346321500Y-129728500D02*
X345391500Y-129728500D01*
X343161500Y-129728500D02*
X344091500Y-129728500D01*
X343161500Y-129728500D02*
X343161500Y-127568500D01*
X346321500Y-129728500D02*
X346321500Y-128268500D01*
X283393000Y-129665000D02*
X282463000Y-129665000D01*
X280233000Y-129665000D02*
X281163000Y-129665000D01*
X280233000Y-129665000D02*
X280233000Y-127505000D01*
X283393000Y-129665000D02*
X283393000Y-128205000D01*
X245293000Y-129665000D02*
X244363000Y-129665000D01*
X242133000Y-129665000D02*
X243063000Y-129665000D01*
X242133000Y-129665000D02*
X242133000Y-127505000D01*
X245293000Y-129665000D02*
X245293000Y-128205000D01*
X207193000Y-129665000D02*
X206263000Y-129665000D01*
X204033000Y-129665000D02*
X204963000Y-129665000D01*
X204033000Y-129665000D02*
X204033000Y-127505000D01*
X207193000Y-129665000D02*
X207193000Y-128205000D01*
X169093000Y-129665000D02*
X168163000Y-129665000D01*
X165933000Y-129665000D02*
X166863000Y-129665000D01*
X165933000Y-129665000D02*
X165933000Y-127505000D01*
X169093000Y-129665000D02*
X169093000Y-128205000D01*
X130993000Y-129665000D02*
X130063000Y-129665000D01*
X127833000Y-129665000D02*
X128763000Y-129665000D01*
X127833000Y-129665000D02*
X127833000Y-127505000D01*
X130993000Y-129665000D02*
X130993000Y-128205000D01*
X89337000Y-129665000D02*
X88407000Y-129665000D01*
X86177000Y-129665000D02*
X87107000Y-129665000D01*
X86177000Y-129665000D02*
X86177000Y-127505000D01*
X89337000Y-129665000D02*
X89337000Y-128205000D01*
X316667000Y-110742000D02*
X315737000Y-110742000D01*
X313507000Y-110742000D02*
X314437000Y-110742000D01*
X313507000Y-110742000D02*
X313507000Y-108582000D01*
X316667000Y-110742000D02*
X316667000Y-109282000D01*
X278630500Y-110742000D02*
X277700500Y-110742000D01*
X275470500Y-110742000D02*
X276400500Y-110742000D01*
X275470500Y-110742000D02*
X275470500Y-108582000D01*
X278630500Y-110742000D02*
X278630500Y-109282000D01*
X240530500Y-110742000D02*
X239600500Y-110742000D01*
X237370500Y-110742000D02*
X238300500Y-110742000D01*
X237370500Y-110742000D02*
X237370500Y-108582000D01*
X240530500Y-110742000D02*
X240530500Y-109282000D01*
X202430500Y-110742000D02*
X201500500Y-110742000D01*
X199270500Y-110742000D02*
X200200500Y-110742000D01*
X199270500Y-110742000D02*
X199270500Y-108582000D01*
X202430500Y-110742000D02*
X202430500Y-109282000D01*
X164330500Y-110742000D02*
X163400500Y-110742000D01*
X161170500Y-110742000D02*
X162100500Y-110742000D01*
X161170500Y-110742000D02*
X161170500Y-108582000D01*
X164330500Y-110742000D02*
X164330500Y-109282000D01*
X126230500Y-110742000D02*
X125300500Y-110742000D01*
X123070500Y-110742000D02*
X124000500Y-110742000D01*
X123070500Y-110742000D02*
X123070500Y-108582000D01*
X126230500Y-110742000D02*
X126230500Y-109282000D01*
X107117000Y-110742000D02*
X106187000Y-110742000D01*
X103957000Y-110742000D02*
X104887000Y-110742000D01*
X103957000Y-110742000D02*
X103957000Y-108582000D01*
X107117000Y-110742000D02*
X107117000Y-109282000D01*
X345242000Y-91819000D02*
X344312000Y-91819000D01*
X342082000Y-91819000D02*
X343012000Y-91819000D01*
X342082000Y-91819000D02*
X342082000Y-89659000D01*
X345242000Y-91819000D02*
X345242000Y-90359000D01*
X307142000Y-91819000D02*
X306212000Y-91819000D01*
X303982000Y-91819000D02*
X304912000Y-91819000D01*
X303982000Y-91819000D02*
X303982000Y-89659000D01*
X307142000Y-91819000D02*
X307142000Y-90359000D01*
X269042000Y-91819000D02*
X268112000Y-91819000D01*
X265882000Y-91819000D02*
X266812000Y-91819000D01*
X265882000Y-91819000D02*
X265882000Y-89659000D01*
X269042000Y-91819000D02*
X269042000Y-90359000D01*
X230942000Y-91819000D02*
X230012000Y-91819000D01*
X227782000Y-91819000D02*
X228712000Y-91819000D01*
X227782000Y-91819000D02*
X227782000Y-89659000D01*
X230942000Y-91819000D02*
X230942000Y-90359000D01*
X192842000Y-91819000D02*
X191912000Y-91819000D01*
X189682000Y-91819000D02*
X190612000Y-91819000D01*
X189682000Y-91819000D02*
X189682000Y-89659000D01*
X192842000Y-91819000D02*
X192842000Y-90359000D01*
X154742000Y-91819000D02*
X153812000Y-91819000D01*
X151582000Y-91819000D02*
X152512000Y-91819000D01*
X151582000Y-91819000D02*
X151582000Y-89659000D01*
X154742000Y-91819000D02*
X154742000Y-90359000D01*
X116642000Y-91819000D02*
X115712000Y-91819000D01*
X113482000Y-91819000D02*
X114412000Y-91819000D01*
X113482000Y-91819000D02*
X113482000Y-89659000D01*
X116642000Y-91819000D02*
X116642000Y-90359000D01*
X164061440Y-151898513D02*
X161233013Y-154726940D01*
X161727987Y-149565060D02*
X164061440Y-151898513D01*
X72277240Y-74692760D02*
X72277240Y-72792760D01*
X72277240Y-78592760D02*
X72277240Y-76592760D01*
X81677240Y-74692760D02*
X81677240Y-72792760D01*
X81677240Y-78592760D02*
X81677240Y-76592760D01*
X72277240Y-72792760D02*
X81677240Y-72792760D01*
X77384300Y-97230800D02*
X74934300Y-97230800D01*
X75584300Y-94010800D02*
X77384300Y-94010800D01*
X172297335Y-169018782D02*
X171976218Y-168697665D01*
X173336782Y-167979335D02*
X173015665Y-167658218D01*
X177557276Y-155627012D02*
X177236159Y-155948129D01*
X176517829Y-154587565D02*
X176196712Y-154908682D01*
X83767600Y-106897436D02*
X83767600Y-107351564D01*
X82297600Y-106897436D02*
X82297600Y-107351564D01*
X85863100Y-106897436D02*
X85863100Y-107351564D01*
X84393100Y-106897436D02*
X84393100Y-107351564D01*
X77306500Y-84745564D02*
X77306500Y-84291436D01*
X78776500Y-84745564D02*
X78776500Y-84291436D01*
X74258500Y-84781764D02*
X74258500Y-84327636D01*
X75728500Y-84781764D02*
X75728500Y-84327636D01*
X81989036Y-101566300D02*
X83193164Y-101566300D01*
X81989036Y-103386300D02*
X83193164Y-103386300D01*
X159465990Y-153791043D02*
X159835457Y-154160510D01*
X158426543Y-154830490D02*
X158796010Y-155199957D01*
X163495010Y-150500957D02*
X163125543Y-150131490D01*
X164534457Y-149461510D02*
X164164990Y-149092043D01*
X161803957Y-166704990D02*
X161434490Y-167074457D01*
X160764510Y-165665543D02*
X160395043Y-166035010D01*
X160243206Y-165154241D02*
X159873739Y-165523708D01*
X159203759Y-164114794D02*
X158834292Y-164484261D01*
X177654279Y-156414600D02*
X178023746Y-156045133D01*
X178693726Y-157454047D02*
X179063193Y-157084580D01*
X171253543Y-150223510D02*
X171623010Y-149854043D01*
X172292990Y-151262957D02*
X172662457Y-150893490D01*
X158311457Y-155748009D02*
X157941990Y-155378542D01*
X157272010Y-156787456D02*
X156902543Y-156417989D01*
X164672990Y-168015043D02*
X165042457Y-168384510D01*
X163633543Y-169054490D02*
X164003010Y-169423957D01*
D13*
X349202685Y-151353980D02*
X349774114Y-151353980D01*
X349488400Y-151353980D02*
X349488400Y-150353980D01*
X349583638Y-150496838D01*
X349678876Y-150592076D01*
X349774114Y-150639695D01*
%LPC*%
D15*
X228244400Y-169024300D03*
X225704400Y-169024300D03*
D16*
X80454500Y-121119900D03*
X67527500Y-123659900D03*
D17*
X79692500Y-126199900D03*
X69532500Y-126199900D03*
D18*
X70802500Y-123659900D03*
D19*
X74612500Y-126199900D03*
D18*
X77152500Y-121119900D03*
D16*
X130453130Y-82995770D03*
X117526130Y-85535770D03*
D17*
X129691130Y-88075770D03*
X119531130Y-88075770D03*
D18*
X120801130Y-85535770D03*
D19*
X124611130Y-88075770D03*
D18*
X127151130Y-82995770D03*
D20*
X94285900Y-97523100D03*
X94285900Y-94323100D03*
X99185900Y-97523100D03*
X99185900Y-94323100D03*
X130226900Y-97535800D03*
X130226900Y-94335800D03*
X135126900Y-97535800D03*
X135126900Y-94335800D03*
X193561800Y-97535800D03*
X193561800Y-94335800D03*
X198461800Y-97535800D03*
X198461800Y-94335800D03*
X243180700Y-97535800D03*
X243180700Y-94335800D03*
X248080700Y-97535800D03*
X248080700Y-94335800D03*
G36*
G01*
X201664250Y-152532500D02*
X202576750Y-152532500D01*
G75*
G02*
X202820500Y-152776250I0J-243750D01*
G01*
X202820500Y-153263750D01*
G75*
G02*
X202576750Y-153507500I-243750J0D01*
G01*
X201664250Y-153507500D01*
G75*
G02*
X201420500Y-153263750I0J243750D01*
G01*
X201420500Y-152776250D01*
G75*
G02*
X201664250Y-152532500I243750J0D01*
G01*
G37*
G36*
G01*
X201664250Y-150657500D02*
X202576750Y-150657500D01*
G75*
G02*
X202820500Y-150901250I0J-243750D01*
G01*
X202820500Y-151388750D01*
G75*
G02*
X202576750Y-151632500I-243750J0D01*
G01*
X201664250Y-151632500D01*
G75*
G02*
X201420500Y-151388750I0J243750D01*
G01*
X201420500Y-150901250D01*
G75*
G02*
X201664250Y-150657500I243750J0D01*
G01*
G37*
G36*
G01*
X350774950Y-152291200D02*
X351687450Y-152291200D01*
G75*
G02*
X351931200Y-152534950I0J-243750D01*
G01*
X351931200Y-153022450D01*
G75*
G02*
X351687450Y-153266200I-243750J0D01*
G01*
X350774950Y-153266200D01*
G75*
G02*
X350531200Y-153022450I0J243750D01*
G01*
X350531200Y-152534950D01*
G75*
G02*
X350774950Y-152291200I243750J0D01*
G01*
G37*
G36*
G01*
X350774950Y-150416200D02*
X351687450Y-150416200D01*
G75*
G02*
X351931200Y-150659950I0J-243750D01*
G01*
X351931200Y-151147450D01*
G75*
G02*
X351687450Y-151391200I-243750J0D01*
G01*
X350774950Y-151391200D01*
G75*
G02*
X350531200Y-151147450I0J243750D01*
G01*
X350531200Y-150659950D01*
G75*
G02*
X350774950Y-150416200I243750J0D01*
G01*
G37*
G36*
G01*
X301486250Y-152291200D02*
X302398750Y-152291200D01*
G75*
G02*
X302642500Y-152534950I0J-243750D01*
G01*
X302642500Y-153022450D01*
G75*
G02*
X302398750Y-153266200I-243750J0D01*
G01*
X301486250Y-153266200D01*
G75*
G02*
X301242500Y-153022450I0J243750D01*
G01*
X301242500Y-152534950D01*
G75*
G02*
X301486250Y-152291200I243750J0D01*
G01*
G37*
G36*
G01*
X301486250Y-150416200D02*
X302398750Y-150416200D01*
G75*
G02*
X302642500Y-150659950I0J-243750D01*
G01*
X302642500Y-151147450D01*
G75*
G02*
X302398750Y-151391200I-243750J0D01*
G01*
X301486250Y-151391200D01*
G75*
G02*
X301242500Y-151147450I0J243750D01*
G01*
X301242500Y-150659950D01*
G75*
G02*
X301486250Y-150416200I243750J0D01*
G01*
G37*
G36*
G01*
X251168850Y-152291200D02*
X252081350Y-152291200D01*
G75*
G02*
X252325100Y-152534950I0J-243750D01*
G01*
X252325100Y-153022450D01*
G75*
G02*
X252081350Y-153266200I-243750J0D01*
G01*
X251168850Y-153266200D01*
G75*
G02*
X250925100Y-153022450I0J243750D01*
G01*
X250925100Y-152534950D01*
G75*
G02*
X251168850Y-152291200I243750J0D01*
G01*
G37*
G36*
G01*
X251168850Y-150416200D02*
X252081350Y-150416200D01*
G75*
G02*
X252325100Y-150659950I0J-243750D01*
G01*
X252325100Y-151147450D01*
G75*
G02*
X252081350Y-151391200I-243750J0D01*
G01*
X251168850Y-151391200D01*
G75*
G02*
X250925100Y-151147450I0J243750D01*
G01*
X250925100Y-150659950D01*
G75*
G02*
X251168850Y-150416200I243750J0D01*
G01*
G37*
D19*
X312698130Y-96330770D03*
X336574130Y-96330770D03*
D21*
X312698130Y-81090770D03*
X336574130Y-81090770D03*
D16*
X330478130Y-82995770D03*
X317551130Y-85535770D03*
D17*
X329716130Y-88075770D03*
X319556130Y-88075770D03*
D18*
X320826130Y-85535770D03*
D19*
X324636130Y-88075770D03*
D18*
X327176130Y-82995770D03*
D20*
X293561600Y-97535800D03*
X293561600Y-94335800D03*
X298461600Y-97535800D03*
X298461600Y-94335800D03*
X342888400Y-97535800D03*
X342888400Y-94335800D03*
X347788400Y-97535800D03*
X347788400Y-94335800D03*
X347788400Y-150901600D03*
X347788400Y-154101600D03*
X342888400Y-150901600D03*
X342888400Y-154101600D03*
X298461600Y-150901600D03*
X298461600Y-154101600D03*
X293561600Y-150901600D03*
X293561600Y-154101600D03*
X248080700Y-150901600D03*
X248080700Y-154101600D03*
X243180700Y-150901600D03*
X243180700Y-154101600D03*
X198461800Y-151142900D03*
X198461800Y-154342900D03*
X193561800Y-151142900D03*
X193561800Y-154342900D03*
X135126900Y-151041300D03*
X135126900Y-154241300D03*
X130226900Y-151041300D03*
X130226900Y-154241300D03*
X84174500Y-151041300D03*
X84174500Y-154241300D03*
X79274500Y-151041300D03*
X79274500Y-154241300D03*
G36*
G01*
X126124650Y-153751700D02*
X127037150Y-153751700D01*
G75*
G02*
X127280900Y-153995450I0J-243750D01*
G01*
X127280900Y-154482950D01*
G75*
G02*
X127037150Y-154726700I-243750J0D01*
G01*
X126124650Y-154726700D01*
G75*
G02*
X125880900Y-154482950I0J243750D01*
G01*
X125880900Y-153995450D01*
G75*
G02*
X126124650Y-153751700I243750J0D01*
G01*
G37*
G36*
G01*
X126124650Y-151876700D02*
X127037150Y-151876700D01*
G75*
G02*
X127280900Y-152120450I0J-243750D01*
G01*
X127280900Y-152607950D01*
G75*
G02*
X127037150Y-152851700I-243750J0D01*
G01*
X126124650Y-152851700D01*
G75*
G02*
X125880900Y-152607950I0J243750D01*
G01*
X125880900Y-152120450D01*
G75*
G02*
X126124650Y-151876700I243750J0D01*
G01*
G37*
G36*
G01*
X103123050Y-94800000D02*
X102210550Y-94800000D01*
G75*
G02*
X101966800Y-94556250I0J243750D01*
G01*
X101966800Y-94068750D01*
G75*
G02*
X102210550Y-93825000I243750J0D01*
G01*
X103123050Y-93825000D01*
G75*
G02*
X103366800Y-94068750I0J-243750D01*
G01*
X103366800Y-94556250D01*
G75*
G02*
X103123050Y-94800000I-243750J0D01*
G01*
G37*
G36*
G01*
X103123050Y-96675000D02*
X102210550Y-96675000D01*
G75*
G02*
X101966800Y-96431250I0J243750D01*
G01*
X101966800Y-95943750D01*
G75*
G02*
X102210550Y-95700000I243750J0D01*
G01*
X103123050Y-95700000D01*
G75*
G02*
X103366800Y-95943750I0J-243750D01*
G01*
X103366800Y-96431250D01*
G75*
G02*
X103123050Y-96675000I-243750J0D01*
G01*
G37*
G36*
G01*
X86589550Y-151859400D02*
X87502050Y-151859400D01*
G75*
G02*
X87745800Y-152103150I0J-243750D01*
G01*
X87745800Y-152590650D01*
G75*
G02*
X87502050Y-152834400I-243750J0D01*
G01*
X86589550Y-152834400D01*
G75*
G02*
X86345800Y-152590650I0J243750D01*
G01*
X86345800Y-152103150D01*
G75*
G02*
X86589550Y-151859400I243750J0D01*
G01*
G37*
G36*
G01*
X86589550Y-149984400D02*
X87502050Y-149984400D01*
G75*
G02*
X87745800Y-150228150I0J-243750D01*
G01*
X87745800Y-150715650D01*
G75*
G02*
X87502050Y-150959400I-243750J0D01*
G01*
X86589550Y-150959400D01*
G75*
G02*
X86345800Y-150715650I0J243750D01*
G01*
X86345800Y-150228150D01*
G75*
G02*
X86589550Y-149984400I243750J0D01*
G01*
G37*
G36*
G01*
X252043250Y-94812700D02*
X251130750Y-94812700D01*
G75*
G02*
X250887000Y-94568950I0J243750D01*
G01*
X250887000Y-94081450D01*
G75*
G02*
X251130750Y-93837700I243750J0D01*
G01*
X252043250Y-93837700D01*
G75*
G02*
X252287000Y-94081450I0J-243750D01*
G01*
X252287000Y-94568950D01*
G75*
G02*
X252043250Y-94812700I-243750J0D01*
G01*
G37*
G36*
G01*
X252043250Y-96687700D02*
X251130750Y-96687700D01*
G75*
G02*
X250887000Y-96443950I0J243750D01*
G01*
X250887000Y-95956450D01*
G75*
G02*
X251130750Y-95712700I243750J0D01*
G01*
X252043250Y-95712700D01*
G75*
G02*
X252287000Y-95956450I0J-243750D01*
G01*
X252287000Y-96443950D01*
G75*
G02*
X252043250Y-96687700I-243750J0D01*
G01*
G37*
G36*
G01*
X139318050Y-94812700D02*
X138405550Y-94812700D01*
G75*
G02*
X138161800Y-94568950I0J243750D01*
G01*
X138161800Y-94081450D01*
G75*
G02*
X138405550Y-93837700I243750J0D01*
G01*
X139318050Y-93837700D01*
G75*
G02*
X139561800Y-94081450I0J-243750D01*
G01*
X139561800Y-94568950D01*
G75*
G02*
X139318050Y-94812700I-243750J0D01*
G01*
G37*
G36*
G01*
X139318050Y-96687700D02*
X138405550Y-96687700D01*
G75*
G02*
X138161800Y-96443950I0J243750D01*
G01*
X138161800Y-95956450D01*
G75*
G02*
X138405550Y-95712700I243750J0D01*
G01*
X139318050Y-95712700D01*
G75*
G02*
X139561800Y-95956450I0J-243750D01*
G01*
X139561800Y-96443950D01*
G75*
G02*
X139318050Y-96687700I-243750J0D01*
G01*
G37*
G36*
G01*
X202894250Y-94812700D02*
X201981750Y-94812700D01*
G75*
G02*
X201738000Y-94568950I0J243750D01*
G01*
X201738000Y-94081450D01*
G75*
G02*
X201981750Y-93837700I243750J0D01*
G01*
X202894250Y-93837700D01*
G75*
G02*
X203138000Y-94081450I0J-243750D01*
G01*
X203138000Y-94568950D01*
G75*
G02*
X202894250Y-94812700I-243750J0D01*
G01*
G37*
G36*
G01*
X202894250Y-96687700D02*
X201981750Y-96687700D01*
G75*
G02*
X201738000Y-96443950I0J243750D01*
G01*
X201738000Y-95956450D01*
G75*
G02*
X201981750Y-95712700I243750J0D01*
G01*
X202894250Y-95712700D01*
G75*
G02*
X203138000Y-95956450I0J-243750D01*
G01*
X203138000Y-96443950D01*
G75*
G02*
X202894250Y-96687700I-243750J0D01*
G01*
G37*
G36*
G01*
X302449550Y-94825400D02*
X301537050Y-94825400D01*
G75*
G02*
X301293300Y-94581650I0J243750D01*
G01*
X301293300Y-94094150D01*
G75*
G02*
X301537050Y-93850400I243750J0D01*
G01*
X302449550Y-93850400D01*
G75*
G02*
X302693300Y-94094150I0J-243750D01*
G01*
X302693300Y-94581650D01*
G75*
G02*
X302449550Y-94825400I-243750J0D01*
G01*
G37*
G36*
G01*
X302449550Y-96700400D02*
X301537050Y-96700400D01*
G75*
G02*
X301293300Y-96456650I0J243750D01*
G01*
X301293300Y-95969150D01*
G75*
G02*
X301537050Y-95725400I243750J0D01*
G01*
X302449550Y-95725400D01*
G75*
G02*
X302693300Y-95969150I0J-243750D01*
G01*
X302693300Y-96456650D01*
G75*
G02*
X302449550Y-96700400I-243750J0D01*
G01*
G37*
G36*
G01*
X351662050Y-94825400D02*
X350749550Y-94825400D01*
G75*
G02*
X350505800Y-94581650I0J243750D01*
G01*
X350505800Y-94094150D01*
G75*
G02*
X350749550Y-93850400I243750J0D01*
G01*
X351662050Y-93850400D01*
G75*
G02*
X351905800Y-94094150I0J-243750D01*
G01*
X351905800Y-94581650D01*
G75*
G02*
X351662050Y-94825400I-243750J0D01*
G01*
G37*
G36*
G01*
X351662050Y-96700400D02*
X350749550Y-96700400D01*
G75*
G02*
X350505800Y-96456650I0J243750D01*
G01*
X350505800Y-95969150D01*
G75*
G02*
X350749550Y-95725400I243750J0D01*
G01*
X351662050Y-95725400D01*
G75*
G02*
X351905800Y-95969150I0J-243750D01*
G01*
X351905800Y-96456650D01*
G75*
G02*
X351662050Y-96700400I-243750J0D01*
G01*
G37*
D16*
X359053130Y-82995770D03*
X346126130Y-85535770D03*
D17*
X358291130Y-88075770D03*
X348131130Y-88075770D03*
D18*
X349401130Y-85535770D03*
D19*
X353211130Y-88075770D03*
D18*
X355751130Y-82995770D03*
D16*
X201890630Y-121095770D03*
X188963630Y-123635770D03*
D17*
X201128630Y-126175770D03*
X190968630Y-126175770D03*
D18*
X192238630Y-123635770D03*
D19*
X196048630Y-126175770D03*
D18*
X198588630Y-121095770D03*
D16*
X173315630Y-140145770D03*
X160388630Y-142685770D03*
D17*
X172553630Y-145225770D03*
X162393630Y-145225770D03*
D18*
X163663630Y-142685770D03*
D19*
X167473630Y-145225770D03*
D18*
X170013630Y-140145770D03*
X74763630Y-102045770D03*
D19*
X72223630Y-107125770D03*
D18*
X68413630Y-104585770D03*
D17*
X67143630Y-107125770D03*
X77303630Y-107125770D03*
D16*
X65138630Y-104585770D03*
X78065630Y-102045770D03*
X244753130Y-82995770D03*
X231826130Y-85535770D03*
D17*
X243991130Y-88075770D03*
X233831130Y-88075770D03*
D18*
X235101130Y-85535770D03*
D19*
X238911130Y-88075770D03*
D18*
X241451130Y-82995770D03*
D16*
X359053130Y-159195770D03*
X346126130Y-161735770D03*
D17*
X358291130Y-164275770D03*
X348131130Y-164275770D03*
D18*
X349401130Y-161735770D03*
D19*
X353211130Y-164275770D03*
D18*
X355751130Y-159195770D03*
D16*
X340003130Y-159195770D03*
X327076130Y-161735770D03*
D17*
X339241130Y-164275770D03*
X329081130Y-164275770D03*
D18*
X330351130Y-161735770D03*
D19*
X334161130Y-164275770D03*
D18*
X336701130Y-159195770D03*
D16*
X320953130Y-159195770D03*
X308026130Y-161735770D03*
D17*
X320191130Y-164275770D03*
X310031130Y-164275770D03*
D18*
X311301130Y-161735770D03*
D19*
X315111130Y-164275770D03*
D18*
X317651130Y-159195770D03*
D16*
X289996880Y-159195770D03*
X277069880Y-161735770D03*
D17*
X289234880Y-164275770D03*
X279074880Y-164275770D03*
D18*
X280344880Y-161735770D03*
D19*
X284154880Y-164275770D03*
D18*
X286694880Y-159195770D03*
D16*
X266184380Y-159195770D03*
X253257380Y-161735770D03*
D17*
X265422380Y-164275770D03*
X255262380Y-164275770D03*
D18*
X256532380Y-161735770D03*
D19*
X260342380Y-164275770D03*
D18*
X262882380Y-159195770D03*
D19*
X138904980Y-156020770D03*
X238904780Y-156020770D03*
D21*
X138904980Y-171260770D03*
X238904780Y-171260770D03*
D16*
X194746880Y-159195770D03*
X181819880Y-161735770D03*
D17*
X193984880Y-164275770D03*
X183824880Y-164275770D03*
D18*
X185094880Y-161735770D03*
D19*
X188904880Y-164275770D03*
D18*
X191444880Y-159195770D03*
D16*
X123309380Y-159195770D03*
X110382380Y-161735770D03*
D17*
X122547380Y-164275770D03*
X112387380Y-164275770D03*
D18*
X113657380Y-161735770D03*
D19*
X117467380Y-164275770D03*
D18*
X120007380Y-159195770D03*
D16*
X99496880Y-159195770D03*
X86569880Y-161735770D03*
D17*
X98734880Y-164275770D03*
X88574880Y-164275770D03*
D18*
X89844880Y-161735770D03*
D19*
X93654880Y-164275770D03*
D18*
X96194880Y-159195770D03*
D16*
X75684380Y-159195770D03*
X62757380Y-161735770D03*
D17*
X74922380Y-164275770D03*
X64762380Y-164275770D03*
D18*
X66032380Y-161735770D03*
D19*
X69842380Y-164275770D03*
D18*
X72382380Y-159195770D03*
D16*
X359053130Y-140145770D03*
X346126130Y-142685770D03*
D17*
X358291130Y-145225770D03*
X348131130Y-145225770D03*
D18*
X349401130Y-142685770D03*
D19*
X353211130Y-145225770D03*
D18*
X355751130Y-140145770D03*
D16*
X340003130Y-140145770D03*
X327076130Y-142685770D03*
D17*
X339241130Y-145225770D03*
X329081130Y-145225770D03*
D18*
X330351130Y-142685770D03*
D19*
X334161130Y-145225770D03*
D18*
X336701130Y-140145770D03*
D16*
X313809380Y-140145770D03*
X300882380Y-142685770D03*
D17*
X313047380Y-145225770D03*
X302887380Y-145225770D03*
D18*
X304157380Y-142685770D03*
D19*
X307967380Y-145225770D03*
D18*
X310507380Y-140145770D03*
D16*
X287615630Y-140145770D03*
X274688630Y-142685770D03*
D17*
X286853630Y-145225770D03*
X276693630Y-145225770D03*
D18*
X277963630Y-142685770D03*
D19*
X281773630Y-145225770D03*
D18*
X284313630Y-140145770D03*
D16*
X268565630Y-140145770D03*
X255638630Y-142685770D03*
D17*
X267803630Y-145225770D03*
X257643630Y-145225770D03*
D18*
X258913630Y-142685770D03*
D19*
X262723630Y-145225770D03*
D18*
X265263630Y-140145770D03*
D16*
X249515630Y-140145770D03*
X236588630Y-142685770D03*
D17*
X248753630Y-145225770D03*
X238593630Y-145225770D03*
D18*
X239863630Y-142685770D03*
D19*
X243673630Y-145225770D03*
D18*
X246213630Y-140145770D03*
D16*
X230465630Y-140145770D03*
X217538630Y-142685770D03*
D17*
X229703630Y-145225770D03*
X219543630Y-145225770D03*
D18*
X220813630Y-142685770D03*
D19*
X224623630Y-145225770D03*
D18*
X227163630Y-140145770D03*
D16*
X211415630Y-140145770D03*
X198488630Y-142685770D03*
D17*
X210653630Y-145225770D03*
X200493630Y-145225770D03*
D18*
X201763630Y-142685770D03*
D19*
X205573630Y-145225770D03*
D18*
X208113630Y-140145770D03*
D16*
X192365630Y-140145770D03*
X179438630Y-142685770D03*
D17*
X191603630Y-145225770D03*
X181443630Y-145225770D03*
D18*
X182713630Y-142685770D03*
D19*
X186523630Y-145225770D03*
D18*
X189063630Y-140145770D03*
D16*
X154265630Y-140145770D03*
X141338630Y-142685770D03*
D17*
X153503630Y-145225770D03*
X143343630Y-145225770D03*
D18*
X144613630Y-142685770D03*
D19*
X148423630Y-145225770D03*
D18*
X150963630Y-140145770D03*
D16*
X135215630Y-140145770D03*
X122288630Y-142685770D03*
D17*
X134453630Y-145225770D03*
X124293630Y-145225770D03*
D18*
X125563630Y-142685770D03*
D19*
X129373630Y-145225770D03*
D18*
X131913630Y-140145770D03*
D16*
X116165630Y-140145770D03*
X103238630Y-142685770D03*
D17*
X115403630Y-145225770D03*
X105243630Y-145225770D03*
D18*
X106513630Y-142685770D03*
D19*
X110323630Y-145225770D03*
D18*
X112863630Y-140145770D03*
D16*
X97115630Y-140145770D03*
X84188630Y-142685770D03*
D17*
X96353630Y-145225770D03*
X86193630Y-145225770D03*
D18*
X87463630Y-142685770D03*
D19*
X91273630Y-145225770D03*
D18*
X93813630Y-140145770D03*
D16*
X75684380Y-140145770D03*
X62757380Y-142685770D03*
D17*
X74922380Y-145225770D03*
X64762380Y-145225770D03*
D18*
X66032380Y-142685770D03*
D19*
X69842380Y-145225770D03*
D18*
X72382380Y-140145770D03*
D16*
X359053130Y-121095770D03*
X346126130Y-123635770D03*
D17*
X358291130Y-126175770D03*
X348131130Y-126175770D03*
D18*
X349401130Y-123635770D03*
D19*
X353211130Y-126175770D03*
D18*
X355751130Y-121095770D03*
D16*
X297140630Y-121095770D03*
X284213630Y-123635770D03*
D17*
X296378630Y-126175770D03*
X286218630Y-126175770D03*
D18*
X287488630Y-123635770D03*
D19*
X291298630Y-126175770D03*
D18*
X293838630Y-121095770D03*
D16*
X278090630Y-121095770D03*
X265163630Y-123635770D03*
D17*
X277328630Y-126175770D03*
X267168630Y-126175770D03*
D18*
X268438630Y-123635770D03*
D19*
X272248630Y-126175770D03*
D18*
X274788630Y-121095770D03*
D16*
X259040630Y-121095770D03*
X246113630Y-123635770D03*
D17*
X258278630Y-126175770D03*
X248118630Y-126175770D03*
D18*
X249388630Y-123635770D03*
D19*
X253198630Y-126175770D03*
D18*
X255738630Y-121095770D03*
D16*
X239990630Y-121095770D03*
X227063630Y-123635770D03*
D17*
X239228630Y-126175770D03*
X229068630Y-126175770D03*
D18*
X230338630Y-123635770D03*
D19*
X234148630Y-126175770D03*
D18*
X236688630Y-121095770D03*
D16*
X220940630Y-121095770D03*
X208013630Y-123635770D03*
D17*
X220178630Y-126175770D03*
X210018630Y-126175770D03*
D18*
X211288630Y-123635770D03*
D19*
X215098630Y-126175770D03*
D18*
X217638630Y-121095770D03*
D16*
X182840630Y-121095770D03*
X169913630Y-123635770D03*
D17*
X182078630Y-126175770D03*
X171918630Y-126175770D03*
D18*
X173188630Y-123635770D03*
D19*
X176998630Y-126175770D03*
D18*
X179538630Y-121095770D03*
D16*
X163790630Y-121095770D03*
X150863630Y-123635770D03*
D17*
X163028630Y-126175770D03*
X152868630Y-126175770D03*
D18*
X154138630Y-123635770D03*
D19*
X157948630Y-126175770D03*
D18*
X160488630Y-121095770D03*
D16*
X144740630Y-121095770D03*
X131813630Y-123635770D03*
D17*
X143978630Y-126175770D03*
X133818630Y-126175770D03*
D18*
X135088630Y-123635770D03*
D19*
X138898630Y-126175770D03*
D18*
X141438630Y-121095770D03*
D16*
X125690630Y-121095770D03*
X112763630Y-123635770D03*
D17*
X124928630Y-126175770D03*
X114768630Y-126175770D03*
D18*
X116038630Y-123635770D03*
D19*
X119848630Y-126175770D03*
D18*
X122388630Y-121095770D03*
D16*
X106640630Y-121095770D03*
X93713630Y-123635770D03*
D17*
X105878630Y-126175770D03*
X95718630Y-126175770D03*
D18*
X96988630Y-123635770D03*
D19*
X100798630Y-126175770D03*
D18*
X103338630Y-121095770D03*
D16*
X337621880Y-111570770D03*
D18*
X327969880Y-114110770D03*
D16*
X324694880Y-114110770D03*
D18*
X334319880Y-111570770D03*
D19*
X331779880Y-116650770D03*
D17*
X326699880Y-116650770D03*
X336859880Y-116650770D03*
D21*
X338764880Y-128588770D03*
X338764880Y-104712770D03*
D19*
X323524880Y-128588770D03*
X323524880Y-104712770D03*
D16*
X359053130Y-102045770D03*
X346126130Y-104585770D03*
D17*
X358291130Y-107125770D03*
X348131130Y-107125770D03*
D18*
X349401130Y-104585770D03*
D19*
X353211130Y-107125770D03*
D18*
X355751130Y-102045770D03*
D16*
X311428130Y-102045770D03*
X298501130Y-104585770D03*
D17*
X310666130Y-107125770D03*
X300506130Y-107125770D03*
D18*
X301776130Y-104585770D03*
D19*
X305586130Y-107125770D03*
D18*
X308126130Y-102045770D03*
D16*
X292378130Y-102045770D03*
X279451130Y-104585770D03*
D17*
X291616130Y-107125770D03*
X281456130Y-107125770D03*
D18*
X282726130Y-104585770D03*
D19*
X286536130Y-107125770D03*
D18*
X289076130Y-102045770D03*
D16*
X273328130Y-102045770D03*
X260401130Y-104585770D03*
D17*
X272566130Y-107125770D03*
X262406130Y-107125770D03*
D18*
X263676130Y-104585770D03*
D19*
X267486130Y-107125770D03*
D18*
X270026130Y-102045770D03*
D16*
X254278130Y-102045770D03*
X241351130Y-104585770D03*
D17*
X253516130Y-107125770D03*
X243356130Y-107125770D03*
D18*
X244626130Y-104585770D03*
D19*
X248436130Y-107125770D03*
D18*
X250976130Y-102045770D03*
D16*
X235228130Y-102045770D03*
X222301130Y-104585770D03*
D17*
X234466130Y-107125770D03*
X224306130Y-107125770D03*
D18*
X225576130Y-104585770D03*
D19*
X229386130Y-107125770D03*
D18*
X231926130Y-102045770D03*
D16*
X216178130Y-102045770D03*
X203251130Y-104585770D03*
D17*
X215416130Y-107125770D03*
X205256130Y-107125770D03*
D18*
X206526130Y-104585770D03*
D19*
X210336130Y-107125770D03*
D18*
X212876130Y-102045770D03*
D16*
X197128130Y-102045770D03*
X184201130Y-104585770D03*
D17*
X196366130Y-107125770D03*
X186206130Y-107125770D03*
D18*
X187476130Y-104585770D03*
D19*
X191286130Y-107125770D03*
D18*
X193826130Y-102045770D03*
D16*
X178078130Y-102045770D03*
X165151130Y-104585770D03*
D17*
X177316130Y-107125770D03*
X167156130Y-107125770D03*
D18*
X168426130Y-104585770D03*
D19*
X172236130Y-107125770D03*
D18*
X174776130Y-102045770D03*
D16*
X159028130Y-102045770D03*
X146101130Y-104585770D03*
D17*
X158266130Y-107125770D03*
X148106130Y-107125770D03*
D18*
X149376130Y-104585770D03*
D19*
X153186130Y-107125770D03*
D18*
X155726130Y-102045770D03*
D16*
X139978130Y-102045770D03*
X127051130Y-104585770D03*
D17*
X139216130Y-107125770D03*
X129056130Y-107125770D03*
D18*
X130326130Y-104585770D03*
D19*
X134136130Y-107125770D03*
D18*
X136676130Y-102045770D03*
D16*
X120928130Y-102045770D03*
X108001130Y-104585770D03*
D17*
X120166130Y-107125770D03*
X110006130Y-107125770D03*
D18*
X111276130Y-104585770D03*
D19*
X115086130Y-107125770D03*
D18*
X117626130Y-102045770D03*
D16*
X101878130Y-102045770D03*
X88951130Y-104585770D03*
D17*
X101116130Y-107125770D03*
X90956130Y-107125770D03*
D18*
X92226130Y-104585770D03*
D19*
X96036130Y-107125770D03*
D18*
X98576130Y-102045770D03*
D16*
X316190630Y-121095770D03*
X303263630Y-123635770D03*
D17*
X315428630Y-126175770D03*
X305268630Y-126175770D03*
D18*
X306538630Y-123635770D03*
D19*
X310348630Y-126175770D03*
D18*
X312888630Y-121095770D03*
D16*
X301903130Y-82995770D03*
X288976130Y-85535770D03*
D17*
X301141130Y-88075770D03*
X290981130Y-88075770D03*
D18*
X292251130Y-85535770D03*
D19*
X296061130Y-88075770D03*
D18*
X298601130Y-82995770D03*
D16*
X282853130Y-82995770D03*
X269926130Y-85535770D03*
D17*
X282091130Y-88075770D03*
X271931130Y-88075770D03*
D18*
X273201130Y-85535770D03*
D19*
X277011130Y-88075770D03*
D18*
X279551130Y-82995770D03*
D16*
X263803130Y-82995770D03*
X250876130Y-85535770D03*
D17*
X263041130Y-88075770D03*
X252881130Y-88075770D03*
D18*
X254151130Y-85535770D03*
D19*
X257961130Y-88075770D03*
D18*
X260501130Y-82995770D03*
D16*
X225703130Y-82995770D03*
X212776130Y-85535770D03*
D17*
X224941130Y-88075770D03*
X214781130Y-88075770D03*
D18*
X216051130Y-85535770D03*
D19*
X219861130Y-88075770D03*
D18*
X222401130Y-82995770D03*
D16*
X206653130Y-82995770D03*
X193726130Y-85535770D03*
D17*
X205891130Y-88075770D03*
X195731130Y-88075770D03*
D18*
X197001130Y-85535770D03*
D19*
X200811130Y-88075770D03*
D18*
X203351130Y-82995770D03*
D16*
X187603130Y-82995770D03*
X174676130Y-85535770D03*
D17*
X186841130Y-88075770D03*
X176681130Y-88075770D03*
D18*
X177951130Y-85535770D03*
D19*
X181761130Y-88075770D03*
D18*
X184301130Y-82995770D03*
D16*
X168553130Y-82995770D03*
X155626130Y-85535770D03*
D17*
X167791130Y-88075770D03*
X157631130Y-88075770D03*
D18*
X158901130Y-85535770D03*
D19*
X162711130Y-88075770D03*
D18*
X165251130Y-82995770D03*
D16*
X149503130Y-82995770D03*
X136576130Y-85535770D03*
D17*
X148741130Y-88075770D03*
X138581130Y-88075770D03*
D18*
X139851130Y-85535770D03*
D19*
X143661130Y-88075770D03*
D18*
X146201130Y-82995770D03*
D16*
X111403130Y-82995770D03*
X98476130Y-85535770D03*
D17*
X110641130Y-88075770D03*
X100481130Y-88075770D03*
D18*
X101751130Y-85535770D03*
D19*
X105561130Y-88075770D03*
D18*
X108101130Y-82995770D03*
D16*
X80669130Y-93155770D03*
X93596130Y-90615770D03*
D17*
X81431130Y-88075770D03*
X91591130Y-88075770D03*
D18*
X90321130Y-90615770D03*
D19*
X86511130Y-88075770D03*
D18*
X83971130Y-93155770D03*
D16*
X61619130Y-93155770D03*
X74546130Y-90615770D03*
D17*
X62381130Y-88075770D03*
X72541130Y-88075770D03*
D18*
X71271130Y-90615770D03*
D19*
X67461130Y-88075770D03*
D18*
X64921130Y-93155770D03*
D22*
X130685500Y-166640000D03*
X132585500Y-166640000D03*
X131635500Y-168640000D03*
X342712000Y-108982000D03*
X344612000Y-108982000D03*
X343662000Y-110982000D03*
X96738400Y-90046300D03*
X98638400Y-90046300D03*
X97688400Y-92046300D03*
D23*
G36*
X168117298Y-165781060D02*
G01*
X168506206Y-165392152D01*
X169566866Y-166452812D01*
X169177958Y-166841720D01*
X168117298Y-165781060D01*
G37*
G36*
X168682983Y-165215374D02*
G01*
X169071891Y-164826466D01*
X170132551Y-165887126D01*
X169743643Y-166276034D01*
X168682983Y-165215374D01*
G37*
G36*
X169248668Y-164649689D02*
G01*
X169637576Y-164260781D01*
X170698236Y-165321441D01*
X170309328Y-165710349D01*
X169248668Y-164649689D01*
G37*
G36*
X169814354Y-164084004D02*
G01*
X170203262Y-163695096D01*
X171263922Y-164755756D01*
X170875014Y-165144664D01*
X169814354Y-164084004D01*
G37*
G36*
X170380039Y-163518318D02*
G01*
X170768947Y-163129410D01*
X171829607Y-164190070D01*
X171440699Y-164578978D01*
X170380039Y-163518318D01*
G37*
G36*
X170945725Y-162952633D02*
G01*
X171334633Y-162563725D01*
X172395293Y-163624385D01*
X172006385Y-164013293D01*
X170945725Y-162952633D01*
G37*
G36*
X171511410Y-162386947D02*
G01*
X171900318Y-161998039D01*
X172960978Y-163058699D01*
X172572070Y-163447607D01*
X171511410Y-162386947D01*
G37*
G36*
X172077096Y-161821262D02*
G01*
X172466004Y-161432354D01*
X173526664Y-162493014D01*
X173137756Y-162881922D01*
X172077096Y-161821262D01*
G37*
G36*
X172642781Y-161255576D02*
G01*
X173031689Y-160866668D01*
X174092349Y-161927328D01*
X173703441Y-162316236D01*
X172642781Y-161255576D01*
G37*
G36*
X173208466Y-160689891D02*
G01*
X173597374Y-160300983D01*
X174658034Y-161361643D01*
X174269126Y-161750551D01*
X173208466Y-160689891D01*
G37*
G36*
X173774152Y-160124206D02*
G01*
X174163060Y-159735298D01*
X175223720Y-160795958D01*
X174834812Y-161184866D01*
X173774152Y-160124206D01*
G37*
G36*
X174163060Y-158780702D02*
G01*
X173774152Y-158391794D01*
X174834812Y-157331134D01*
X175223720Y-157720042D01*
X174163060Y-158780702D01*
G37*
G36*
X173597374Y-158215017D02*
G01*
X173208466Y-157826109D01*
X174269126Y-156765449D01*
X174658034Y-157154357D01*
X173597374Y-158215017D01*
G37*
G36*
X173031689Y-157649332D02*
G01*
X172642781Y-157260424D01*
X173703441Y-156199764D01*
X174092349Y-156588672D01*
X173031689Y-157649332D01*
G37*
G36*
X172466004Y-157083646D02*
G01*
X172077096Y-156694738D01*
X173137756Y-155634078D01*
X173526664Y-156022986D01*
X172466004Y-157083646D01*
G37*
G36*
X171900318Y-156517961D02*
G01*
X171511410Y-156129053D01*
X172572070Y-155068393D01*
X172960978Y-155457301D01*
X171900318Y-156517961D01*
G37*
G36*
X171334633Y-155952275D02*
G01*
X170945725Y-155563367D01*
X172006385Y-154502707D01*
X172395293Y-154891615D01*
X171334633Y-155952275D01*
G37*
G36*
X170768947Y-155386590D02*
G01*
X170380039Y-154997682D01*
X171440699Y-153937022D01*
X171829607Y-154325930D01*
X170768947Y-155386590D01*
G37*
G36*
X170203262Y-154820904D02*
G01*
X169814354Y-154431996D01*
X170875014Y-153371336D01*
X171263922Y-153760244D01*
X170203262Y-154820904D01*
G37*
G36*
X169637576Y-154255219D02*
G01*
X169248668Y-153866311D01*
X170309328Y-152805651D01*
X170698236Y-153194559D01*
X169637576Y-154255219D01*
G37*
G36*
X169071891Y-153689534D02*
G01*
X168682983Y-153300626D01*
X169743643Y-152239966D01*
X170132551Y-152628874D01*
X169071891Y-153689534D01*
G37*
G36*
X168506206Y-153123848D02*
G01*
X168117298Y-152734940D01*
X169177958Y-151674280D01*
X169566866Y-152063188D01*
X168506206Y-153123848D01*
G37*
G36*
X165713134Y-152063188D02*
G01*
X166102042Y-151674280D01*
X167162702Y-152734940D01*
X166773794Y-153123848D01*
X165713134Y-152063188D01*
G37*
G36*
X165147449Y-152628874D02*
G01*
X165536357Y-152239966D01*
X166597017Y-153300626D01*
X166208109Y-153689534D01*
X165147449Y-152628874D01*
G37*
G36*
X164581764Y-153194559D02*
G01*
X164970672Y-152805651D01*
X166031332Y-153866311D01*
X165642424Y-154255219D01*
X164581764Y-153194559D01*
G37*
G36*
X164016078Y-153760244D02*
G01*
X164404986Y-153371336D01*
X165465646Y-154431996D01*
X165076738Y-154820904D01*
X164016078Y-153760244D01*
G37*
G36*
X163450393Y-154325930D02*
G01*
X163839301Y-153937022D01*
X164899961Y-154997682D01*
X164511053Y-155386590D01*
X163450393Y-154325930D01*
G37*
G36*
X162884707Y-154891615D02*
G01*
X163273615Y-154502707D01*
X164334275Y-155563367D01*
X163945367Y-155952275D01*
X162884707Y-154891615D01*
G37*
G36*
X162319022Y-155457301D02*
G01*
X162707930Y-155068393D01*
X163768590Y-156129053D01*
X163379682Y-156517961D01*
X162319022Y-155457301D01*
G37*
G36*
X161753336Y-156022986D02*
G01*
X162142244Y-155634078D01*
X163202904Y-156694738D01*
X162813996Y-157083646D01*
X161753336Y-156022986D01*
G37*
G36*
X161187651Y-156588672D02*
G01*
X161576559Y-156199764D01*
X162637219Y-157260424D01*
X162248311Y-157649332D01*
X161187651Y-156588672D01*
G37*
G36*
X160621966Y-157154357D02*
G01*
X161010874Y-156765449D01*
X162071534Y-157826109D01*
X161682626Y-158215017D01*
X160621966Y-157154357D01*
G37*
G36*
X160056280Y-157720042D02*
G01*
X160445188Y-157331134D01*
X161505848Y-158391794D01*
X161116940Y-158780702D01*
X160056280Y-157720042D01*
G37*
G36*
X160445188Y-161184866D02*
G01*
X160056280Y-160795958D01*
X161116940Y-159735298D01*
X161505848Y-160124206D01*
X160445188Y-161184866D01*
G37*
G36*
X161010874Y-161750551D02*
G01*
X160621966Y-161361643D01*
X161682626Y-160300983D01*
X162071534Y-160689891D01*
X161010874Y-161750551D01*
G37*
G36*
X161576559Y-162316236D02*
G01*
X161187651Y-161927328D01*
X162248311Y-160866668D01*
X162637219Y-161255576D01*
X161576559Y-162316236D01*
G37*
G36*
X162142244Y-162881922D02*
G01*
X161753336Y-162493014D01*
X162813996Y-161432354D01*
X163202904Y-161821262D01*
X162142244Y-162881922D01*
G37*
G36*
X162707930Y-163447607D02*
G01*
X162319022Y-163058699D01*
X163379682Y-161998039D01*
X163768590Y-162386947D01*
X162707930Y-163447607D01*
G37*
G36*
X163273615Y-164013293D02*
G01*
X162884707Y-163624385D01*
X163945367Y-162563725D01*
X164334275Y-162952633D01*
X163273615Y-164013293D01*
G37*
G36*
X163839301Y-164578978D02*
G01*
X163450393Y-164190070D01*
X164511053Y-163129410D01*
X164899961Y-163518318D01*
X163839301Y-164578978D01*
G37*
G36*
X164404986Y-165144664D02*
G01*
X164016078Y-164755756D01*
X165076738Y-163695096D01*
X165465646Y-164084004D01*
X164404986Y-165144664D01*
G37*
G36*
X164970672Y-165710349D02*
G01*
X164581764Y-165321441D01*
X165642424Y-164260781D01*
X166031332Y-164649689D01*
X164970672Y-165710349D01*
G37*
G36*
X165536357Y-166276034D02*
G01*
X165147449Y-165887126D01*
X166208109Y-164826466D01*
X166597017Y-165215374D01*
X165536357Y-166276034D01*
G37*
G36*
X166102042Y-166841720D02*
G01*
X165713134Y-166452812D01*
X166773794Y-165392152D01*
X167162702Y-165781060D01*
X166102042Y-166841720D01*
G37*
D22*
X342712000Y-166132000D03*
X344612000Y-166132000D03*
X343662000Y-168132000D03*
X300040000Y-166132000D03*
X301940000Y-166132000D03*
X300990000Y-168132000D03*
X246573000Y-166132000D03*
X248473000Y-166132000D03*
X247523000Y-168132000D03*
X82108000Y-166640000D03*
X84008000Y-166640000D03*
X83058000Y-168640000D03*
X320487000Y-147209000D03*
X322387000Y-147209000D03*
X321437000Y-149209000D03*
X271338000Y-147209000D03*
X273238000Y-147209000D03*
X272288000Y-149209000D03*
X233238000Y-147209000D03*
X235138000Y-147209000D03*
X234188000Y-149209000D03*
X195138000Y-147209000D03*
X197038000Y-147209000D03*
X196088000Y-149209000D03*
X157038000Y-147209000D03*
X158938000Y-147209000D03*
X157988000Y-149209000D03*
X119065000Y-147209000D03*
X120965000Y-147209000D03*
X120015000Y-149209000D03*
X100015000Y-147209000D03*
X101915000Y-147209000D03*
X100965000Y-149209000D03*
X343791500Y-127968500D03*
X345691500Y-127968500D03*
X344741500Y-129968500D03*
X280863000Y-127905000D03*
X282763000Y-127905000D03*
X281813000Y-129905000D03*
X242763000Y-127905000D03*
X244663000Y-127905000D03*
X243713000Y-129905000D03*
X204663000Y-127905000D03*
X206563000Y-127905000D03*
X205613000Y-129905000D03*
X166563000Y-127905000D03*
X168463000Y-127905000D03*
X167513000Y-129905000D03*
X128463000Y-127905000D03*
X130363000Y-127905000D03*
X129413000Y-129905000D03*
X86807000Y-127905000D03*
X88707000Y-127905000D03*
X87757000Y-129905000D03*
X314137000Y-108982000D03*
X316037000Y-108982000D03*
X315087000Y-110982000D03*
X276100500Y-108982000D03*
X278000500Y-108982000D03*
X277050500Y-110982000D03*
X238000500Y-108982000D03*
X239900500Y-108982000D03*
X238950500Y-110982000D03*
X199900500Y-108982000D03*
X201800500Y-108982000D03*
X200850500Y-110982000D03*
X161800500Y-108982000D03*
X163700500Y-108982000D03*
X162750500Y-110982000D03*
X123700500Y-108982000D03*
X125600500Y-108982000D03*
X124650500Y-110982000D03*
X104587000Y-108982000D03*
X106487000Y-108982000D03*
X105537000Y-110982000D03*
X342712000Y-90059000D03*
X344612000Y-90059000D03*
X343662000Y-92059000D03*
X304612000Y-90059000D03*
X306512000Y-90059000D03*
X305562000Y-92059000D03*
X266512000Y-90059000D03*
X268412000Y-90059000D03*
X267462000Y-92059000D03*
X228412000Y-90059000D03*
X230312000Y-90059000D03*
X229362000Y-92059000D03*
X190312000Y-90059000D03*
X192212000Y-90059000D03*
X191262000Y-92059000D03*
X152212000Y-90059000D03*
X154112000Y-90059000D03*
X153162000Y-92059000D03*
X114112000Y-90059000D03*
X116012000Y-90059000D03*
X115062000Y-92059000D03*
D23*
G36*
X162930069Y-151049984D02*
G01*
X163778597Y-151898512D01*
X162788647Y-152888462D01*
X161940119Y-152039934D01*
X162930069Y-151049984D01*
G37*
G36*
X161374434Y-152605619D02*
G01*
X162222962Y-153454147D01*
X161233012Y-154444097D01*
X160384484Y-153595569D01*
X161374434Y-152605619D01*
G37*
G36*
X160172353Y-151403538D02*
G01*
X161020881Y-152252066D01*
X160030931Y-153242016D01*
X159182403Y-152393488D01*
X160172353Y-151403538D01*
G37*
G36*
X161727988Y-149847903D02*
G01*
X162576516Y-150696431D01*
X161586566Y-151686381D01*
X160738038Y-150837853D01*
X161727988Y-149847903D01*
G37*
D24*
X80227240Y-80737760D03*
X79427240Y-80737760D03*
X74527240Y-80737760D03*
X73727240Y-80737760D03*
X73727240Y-80737760D03*
X74527240Y-80737760D03*
X79427240Y-80737760D03*
X80227240Y-80737760D03*
D25*
X75227240Y-80737760D03*
X75727240Y-80737760D03*
X76227240Y-80737760D03*
X77227240Y-80737760D03*
X77727240Y-80737760D03*
X78227240Y-80737760D03*
X78727240Y-80737760D03*
X76727240Y-80737760D03*
D26*
X81297240Y-79822760D03*
X72657240Y-79822760D03*
D27*
X74087240Y-79292760D03*
D28*
X72657240Y-75642760D03*
D27*
X79867240Y-79292760D03*
D28*
X81297240Y-75642760D03*
D29*
X75384300Y-96570800D03*
X75384300Y-95620800D03*
X75384300Y-94670800D03*
X77584300Y-94670800D03*
X77584300Y-96570800D03*
X77584300Y-95620800D03*
G36*
G01*
X173982327Y-169027928D02*
X173345927Y-169664326D01*
G75*
G02*
X172992377Y-169664326I-176775J176775D01*
G01*
X172621144Y-169293093D01*
G75*
G02*
X172621144Y-168939543I176775J176775D01*
G01*
X173257543Y-168303144D01*
G75*
G02*
X173611093Y-168303144I176775J-176775D01*
G01*
X173982326Y-168674377D01*
G75*
G02*
X173982326Y-169027927I-176775J-176775D01*
G01*
G37*
G36*
G01*
X172691857Y-167737458D02*
X172055457Y-168373856D01*
G75*
G02*
X171701907Y-168373856I-176775J176775D01*
G01*
X171330674Y-168002623D01*
G75*
G02*
X171330674Y-167649073I176775J176775D01*
G01*
X171967073Y-167012674D01*
G75*
G02*
X172320623Y-167012674I176775J-176775D01*
G01*
X172691856Y-167383907D01*
G75*
G02*
X172691856Y-167737457I-176775J-176775D01*
G01*
G37*
G36*
G01*
X177566422Y-153942020D02*
X178202820Y-154578420D01*
G75*
G02*
X178202820Y-154931970I-176775J-176775D01*
G01*
X177831587Y-155303203D01*
G75*
G02*
X177478037Y-155303203I-176775J176775D01*
G01*
X176841638Y-154666804D01*
G75*
G02*
X176841638Y-154313254I176775J176775D01*
G01*
X177212871Y-153942021D01*
G75*
G02*
X177566421Y-153942021I176775J-176775D01*
G01*
G37*
G36*
G01*
X176275952Y-155232490D02*
X176912350Y-155868890D01*
G75*
G02*
X176912350Y-156222440I-176775J-176775D01*
G01*
X176541117Y-156593673D01*
G75*
G02*
X176187567Y-156593673I-176775J176775D01*
G01*
X175551168Y-155957274D01*
G75*
G02*
X175551168Y-155603724I176775J176775D01*
G01*
X175922401Y-155232491D01*
G75*
G02*
X176275951Y-155232491I176775J-176775D01*
G01*
G37*
G36*
G01*
X82582598Y-105699500D02*
X83482602Y-105699500D01*
G75*
G02*
X83732600Y-105949498I0J-249998D01*
G01*
X83732600Y-106474502D01*
G75*
G02*
X83482602Y-106724500I-249998J0D01*
G01*
X82582598Y-106724500D01*
G75*
G02*
X82332600Y-106474502I0J249998D01*
G01*
X82332600Y-105949498D01*
G75*
G02*
X82582598Y-105699500I249998J0D01*
G01*
G37*
G36*
G01*
X82582598Y-107524500D02*
X83482602Y-107524500D01*
G75*
G02*
X83732600Y-107774498I0J-249998D01*
G01*
X83732600Y-108299502D01*
G75*
G02*
X83482602Y-108549500I-249998J0D01*
G01*
X82582598Y-108549500D01*
G75*
G02*
X82332600Y-108299502I0J249998D01*
G01*
X82332600Y-107774498D01*
G75*
G02*
X82582598Y-107524500I249998J0D01*
G01*
G37*
G36*
G01*
X84678098Y-105699500D02*
X85578102Y-105699500D01*
G75*
G02*
X85828100Y-105949498I0J-249998D01*
G01*
X85828100Y-106474502D01*
G75*
G02*
X85578102Y-106724500I-249998J0D01*
G01*
X84678098Y-106724500D01*
G75*
G02*
X84428100Y-106474502I0J249998D01*
G01*
X84428100Y-105949498D01*
G75*
G02*
X84678098Y-105699500I249998J0D01*
G01*
G37*
G36*
G01*
X84678098Y-107524500D02*
X85578102Y-107524500D01*
G75*
G02*
X85828100Y-107774498I0J-249998D01*
G01*
X85828100Y-108299502D01*
G75*
G02*
X85578102Y-108549500I-249998J0D01*
G01*
X84678098Y-108549500D01*
G75*
G02*
X84428100Y-108299502I0J249998D01*
G01*
X84428100Y-107774498D01*
G75*
G02*
X84678098Y-107524500I249998J0D01*
G01*
G37*
G36*
G01*
X78491502Y-85943500D02*
X77591498Y-85943500D01*
G75*
G02*
X77341500Y-85693502I0J249998D01*
G01*
X77341500Y-85168498D01*
G75*
G02*
X77591498Y-84918500I249998J0D01*
G01*
X78491502Y-84918500D01*
G75*
G02*
X78741500Y-85168498I0J-249998D01*
G01*
X78741500Y-85693502D01*
G75*
G02*
X78491502Y-85943500I-249998J0D01*
G01*
G37*
G36*
G01*
X78491502Y-84118500D02*
X77591498Y-84118500D01*
G75*
G02*
X77341500Y-83868502I0J249998D01*
G01*
X77341500Y-83343498D01*
G75*
G02*
X77591498Y-83093500I249998J0D01*
G01*
X78491502Y-83093500D01*
G75*
G02*
X78741500Y-83343498I0J-249998D01*
G01*
X78741500Y-83868502D01*
G75*
G02*
X78491502Y-84118500I-249998J0D01*
G01*
G37*
G36*
G01*
X75443502Y-85979700D02*
X74543498Y-85979700D01*
G75*
G02*
X74293500Y-85729702I0J249998D01*
G01*
X74293500Y-85204698D01*
G75*
G02*
X74543498Y-84954700I249998J0D01*
G01*
X75443502Y-84954700D01*
G75*
G02*
X75693500Y-85204698I0J-249998D01*
G01*
X75693500Y-85729702D01*
G75*
G02*
X75443502Y-85979700I-249998J0D01*
G01*
G37*
G36*
G01*
X75443502Y-84154700D02*
X74543498Y-84154700D01*
G75*
G02*
X74293500Y-83904702I0J249998D01*
G01*
X74293500Y-83379698D01*
G75*
G02*
X74543498Y-83129700I249998J0D01*
G01*
X75443502Y-83129700D01*
G75*
G02*
X75693500Y-83379698I0J-249998D01*
G01*
X75693500Y-83904702D01*
G75*
G02*
X75443502Y-84154700I-249998J0D01*
G01*
G37*
G36*
G01*
X80566100Y-103101300D02*
X80566100Y-101851300D01*
G75*
G02*
X80816100Y-101601300I250000J0D01*
G01*
X81566100Y-101601300D01*
G75*
G02*
X81816100Y-101851300I0J-250000D01*
G01*
X81816100Y-103101300D01*
G75*
G02*
X81566100Y-103351300I-250000J0D01*
G01*
X80816100Y-103351300D01*
G75*
G02*
X80566100Y-103101300I0J250000D01*
G01*
G37*
G36*
G01*
X83366100Y-103101300D02*
X83366100Y-101851300D01*
G75*
G02*
X83616100Y-101601300I250000J0D01*
G01*
X84366100Y-101601300D01*
G75*
G02*
X84616100Y-101851300I0J-250000D01*
G01*
X84616100Y-103101300D01*
G75*
G02*
X84366100Y-103351300I-250000J0D01*
G01*
X83616100Y-103351300D01*
G75*
G02*
X83366100Y-103101300I0J250000D01*
G01*
G37*
G36*
G01*
X157769820Y-153806071D02*
X158441571Y-153134320D01*
G75*
G02*
X158795125Y-153134320I176777J-176777D01*
G01*
X159148678Y-153487873D01*
G75*
G02*
X159148678Y-153841427I-176777J-176777D01*
G01*
X158476927Y-154513178D01*
G75*
G02*
X158123373Y-154513178I-176777J176777D01*
G01*
X157769820Y-154159625D01*
G75*
G02*
X157769820Y-153806071I176777J176777D01*
G01*
G37*
G36*
G01*
X159113322Y-155149573D02*
X159785073Y-154477822D01*
G75*
G02*
X160138627Y-154477822I176777J-176777D01*
G01*
X160492180Y-154831375D01*
G75*
G02*
X160492180Y-155184929I-176777J-176777D01*
G01*
X159820429Y-155856680D01*
G75*
G02*
X159466875Y-155856680I-176777J176777D01*
G01*
X159113322Y-155503127D01*
G75*
G02*
X159113322Y-155149573I176777J176777D01*
G01*
G37*
G36*
G01*
X165191180Y-150485929D02*
X164519429Y-151157680D01*
G75*
G02*
X164165875Y-151157680I-176777J176777D01*
G01*
X163812322Y-150804127D01*
G75*
G02*
X163812322Y-150450573I176777J176777D01*
G01*
X164484073Y-149778822D01*
G75*
G02*
X164837627Y-149778822I176777J-176777D01*
G01*
X165191180Y-150132375D01*
G75*
G02*
X165191180Y-150485929I-176777J-176777D01*
G01*
G37*
G36*
G01*
X163847678Y-149142427D02*
X163175927Y-149814178D01*
G75*
G02*
X162822373Y-149814178I-176777J176777D01*
G01*
X162468820Y-149460625D01*
G75*
G02*
X162468820Y-149107071I176777J176777D01*
G01*
X163140571Y-148435320D01*
G75*
G02*
X163494125Y-148435320I176777J-176777D01*
G01*
X163847678Y-148788873D01*
G75*
G02*
X163847678Y-149142427I-176777J-176777D01*
G01*
G37*
G36*
G01*
X161788929Y-165008820D02*
X162460680Y-165680571D01*
G75*
G02*
X162460680Y-166034125I-176777J-176777D01*
G01*
X162107127Y-166387678D01*
G75*
G02*
X161753573Y-166387678I-176777J176777D01*
G01*
X161081822Y-165715927D01*
G75*
G02*
X161081822Y-165362373I176777J176777D01*
G01*
X161435375Y-165008820D01*
G75*
G02*
X161788929Y-165008820I176777J-176777D01*
G01*
G37*
G36*
G01*
X160445427Y-166352322D02*
X161117178Y-167024073D01*
G75*
G02*
X161117178Y-167377627I-176777J-176777D01*
G01*
X160763625Y-167731180D01*
G75*
G02*
X160410071Y-167731180I-176777J176777D01*
G01*
X159738320Y-167059429D01*
G75*
G02*
X159738320Y-166705875I176777J176777D01*
G01*
X160091873Y-166352322D01*
G75*
G02*
X160445427Y-166352322I176777J-176777D01*
G01*
G37*
G36*
G01*
X160228178Y-163458071D02*
X160899929Y-164129822D01*
G75*
G02*
X160899929Y-164483376I-176777J-176777D01*
G01*
X160546376Y-164836929D01*
G75*
G02*
X160192822Y-164836929I-176777J176777D01*
G01*
X159521071Y-164165178D01*
G75*
G02*
X159521071Y-163811624I176777J176777D01*
G01*
X159874624Y-163458071D01*
G75*
G02*
X160228178Y-163458071I176777J-176777D01*
G01*
G37*
G36*
G01*
X158884676Y-164801573D02*
X159556427Y-165473324D01*
G75*
G02*
X159556427Y-165826878I-176777J-176777D01*
G01*
X159202874Y-166180431D01*
G75*
G02*
X158849320Y-166180431I-176777J176777D01*
G01*
X158177569Y-165508680D01*
G75*
G02*
X158177569Y-165155126I176777J176777D01*
G01*
X158531122Y-164801573D01*
G75*
G02*
X158884676Y-164801573I176777J-176777D01*
G01*
G37*
G36*
G01*
X177669307Y-158110770D02*
X176997556Y-157439019D01*
G75*
G02*
X176997556Y-157085465I176777J176777D01*
G01*
X177351109Y-156731912D01*
G75*
G02*
X177704663Y-156731912I176777J-176777D01*
G01*
X178376414Y-157403663D01*
G75*
G02*
X178376414Y-157757217I-176777J-176777D01*
G01*
X178022861Y-158110770D01*
G75*
G02*
X177669307Y-158110770I-176777J176777D01*
G01*
G37*
G36*
G01*
X179012809Y-156767268D02*
X178341058Y-156095517D01*
G75*
G02*
X178341058Y-155741963I176777J176777D01*
G01*
X178694611Y-155388410D01*
G75*
G02*
X179048165Y-155388410I176777J-176777D01*
G01*
X179719916Y-156060161D01*
G75*
G02*
X179719916Y-156413715I-176777J-176777D01*
G01*
X179366363Y-156767268D01*
G75*
G02*
X179012809Y-156767268I-176777J176777D01*
G01*
G37*
G36*
G01*
X171268571Y-151919680D02*
X170596820Y-151247929D01*
G75*
G02*
X170596820Y-150894375I176777J176777D01*
G01*
X170950373Y-150540822D01*
G75*
G02*
X171303927Y-150540822I176777J-176777D01*
G01*
X171975678Y-151212573D01*
G75*
G02*
X171975678Y-151566127I-176777J-176777D01*
G01*
X171622125Y-151919680D01*
G75*
G02*
X171268571Y-151919680I-176777J176777D01*
G01*
G37*
G36*
G01*
X172612073Y-150576178D02*
X171940322Y-149904427D01*
G75*
G02*
X171940322Y-149550873I176777J176777D01*
G01*
X172293875Y-149197320D01*
G75*
G02*
X172647429Y-149197320I176777J-176777D01*
G01*
X173319180Y-149869071D01*
G75*
G02*
X173319180Y-150222625I-176777J-176777D01*
G01*
X172965627Y-150576178D01*
G75*
G02*
X172612073Y-150576178I-176777J176777D01*
G01*
G37*
G36*
G01*
X157624678Y-155428926D02*
X156952927Y-156100677D01*
G75*
G02*
X156599373Y-156100677I-176777J176777D01*
G01*
X156245820Y-155747124D01*
G75*
G02*
X156245820Y-155393570I176777J176777D01*
G01*
X156917571Y-154721819D01*
G75*
G02*
X157271125Y-154721819I176777J-176777D01*
G01*
X157624678Y-155075372D01*
G75*
G02*
X157624678Y-155428926I-176777J-176777D01*
G01*
G37*
G36*
G01*
X158968180Y-156772428D02*
X158296429Y-157444179D01*
G75*
G02*
X157942875Y-157444179I-176777J176777D01*
G01*
X157589322Y-157090626D01*
G75*
G02*
X157589322Y-156737072I176777J176777D01*
G01*
X158261073Y-156065321D01*
G75*
G02*
X158614627Y-156065321I176777J-176777D01*
G01*
X158968180Y-156418874D01*
G75*
G02*
X158968180Y-156772428I-176777J-176777D01*
G01*
G37*
G36*
G01*
X162976820Y-168030071D02*
X163648571Y-167358320D01*
G75*
G02*
X164002125Y-167358320I176777J-176777D01*
G01*
X164355678Y-167711873D01*
G75*
G02*
X164355678Y-168065427I-176777J-176777D01*
G01*
X163683927Y-168737178D01*
G75*
G02*
X163330373Y-168737178I-176777J176777D01*
G01*
X162976820Y-168383625D01*
G75*
G02*
X162976820Y-168030071I176777J176777D01*
G01*
G37*
G36*
G01*
X164320322Y-169373573D02*
X164992073Y-168701822D01*
G75*
G02*
X165345627Y-168701822I176777J-176777D01*
G01*
X165699180Y-169055375D01*
G75*
G02*
X165699180Y-169408929I-176777J-176777D01*
G01*
X165027429Y-170080680D01*
G75*
G02*
X164673875Y-170080680I-176777J176777D01*
G01*
X164320322Y-169727127D01*
G75*
G02*
X164320322Y-169373573I176777J176777D01*
G01*
G37*
M02*
