%FSLAX45Y45*%
G04 Gerber Fmt 4.5, Leading zero omitted, Abs format (unit mm)*
G04 Created by KiCad (PCBNEW (5.1.6)-1) date 2021-08-22 23:35:56*
%MOMM*%
%LPD*%
G01*
G04 APERTURE LIST*
%TA.AperFunction,Profile*%
%ADD10C,0.100000*%
%TD*%
%ADD11C,0.200000*%
%ADD12C,0.300000*%
G04 APERTURE END LIST*
D10*
X7262196Y-7458110D02*
G75*
G03*
X7182795Y-7537410I-20J-79381D01*
G01*
X35956295Y-17221210D02*
G75*
G03*
X36194395Y-16983110I129J237971D01*
G01*
X36194395Y-16983110D02*
X36194395Y-8251810D01*
X8214695Y-7854910D02*
G75*
G03*
X8373396Y-8013710I158760J-40D01*
G01*
X8214696Y-7854910D02*
X8214695Y-7537410D01*
X6111195Y-8013710D02*
G75*
G03*
X5873094Y-8251810I40J-238141D01*
G01*
X6111195Y-17221210D02*
X35956295Y-17221210D01*
X7024095Y-8013710D02*
G75*
G03*
X7182795Y-7854910I-59J158760D01*
G01*
X8214695Y-7537410D02*
G75*
G03*
X8135295Y-7458110I-79381J-81D01*
G01*
X5873094Y-16983110D02*
G75*
G03*
X6111195Y-17221210I238141J41D01*
G01*
X7182795Y-7537410D02*
X7182795Y-7854910D01*
X36194395Y-8251810D02*
G75*
G03*
X35956295Y-8013710I-237971J130D01*
G01*
X8135295Y-7458110D02*
X7262196Y-7458110D01*
X35956295Y-8013710D02*
X8373396Y-8013710D01*
X5873094Y-8251810D02*
X5873094Y-16983110D01*
X7024095Y-8013710D02*
X6111195Y-8013710D01*
D11*
X7376224Y-7896776D02*
X7441224Y-7961776D01*
X7441224Y-7896776D02*
X7376224Y-7961776D01*
X7954224Y-7896776D02*
X8019224Y-7961776D01*
X8019224Y-7896776D02*
X7954224Y-7961776D01*
X30376238Y-14522577D02*
G75*
G03*
X30376238Y-14522577I-87500J0D01*
G01*
X31392238Y-14522577D02*
G75*
G03*
X31392238Y-14522577I-87500J0D01*
G01*
X25851863Y-14522577D02*
G75*
G03*
X25851863Y-14522577I-87500J0D01*
G01*
X26867863Y-14522577D02*
G75*
G03*
X26867863Y-14522577I-87500J0D01*
G01*
X17755613Y-8807577D02*
G75*
G03*
X17755613Y-8807577I-87500J0D01*
G01*
X18771613Y-8807577D02*
G75*
G03*
X18771613Y-8807577I-87500J0D01*
G01*
X14421863Y-14522577D02*
G75*
G03*
X14421863Y-14522577I-87500J0D01*
G01*
X15437863Y-14522577D02*
G75*
G03*
X15437863Y-14522577I-87500J0D01*
G01*
X32757488Y-11665077D02*
G75*
G03*
X32757488Y-11665077I-87500J0D01*
G01*
X33773488Y-11665077D02*
G75*
G03*
X33773488Y-11665077I-87500J0D01*
G01*
X24423113Y-10712577D02*
G75*
G03*
X24423113Y-10712577I-87500J0D01*
G01*
X25439113Y-10712577D02*
G75*
G03*
X25439113Y-10712577I-87500J0D01*
G01*
X17279363Y-12617577D02*
G75*
G03*
X17279363Y-12617577I-87500J0D01*
G01*
X18295363Y-12617577D02*
G75*
G03*
X18295363Y-12617577I-87500J0D01*
G01*
X20613113Y-10712577D02*
G75*
G03*
X20613113Y-10712577I-87500J0D01*
G01*
X21629113Y-10712577D02*
G75*
G03*
X21629113Y-10712577I-87500J0D01*
G01*
X6801863Y-10712577D02*
G75*
G03*
X6801863Y-10712577I-87500J0D01*
G01*
X7817863Y-10712577D02*
G75*
G03*
X7817863Y-10712577I-87500J0D01*
G01*
X21089363Y-12617577D02*
G75*
G03*
X21089363Y-12617577I-87500J0D01*
G01*
X22105363Y-12617577D02*
G75*
G03*
X22105363Y-12617577I-87500J0D01*
G01*
X31090613Y-16427577D02*
G75*
G03*
X31090613Y-16427577I-87500J0D01*
G01*
X32106613Y-16427577D02*
G75*
G03*
X32106613Y-16427577I-87500J0D01*
G01*
X12040613Y-8807577D02*
G75*
G03*
X12040613Y-8807577I-87500J0D01*
G01*
X13056613Y-8807577D02*
G75*
G03*
X13056613Y-8807577I-87500J0D01*
G01*
X10135613Y-8807577D02*
G75*
G03*
X10135613Y-8807577I-87500J0D01*
G01*
X11151613Y-8807577D02*
G75*
G03*
X11151613Y-8807577I-87500J0D01*
G01*
X32995613Y-14522577D02*
G75*
G03*
X32995613Y-14522577I-87500J0D01*
G01*
X34011613Y-14522577D02*
G75*
G03*
X34011613Y-14522577I-87500J0D01*
G01*
X6563738Y-16427577D02*
G75*
G03*
X6563738Y-16427577I-87500J0D01*
G01*
X7579738Y-16427577D02*
G75*
G03*
X7579738Y-16427577I-87500J0D01*
G01*
X18708113Y-10712577D02*
G75*
G03*
X18708113Y-10712577I-87500J0D01*
G01*
X19724113Y-10712577D02*
G75*
G03*
X19724113Y-10712577I-87500J0D01*
G01*
X34900613Y-12617577D02*
G75*
G03*
X34900613Y-12617577I-87500J0D01*
G01*
X35916613Y-12617577D02*
G75*
G03*
X35916613Y-12617577I-87500J0D01*
G01*
X30614363Y-12617577D02*
G75*
G03*
X30614363Y-12617577I-87500J0D01*
G01*
X31630363Y-12617577D02*
G75*
G03*
X31630363Y-12617577I-87500J0D01*
G01*
X34900613Y-16427577D02*
G75*
G03*
X34900613Y-16427577I-87500J0D01*
G01*
X35916613Y-16427577D02*
G75*
G03*
X35916613Y-16427577I-87500J0D01*
G01*
X28709363Y-12617577D02*
G75*
G03*
X28709363Y-12617577I-87500J0D01*
G01*
X29725363Y-12617577D02*
G75*
G03*
X29725363Y-12617577I-87500J0D01*
G01*
X12993113Y-10712577D02*
G75*
G03*
X12993113Y-10712577I-87500J0D01*
G01*
X14009113Y-10712577D02*
G75*
G03*
X14009113Y-10712577I-87500J0D01*
G01*
X26804363Y-12617577D02*
G75*
G03*
X26804363Y-12617577I-87500J0D01*
G01*
X27820363Y-12617577D02*
G75*
G03*
X27820363Y-12617577I-87500J0D01*
G01*
X34900613Y-14522577D02*
G75*
G03*
X34900613Y-14522577I-87500J0D01*
G01*
X35916613Y-14522577D02*
G75*
G03*
X35916613Y-14522577I-87500J0D01*
G01*
X11326238Y-16427577D02*
G75*
G03*
X11326238Y-16427577I-87500J0D01*
G01*
X12342238Y-16427577D02*
G75*
G03*
X12342238Y-16427577I-87500J0D01*
G01*
X19660613Y-8807577D02*
G75*
G03*
X19660613Y-8807577I-87500J0D01*
G01*
X20676613Y-8807577D02*
G75*
G03*
X20676613Y-8807577I-87500J0D01*
G01*
X13469363Y-12617577D02*
G75*
G03*
X13469363Y-12617577I-87500J0D01*
G01*
X14485363Y-12617577D02*
G75*
G03*
X14485363Y-12617577I-87500J0D01*
G01*
X13945613Y-8807577D02*
G75*
G03*
X13945613Y-8807577I-87500J0D01*
G01*
X14961613Y-8807577D02*
G75*
G03*
X14961613Y-8807577I-87500J0D01*
G01*
X34900613Y-8807577D02*
G75*
G03*
X34900613Y-8807577I-87500J0D01*
G01*
X35916613Y-8807577D02*
G75*
G03*
X35916613Y-8807577I-87500J0D01*
G01*
X11564363Y-12617577D02*
G75*
G03*
X11564363Y-12617577I-87500J0D01*
G01*
X12580363Y-12617577D02*
G75*
G03*
X12580363Y-12617577I-87500J0D01*
G01*
X25375613Y-8807577D02*
G75*
G03*
X25375613Y-8807577I-87500J0D01*
G01*
X26391613Y-8807577D02*
G75*
G03*
X26391613Y-8807577I-87500J0D01*
G01*
X19184363Y-12617577D02*
G75*
G03*
X19184363Y-12617577I-87500J0D01*
G01*
X20200363Y-12617577D02*
G75*
G03*
X20200363Y-12617577I-87500J0D01*
G01*
X6563738Y-14522577D02*
G75*
G03*
X6563738Y-14522577I-87500J0D01*
G01*
X7579738Y-14522577D02*
G75*
G03*
X7579738Y-14522577I-87500J0D01*
G01*
X32995613Y-16427577D02*
G75*
G03*
X32995613Y-16427577I-87500J0D01*
G01*
X34011613Y-16427577D02*
G75*
G03*
X34011613Y-16427577I-87500J0D01*
G01*
X8230613Y-8807577D02*
G75*
G03*
X8230613Y-8807577I-87500J0D01*
G01*
X9246613Y-8807577D02*
G75*
G03*
X9246613Y-8807577I-87500J0D01*
G01*
X8944988Y-16427577D02*
G75*
G03*
X8944988Y-16427577I-87500J0D01*
G01*
X9960988Y-16427577D02*
G75*
G03*
X9960988Y-16427577I-87500J0D01*
G01*
X27756863Y-14522577D02*
G75*
G03*
X27756863Y-14522577I-87500J0D01*
G01*
X28772863Y-14522577D02*
G75*
G03*
X28772863Y-14522577I-87500J0D01*
G01*
X21565613Y-8807577D02*
G75*
G03*
X21565613Y-8807577I-87500J0D01*
G01*
X22581613Y-8807577D02*
G75*
G03*
X22581613Y-8807577I-87500J0D01*
G01*
X24899363Y-12617577D02*
G75*
G03*
X24899363Y-12617577I-87500J0D01*
G01*
X25915363Y-12617577D02*
G75*
G03*
X25915363Y-12617577I-87500J0D01*
G01*
X16803113Y-10712577D02*
G75*
G03*
X16803113Y-10712577I-87500J0D01*
G01*
X17819113Y-10712577D02*
G75*
G03*
X17819113Y-10712577I-87500J0D01*
G01*
X34900613Y-10712577D02*
G75*
G03*
X34900613Y-10712577I-87500J0D01*
G01*
X35916613Y-10712577D02*
G75*
G03*
X35916613Y-10712577I-87500J0D01*
G01*
X30138113Y-10712577D02*
G75*
G03*
X30138113Y-10712577I-87500J0D01*
G01*
X31154113Y-10712577D02*
G75*
G03*
X31154113Y-10712577I-87500J0D01*
G01*
X23470613Y-8807577D02*
G75*
G03*
X23470613Y-8807577I-87500J0D01*
G01*
X24486613Y-8807577D02*
G75*
G03*
X24486613Y-8807577I-87500J0D01*
G01*
X7040750Y-12619990D02*
G75*
G03*
X7040750Y-12619990I-87500J0D01*
G01*
X8056750Y-12619990D02*
G75*
G03*
X8056750Y-12619990I-87500J0D01*
G01*
X18231863Y-14522577D02*
G75*
G03*
X18231863Y-14522577I-87500J0D01*
G01*
X19247863Y-14522577D02*
G75*
G03*
X19247863Y-14522577I-87500J0D01*
G01*
X18469988Y-16427577D02*
G75*
G03*
X18469988Y-16427577I-87500J0D01*
G01*
X19485988Y-16427577D02*
G75*
G03*
X19485988Y-16427577I-87500J0D01*
G01*
X25613738Y-16427577D02*
G75*
G03*
X25613738Y-16427577I-87500J0D01*
G01*
X26629738Y-16427577D02*
G75*
G03*
X26629738Y-16427577I-87500J0D01*
G01*
X29185613Y-8807577D02*
G75*
G03*
X29185613Y-8807577I-87500J0D01*
G01*
X30201613Y-8807577D02*
G75*
G03*
X30201613Y-8807577I-87500J0D01*
G01*
X8706863Y-14522577D02*
G75*
G03*
X8706863Y-14522577I-87500J0D01*
G01*
X9722863Y-14522577D02*
G75*
G03*
X9722863Y-14522577I-87500J0D01*
G01*
X22518113Y-10712577D02*
G75*
G03*
X22518113Y-10712577I-87500J0D01*
G01*
X23534113Y-10712577D02*
G75*
G03*
X23534113Y-10712577I-87500J0D01*
G01*
X15374363Y-12617577D02*
G75*
G03*
X15374363Y-12617577I-87500J0D01*
G01*
X16390363Y-12617577D02*
G75*
G03*
X16390363Y-12617577I-87500J0D01*
G01*
X32043113Y-8807577D02*
G75*
G03*
X32043113Y-8807577I-87500J0D01*
G01*
X33059113Y-8807577D02*
G75*
G03*
X33059113Y-8807577I-87500J0D01*
G01*
X16326863Y-14522577D02*
G75*
G03*
X16326863Y-14522577I-87500J0D01*
G01*
X17342863Y-14522577D02*
G75*
G03*
X17342863Y-14522577I-87500J0D01*
G01*
X6325613Y-8807577D02*
G75*
G03*
X6325613Y-8807577I-87500J0D01*
G01*
X7341613Y-8807577D02*
G75*
G03*
X7341613Y-8807577I-87500J0D01*
G01*
X20136863Y-14522577D02*
G75*
G03*
X20136863Y-14522577I-87500J0D01*
G01*
X21152863Y-14522577D02*
G75*
G03*
X21152863Y-14522577I-87500J0D01*
G01*
X27994988Y-16427577D02*
G75*
G03*
X27994988Y-16427577I-87500J0D01*
G01*
X29010988Y-16427577D02*
G75*
G03*
X29010988Y-16427577I-87500J0D01*
G01*
X10611863Y-14522577D02*
G75*
G03*
X10611863Y-14522577I-87500J0D01*
G01*
X11627863Y-14522577D02*
G75*
G03*
X11627863Y-14522577I-87500J0D01*
G01*
X9183113Y-10712577D02*
G75*
G03*
X9183113Y-10712577I-87500J0D01*
G01*
X10199113Y-10712577D02*
G75*
G03*
X10199113Y-10712577I-87500J0D01*
G01*
X22994363Y-12617577D02*
G75*
G03*
X22994363Y-12617577I-87500J0D01*
G01*
X24010363Y-12617577D02*
G75*
G03*
X24010363Y-12617577I-87500J0D01*
G01*
X27280613Y-8807577D02*
G75*
G03*
X27280613Y-8807577I-87500J0D01*
G01*
X28296613Y-8807577D02*
G75*
G03*
X28296613Y-8807577I-87500J0D01*
G01*
X26328113Y-10712577D02*
G75*
G03*
X26328113Y-10712577I-87500J0D01*
G01*
X27344113Y-10712577D02*
G75*
G03*
X27344113Y-10712577I-87500J0D01*
G01*
X23946863Y-14522577D02*
G75*
G03*
X23946863Y-14522577I-87500J0D01*
G01*
X24962863Y-14522577D02*
G75*
G03*
X24962863Y-14522577I-87500J0D01*
G01*
X22041863Y-14522577D02*
G75*
G03*
X22041863Y-14522577I-87500J0D01*
G01*
X23057863Y-14522577D02*
G75*
G03*
X23057863Y-14522577I-87500J0D01*
G01*
X15850613Y-8807577D02*
G75*
G03*
X15850613Y-8807577I-87500J0D01*
G01*
X16866613Y-8807577D02*
G75*
G03*
X16866613Y-8807577I-87500J0D01*
G01*
X12516863Y-14522577D02*
G75*
G03*
X12516863Y-14522577I-87500J0D01*
G01*
X13532863Y-14522577D02*
G75*
G03*
X13532863Y-14522577I-87500J0D01*
G01*
X14898113Y-10712577D02*
G75*
G03*
X14898113Y-10712577I-87500J0D01*
G01*
X15914113Y-10712577D02*
G75*
G03*
X15914113Y-10712577I-87500J0D01*
G01*
X9659363Y-12617577D02*
G75*
G03*
X9659363Y-12617577I-87500J0D01*
G01*
X10675363Y-12617577D02*
G75*
G03*
X10675363Y-12617577I-87500J0D01*
G01*
X11088113Y-10712577D02*
G75*
G03*
X11088113Y-10712577I-87500J0D01*
G01*
X12104113Y-10712577D02*
G75*
G03*
X12104113Y-10712577I-87500J0D01*
G01*
X28233113Y-10712577D02*
G75*
G03*
X28233113Y-10712577I-87500J0D01*
G01*
X29249113Y-10712577D02*
G75*
G03*
X29249113Y-10712577I-87500J0D01*
G01*
X30415738Y-14118577D02*
X30415738Y-14418577D01*
X30265738Y-14268577D02*
X30565738Y-14268577D01*
X31050738Y-13864577D02*
X31050738Y-14164577D01*
X30900738Y-14014577D02*
X31200738Y-14014577D01*
X25891363Y-14118577D02*
X25891363Y-14418577D01*
X25741363Y-14268577D02*
X26041363Y-14268577D01*
X26526363Y-13864577D02*
X26526363Y-14164577D01*
X26376363Y-14014577D02*
X26676363Y-14014577D01*
X17795113Y-8403577D02*
X17795113Y-8703577D01*
X17645113Y-8553577D02*
X17945113Y-8553577D01*
X18430113Y-8149577D02*
X18430113Y-8449577D01*
X18280113Y-8299577D02*
X18580113Y-8299577D01*
X14461363Y-14118577D02*
X14461363Y-14418577D01*
X14311363Y-14268577D02*
X14611363Y-14268577D01*
X15096363Y-13864577D02*
X15096363Y-14164577D01*
X14946363Y-14014577D02*
X15246363Y-14014577D01*
X32796988Y-11261077D02*
X32796988Y-11561077D01*
X32646988Y-11411077D02*
X32946988Y-11411077D01*
X33431988Y-11007077D02*
X33431988Y-11307077D01*
X33281988Y-11157077D02*
X33581988Y-11157077D01*
X24462613Y-10308577D02*
X24462613Y-10608577D01*
X24312613Y-10458577D02*
X24612613Y-10458577D01*
X25097613Y-10054577D02*
X25097613Y-10354577D01*
X24947613Y-10204577D02*
X25247613Y-10204577D01*
X17318863Y-12213577D02*
X17318863Y-12513577D01*
X17168863Y-12363577D02*
X17468863Y-12363577D01*
X17953863Y-11959577D02*
X17953863Y-12259577D01*
X17803863Y-12109577D02*
X18103863Y-12109577D01*
X20652613Y-10308577D02*
X20652613Y-10608577D01*
X20502613Y-10458577D02*
X20802613Y-10458577D01*
X21287613Y-10054577D02*
X21287613Y-10354577D01*
X21137613Y-10204577D02*
X21437613Y-10204577D01*
X6841363Y-10308577D02*
X6841363Y-10608577D01*
X6691363Y-10458577D02*
X6991363Y-10458577D01*
X7476363Y-10054577D02*
X7476363Y-10354577D01*
X7326363Y-10204577D02*
X7626363Y-10204577D01*
X21128863Y-12213577D02*
X21128863Y-12513577D01*
X20978863Y-12363577D02*
X21278863Y-12363577D01*
X21763863Y-11959577D02*
X21763863Y-12259577D01*
X21613863Y-12109577D02*
X21913863Y-12109577D01*
X31130113Y-16023577D02*
X31130113Y-16323577D01*
X30980113Y-16173577D02*
X31280113Y-16173577D01*
X31765113Y-15769577D02*
X31765113Y-16069577D01*
X31615113Y-15919577D02*
X31915113Y-15919577D01*
X12080113Y-8403577D02*
X12080113Y-8703577D01*
X11930113Y-8553577D02*
X12230113Y-8553577D01*
X12715113Y-8149577D02*
X12715113Y-8449577D01*
X12565113Y-8299577D02*
X12865113Y-8299577D01*
X10175113Y-8403577D02*
X10175113Y-8703577D01*
X10025113Y-8553577D02*
X10325113Y-8553577D01*
X10810113Y-8149577D02*
X10810113Y-8449577D01*
X10660113Y-8299577D02*
X10960113Y-8299577D01*
X33035113Y-14118577D02*
X33035113Y-14418577D01*
X32885113Y-14268577D02*
X33185113Y-14268577D01*
X33670113Y-13864577D02*
X33670113Y-14164577D01*
X33520113Y-14014577D02*
X33820113Y-14014577D01*
X6603238Y-16023577D02*
X6603238Y-16323577D01*
X6453238Y-16173577D02*
X6753238Y-16173577D01*
X7238238Y-15769577D02*
X7238238Y-16069577D01*
X7088238Y-15919577D02*
X7388238Y-15919577D01*
X18747613Y-10308577D02*
X18747613Y-10608577D01*
X18597613Y-10458577D02*
X18897613Y-10458577D01*
X19382613Y-10054577D02*
X19382613Y-10354577D01*
X19232613Y-10204577D02*
X19532613Y-10204577D01*
X34940113Y-12213577D02*
X34940113Y-12513577D01*
X34790113Y-12363577D02*
X35090113Y-12363577D01*
X35575113Y-11959577D02*
X35575113Y-12259577D01*
X35425113Y-12109577D02*
X35725113Y-12109577D01*
X30653863Y-12213577D02*
X30653863Y-12513577D01*
X30503863Y-12363577D02*
X30803863Y-12363577D01*
X31288863Y-11959577D02*
X31288863Y-12259577D01*
X31138863Y-12109577D02*
X31438863Y-12109577D01*
X34940113Y-16023577D02*
X34940113Y-16323577D01*
X34790113Y-16173577D02*
X35090113Y-16173577D01*
X35575113Y-15769577D02*
X35575113Y-16069577D01*
X35425113Y-15919577D02*
X35725113Y-15919577D01*
X28748863Y-12213577D02*
X28748863Y-12513577D01*
X28598863Y-12363577D02*
X28898863Y-12363577D01*
X29383863Y-11959577D02*
X29383863Y-12259577D01*
X29233863Y-12109577D02*
X29533863Y-12109577D01*
X13032613Y-10308577D02*
X13032613Y-10608577D01*
X12882613Y-10458577D02*
X13182613Y-10458577D01*
X13667613Y-10054577D02*
X13667613Y-10354577D01*
X13517613Y-10204577D02*
X13817613Y-10204577D01*
X26843863Y-12213577D02*
X26843863Y-12513577D01*
X26693863Y-12363577D02*
X26993863Y-12363577D01*
X27478863Y-11959577D02*
X27478863Y-12259577D01*
X27328863Y-12109577D02*
X27628863Y-12109577D01*
X34940113Y-14118577D02*
X34940113Y-14418577D01*
X34790113Y-14268577D02*
X35090113Y-14268577D01*
X35575113Y-13864577D02*
X35575113Y-14164577D01*
X35425113Y-14014577D02*
X35725113Y-14014577D01*
X11365738Y-16023577D02*
X11365738Y-16323577D01*
X11215738Y-16173577D02*
X11515738Y-16173577D01*
X12000738Y-15769577D02*
X12000738Y-16069577D01*
X11850738Y-15919577D02*
X12150738Y-15919577D01*
X19700113Y-8403577D02*
X19700113Y-8703577D01*
X19550113Y-8553577D02*
X19850113Y-8553577D01*
X20335113Y-8149577D02*
X20335113Y-8449577D01*
X20185113Y-8299577D02*
X20485113Y-8299577D01*
X13508863Y-12213577D02*
X13508863Y-12513577D01*
X13358863Y-12363577D02*
X13658863Y-12363577D01*
X14143863Y-11959577D02*
X14143863Y-12259577D01*
X13993863Y-12109577D02*
X14293863Y-12109577D01*
X13985113Y-8403577D02*
X13985113Y-8703577D01*
X13835113Y-8553577D02*
X14135113Y-8553577D01*
X14620113Y-8149577D02*
X14620113Y-8449577D01*
X14470113Y-8299577D02*
X14770113Y-8299577D01*
X34940113Y-8403577D02*
X34940113Y-8703577D01*
X34790113Y-8553577D02*
X35090113Y-8553577D01*
X35575113Y-8149577D02*
X35575113Y-8449577D01*
X35425113Y-8299577D02*
X35725113Y-8299577D01*
X11603863Y-12213577D02*
X11603863Y-12513577D01*
X11453863Y-12363577D02*
X11753863Y-12363577D01*
X12238863Y-11959577D02*
X12238863Y-12259577D01*
X12088863Y-12109577D02*
X12388863Y-12109577D01*
X25415113Y-8403577D02*
X25415113Y-8703577D01*
X25265113Y-8553577D02*
X25565113Y-8553577D01*
X26050113Y-8149577D02*
X26050113Y-8449577D01*
X25900113Y-8299577D02*
X26200113Y-8299577D01*
X19223863Y-12213577D02*
X19223863Y-12513577D01*
X19073863Y-12363577D02*
X19373863Y-12363577D01*
X19858863Y-11959577D02*
X19858863Y-12259577D01*
X19708863Y-12109577D02*
X20008863Y-12109577D01*
X6603238Y-14118577D02*
X6603238Y-14418577D01*
X6453238Y-14268577D02*
X6753238Y-14268577D01*
X7238238Y-13864577D02*
X7238238Y-14164577D01*
X7088238Y-14014577D02*
X7388238Y-14014577D01*
X33035113Y-16023577D02*
X33035113Y-16323577D01*
X32885113Y-16173577D02*
X33185113Y-16173577D01*
X33670113Y-15769577D02*
X33670113Y-16069577D01*
X33520113Y-15919577D02*
X33820113Y-15919577D01*
X8397113Y-9165577D02*
X8397113Y-9465577D01*
X8247113Y-9315577D02*
X8547113Y-9315577D01*
X9032113Y-8911577D02*
X9032113Y-9211577D01*
X8882113Y-9061577D02*
X9182113Y-9061577D01*
X8984488Y-16023577D02*
X8984488Y-16323577D01*
X8834488Y-16173577D02*
X9134488Y-16173577D01*
X9619488Y-15769577D02*
X9619488Y-16069577D01*
X9469488Y-15919577D02*
X9769488Y-15919577D01*
X27796363Y-14118577D02*
X27796363Y-14418577D01*
X27646363Y-14268577D02*
X27946363Y-14268577D01*
X28431363Y-13864577D02*
X28431363Y-14164577D01*
X28281363Y-14014577D02*
X28581363Y-14014577D01*
X21605113Y-8403577D02*
X21605113Y-8703577D01*
X21455113Y-8553577D02*
X21755113Y-8553577D01*
X22240113Y-8149577D02*
X22240113Y-8449577D01*
X22090113Y-8299577D02*
X22390113Y-8299577D01*
X24938863Y-12213577D02*
X24938863Y-12513577D01*
X24788863Y-12363577D02*
X25088863Y-12363577D01*
X25573863Y-11959577D02*
X25573863Y-12259577D01*
X25423863Y-12109577D02*
X25723863Y-12109577D01*
X16842613Y-10308577D02*
X16842613Y-10608577D01*
X16692613Y-10458577D02*
X16992613Y-10458577D01*
X17477613Y-10054577D02*
X17477613Y-10354577D01*
X17327613Y-10204577D02*
X17627613Y-10204577D01*
X34940113Y-10308577D02*
X34940113Y-10608577D01*
X34790113Y-10458577D02*
X35090113Y-10458577D01*
X35575113Y-10054577D02*
X35575113Y-10354577D01*
X35425113Y-10204577D02*
X35725113Y-10204577D01*
X30177613Y-10308577D02*
X30177613Y-10608577D01*
X30027613Y-10458577D02*
X30327613Y-10458577D01*
X30812613Y-10054577D02*
X30812613Y-10354577D01*
X30662613Y-10204577D02*
X30962613Y-10204577D01*
X23510113Y-8403577D02*
X23510113Y-8703577D01*
X23360113Y-8553577D02*
X23660113Y-8553577D01*
X24145113Y-8149577D02*
X24145113Y-8449577D01*
X23995113Y-8299577D02*
X24295113Y-8299577D01*
X7080250Y-12215990D02*
X7080250Y-12515990D01*
X6930250Y-12365990D02*
X7230250Y-12365990D01*
X7715250Y-11961990D02*
X7715250Y-12261990D01*
X7565250Y-12111990D02*
X7865250Y-12111990D01*
X18271363Y-14118577D02*
X18271363Y-14418577D01*
X18121363Y-14268577D02*
X18421363Y-14268577D01*
X18906363Y-13864577D02*
X18906363Y-14164577D01*
X18756363Y-14014577D02*
X19056363Y-14014577D01*
X18509488Y-16023577D02*
X18509488Y-16323577D01*
X18359488Y-16173577D02*
X18659488Y-16173577D01*
X19144488Y-15769577D02*
X19144488Y-16069577D01*
X18994488Y-15919577D02*
X19294488Y-15919577D01*
X25653238Y-16023577D02*
X25653238Y-16323577D01*
X25503238Y-16173577D02*
X25803238Y-16173577D01*
X26288238Y-15769577D02*
X26288238Y-16069577D01*
X26138238Y-15919577D02*
X26438238Y-15919577D01*
X29225113Y-8403577D02*
X29225113Y-8703577D01*
X29075113Y-8553577D02*
X29375113Y-8553577D01*
X29860113Y-8149577D02*
X29860113Y-8449577D01*
X29710113Y-8299577D02*
X30010113Y-8299577D01*
X8746363Y-14118577D02*
X8746363Y-14418577D01*
X8596363Y-14268577D02*
X8896363Y-14268577D01*
X9381363Y-13864577D02*
X9381363Y-14164577D01*
X9231363Y-14014577D02*
X9531363Y-14014577D01*
X22557613Y-10308577D02*
X22557613Y-10608577D01*
X22407613Y-10458577D02*
X22707613Y-10458577D01*
X23192613Y-10054577D02*
X23192613Y-10354577D01*
X23042613Y-10204577D02*
X23342613Y-10204577D01*
X15413863Y-12213577D02*
X15413863Y-12513577D01*
X15263863Y-12363577D02*
X15563863Y-12363577D01*
X16048863Y-11959577D02*
X16048863Y-12259577D01*
X15898863Y-12109577D02*
X16198863Y-12109577D01*
X32082613Y-8403577D02*
X32082613Y-8703577D01*
X31932613Y-8553577D02*
X32232613Y-8553577D01*
X32717613Y-8149577D02*
X32717613Y-8449577D01*
X32567613Y-8299577D02*
X32867613Y-8299577D01*
X16366363Y-14118577D02*
X16366363Y-14418577D01*
X16216363Y-14268577D02*
X16516363Y-14268577D01*
X17001363Y-13864577D02*
X17001363Y-14164577D01*
X16851363Y-14014577D02*
X17151363Y-14014577D01*
X6492113Y-9165577D02*
X6492113Y-9465577D01*
X6342113Y-9315577D02*
X6642113Y-9315577D01*
X7127113Y-8911577D02*
X7127113Y-9211577D01*
X6977113Y-9061577D02*
X7277113Y-9061577D01*
X20176363Y-14118577D02*
X20176363Y-14418577D01*
X20026363Y-14268577D02*
X20326363Y-14268577D01*
X20811363Y-13864577D02*
X20811363Y-14164577D01*
X20661363Y-14014577D02*
X20961363Y-14014577D01*
X28034488Y-16023577D02*
X28034488Y-16323577D01*
X27884488Y-16173577D02*
X28184488Y-16173577D01*
X28669488Y-15769577D02*
X28669488Y-16069577D01*
X28519488Y-15919577D02*
X28819488Y-15919577D01*
X10651363Y-14118577D02*
X10651363Y-14418577D01*
X10501363Y-14268577D02*
X10801363Y-14268577D01*
X11286363Y-13864577D02*
X11286363Y-14164577D01*
X11136363Y-14014577D02*
X11436363Y-14014577D01*
X9222613Y-10308577D02*
X9222613Y-10608577D01*
X9072613Y-10458577D02*
X9372613Y-10458577D01*
X9857613Y-10054577D02*
X9857613Y-10354577D01*
X9707613Y-10204577D02*
X10007613Y-10204577D01*
X23033863Y-12213577D02*
X23033863Y-12513577D01*
X22883863Y-12363577D02*
X23183863Y-12363577D01*
X23668863Y-11959577D02*
X23668863Y-12259577D01*
X23518863Y-12109577D02*
X23818863Y-12109577D01*
X27320113Y-8403577D02*
X27320113Y-8703577D01*
X27170113Y-8553577D02*
X27470113Y-8553577D01*
X27955113Y-8149577D02*
X27955113Y-8449577D01*
X27805113Y-8299577D02*
X28105113Y-8299577D01*
X26367613Y-10308577D02*
X26367613Y-10608577D01*
X26217613Y-10458577D02*
X26517613Y-10458577D01*
X27002613Y-10054577D02*
X27002613Y-10354577D01*
X26852613Y-10204577D02*
X27152613Y-10204577D01*
X23986363Y-14118577D02*
X23986363Y-14418577D01*
X23836363Y-14268577D02*
X24136363Y-14268577D01*
X24621363Y-13864577D02*
X24621363Y-14164577D01*
X24471363Y-14014577D02*
X24771363Y-14014577D01*
X22081363Y-14118577D02*
X22081363Y-14418577D01*
X21931363Y-14268577D02*
X22231363Y-14268577D01*
X22716363Y-13864577D02*
X22716363Y-14164577D01*
X22566363Y-14014577D02*
X22866363Y-14014577D01*
X15890113Y-8403577D02*
X15890113Y-8703577D01*
X15740113Y-8553577D02*
X16040113Y-8553577D01*
X16525113Y-8149577D02*
X16525113Y-8449577D01*
X16375113Y-8299577D02*
X16675113Y-8299577D01*
X12556363Y-14118577D02*
X12556363Y-14418577D01*
X12406363Y-14268577D02*
X12706363Y-14268577D01*
X13191363Y-13864577D02*
X13191363Y-14164577D01*
X13041363Y-14014577D02*
X13341363Y-14014577D01*
X14937613Y-10308577D02*
X14937613Y-10608577D01*
X14787613Y-10458577D02*
X15087613Y-10458577D01*
X15572613Y-10054577D02*
X15572613Y-10354577D01*
X15422613Y-10204577D02*
X15722613Y-10204577D01*
X9698863Y-12213577D02*
X9698863Y-12513577D01*
X9548863Y-12363577D02*
X9848863Y-12363577D01*
X10333863Y-11959577D02*
X10333863Y-12259577D01*
X10183863Y-12109577D02*
X10483863Y-12109577D01*
X11127613Y-10308577D02*
X11127613Y-10608577D01*
X10977613Y-10458577D02*
X11277613Y-10458577D01*
X11762613Y-10054577D02*
X11762613Y-10354577D01*
X11612613Y-10204577D02*
X11912613Y-10204577D01*
X28272613Y-10308577D02*
X28272613Y-10608577D01*
X28122613Y-10458577D02*
X28422613Y-10458577D01*
X28907613Y-10054577D02*
X28907613Y-10354577D01*
X28757613Y-10204577D02*
X29057613Y-10204577D01*
X13998262Y-17233841D02*
X13998262Y-17018313D01*
X13782734Y-17018313D01*
X13782734Y-17233841D01*
X13998262Y-17233841D01*
X23998242Y-17233841D02*
X23998242Y-17018313D01*
X23782714Y-17018313D01*
X23782714Y-17233841D01*
X23998242Y-17233841D01*
X31377577Y-8216841D02*
X31377577Y-8001313D01*
X31162049Y-8001313D01*
X31162049Y-8216841D01*
X31377577Y-8216841D01*
X33765177Y-8216841D02*
X33765177Y-8001313D01*
X33549649Y-8001313D01*
X33549649Y-8216841D01*
X33765177Y-8216841D01*
X33984252Y-10579041D02*
X33984252Y-10363513D01*
X33768724Y-10363513D01*
X33768724Y-10579041D01*
X33984252Y-10579041D01*
X33984252Y-12966641D02*
X33984252Y-12751113D01*
X33768724Y-12751113D01*
X33768724Y-12966641D01*
X33984252Y-12966641D01*
X18652363Y-14721967D02*
X18851753Y-14522577D01*
X18652363Y-14323187D01*
X18452973Y-14522577D01*
X18652363Y-14721967D01*
X13890498Y-15801467D02*
X14089888Y-15602077D01*
X13890498Y-15402687D01*
X13691108Y-15602077D01*
X13890498Y-15801467D01*
X18890488Y-16626967D02*
X19089878Y-16427577D01*
X18890488Y-16228187D01*
X18691098Y-16427577D01*
X18890488Y-16626967D01*
X23890478Y-15801467D02*
X24089868Y-15602077D01*
X23890478Y-15402687D01*
X23691088Y-15602077D01*
X23890478Y-15801467D01*
X26034238Y-16626967D02*
X26233628Y-16427577D01*
X26034238Y-16228187D01*
X25834848Y-16427577D01*
X26034238Y-16626967D01*
X29606113Y-9006967D02*
X29805503Y-8807577D01*
X29606113Y-8608187D01*
X29406723Y-8807577D01*
X29606113Y-9006967D01*
X9127363Y-14721967D02*
X9326753Y-14522577D01*
X9127363Y-14323187D01*
X8927973Y-14522577D01*
X9127363Y-14721967D01*
X22938613Y-10911967D02*
X23138003Y-10712577D01*
X22938613Y-10513187D01*
X22739223Y-10712577D01*
X22938613Y-10911967D01*
X15794863Y-12816967D02*
X15994253Y-12617577D01*
X15794863Y-12418187D01*
X15595473Y-12617577D01*
X15794863Y-12816967D01*
X31269813Y-9832467D02*
X31469203Y-9633077D01*
X31269813Y-9433687D01*
X31070423Y-9633077D01*
X31269813Y-9832467D01*
X32463613Y-9006967D02*
X32663003Y-8807577D01*
X32463613Y-8608187D01*
X32264223Y-8807577D01*
X32463613Y-9006967D01*
X33657413Y-9832467D02*
X33856803Y-9633077D01*
X33657413Y-9433687D01*
X33458023Y-9633077D01*
X33657413Y-9832467D01*
X16747363Y-14721967D02*
X16946753Y-14522577D01*
X16747363Y-14323187D01*
X16547973Y-14522577D01*
X16747363Y-14721967D01*
X6746113Y-9006967D02*
X6945503Y-8807577D01*
X6746113Y-8608187D01*
X6546723Y-8807577D01*
X6746113Y-9006967D01*
X20557363Y-14721967D02*
X20756753Y-14522577D01*
X20557363Y-14323187D01*
X20357973Y-14522577D01*
X20557363Y-14721967D01*
X28415488Y-16626967D02*
X28614878Y-16427577D01*
X28415488Y-16228187D01*
X28216098Y-16427577D01*
X28415488Y-16626967D01*
X11032363Y-14721967D02*
X11231753Y-14522577D01*
X11032363Y-14323187D01*
X10832973Y-14522577D01*
X11032363Y-14721967D01*
X9603613Y-10911967D02*
X9803003Y-10712577D01*
X9603613Y-10513187D01*
X9404223Y-10712577D01*
X9603613Y-10911967D01*
X23414863Y-12816967D02*
X23614253Y-12617577D01*
X23414863Y-12418187D01*
X23215473Y-12617577D01*
X23414863Y-12816967D01*
X27701113Y-9006967D02*
X27900503Y-8807577D01*
X27701113Y-8608187D01*
X27501723Y-8807577D01*
X27701113Y-9006967D01*
X26748613Y-10911967D02*
X26948003Y-10712577D01*
X26748613Y-10513187D01*
X26549223Y-10712577D01*
X26748613Y-10911967D01*
X24367363Y-14721967D02*
X24566753Y-14522577D01*
X24367363Y-14323187D01*
X24167973Y-14522577D01*
X24367363Y-14721967D01*
X22462363Y-14721967D02*
X22661753Y-14522577D01*
X22462363Y-14323187D01*
X22262973Y-14522577D01*
X22462363Y-14721967D01*
X16271113Y-9006967D02*
X16470503Y-8807577D01*
X16271113Y-8608187D01*
X16071723Y-8807577D01*
X16271113Y-9006967D01*
X12937363Y-14721967D02*
X13136753Y-14522577D01*
X12937363Y-14323187D01*
X12737973Y-14522577D01*
X12937363Y-14721967D01*
X15318613Y-10911967D02*
X15518003Y-10712577D01*
X15318613Y-10513187D01*
X15119223Y-10712577D01*
X15318613Y-10911967D01*
X10079863Y-12816967D02*
X10279253Y-12617577D01*
X10079863Y-12418187D01*
X9880473Y-12617577D01*
X10079863Y-12816967D01*
X11508613Y-10911967D02*
X11708003Y-10712577D01*
X11508613Y-10513187D01*
X11309223Y-10712577D01*
X11508613Y-10911967D01*
X28653613Y-10911967D02*
X28853003Y-10712577D01*
X28653613Y-10513187D01*
X28454223Y-10712577D01*
X28653613Y-10911967D01*
X30796738Y-14721967D02*
X30996128Y-14522577D01*
X30796738Y-14323187D01*
X30597348Y-14522577D01*
X30796738Y-14721967D01*
X26272363Y-14721967D02*
X26471753Y-14522577D01*
X26272363Y-14323187D01*
X26072973Y-14522577D01*
X26272363Y-14721967D01*
X18176113Y-9006967D02*
X18375503Y-8807577D01*
X18176113Y-8608187D01*
X17976723Y-8807577D01*
X18176113Y-9006967D01*
X14842363Y-14721967D02*
X15041753Y-14522577D01*
X14842363Y-14323187D01*
X14642973Y-14522577D01*
X14842363Y-14721967D01*
X32352488Y-10670667D02*
X32551878Y-10471277D01*
X32352488Y-10271887D01*
X32153098Y-10471277D01*
X32352488Y-10670667D01*
X32352488Y-13058267D02*
X32551878Y-12858877D01*
X32352488Y-12659487D01*
X32153098Y-12858877D01*
X32352488Y-13058267D01*
X33177988Y-11864467D02*
X33377378Y-11665077D01*
X33177988Y-11465687D01*
X32978598Y-11665077D01*
X33177988Y-11864467D01*
X24843613Y-10911967D02*
X25043003Y-10712577D01*
X24843613Y-10513187D01*
X24644223Y-10712577D01*
X24843613Y-10911967D01*
X17699863Y-12816967D02*
X17899253Y-12617577D01*
X17699863Y-12418187D01*
X17500473Y-12617577D01*
X17699863Y-12816967D01*
X21033613Y-10911967D02*
X21233003Y-10712577D01*
X21033613Y-10513187D01*
X20834223Y-10712577D01*
X21033613Y-10911967D01*
X7222363Y-10911967D02*
X7421753Y-10712577D01*
X7222363Y-10513187D01*
X7022973Y-10712577D01*
X7222363Y-10911967D01*
X21509863Y-12816967D02*
X21709253Y-12617577D01*
X21509863Y-12418187D01*
X21310473Y-12617577D01*
X21509863Y-12816967D01*
X31511113Y-16626967D02*
X31710503Y-16427577D01*
X31511113Y-16228187D01*
X31311723Y-16427577D01*
X31511113Y-16626967D01*
X12461113Y-9006967D02*
X12660503Y-8807577D01*
X12461113Y-8608187D01*
X12261723Y-8807577D01*
X12461113Y-9006967D01*
X10556113Y-9006967D02*
X10755503Y-8807577D01*
X10556113Y-8608187D01*
X10356723Y-8807577D01*
X10556113Y-9006967D01*
X33416113Y-14721967D02*
X33615503Y-14522577D01*
X33416113Y-14323187D01*
X33216723Y-14522577D01*
X33416113Y-14721967D01*
X6984238Y-16626967D02*
X7183628Y-16427577D01*
X6984238Y-16228187D01*
X6784848Y-16427577D01*
X6984238Y-16626967D01*
X19128613Y-10911967D02*
X19328003Y-10712577D01*
X19128613Y-10513187D01*
X18929223Y-10712577D01*
X19128613Y-10911967D01*
X35321113Y-12816967D02*
X35520503Y-12617577D01*
X35321113Y-12418187D01*
X35121723Y-12617577D01*
X35321113Y-12816967D01*
X31034863Y-12816967D02*
X31234253Y-12617577D01*
X31034863Y-12418187D01*
X30835473Y-12617577D01*
X31034863Y-12816967D01*
X35321113Y-16626967D02*
X35520503Y-16427577D01*
X35321113Y-16228187D01*
X35121723Y-16427577D01*
X35321113Y-16626967D01*
X29129863Y-12816967D02*
X29329253Y-12617577D01*
X29129863Y-12418187D01*
X28930473Y-12617577D01*
X29129863Y-12816967D01*
X13413613Y-10911967D02*
X13613003Y-10712577D01*
X13413613Y-10513187D01*
X13214223Y-10712577D01*
X13413613Y-10911967D01*
X27224863Y-12816967D02*
X27424253Y-12617577D01*
X27224863Y-12418187D01*
X27025473Y-12617577D01*
X27224863Y-12816967D01*
X35321113Y-14721967D02*
X35520503Y-14522577D01*
X35321113Y-14323187D01*
X35121723Y-14522577D01*
X35321113Y-14721967D01*
X11746738Y-16626967D02*
X11946128Y-16427577D01*
X11746738Y-16228187D01*
X11547348Y-16427577D01*
X11746738Y-16626967D01*
X20081113Y-9006967D02*
X20280503Y-8807577D01*
X20081113Y-8608187D01*
X19881723Y-8807577D01*
X20081113Y-9006967D01*
X13889863Y-12816967D02*
X14089253Y-12617577D01*
X13889863Y-12418187D01*
X13690473Y-12617577D01*
X13889863Y-12816967D01*
X14366113Y-9006967D02*
X14565503Y-8807577D01*
X14366113Y-8608187D01*
X14166723Y-8807577D01*
X14366113Y-9006967D01*
X35321113Y-9006967D02*
X35520503Y-8807577D01*
X35321113Y-8608187D01*
X35121723Y-8807577D01*
X35321113Y-9006967D01*
X11984863Y-12816967D02*
X12184253Y-12617577D01*
X11984863Y-12418187D01*
X11785473Y-12617577D01*
X11984863Y-12816967D01*
X25796113Y-9006967D02*
X25995503Y-8807577D01*
X25796113Y-8608187D01*
X25596723Y-8807577D01*
X25796113Y-9006967D01*
X19604863Y-12816967D02*
X19804253Y-12617577D01*
X19604863Y-12418187D01*
X19405473Y-12617577D01*
X19604863Y-12816967D01*
X6984238Y-14721967D02*
X7183628Y-14522577D01*
X6984238Y-14323187D01*
X6784848Y-14522577D01*
X6984238Y-14721967D01*
X33416113Y-16626967D02*
X33615503Y-16427577D01*
X33416113Y-16228187D01*
X33216723Y-16427577D01*
X33416113Y-16626967D01*
X8651113Y-9006967D02*
X8850503Y-8807577D01*
X8651113Y-8608187D01*
X8451723Y-8807577D01*
X8651113Y-9006967D01*
X9365488Y-16626967D02*
X9564878Y-16427577D01*
X9365488Y-16228187D01*
X9166098Y-16427577D01*
X9365488Y-16626967D01*
X28177363Y-14721967D02*
X28376753Y-14522577D01*
X28177363Y-14323187D01*
X27977973Y-14522577D01*
X28177363Y-14721967D01*
X21986113Y-9006967D02*
X22185503Y-8807577D01*
X21986113Y-8608187D01*
X21786723Y-8807577D01*
X21986113Y-9006967D01*
X25319863Y-12816967D02*
X25519253Y-12617577D01*
X25319863Y-12418187D01*
X25120473Y-12617577D01*
X25319863Y-12816967D01*
X17223613Y-10911967D02*
X17423003Y-10712577D01*
X17223613Y-10513187D01*
X17024223Y-10712577D01*
X17223613Y-10911967D01*
X35321113Y-10911967D02*
X35520503Y-10712577D01*
X35321113Y-10513187D01*
X35121723Y-10712577D01*
X35321113Y-10911967D01*
X30558613Y-10911967D02*
X30758003Y-10712577D01*
X30558613Y-10513187D01*
X30359223Y-10712577D01*
X30558613Y-10911967D01*
X23891113Y-9006967D02*
X24090503Y-8807577D01*
X23891113Y-8608187D01*
X23691723Y-8807577D01*
X23891113Y-9006967D01*
X7461250Y-12819380D02*
X7660640Y-12619990D01*
X7461250Y-12420600D01*
X7261860Y-12619990D01*
X7461250Y-12819380D01*
D12*
X6154522Y-17691925D02*
X6154522Y-17391925D01*
X6225951Y-17391925D01*
X6268808Y-17406210D01*
X6297379Y-17434782D01*
X6311665Y-17463353D01*
X6325951Y-17520496D01*
X6325951Y-17563353D01*
X6311665Y-17620496D01*
X6297379Y-17649067D01*
X6268808Y-17677639D01*
X6225951Y-17691925D01*
X6154522Y-17691925D01*
X6454522Y-17691925D02*
X6454522Y-17491925D01*
X6454522Y-17549067D02*
X6468808Y-17520496D01*
X6483094Y-17506210D01*
X6511665Y-17491925D01*
X6540237Y-17491925D01*
X6640237Y-17691925D02*
X6640237Y-17491925D01*
X6640237Y-17391925D02*
X6625951Y-17406210D01*
X6640237Y-17420496D01*
X6654522Y-17406210D01*
X6640237Y-17391925D01*
X6640237Y-17420496D01*
X6825951Y-17691925D02*
X6797379Y-17677639D01*
X6783094Y-17649067D01*
X6783094Y-17391925D01*
X6983094Y-17691925D02*
X6954522Y-17677639D01*
X6940237Y-17649067D01*
X6940237Y-17391925D01*
X7325951Y-17691925D02*
X7325951Y-17391925D01*
X7425951Y-17606210D01*
X7525951Y-17391925D01*
X7525951Y-17691925D01*
X7797379Y-17691925D02*
X7797379Y-17534782D01*
X7783094Y-17506210D01*
X7754522Y-17491925D01*
X7697379Y-17491925D01*
X7668808Y-17506210D01*
X7797379Y-17677639D02*
X7768808Y-17691925D01*
X7697379Y-17691925D01*
X7668808Y-17677639D01*
X7654522Y-17649067D01*
X7654522Y-17620496D01*
X7668808Y-17591925D01*
X7697379Y-17577639D01*
X7768808Y-17577639D01*
X7797379Y-17563353D01*
X7940237Y-17491925D02*
X7940237Y-17791925D01*
X7940237Y-17506210D02*
X7968808Y-17491925D01*
X8025951Y-17491925D01*
X8054522Y-17506210D01*
X8068808Y-17520496D01*
X8083094Y-17549067D01*
X8083094Y-17634782D01*
X8068808Y-17663353D01*
X8054522Y-17677639D01*
X8025951Y-17691925D01*
X7968808Y-17691925D01*
X7940237Y-17677639D01*
X8211665Y-17663353D02*
X8225951Y-17677639D01*
X8211665Y-17691925D01*
X8197379Y-17677639D01*
X8211665Y-17663353D01*
X8211665Y-17691925D01*
X8211665Y-17506210D02*
X8225951Y-17520496D01*
X8211665Y-17534782D01*
X8197379Y-17520496D01*
X8211665Y-17506210D01*
X8211665Y-17534782D01*
X5803094Y-18153710D02*
X5868094Y-18218710D01*
X5868094Y-18153710D02*
X5803094Y-18218710D01*
X6211665Y-18021925D02*
X6240237Y-18021925D01*
X6268808Y-18036210D01*
X6283094Y-18050496D01*
X6297379Y-18079067D01*
X6311665Y-18136210D01*
X6311665Y-18207639D01*
X6297379Y-18264782D01*
X6283094Y-18293353D01*
X6268808Y-18307639D01*
X6240237Y-18321925D01*
X6211665Y-18321925D01*
X6183094Y-18307639D01*
X6168808Y-18293353D01*
X6154522Y-18264782D01*
X6140237Y-18207639D01*
X6140237Y-18136210D01*
X6154522Y-18079067D01*
X6168808Y-18050496D01*
X6183094Y-18036210D01*
X6211665Y-18021925D01*
X6440237Y-18293353D02*
X6454522Y-18307639D01*
X6440237Y-18321925D01*
X6425951Y-18307639D01*
X6440237Y-18293353D01*
X6440237Y-18321925D01*
X6711665Y-18021925D02*
X6654522Y-18021925D01*
X6625951Y-18036210D01*
X6611665Y-18050496D01*
X6583094Y-18093353D01*
X6568808Y-18150496D01*
X6568808Y-18264782D01*
X6583094Y-18293353D01*
X6597379Y-18307639D01*
X6625951Y-18321925D01*
X6683094Y-18321925D01*
X6711665Y-18307639D01*
X6725951Y-18293353D01*
X6740237Y-18264782D01*
X6740237Y-18193353D01*
X6725951Y-18164782D01*
X6711665Y-18150496D01*
X6683094Y-18136210D01*
X6625951Y-18136210D01*
X6597379Y-18150496D01*
X6583094Y-18164782D01*
X6568808Y-18193353D01*
X7011665Y-18021925D02*
X6868808Y-18021925D01*
X6854522Y-18164782D01*
X6868808Y-18150496D01*
X6897379Y-18136210D01*
X6968808Y-18136210D01*
X6997379Y-18150496D01*
X7011665Y-18164782D01*
X7025951Y-18193353D01*
X7025951Y-18264782D01*
X7011665Y-18293353D01*
X6997379Y-18307639D01*
X6968808Y-18321925D01*
X6897379Y-18321925D01*
X6868808Y-18307639D01*
X6854522Y-18293353D01*
X7154522Y-18321925D02*
X7154522Y-18121925D01*
X7154522Y-18150496D02*
X7168808Y-18136210D01*
X7197379Y-18121925D01*
X7240237Y-18121925D01*
X7268808Y-18136210D01*
X7283094Y-18164782D01*
X7283094Y-18321925D01*
X7283094Y-18164782D02*
X7297379Y-18136210D01*
X7325951Y-18121925D01*
X7368808Y-18121925D01*
X7397379Y-18136210D01*
X7411665Y-18164782D01*
X7411665Y-18321925D01*
X7554522Y-18321925D02*
X7554522Y-18121925D01*
X7554522Y-18150496D02*
X7568808Y-18136210D01*
X7597379Y-18121925D01*
X7640237Y-18121925D01*
X7668808Y-18136210D01*
X7683094Y-18164782D01*
X7683094Y-18321925D01*
X7683094Y-18164782D02*
X7697379Y-18136210D01*
X7725951Y-18121925D01*
X7768808Y-18121925D01*
X7797379Y-18136210D01*
X7811665Y-18164782D01*
X7811665Y-18321925D01*
X8397380Y-18007639D02*
X8140237Y-18393353D01*
X8783094Y-18021925D02*
X8811665Y-18021925D01*
X8840237Y-18036210D01*
X8854522Y-18050496D01*
X8868808Y-18079067D01*
X8883094Y-18136210D01*
X8883094Y-18207639D01*
X8868808Y-18264782D01*
X8854522Y-18293353D01*
X8840237Y-18307639D01*
X8811665Y-18321925D01*
X8783094Y-18321925D01*
X8754522Y-18307639D01*
X8740237Y-18293353D01*
X8725951Y-18264782D01*
X8711665Y-18207639D01*
X8711665Y-18136210D01*
X8725951Y-18079067D01*
X8740237Y-18050496D01*
X8754522Y-18036210D01*
X8783094Y-18021925D01*
X9011665Y-18293353D02*
X9025951Y-18307639D01*
X9011665Y-18321925D01*
X8997380Y-18307639D01*
X9011665Y-18293353D01*
X9011665Y-18321925D01*
X9211665Y-18021925D02*
X9240237Y-18021925D01*
X9268808Y-18036210D01*
X9283094Y-18050496D01*
X9297380Y-18079067D01*
X9311665Y-18136210D01*
X9311665Y-18207639D01*
X9297380Y-18264782D01*
X9283094Y-18293353D01*
X9268808Y-18307639D01*
X9240237Y-18321925D01*
X9211665Y-18321925D01*
X9183094Y-18307639D01*
X9168808Y-18293353D01*
X9154522Y-18264782D01*
X9140237Y-18207639D01*
X9140237Y-18136210D01*
X9154522Y-18079067D01*
X9168808Y-18050496D01*
X9183094Y-18036210D01*
X9211665Y-18021925D01*
X9425951Y-18050496D02*
X9440237Y-18036210D01*
X9468808Y-18021925D01*
X9540237Y-18021925D01*
X9568808Y-18036210D01*
X9583094Y-18050496D01*
X9597380Y-18079067D01*
X9597380Y-18107639D01*
X9583094Y-18150496D01*
X9411665Y-18321925D01*
X9597380Y-18321925D01*
X9854522Y-18021925D02*
X9797380Y-18021925D01*
X9768808Y-18036210D01*
X9754522Y-18050496D01*
X9725951Y-18093353D01*
X9711665Y-18150496D01*
X9711665Y-18264782D01*
X9725951Y-18293353D01*
X9740237Y-18307639D01*
X9768808Y-18321925D01*
X9825951Y-18321925D01*
X9854522Y-18307639D01*
X9868808Y-18293353D01*
X9883094Y-18264782D01*
X9883094Y-18193353D01*
X9868808Y-18164782D01*
X9854522Y-18150496D01*
X9825951Y-18136210D01*
X9768808Y-18136210D01*
X9740237Y-18150496D01*
X9725951Y-18164782D01*
X9711665Y-18193353D01*
X9997380Y-18021925D02*
X9997380Y-18079067D01*
X10111665Y-18021925D02*
X10111665Y-18079067D01*
X10554522Y-18436210D02*
X10540237Y-18421925D01*
X10511665Y-18379067D01*
X10497380Y-18350496D01*
X10483094Y-18307639D01*
X10468808Y-18236210D01*
X10468808Y-18179067D01*
X10483094Y-18107639D01*
X10497380Y-18064782D01*
X10511665Y-18036210D01*
X10540237Y-17993353D01*
X10554522Y-17979067D01*
X10654522Y-18050496D02*
X10668808Y-18036210D01*
X10697380Y-18021925D01*
X10768808Y-18021925D01*
X10797380Y-18036210D01*
X10811665Y-18050496D01*
X10825951Y-18079067D01*
X10825951Y-18107639D01*
X10811665Y-18150496D01*
X10640237Y-18321925D01*
X10825951Y-18321925D01*
X11183094Y-18321925D02*
X11183094Y-18021925D01*
X11311665Y-18321925D02*
X11311665Y-18164782D01*
X11297379Y-18136210D01*
X11268808Y-18121925D01*
X11225951Y-18121925D01*
X11197379Y-18136210D01*
X11183094Y-18150496D01*
X11497379Y-18321925D02*
X11468808Y-18307639D01*
X11454522Y-18293353D01*
X11440237Y-18264782D01*
X11440237Y-18179067D01*
X11454522Y-18150496D01*
X11468808Y-18136210D01*
X11497379Y-18121925D01*
X11540237Y-18121925D01*
X11568808Y-18136210D01*
X11583094Y-18150496D01*
X11597379Y-18179067D01*
X11597379Y-18264782D01*
X11583094Y-18293353D01*
X11568808Y-18307639D01*
X11540237Y-18321925D01*
X11497379Y-18321925D01*
X11768808Y-18321925D02*
X11740237Y-18307639D01*
X11725951Y-18279067D01*
X11725951Y-18021925D01*
X11997379Y-18307639D02*
X11968808Y-18321925D01*
X11911665Y-18321925D01*
X11883094Y-18307639D01*
X11868808Y-18279067D01*
X11868808Y-18164782D01*
X11883094Y-18136210D01*
X11911665Y-18121925D01*
X11968808Y-18121925D01*
X11997379Y-18136210D01*
X12011665Y-18164782D01*
X12011665Y-18193353D01*
X11868808Y-18221925D01*
X12125951Y-18307639D02*
X12154522Y-18321925D01*
X12211665Y-18321925D01*
X12240237Y-18307639D01*
X12254522Y-18279067D01*
X12254522Y-18264782D01*
X12240237Y-18236210D01*
X12211665Y-18221925D01*
X12168808Y-18221925D01*
X12140237Y-18207639D01*
X12125951Y-18179067D01*
X12125951Y-18164782D01*
X12140237Y-18136210D01*
X12168808Y-18121925D01*
X12211665Y-18121925D01*
X12240237Y-18136210D01*
X12354522Y-18436210D02*
X12368808Y-18421925D01*
X12397379Y-18379067D01*
X12411665Y-18350496D01*
X12425951Y-18307639D01*
X12440237Y-18236210D01*
X12440237Y-18179067D01*
X12425951Y-18107639D01*
X12411665Y-18064782D01*
X12397379Y-18036210D01*
X12368808Y-17993353D01*
X12354522Y-17979067D01*
X12897379Y-18436210D02*
X12883094Y-18421925D01*
X12854522Y-18379067D01*
X12840237Y-18350496D01*
X12825951Y-18307639D01*
X12811665Y-18236210D01*
X12811665Y-18179067D01*
X12825951Y-18107639D01*
X12840237Y-18064782D01*
X12854522Y-18036210D01*
X12883094Y-17993353D01*
X12897379Y-17979067D01*
X13011665Y-18121925D02*
X13011665Y-18321925D01*
X13011665Y-18150496D02*
X13025951Y-18136210D01*
X13054522Y-18121925D01*
X13097379Y-18121925D01*
X13125951Y-18136210D01*
X13140237Y-18164782D01*
X13140237Y-18321925D01*
X13325951Y-18321925D02*
X13297379Y-18307639D01*
X13283094Y-18293353D01*
X13268808Y-18264782D01*
X13268808Y-18179067D01*
X13283094Y-18150496D01*
X13297379Y-18136210D01*
X13325951Y-18121925D01*
X13368808Y-18121925D01*
X13397379Y-18136210D01*
X13411665Y-18150496D01*
X13425951Y-18179067D01*
X13425951Y-18264782D01*
X13411665Y-18293353D01*
X13397379Y-18307639D01*
X13368808Y-18321925D01*
X13325951Y-18321925D01*
X13511665Y-18121925D02*
X13625951Y-18121925D01*
X13554522Y-18021925D02*
X13554522Y-18279067D01*
X13568808Y-18307639D01*
X13597379Y-18321925D01*
X13625951Y-18321925D01*
X13954522Y-18121925D02*
X13954522Y-18421925D01*
X13954522Y-18136210D02*
X13983094Y-18121925D01*
X14040237Y-18121925D01*
X14068808Y-18136210D01*
X14083094Y-18150496D01*
X14097379Y-18179067D01*
X14097379Y-18264782D01*
X14083094Y-18293353D01*
X14068808Y-18307639D01*
X14040237Y-18321925D01*
X13983094Y-18321925D01*
X13954522Y-18307639D01*
X14268808Y-18321925D02*
X14240237Y-18307639D01*
X14225951Y-18279067D01*
X14225951Y-18021925D01*
X14511665Y-18321925D02*
X14511665Y-18164782D01*
X14497379Y-18136210D01*
X14468808Y-18121925D01*
X14411665Y-18121925D01*
X14383094Y-18136210D01*
X14511665Y-18307639D02*
X14483094Y-18321925D01*
X14411665Y-18321925D01*
X14383094Y-18307639D01*
X14368808Y-18279067D01*
X14368808Y-18250496D01*
X14383094Y-18221925D01*
X14411665Y-18207639D01*
X14483094Y-18207639D01*
X14511665Y-18193353D01*
X14611665Y-18121925D02*
X14725951Y-18121925D01*
X14654522Y-18021925D02*
X14654522Y-18279067D01*
X14668808Y-18307639D01*
X14697379Y-18321925D01*
X14725951Y-18321925D01*
X14940237Y-18307639D02*
X14911665Y-18321925D01*
X14854522Y-18321925D01*
X14825951Y-18307639D01*
X14811665Y-18279067D01*
X14811665Y-18164782D01*
X14825951Y-18136210D01*
X14854522Y-18121925D01*
X14911665Y-18121925D01*
X14940237Y-18136210D01*
X14954522Y-18164782D01*
X14954522Y-18193353D01*
X14811665Y-18221925D01*
X15211665Y-18321925D02*
X15211665Y-18021925D01*
X15211665Y-18307639D02*
X15183094Y-18321925D01*
X15125951Y-18321925D01*
X15097379Y-18307639D01*
X15083094Y-18293353D01*
X15068808Y-18264782D01*
X15068808Y-18179067D01*
X15083094Y-18150496D01*
X15097379Y-18136210D01*
X15125951Y-18121925D01*
X15183094Y-18121925D01*
X15211665Y-18136210D01*
X15325951Y-18436210D02*
X15340237Y-18421925D01*
X15368808Y-18379067D01*
X15383094Y-18350496D01*
X15397379Y-18307639D01*
X15411665Y-18236210D01*
X15411665Y-18179067D01*
X15397379Y-18107639D01*
X15383094Y-18064782D01*
X15368808Y-18036210D01*
X15340237Y-17993353D01*
X15325951Y-17979067D01*
X5868094Y-18582210D02*
G75*
G03*
X5868094Y-18582210I-87500J0D01*
G01*
X6311665Y-18717925D02*
X6140237Y-18717925D01*
X6225951Y-18717925D02*
X6225951Y-18417925D01*
X6197379Y-18460782D01*
X6168808Y-18489353D01*
X6140237Y-18503639D01*
X6440237Y-18689353D02*
X6454522Y-18703639D01*
X6440237Y-18717925D01*
X6425951Y-18703639D01*
X6440237Y-18689353D01*
X6440237Y-18717925D01*
X6554522Y-18417925D02*
X6754522Y-18417925D01*
X6625951Y-18717925D01*
X7011665Y-18417925D02*
X6868808Y-18417925D01*
X6854522Y-18560782D01*
X6868808Y-18546496D01*
X6897379Y-18532210D01*
X6968808Y-18532210D01*
X6997379Y-18546496D01*
X7011665Y-18560782D01*
X7025951Y-18589353D01*
X7025951Y-18660782D01*
X7011665Y-18689353D01*
X6997379Y-18703639D01*
X6968808Y-18717925D01*
X6897379Y-18717925D01*
X6868808Y-18703639D01*
X6854522Y-18689353D01*
X7154522Y-18717925D02*
X7154522Y-18517925D01*
X7154522Y-18546496D02*
X7168808Y-18532210D01*
X7197379Y-18517925D01*
X7240237Y-18517925D01*
X7268808Y-18532210D01*
X7283094Y-18560782D01*
X7283094Y-18717925D01*
X7283094Y-18560782D02*
X7297379Y-18532210D01*
X7325951Y-18517925D01*
X7368808Y-18517925D01*
X7397379Y-18532210D01*
X7411665Y-18560782D01*
X7411665Y-18717925D01*
X7554522Y-18717925D02*
X7554522Y-18517925D01*
X7554522Y-18546496D02*
X7568808Y-18532210D01*
X7597379Y-18517925D01*
X7640237Y-18517925D01*
X7668808Y-18532210D01*
X7683094Y-18560782D01*
X7683094Y-18717925D01*
X7683094Y-18560782D02*
X7697379Y-18532210D01*
X7725951Y-18517925D01*
X7768808Y-18517925D01*
X7797379Y-18532210D01*
X7811665Y-18560782D01*
X7811665Y-18717925D01*
X8397380Y-18403639D02*
X8140237Y-18789353D01*
X8783094Y-18417925D02*
X8811665Y-18417925D01*
X8840237Y-18432210D01*
X8854522Y-18446496D01*
X8868808Y-18475067D01*
X8883094Y-18532210D01*
X8883094Y-18603639D01*
X8868808Y-18660782D01*
X8854522Y-18689353D01*
X8840237Y-18703639D01*
X8811665Y-18717925D01*
X8783094Y-18717925D01*
X8754522Y-18703639D01*
X8740237Y-18689353D01*
X8725951Y-18660782D01*
X8711665Y-18603639D01*
X8711665Y-18532210D01*
X8725951Y-18475067D01*
X8740237Y-18446496D01*
X8754522Y-18432210D01*
X8783094Y-18417925D01*
X9011665Y-18689353D02*
X9025951Y-18703639D01*
X9011665Y-18717925D01*
X8997380Y-18703639D01*
X9011665Y-18689353D01*
X9011665Y-18717925D01*
X9211665Y-18417925D02*
X9240237Y-18417925D01*
X9268808Y-18432210D01*
X9283094Y-18446496D01*
X9297380Y-18475067D01*
X9311665Y-18532210D01*
X9311665Y-18603639D01*
X9297380Y-18660782D01*
X9283094Y-18689353D01*
X9268808Y-18703639D01*
X9240237Y-18717925D01*
X9211665Y-18717925D01*
X9183094Y-18703639D01*
X9168808Y-18689353D01*
X9154522Y-18660782D01*
X9140237Y-18603639D01*
X9140237Y-18532210D01*
X9154522Y-18475067D01*
X9168808Y-18446496D01*
X9183094Y-18432210D01*
X9211665Y-18417925D01*
X9568808Y-18417925D02*
X9511665Y-18417925D01*
X9483094Y-18432210D01*
X9468808Y-18446496D01*
X9440237Y-18489353D01*
X9425951Y-18546496D01*
X9425951Y-18660782D01*
X9440237Y-18689353D01*
X9454522Y-18703639D01*
X9483094Y-18717925D01*
X9540237Y-18717925D01*
X9568808Y-18703639D01*
X9583094Y-18689353D01*
X9597380Y-18660782D01*
X9597380Y-18589353D01*
X9583094Y-18560782D01*
X9568808Y-18546496D01*
X9540237Y-18532210D01*
X9483094Y-18532210D01*
X9454522Y-18546496D01*
X9440237Y-18560782D01*
X9425951Y-18589353D01*
X9740237Y-18717925D02*
X9797380Y-18717925D01*
X9825951Y-18703639D01*
X9840237Y-18689353D01*
X9868808Y-18646496D01*
X9883094Y-18589353D01*
X9883094Y-18475067D01*
X9868808Y-18446496D01*
X9854522Y-18432210D01*
X9825951Y-18417925D01*
X9768808Y-18417925D01*
X9740237Y-18432210D01*
X9725951Y-18446496D01*
X9711665Y-18475067D01*
X9711665Y-18546496D01*
X9725951Y-18575067D01*
X9740237Y-18589353D01*
X9768808Y-18603639D01*
X9825951Y-18603639D01*
X9854522Y-18589353D01*
X9868808Y-18575067D01*
X9883094Y-18546496D01*
X9997380Y-18417925D02*
X9997380Y-18475067D01*
X10111665Y-18417925D02*
X10111665Y-18475067D01*
X10554522Y-18832210D02*
X10540237Y-18817925D01*
X10511665Y-18775067D01*
X10497380Y-18746496D01*
X10483094Y-18703639D01*
X10468808Y-18632210D01*
X10468808Y-18575067D01*
X10483094Y-18503639D01*
X10497380Y-18460782D01*
X10511665Y-18432210D01*
X10540237Y-18389353D01*
X10554522Y-18375067D01*
X10825951Y-18717925D02*
X10654522Y-18717925D01*
X10740237Y-18717925D02*
X10740237Y-18417925D01*
X10711665Y-18460782D01*
X10683094Y-18489353D01*
X10654522Y-18503639D01*
X10925951Y-18417925D02*
X11111665Y-18417925D01*
X11011665Y-18532210D01*
X11054522Y-18532210D01*
X11083094Y-18546496D01*
X11097380Y-18560782D01*
X11111665Y-18589353D01*
X11111665Y-18660782D01*
X11097380Y-18689353D01*
X11083094Y-18703639D01*
X11054522Y-18717925D01*
X10968808Y-18717925D01*
X10940237Y-18703639D01*
X10925951Y-18689353D01*
X11368808Y-18417925D02*
X11311665Y-18417925D01*
X11283094Y-18432210D01*
X11268808Y-18446496D01*
X11240237Y-18489353D01*
X11225951Y-18546496D01*
X11225951Y-18660782D01*
X11240237Y-18689353D01*
X11254522Y-18703639D01*
X11283094Y-18717925D01*
X11340237Y-18717925D01*
X11368808Y-18703639D01*
X11383094Y-18689353D01*
X11397379Y-18660782D01*
X11397379Y-18589353D01*
X11383094Y-18560782D01*
X11368808Y-18546496D01*
X11340237Y-18532210D01*
X11283094Y-18532210D01*
X11254522Y-18546496D01*
X11240237Y-18560782D01*
X11225951Y-18589353D01*
X11754522Y-18717925D02*
X11754522Y-18417925D01*
X11883094Y-18717925D02*
X11883094Y-18560782D01*
X11868808Y-18532210D01*
X11840237Y-18517925D01*
X11797379Y-18517925D01*
X11768808Y-18532210D01*
X11754522Y-18546496D01*
X12068808Y-18717925D02*
X12040237Y-18703639D01*
X12025951Y-18689353D01*
X12011665Y-18660782D01*
X12011665Y-18575067D01*
X12025951Y-18546496D01*
X12040237Y-18532210D01*
X12068808Y-18517925D01*
X12111665Y-18517925D01*
X12140237Y-18532210D01*
X12154522Y-18546496D01*
X12168808Y-18575067D01*
X12168808Y-18660782D01*
X12154522Y-18689353D01*
X12140237Y-18703639D01*
X12111665Y-18717925D01*
X12068808Y-18717925D01*
X12340237Y-18717925D02*
X12311665Y-18703639D01*
X12297379Y-18675067D01*
X12297379Y-18417925D01*
X12568808Y-18703639D02*
X12540237Y-18717925D01*
X12483094Y-18717925D01*
X12454522Y-18703639D01*
X12440237Y-18675067D01*
X12440237Y-18560782D01*
X12454522Y-18532210D01*
X12483094Y-18517925D01*
X12540237Y-18517925D01*
X12568808Y-18532210D01*
X12583094Y-18560782D01*
X12583094Y-18589353D01*
X12440237Y-18617925D01*
X12697379Y-18703639D02*
X12725951Y-18717925D01*
X12783094Y-18717925D01*
X12811665Y-18703639D01*
X12825951Y-18675067D01*
X12825951Y-18660782D01*
X12811665Y-18632210D01*
X12783094Y-18617925D01*
X12740237Y-18617925D01*
X12711665Y-18603639D01*
X12697379Y-18575067D01*
X12697379Y-18560782D01*
X12711665Y-18532210D01*
X12740237Y-18517925D01*
X12783094Y-18517925D01*
X12811665Y-18532210D01*
X12925951Y-18832210D02*
X12940237Y-18817925D01*
X12968808Y-18775067D01*
X12983094Y-18746496D01*
X12997379Y-18703639D01*
X13011665Y-18632210D01*
X13011665Y-18575067D01*
X12997379Y-18503639D01*
X12983094Y-18460782D01*
X12968808Y-18432210D01*
X12940237Y-18389353D01*
X12925951Y-18375067D01*
X13468808Y-18832210D02*
X13454522Y-18817925D01*
X13425951Y-18775067D01*
X13411665Y-18746496D01*
X13397379Y-18703639D01*
X13383094Y-18632210D01*
X13383094Y-18575067D01*
X13397379Y-18503639D01*
X13411665Y-18460782D01*
X13425951Y-18432210D01*
X13454522Y-18389353D01*
X13468808Y-18375067D01*
X13583094Y-18517925D02*
X13583094Y-18717925D01*
X13583094Y-18546496D02*
X13597379Y-18532210D01*
X13625951Y-18517925D01*
X13668808Y-18517925D01*
X13697379Y-18532210D01*
X13711665Y-18560782D01*
X13711665Y-18717925D01*
X13897379Y-18717925D02*
X13868808Y-18703639D01*
X13854522Y-18689353D01*
X13840237Y-18660782D01*
X13840237Y-18575067D01*
X13854522Y-18546496D01*
X13868808Y-18532210D01*
X13897379Y-18517925D01*
X13940237Y-18517925D01*
X13968808Y-18532210D01*
X13983094Y-18546496D01*
X13997379Y-18575067D01*
X13997379Y-18660782D01*
X13983094Y-18689353D01*
X13968808Y-18703639D01*
X13940237Y-18717925D01*
X13897379Y-18717925D01*
X14083094Y-18517925D02*
X14197379Y-18517925D01*
X14125951Y-18417925D02*
X14125951Y-18675067D01*
X14140237Y-18703639D01*
X14168808Y-18717925D01*
X14197379Y-18717925D01*
X14525951Y-18517925D02*
X14525951Y-18817925D01*
X14525951Y-18532210D02*
X14554522Y-18517925D01*
X14611665Y-18517925D01*
X14640237Y-18532210D01*
X14654522Y-18546496D01*
X14668808Y-18575067D01*
X14668808Y-18660782D01*
X14654522Y-18689353D01*
X14640237Y-18703639D01*
X14611665Y-18717925D01*
X14554522Y-18717925D01*
X14525951Y-18703639D01*
X14840237Y-18717925D02*
X14811665Y-18703639D01*
X14797379Y-18675067D01*
X14797379Y-18417925D01*
X15083094Y-18717925D02*
X15083094Y-18560782D01*
X15068808Y-18532210D01*
X15040237Y-18517925D01*
X14983094Y-18517925D01*
X14954522Y-18532210D01*
X15083094Y-18703639D02*
X15054522Y-18717925D01*
X14983094Y-18717925D01*
X14954522Y-18703639D01*
X14940237Y-18675067D01*
X14940237Y-18646496D01*
X14954522Y-18617925D01*
X14983094Y-18603639D01*
X15054522Y-18603639D01*
X15083094Y-18589353D01*
X15183094Y-18517925D02*
X15297379Y-18517925D01*
X15225951Y-18417925D02*
X15225951Y-18675067D01*
X15240237Y-18703639D01*
X15268808Y-18717925D01*
X15297379Y-18717925D01*
X15511665Y-18703639D02*
X15483094Y-18717925D01*
X15425951Y-18717925D01*
X15397379Y-18703639D01*
X15383094Y-18675067D01*
X15383094Y-18560782D01*
X15397379Y-18532210D01*
X15425951Y-18517925D01*
X15483094Y-18517925D01*
X15511665Y-18532210D01*
X15525951Y-18560782D01*
X15525951Y-18589353D01*
X15383094Y-18617925D01*
X15783094Y-18717925D02*
X15783094Y-18417925D01*
X15783094Y-18703639D02*
X15754522Y-18717925D01*
X15697379Y-18717925D01*
X15668808Y-18703639D01*
X15654522Y-18689353D01*
X15640237Y-18660782D01*
X15640237Y-18575067D01*
X15654522Y-18546496D01*
X15668808Y-18532210D01*
X15697379Y-18517925D01*
X15754522Y-18517925D01*
X15783094Y-18532210D01*
X15897379Y-18832210D02*
X15911665Y-18817925D01*
X15940237Y-18775067D01*
X15954522Y-18746496D01*
X15968808Y-18703639D01*
X15983094Y-18632210D01*
X15983094Y-18575067D01*
X15968808Y-18503639D01*
X15954522Y-18460782D01*
X15940237Y-18432210D01*
X15911665Y-18389353D01*
X15897379Y-18375067D01*
X5718094Y-18828210D02*
X5718094Y-19128210D01*
X5568094Y-18978210D02*
X5868094Y-18978210D01*
X6125951Y-18813925D02*
X6311665Y-18813925D01*
X6211665Y-18928210D01*
X6254522Y-18928210D01*
X6283094Y-18942496D01*
X6297379Y-18956782D01*
X6311665Y-18985353D01*
X6311665Y-19056782D01*
X6297379Y-19085353D01*
X6283094Y-19099639D01*
X6254522Y-19113925D01*
X6168808Y-19113925D01*
X6140237Y-19099639D01*
X6125951Y-19085353D01*
X6440237Y-19085353D02*
X6454522Y-19099639D01*
X6440237Y-19113925D01*
X6425951Y-19099639D01*
X6440237Y-19085353D01*
X6440237Y-19113925D01*
X6640237Y-18813925D02*
X6668808Y-18813925D01*
X6697379Y-18828210D01*
X6711665Y-18842496D01*
X6725951Y-18871067D01*
X6740237Y-18928210D01*
X6740237Y-18999639D01*
X6725951Y-19056782D01*
X6711665Y-19085353D01*
X6697379Y-19099639D01*
X6668808Y-19113925D01*
X6640237Y-19113925D01*
X6611665Y-19099639D01*
X6597379Y-19085353D01*
X6583094Y-19056782D01*
X6568808Y-18999639D01*
X6568808Y-18928210D01*
X6583094Y-18871067D01*
X6597379Y-18842496D01*
X6611665Y-18828210D01*
X6640237Y-18813925D01*
X6925951Y-18813925D02*
X6954522Y-18813925D01*
X6983094Y-18828210D01*
X6997379Y-18842496D01*
X7011665Y-18871067D01*
X7025951Y-18928210D01*
X7025951Y-18999639D01*
X7011665Y-19056782D01*
X6997379Y-19085353D01*
X6983094Y-19099639D01*
X6954522Y-19113925D01*
X6925951Y-19113925D01*
X6897379Y-19099639D01*
X6883094Y-19085353D01*
X6868808Y-19056782D01*
X6854522Y-18999639D01*
X6854522Y-18928210D01*
X6868808Y-18871067D01*
X6883094Y-18842496D01*
X6897379Y-18828210D01*
X6925951Y-18813925D01*
X7154522Y-19113925D02*
X7154522Y-18913925D01*
X7154522Y-18942496D02*
X7168808Y-18928210D01*
X7197379Y-18913925D01*
X7240237Y-18913925D01*
X7268808Y-18928210D01*
X7283094Y-18956782D01*
X7283094Y-19113925D01*
X7283094Y-18956782D02*
X7297379Y-18928210D01*
X7325951Y-18913925D01*
X7368808Y-18913925D01*
X7397379Y-18928210D01*
X7411665Y-18956782D01*
X7411665Y-19113925D01*
X7554522Y-19113925D02*
X7554522Y-18913925D01*
X7554522Y-18942496D02*
X7568808Y-18928210D01*
X7597379Y-18913925D01*
X7640237Y-18913925D01*
X7668808Y-18928210D01*
X7683094Y-18956782D01*
X7683094Y-19113925D01*
X7683094Y-18956782D02*
X7697379Y-18928210D01*
X7725951Y-18913925D01*
X7768808Y-18913925D01*
X7797379Y-18928210D01*
X7811665Y-18956782D01*
X7811665Y-19113925D01*
X8397380Y-18799639D02*
X8140237Y-19185353D01*
X8783094Y-18813925D02*
X8811665Y-18813925D01*
X8840237Y-18828210D01*
X8854522Y-18842496D01*
X8868808Y-18871067D01*
X8883094Y-18928210D01*
X8883094Y-18999639D01*
X8868808Y-19056782D01*
X8854522Y-19085353D01*
X8840237Y-19099639D01*
X8811665Y-19113925D01*
X8783094Y-19113925D01*
X8754522Y-19099639D01*
X8740237Y-19085353D01*
X8725951Y-19056782D01*
X8711665Y-18999639D01*
X8711665Y-18928210D01*
X8725951Y-18871067D01*
X8740237Y-18842496D01*
X8754522Y-18828210D01*
X8783094Y-18813925D01*
X9011665Y-19085353D02*
X9025951Y-19099639D01*
X9011665Y-19113925D01*
X8997380Y-19099639D01*
X9011665Y-19085353D01*
X9011665Y-19113925D01*
X9311665Y-19113925D02*
X9140237Y-19113925D01*
X9225951Y-19113925D02*
X9225951Y-18813925D01*
X9197380Y-18856782D01*
X9168808Y-18885353D01*
X9140237Y-18899639D01*
X9597380Y-19113925D02*
X9425951Y-19113925D01*
X9511665Y-19113925D02*
X9511665Y-18813925D01*
X9483094Y-18856782D01*
X9454522Y-18885353D01*
X9425951Y-18899639D01*
X9768808Y-18942496D02*
X9740237Y-18928210D01*
X9725951Y-18913925D01*
X9711665Y-18885353D01*
X9711665Y-18871067D01*
X9725951Y-18842496D01*
X9740237Y-18828210D01*
X9768808Y-18813925D01*
X9825951Y-18813925D01*
X9854522Y-18828210D01*
X9868808Y-18842496D01*
X9883094Y-18871067D01*
X9883094Y-18885353D01*
X9868808Y-18913925D01*
X9854522Y-18928210D01*
X9825951Y-18942496D01*
X9768808Y-18942496D01*
X9740237Y-18956782D01*
X9725951Y-18971067D01*
X9711665Y-18999639D01*
X9711665Y-19056782D01*
X9725951Y-19085353D01*
X9740237Y-19099639D01*
X9768808Y-19113925D01*
X9825951Y-19113925D01*
X9854522Y-19099639D01*
X9868808Y-19085353D01*
X9883094Y-19056782D01*
X9883094Y-18999639D01*
X9868808Y-18971067D01*
X9854522Y-18956782D01*
X9825951Y-18942496D01*
X9997380Y-18813925D02*
X9997380Y-18871067D01*
X10111665Y-18813925D02*
X10111665Y-18871067D01*
X10554522Y-19228210D02*
X10540237Y-19213925D01*
X10511665Y-19171067D01*
X10497380Y-19142496D01*
X10483094Y-19099639D01*
X10468808Y-19028210D01*
X10468808Y-18971067D01*
X10483094Y-18899639D01*
X10497380Y-18856782D01*
X10511665Y-18828210D01*
X10540237Y-18785353D01*
X10554522Y-18771067D01*
X10825951Y-19113925D02*
X10654522Y-19113925D01*
X10740237Y-19113925D02*
X10740237Y-18813925D01*
X10711665Y-18856782D01*
X10683094Y-18885353D01*
X10654522Y-18899639D01*
X10925951Y-18813925D02*
X11111665Y-18813925D01*
X11011665Y-18928210D01*
X11054522Y-18928210D01*
X11083094Y-18942496D01*
X11097380Y-18956782D01*
X11111665Y-18985353D01*
X11111665Y-19056782D01*
X11097380Y-19085353D01*
X11083094Y-19099639D01*
X11054522Y-19113925D01*
X10968808Y-19113925D01*
X10940237Y-19099639D01*
X10925951Y-19085353D01*
X11368808Y-18813925D02*
X11311665Y-18813925D01*
X11283094Y-18828210D01*
X11268808Y-18842496D01*
X11240237Y-18885353D01*
X11225951Y-18942496D01*
X11225951Y-19056782D01*
X11240237Y-19085353D01*
X11254522Y-19099639D01*
X11283094Y-19113925D01*
X11340237Y-19113925D01*
X11368808Y-19099639D01*
X11383094Y-19085353D01*
X11397379Y-19056782D01*
X11397379Y-18985353D01*
X11383094Y-18956782D01*
X11368808Y-18942496D01*
X11340237Y-18928210D01*
X11283094Y-18928210D01*
X11254522Y-18942496D01*
X11240237Y-18956782D01*
X11225951Y-18985353D01*
X11754522Y-19113925D02*
X11754522Y-18813925D01*
X11883094Y-19113925D02*
X11883094Y-18956782D01*
X11868808Y-18928210D01*
X11840237Y-18913925D01*
X11797379Y-18913925D01*
X11768808Y-18928210D01*
X11754522Y-18942496D01*
X12068808Y-19113925D02*
X12040237Y-19099639D01*
X12025951Y-19085353D01*
X12011665Y-19056782D01*
X12011665Y-18971067D01*
X12025951Y-18942496D01*
X12040237Y-18928210D01*
X12068808Y-18913925D01*
X12111665Y-18913925D01*
X12140237Y-18928210D01*
X12154522Y-18942496D01*
X12168808Y-18971067D01*
X12168808Y-19056782D01*
X12154522Y-19085353D01*
X12140237Y-19099639D01*
X12111665Y-19113925D01*
X12068808Y-19113925D01*
X12340237Y-19113925D02*
X12311665Y-19099639D01*
X12297379Y-19071067D01*
X12297379Y-18813925D01*
X12568808Y-19099639D02*
X12540237Y-19113925D01*
X12483094Y-19113925D01*
X12454522Y-19099639D01*
X12440237Y-19071067D01*
X12440237Y-18956782D01*
X12454522Y-18928210D01*
X12483094Y-18913925D01*
X12540237Y-18913925D01*
X12568808Y-18928210D01*
X12583094Y-18956782D01*
X12583094Y-18985353D01*
X12440237Y-19013925D01*
X12697379Y-19099639D02*
X12725951Y-19113925D01*
X12783094Y-19113925D01*
X12811665Y-19099639D01*
X12825951Y-19071067D01*
X12825951Y-19056782D01*
X12811665Y-19028210D01*
X12783094Y-19013925D01*
X12740237Y-19013925D01*
X12711665Y-18999639D01*
X12697379Y-18971067D01*
X12697379Y-18956782D01*
X12711665Y-18928210D01*
X12740237Y-18913925D01*
X12783094Y-18913925D01*
X12811665Y-18928210D01*
X12925951Y-19228210D02*
X12940237Y-19213925D01*
X12968808Y-19171067D01*
X12983094Y-19142496D01*
X12997379Y-19099639D01*
X13011665Y-19028210D01*
X13011665Y-18971067D01*
X12997379Y-18899639D01*
X12983094Y-18856782D01*
X12968808Y-18828210D01*
X12940237Y-18785353D01*
X12925951Y-18771067D01*
X13468808Y-19228210D02*
X13454522Y-19213925D01*
X13425951Y-19171067D01*
X13411665Y-19142496D01*
X13397379Y-19099639D01*
X13383094Y-19028210D01*
X13383094Y-18971067D01*
X13397379Y-18899639D01*
X13411665Y-18856782D01*
X13425951Y-18828210D01*
X13454522Y-18785353D01*
X13468808Y-18771067D01*
X13583094Y-18913925D02*
X13583094Y-19113925D01*
X13583094Y-18942496D02*
X13597379Y-18928210D01*
X13625951Y-18913925D01*
X13668808Y-18913925D01*
X13697379Y-18928210D01*
X13711665Y-18956782D01*
X13711665Y-19113925D01*
X13897379Y-19113925D02*
X13868808Y-19099639D01*
X13854522Y-19085353D01*
X13840237Y-19056782D01*
X13840237Y-18971067D01*
X13854522Y-18942496D01*
X13868808Y-18928210D01*
X13897379Y-18913925D01*
X13940237Y-18913925D01*
X13968808Y-18928210D01*
X13983094Y-18942496D01*
X13997379Y-18971067D01*
X13997379Y-19056782D01*
X13983094Y-19085353D01*
X13968808Y-19099639D01*
X13940237Y-19113925D01*
X13897379Y-19113925D01*
X14083094Y-18913925D02*
X14197379Y-18913925D01*
X14125951Y-18813925D02*
X14125951Y-19071067D01*
X14140237Y-19099639D01*
X14168808Y-19113925D01*
X14197379Y-19113925D01*
X14525951Y-18913925D02*
X14525951Y-19213925D01*
X14525951Y-18928210D02*
X14554522Y-18913925D01*
X14611665Y-18913925D01*
X14640237Y-18928210D01*
X14654522Y-18942496D01*
X14668808Y-18971067D01*
X14668808Y-19056782D01*
X14654522Y-19085353D01*
X14640237Y-19099639D01*
X14611665Y-19113925D01*
X14554522Y-19113925D01*
X14525951Y-19099639D01*
X14840237Y-19113925D02*
X14811665Y-19099639D01*
X14797379Y-19071067D01*
X14797379Y-18813925D01*
X15083094Y-19113925D02*
X15083094Y-18956782D01*
X15068808Y-18928210D01*
X15040237Y-18913925D01*
X14983094Y-18913925D01*
X14954522Y-18928210D01*
X15083094Y-19099639D02*
X15054522Y-19113925D01*
X14983094Y-19113925D01*
X14954522Y-19099639D01*
X14940237Y-19071067D01*
X14940237Y-19042496D01*
X14954522Y-19013925D01*
X14983094Y-18999639D01*
X15054522Y-18999639D01*
X15083094Y-18985353D01*
X15183094Y-18913925D02*
X15297379Y-18913925D01*
X15225951Y-18813925D02*
X15225951Y-19071067D01*
X15240237Y-19099639D01*
X15268808Y-19113925D01*
X15297379Y-19113925D01*
X15511665Y-19099639D02*
X15483094Y-19113925D01*
X15425951Y-19113925D01*
X15397379Y-19099639D01*
X15383094Y-19071067D01*
X15383094Y-18956782D01*
X15397379Y-18928210D01*
X15425951Y-18913925D01*
X15483094Y-18913925D01*
X15511665Y-18928210D01*
X15525951Y-18956782D01*
X15525951Y-18985353D01*
X15383094Y-19013925D01*
X15783094Y-19113925D02*
X15783094Y-18813925D01*
X15783094Y-19099639D02*
X15754522Y-19113925D01*
X15697379Y-19113925D01*
X15668808Y-19099639D01*
X15654522Y-19085353D01*
X15640237Y-19056782D01*
X15640237Y-18971067D01*
X15654522Y-18942496D01*
X15668808Y-18928210D01*
X15697379Y-18913925D01*
X15754522Y-18913925D01*
X15783094Y-18928210D01*
X15897379Y-19228210D02*
X15911665Y-19213925D01*
X15940237Y-19171067D01*
X15954522Y-19142496D01*
X15968808Y-19099639D01*
X15983094Y-19028210D01*
X15983094Y-18971067D01*
X15968808Y-18899639D01*
X15954522Y-18856782D01*
X15940237Y-18828210D01*
X15911665Y-18785353D01*
X15897379Y-18771067D01*
X5823458Y-19515974D02*
X5823458Y-19300446D01*
X5607930Y-19300446D01*
X5607930Y-19515974D01*
X5823458Y-19515974D01*
X6125951Y-19243925D02*
X6311665Y-19243925D01*
X6211665Y-19358210D01*
X6254522Y-19358210D01*
X6283094Y-19372496D01*
X6297379Y-19386782D01*
X6311665Y-19415353D01*
X6311665Y-19486782D01*
X6297379Y-19515353D01*
X6283094Y-19529639D01*
X6254522Y-19543925D01*
X6168808Y-19543925D01*
X6140237Y-19529639D01*
X6125951Y-19515353D01*
X6440237Y-19515353D02*
X6454522Y-19529639D01*
X6440237Y-19543925D01*
X6425951Y-19529639D01*
X6440237Y-19515353D01*
X6440237Y-19543925D01*
X6640237Y-19243925D02*
X6668808Y-19243925D01*
X6697379Y-19258210D01*
X6711665Y-19272496D01*
X6725951Y-19301067D01*
X6740237Y-19358210D01*
X6740237Y-19429639D01*
X6725951Y-19486782D01*
X6711665Y-19515353D01*
X6697379Y-19529639D01*
X6668808Y-19543925D01*
X6640237Y-19543925D01*
X6611665Y-19529639D01*
X6597379Y-19515353D01*
X6583094Y-19486782D01*
X6568808Y-19429639D01*
X6568808Y-19358210D01*
X6583094Y-19301067D01*
X6597379Y-19272496D01*
X6611665Y-19258210D01*
X6640237Y-19243925D01*
X7011665Y-19243925D02*
X6868808Y-19243925D01*
X6854522Y-19386782D01*
X6868808Y-19372496D01*
X6897379Y-19358210D01*
X6968808Y-19358210D01*
X6997379Y-19372496D01*
X7011665Y-19386782D01*
X7025951Y-19415353D01*
X7025951Y-19486782D01*
X7011665Y-19515353D01*
X6997379Y-19529639D01*
X6968808Y-19543925D01*
X6897379Y-19543925D01*
X6868808Y-19529639D01*
X6854522Y-19515353D01*
X7154522Y-19543925D02*
X7154522Y-19343925D01*
X7154522Y-19372496D02*
X7168808Y-19358210D01*
X7197379Y-19343925D01*
X7240237Y-19343925D01*
X7268808Y-19358210D01*
X7283094Y-19386782D01*
X7283094Y-19543925D01*
X7283094Y-19386782D02*
X7297379Y-19358210D01*
X7325951Y-19343925D01*
X7368808Y-19343925D01*
X7397379Y-19358210D01*
X7411665Y-19386782D01*
X7411665Y-19543925D01*
X7554522Y-19543925D02*
X7554522Y-19343925D01*
X7554522Y-19372496D02*
X7568808Y-19358210D01*
X7597379Y-19343925D01*
X7640237Y-19343925D01*
X7668808Y-19358210D01*
X7683094Y-19386782D01*
X7683094Y-19543925D01*
X7683094Y-19386782D02*
X7697379Y-19358210D01*
X7725951Y-19343925D01*
X7768808Y-19343925D01*
X7797379Y-19358210D01*
X7811665Y-19386782D01*
X7811665Y-19543925D01*
X8397380Y-19229639D02*
X8140237Y-19615353D01*
X8783094Y-19243925D02*
X8811665Y-19243925D01*
X8840237Y-19258210D01*
X8854522Y-19272496D01*
X8868808Y-19301067D01*
X8883094Y-19358210D01*
X8883094Y-19429639D01*
X8868808Y-19486782D01*
X8854522Y-19515353D01*
X8840237Y-19529639D01*
X8811665Y-19543925D01*
X8783094Y-19543925D01*
X8754522Y-19529639D01*
X8740237Y-19515353D01*
X8725951Y-19486782D01*
X8711665Y-19429639D01*
X8711665Y-19358210D01*
X8725951Y-19301067D01*
X8740237Y-19272496D01*
X8754522Y-19258210D01*
X8783094Y-19243925D01*
X9011665Y-19515353D02*
X9025951Y-19529639D01*
X9011665Y-19543925D01*
X8997380Y-19529639D01*
X9011665Y-19515353D01*
X9011665Y-19543925D01*
X9311665Y-19543925D02*
X9140237Y-19543925D01*
X9225951Y-19543925D02*
X9225951Y-19243925D01*
X9197380Y-19286782D01*
X9168808Y-19315353D01*
X9140237Y-19329639D01*
X9425951Y-19272496D02*
X9440237Y-19258210D01*
X9468808Y-19243925D01*
X9540237Y-19243925D01*
X9568808Y-19258210D01*
X9583094Y-19272496D01*
X9597380Y-19301067D01*
X9597380Y-19329639D01*
X9583094Y-19372496D01*
X9411665Y-19543925D01*
X9597380Y-19543925D01*
X9783094Y-19243925D02*
X9811665Y-19243925D01*
X9840237Y-19258210D01*
X9854522Y-19272496D01*
X9868808Y-19301067D01*
X9883094Y-19358210D01*
X9883094Y-19429639D01*
X9868808Y-19486782D01*
X9854522Y-19515353D01*
X9840237Y-19529639D01*
X9811665Y-19543925D01*
X9783094Y-19543925D01*
X9754522Y-19529639D01*
X9740237Y-19515353D01*
X9725951Y-19486782D01*
X9711665Y-19429639D01*
X9711665Y-19358210D01*
X9725951Y-19301067D01*
X9740237Y-19272496D01*
X9754522Y-19258210D01*
X9783094Y-19243925D01*
X9997380Y-19243925D02*
X9997380Y-19301067D01*
X10111665Y-19243925D02*
X10111665Y-19301067D01*
X10554522Y-19658210D02*
X10540237Y-19643925D01*
X10511665Y-19601067D01*
X10497380Y-19572496D01*
X10483094Y-19529639D01*
X10468808Y-19458210D01*
X10468808Y-19401067D01*
X10483094Y-19329639D01*
X10497380Y-19286782D01*
X10511665Y-19258210D01*
X10540237Y-19215353D01*
X10554522Y-19201067D01*
X10797380Y-19243925D02*
X10740237Y-19243925D01*
X10711665Y-19258210D01*
X10697380Y-19272496D01*
X10668808Y-19315353D01*
X10654522Y-19372496D01*
X10654522Y-19486782D01*
X10668808Y-19515353D01*
X10683094Y-19529639D01*
X10711665Y-19543925D01*
X10768808Y-19543925D01*
X10797380Y-19529639D01*
X10811665Y-19515353D01*
X10825951Y-19486782D01*
X10825951Y-19415353D01*
X10811665Y-19386782D01*
X10797380Y-19372496D01*
X10768808Y-19358210D01*
X10711665Y-19358210D01*
X10683094Y-19372496D01*
X10668808Y-19386782D01*
X10654522Y-19415353D01*
X11183094Y-19543925D02*
X11183094Y-19243925D01*
X11311665Y-19543925D02*
X11311665Y-19386782D01*
X11297379Y-19358210D01*
X11268808Y-19343925D01*
X11225951Y-19343925D01*
X11197379Y-19358210D01*
X11183094Y-19372496D01*
X11497379Y-19543925D02*
X11468808Y-19529639D01*
X11454522Y-19515353D01*
X11440237Y-19486782D01*
X11440237Y-19401067D01*
X11454522Y-19372496D01*
X11468808Y-19358210D01*
X11497379Y-19343925D01*
X11540237Y-19343925D01*
X11568808Y-19358210D01*
X11583094Y-19372496D01*
X11597379Y-19401067D01*
X11597379Y-19486782D01*
X11583094Y-19515353D01*
X11568808Y-19529639D01*
X11540237Y-19543925D01*
X11497379Y-19543925D01*
X11768808Y-19543925D02*
X11740237Y-19529639D01*
X11725951Y-19501067D01*
X11725951Y-19243925D01*
X11997379Y-19529639D02*
X11968808Y-19543925D01*
X11911665Y-19543925D01*
X11883094Y-19529639D01*
X11868808Y-19501067D01*
X11868808Y-19386782D01*
X11883094Y-19358210D01*
X11911665Y-19343925D01*
X11968808Y-19343925D01*
X11997379Y-19358210D01*
X12011665Y-19386782D01*
X12011665Y-19415353D01*
X11868808Y-19443925D01*
X12125951Y-19529639D02*
X12154522Y-19543925D01*
X12211665Y-19543925D01*
X12240237Y-19529639D01*
X12254522Y-19501067D01*
X12254522Y-19486782D01*
X12240237Y-19458210D01*
X12211665Y-19443925D01*
X12168808Y-19443925D01*
X12140237Y-19429639D01*
X12125951Y-19401067D01*
X12125951Y-19386782D01*
X12140237Y-19358210D01*
X12168808Y-19343925D01*
X12211665Y-19343925D01*
X12240237Y-19358210D01*
X12354522Y-19658210D02*
X12368808Y-19643925D01*
X12397379Y-19601067D01*
X12411665Y-19572496D01*
X12425951Y-19529639D01*
X12440237Y-19458210D01*
X12440237Y-19401067D01*
X12425951Y-19329639D01*
X12411665Y-19286782D01*
X12397379Y-19258210D01*
X12368808Y-19215353D01*
X12354522Y-19201067D01*
X12897379Y-19658210D02*
X12883094Y-19643925D01*
X12854522Y-19601067D01*
X12840237Y-19572496D01*
X12825951Y-19529639D01*
X12811665Y-19458210D01*
X12811665Y-19401067D01*
X12825951Y-19329639D01*
X12840237Y-19286782D01*
X12854522Y-19258210D01*
X12883094Y-19215353D01*
X12897379Y-19201067D01*
X13011665Y-19343925D02*
X13011665Y-19543925D01*
X13011665Y-19372496D02*
X13025951Y-19358210D01*
X13054522Y-19343925D01*
X13097379Y-19343925D01*
X13125951Y-19358210D01*
X13140237Y-19386782D01*
X13140237Y-19543925D01*
X13325951Y-19543925D02*
X13297379Y-19529639D01*
X13283094Y-19515353D01*
X13268808Y-19486782D01*
X13268808Y-19401067D01*
X13283094Y-19372496D01*
X13297379Y-19358210D01*
X13325951Y-19343925D01*
X13368808Y-19343925D01*
X13397379Y-19358210D01*
X13411665Y-19372496D01*
X13425951Y-19401067D01*
X13425951Y-19486782D01*
X13411665Y-19515353D01*
X13397379Y-19529639D01*
X13368808Y-19543925D01*
X13325951Y-19543925D01*
X13511665Y-19343925D02*
X13625951Y-19343925D01*
X13554522Y-19243925D02*
X13554522Y-19501067D01*
X13568808Y-19529639D01*
X13597379Y-19543925D01*
X13625951Y-19543925D01*
X13954522Y-19343925D02*
X13954522Y-19643925D01*
X13954522Y-19358210D02*
X13983094Y-19343925D01*
X14040237Y-19343925D01*
X14068808Y-19358210D01*
X14083094Y-19372496D01*
X14097379Y-19401067D01*
X14097379Y-19486782D01*
X14083094Y-19515353D01*
X14068808Y-19529639D01*
X14040237Y-19543925D01*
X13983094Y-19543925D01*
X13954522Y-19529639D01*
X14268808Y-19543925D02*
X14240237Y-19529639D01*
X14225951Y-19501067D01*
X14225951Y-19243925D01*
X14511665Y-19543925D02*
X14511665Y-19386782D01*
X14497379Y-19358210D01*
X14468808Y-19343925D01*
X14411665Y-19343925D01*
X14383094Y-19358210D01*
X14511665Y-19529639D02*
X14483094Y-19543925D01*
X14411665Y-19543925D01*
X14383094Y-19529639D01*
X14368808Y-19501067D01*
X14368808Y-19472496D01*
X14383094Y-19443925D01*
X14411665Y-19429639D01*
X14483094Y-19429639D01*
X14511665Y-19415353D01*
X14611665Y-19343925D02*
X14725951Y-19343925D01*
X14654522Y-19243925D02*
X14654522Y-19501067D01*
X14668808Y-19529639D01*
X14697379Y-19543925D01*
X14725951Y-19543925D01*
X14940237Y-19529639D02*
X14911665Y-19543925D01*
X14854522Y-19543925D01*
X14825951Y-19529639D01*
X14811665Y-19501067D01*
X14811665Y-19386782D01*
X14825951Y-19358210D01*
X14854522Y-19343925D01*
X14911665Y-19343925D01*
X14940237Y-19358210D01*
X14954522Y-19386782D01*
X14954522Y-19415353D01*
X14811665Y-19443925D01*
X15211665Y-19543925D02*
X15211665Y-19243925D01*
X15211665Y-19529639D02*
X15183094Y-19543925D01*
X15125951Y-19543925D01*
X15097379Y-19529639D01*
X15083094Y-19515353D01*
X15068808Y-19486782D01*
X15068808Y-19401067D01*
X15083094Y-19372496D01*
X15097379Y-19358210D01*
X15125951Y-19343925D01*
X15183094Y-19343925D01*
X15211665Y-19358210D01*
X15325951Y-19658210D02*
X15340237Y-19643925D01*
X15368808Y-19601067D01*
X15383094Y-19572496D01*
X15397379Y-19529639D01*
X15411665Y-19458210D01*
X15411665Y-19401067D01*
X15397379Y-19329639D01*
X15383094Y-19286782D01*
X15368808Y-19258210D01*
X15340237Y-19215353D01*
X15325951Y-19201067D01*
X5668704Y-20042400D02*
X5868094Y-19843010D01*
X5668704Y-19643620D01*
X5469314Y-19843010D01*
X5668704Y-20042400D01*
X6125951Y-19678725D02*
X6311665Y-19678725D01*
X6211665Y-19793010D01*
X6254522Y-19793010D01*
X6283094Y-19807296D01*
X6297379Y-19821582D01*
X6311665Y-19850153D01*
X6311665Y-19921582D01*
X6297379Y-19950153D01*
X6283094Y-19964439D01*
X6254522Y-19978725D01*
X6168808Y-19978725D01*
X6140237Y-19964439D01*
X6125951Y-19950153D01*
X6440237Y-19950153D02*
X6454522Y-19964439D01*
X6440237Y-19978725D01*
X6425951Y-19964439D01*
X6440237Y-19950153D01*
X6440237Y-19978725D01*
X6597379Y-19978725D02*
X6654522Y-19978725D01*
X6683094Y-19964439D01*
X6697379Y-19950153D01*
X6725951Y-19907296D01*
X6740237Y-19850153D01*
X6740237Y-19735867D01*
X6725951Y-19707296D01*
X6711665Y-19693010D01*
X6683094Y-19678725D01*
X6625951Y-19678725D01*
X6597379Y-19693010D01*
X6583094Y-19707296D01*
X6568808Y-19735867D01*
X6568808Y-19807296D01*
X6583094Y-19835867D01*
X6597379Y-19850153D01*
X6625951Y-19864439D01*
X6683094Y-19864439D01*
X6711665Y-19850153D01*
X6725951Y-19835867D01*
X6740237Y-19807296D01*
X6883094Y-19978725D02*
X6940237Y-19978725D01*
X6968808Y-19964439D01*
X6983094Y-19950153D01*
X7011665Y-19907296D01*
X7025951Y-19850153D01*
X7025951Y-19735867D01*
X7011665Y-19707296D01*
X6997379Y-19693010D01*
X6968808Y-19678725D01*
X6911665Y-19678725D01*
X6883094Y-19693010D01*
X6868808Y-19707296D01*
X6854522Y-19735867D01*
X6854522Y-19807296D01*
X6868808Y-19835867D01*
X6883094Y-19850153D01*
X6911665Y-19864439D01*
X6968808Y-19864439D01*
X6997379Y-19850153D01*
X7011665Y-19835867D01*
X7025951Y-19807296D01*
X7154522Y-19978725D02*
X7154522Y-19778725D01*
X7154522Y-19807296D02*
X7168808Y-19793010D01*
X7197379Y-19778725D01*
X7240237Y-19778725D01*
X7268808Y-19793010D01*
X7283094Y-19821582D01*
X7283094Y-19978725D01*
X7283094Y-19821582D02*
X7297379Y-19793010D01*
X7325951Y-19778725D01*
X7368808Y-19778725D01*
X7397379Y-19793010D01*
X7411665Y-19821582D01*
X7411665Y-19978725D01*
X7554522Y-19978725D02*
X7554522Y-19778725D01*
X7554522Y-19807296D02*
X7568808Y-19793010D01*
X7597379Y-19778725D01*
X7640237Y-19778725D01*
X7668808Y-19793010D01*
X7683094Y-19821582D01*
X7683094Y-19978725D01*
X7683094Y-19821582D02*
X7697379Y-19793010D01*
X7725951Y-19778725D01*
X7768808Y-19778725D01*
X7797379Y-19793010D01*
X7811665Y-19821582D01*
X7811665Y-19978725D01*
X8397380Y-19664439D02*
X8140237Y-20050153D01*
X8783094Y-19678725D02*
X8811665Y-19678725D01*
X8840237Y-19693010D01*
X8854522Y-19707296D01*
X8868808Y-19735867D01*
X8883094Y-19793010D01*
X8883094Y-19864439D01*
X8868808Y-19921582D01*
X8854522Y-19950153D01*
X8840237Y-19964439D01*
X8811665Y-19978725D01*
X8783094Y-19978725D01*
X8754522Y-19964439D01*
X8740237Y-19950153D01*
X8725951Y-19921582D01*
X8711665Y-19864439D01*
X8711665Y-19793010D01*
X8725951Y-19735867D01*
X8740237Y-19707296D01*
X8754522Y-19693010D01*
X8783094Y-19678725D01*
X9011665Y-19950153D02*
X9025951Y-19964439D01*
X9011665Y-19978725D01*
X8997380Y-19964439D01*
X9011665Y-19950153D01*
X9011665Y-19978725D01*
X9311665Y-19978725D02*
X9140237Y-19978725D01*
X9225951Y-19978725D02*
X9225951Y-19678725D01*
X9197380Y-19721582D01*
X9168808Y-19750153D01*
X9140237Y-19764439D01*
X9583094Y-19678725D02*
X9440237Y-19678725D01*
X9425951Y-19821582D01*
X9440237Y-19807296D01*
X9468808Y-19793010D01*
X9540237Y-19793010D01*
X9568808Y-19807296D01*
X9583094Y-19821582D01*
X9597380Y-19850153D01*
X9597380Y-19921582D01*
X9583094Y-19950153D01*
X9568808Y-19964439D01*
X9540237Y-19978725D01*
X9468808Y-19978725D01*
X9440237Y-19964439D01*
X9425951Y-19950153D01*
X9697380Y-19678725D02*
X9897380Y-19678725D01*
X9768808Y-19978725D01*
X9997380Y-19678725D02*
X9997380Y-19735867D01*
X10111665Y-19678725D02*
X10111665Y-19735867D01*
X10554522Y-20093010D02*
X10540237Y-20078725D01*
X10511665Y-20035867D01*
X10497380Y-20007296D01*
X10483094Y-19964439D01*
X10468808Y-19893010D01*
X10468808Y-19835867D01*
X10483094Y-19764439D01*
X10497380Y-19721582D01*
X10511665Y-19693010D01*
X10540237Y-19650153D01*
X10554522Y-19635867D01*
X10640237Y-19678725D02*
X10840237Y-19678725D01*
X10711665Y-19978725D01*
X11083094Y-19778725D02*
X11083094Y-19978725D01*
X11011665Y-19664439D02*
X10940237Y-19878725D01*
X11125951Y-19878725D01*
X11468808Y-19978725D02*
X11468808Y-19678725D01*
X11597379Y-19978725D02*
X11597379Y-19821582D01*
X11583094Y-19793010D01*
X11554522Y-19778725D01*
X11511665Y-19778725D01*
X11483094Y-19793010D01*
X11468808Y-19807296D01*
X11783094Y-19978725D02*
X11754522Y-19964439D01*
X11740237Y-19950153D01*
X11725951Y-19921582D01*
X11725951Y-19835867D01*
X11740237Y-19807296D01*
X11754522Y-19793010D01*
X11783094Y-19778725D01*
X11825951Y-19778725D01*
X11854522Y-19793010D01*
X11868808Y-19807296D01*
X11883094Y-19835867D01*
X11883094Y-19921582D01*
X11868808Y-19950153D01*
X11854522Y-19964439D01*
X11825951Y-19978725D01*
X11783094Y-19978725D01*
X12054522Y-19978725D02*
X12025951Y-19964439D01*
X12011665Y-19935867D01*
X12011665Y-19678725D01*
X12283094Y-19964439D02*
X12254522Y-19978725D01*
X12197379Y-19978725D01*
X12168808Y-19964439D01*
X12154522Y-19935867D01*
X12154522Y-19821582D01*
X12168808Y-19793010D01*
X12197379Y-19778725D01*
X12254522Y-19778725D01*
X12283094Y-19793010D01*
X12297379Y-19821582D01*
X12297379Y-19850153D01*
X12154522Y-19878725D01*
X12411665Y-19964439D02*
X12440237Y-19978725D01*
X12497379Y-19978725D01*
X12525951Y-19964439D01*
X12540237Y-19935867D01*
X12540237Y-19921582D01*
X12525951Y-19893010D01*
X12497379Y-19878725D01*
X12454522Y-19878725D01*
X12425951Y-19864439D01*
X12411665Y-19835867D01*
X12411665Y-19821582D01*
X12425951Y-19793010D01*
X12454522Y-19778725D01*
X12497379Y-19778725D01*
X12525951Y-19793010D01*
X12640237Y-20093010D02*
X12654522Y-20078725D01*
X12683094Y-20035867D01*
X12697379Y-20007296D01*
X12711665Y-19964439D01*
X12725951Y-19893010D01*
X12725951Y-19835867D01*
X12711665Y-19764439D01*
X12697379Y-19721582D01*
X12683094Y-19693010D01*
X12654522Y-19650153D01*
X12640237Y-19635867D01*
X13183094Y-20093010D02*
X13168808Y-20078725D01*
X13140237Y-20035867D01*
X13125951Y-20007296D01*
X13111665Y-19964439D01*
X13097379Y-19893010D01*
X13097379Y-19835867D01*
X13111665Y-19764439D01*
X13125951Y-19721582D01*
X13140237Y-19693010D01*
X13168808Y-19650153D01*
X13183094Y-19635867D01*
X13297379Y-19778725D02*
X13297379Y-19978725D01*
X13297379Y-19807296D02*
X13311665Y-19793010D01*
X13340237Y-19778725D01*
X13383094Y-19778725D01*
X13411665Y-19793010D01*
X13425951Y-19821582D01*
X13425951Y-19978725D01*
X13611665Y-19978725D02*
X13583094Y-19964439D01*
X13568808Y-19950153D01*
X13554522Y-19921582D01*
X13554522Y-19835867D01*
X13568808Y-19807296D01*
X13583094Y-19793010D01*
X13611665Y-19778725D01*
X13654522Y-19778725D01*
X13683094Y-19793010D01*
X13697379Y-19807296D01*
X13711665Y-19835867D01*
X13711665Y-19921582D01*
X13697379Y-19950153D01*
X13683094Y-19964439D01*
X13654522Y-19978725D01*
X13611665Y-19978725D01*
X13797379Y-19778725D02*
X13911665Y-19778725D01*
X13840237Y-19678725D02*
X13840237Y-19935867D01*
X13854522Y-19964439D01*
X13883094Y-19978725D01*
X13911665Y-19978725D01*
X14240237Y-19778725D02*
X14240237Y-20078725D01*
X14240237Y-19793010D02*
X14268808Y-19778725D01*
X14325951Y-19778725D01*
X14354522Y-19793010D01*
X14368808Y-19807296D01*
X14383094Y-19835867D01*
X14383094Y-19921582D01*
X14368808Y-19950153D01*
X14354522Y-19964439D01*
X14325951Y-19978725D01*
X14268808Y-19978725D01*
X14240237Y-19964439D01*
X14554522Y-19978725D02*
X14525951Y-19964439D01*
X14511665Y-19935867D01*
X14511665Y-19678725D01*
X14797379Y-19978725D02*
X14797379Y-19821582D01*
X14783094Y-19793010D01*
X14754522Y-19778725D01*
X14697379Y-19778725D01*
X14668808Y-19793010D01*
X14797379Y-19964439D02*
X14768808Y-19978725D01*
X14697379Y-19978725D01*
X14668808Y-19964439D01*
X14654522Y-19935867D01*
X14654522Y-19907296D01*
X14668808Y-19878725D01*
X14697379Y-19864439D01*
X14768808Y-19864439D01*
X14797379Y-19850153D01*
X14897379Y-19778725D02*
X15011665Y-19778725D01*
X14940237Y-19678725D02*
X14940237Y-19935867D01*
X14954522Y-19964439D01*
X14983094Y-19978725D01*
X15011665Y-19978725D01*
X15225951Y-19964439D02*
X15197379Y-19978725D01*
X15140237Y-19978725D01*
X15111665Y-19964439D01*
X15097379Y-19935867D01*
X15097379Y-19821582D01*
X15111665Y-19793010D01*
X15140237Y-19778725D01*
X15197379Y-19778725D01*
X15225951Y-19793010D01*
X15240237Y-19821582D01*
X15240237Y-19850153D01*
X15097379Y-19878725D01*
X15497379Y-19978725D02*
X15497379Y-19678725D01*
X15497379Y-19964439D02*
X15468808Y-19978725D01*
X15411665Y-19978725D01*
X15383094Y-19964439D01*
X15368808Y-19950153D01*
X15354522Y-19921582D01*
X15354522Y-19835867D01*
X15368808Y-19807296D01*
X15383094Y-19793010D01*
X15411665Y-19778725D01*
X15468808Y-19778725D01*
X15497379Y-19793010D01*
X15611665Y-20093010D02*
X15625951Y-20078725D01*
X15654522Y-20035867D01*
X15668808Y-20007296D01*
X15683094Y-19964439D01*
X15697379Y-19893010D01*
X15697379Y-19835867D01*
X15683094Y-19764439D01*
X15668808Y-19721582D01*
X15654522Y-19693010D01*
X15625951Y-19650153D01*
X15611665Y-19635867D01*
M02*
