%FSLAX45Y45*%
G04 Gerber Fmt 4.5, Leading zero omitted, Abs format (unit mm)*
G04 Created by KiCad (PCBNEW (5.1.6)-1) date 2021-08-22 23:35:56*
%MOMM*%
%LPD*%
G01*
G04 APERTURE LIST*
%TA.AperFunction,Profile*%
%ADD10C,0.100000*%
%TD*%
%ADD11C,0.200000*%
%ADD12C,0.300000*%
G04 APERTURE END LIST*
D10*
X7262196Y-7458110D02*
G75*
G03*
X7182795Y-7537410I-20J-79381D01*
G01*
X35956295Y-17221210D02*
G75*
G03*
X36194395Y-16983110I129J237971D01*
G01*
X36194395Y-16983110D02*
X36194395Y-8251810D01*
X8214695Y-7854910D02*
G75*
G03*
X8373396Y-8013710I158760J-40D01*
G01*
X8214696Y-7854910D02*
X8214695Y-7537410D01*
X6111195Y-8013710D02*
G75*
G03*
X5873094Y-8251810I40J-238141D01*
G01*
X6111195Y-17221210D02*
X35956295Y-17221210D01*
X7024095Y-8013710D02*
G75*
G03*
X7182795Y-7854910I-59J158760D01*
G01*
X8214695Y-7537410D02*
G75*
G03*
X8135295Y-7458110I-79381J-81D01*
G01*
X5873094Y-16983110D02*
G75*
G03*
X6111195Y-17221210I238141J41D01*
G01*
X7182795Y-7537410D02*
X7182795Y-7854910D01*
X36194395Y-8251810D02*
G75*
G03*
X35956295Y-8013710I-237971J130D01*
G01*
X8135295Y-7458110D02*
X7262196Y-7458110D01*
X35956295Y-8013710D02*
X8373396Y-8013710D01*
X5873094Y-8251810D02*
X5873094Y-16983110D01*
X7024095Y-8013710D02*
X6111195Y-8013710D01*
D11*
X7428550Y-8219760D02*
X7468550Y-8259760D01*
X7468550Y-8219760D02*
X7428550Y-8259760D01*
X7434613Y-8772497D02*
X7474613Y-8812497D01*
X7474613Y-8772497D02*
X7434613Y-8812497D01*
X7784150Y-8703630D02*
X7824150Y-8743630D01*
X7824150Y-8703630D02*
X7784150Y-8743630D01*
X7786563Y-10404160D02*
X7826563Y-10444160D01*
X7826563Y-10404160D02*
X7786563Y-10444160D01*
X7922724Y-8219460D02*
X7962724Y-8259460D01*
X7962724Y-8219460D02*
X7922724Y-8259460D01*
X8046913Y-9573580D02*
X8086913Y-9613580D01*
X8086913Y-9573580D02*
X8046913Y-9613580D01*
X8055930Y-8516940D02*
X8095930Y-8556940D01*
X8095930Y-8516940D02*
X8055930Y-8556940D01*
X8081330Y-8369620D02*
X8121330Y-8409620D01*
X8121330Y-8369620D02*
X8081330Y-8409620D01*
X8099110Y-10006650D02*
X8139110Y-10046650D01*
X8139110Y-10006650D02*
X8099110Y-10046650D01*
X8119430Y-14248450D02*
X8159430Y-14288450D01*
X8159430Y-14248450D02*
X8119430Y-14288450D01*
X8636988Y-15967362D02*
X8676988Y-16007362D01*
X8676988Y-15967362D02*
X8636988Y-16007362D01*
X8642670Y-10438577D02*
X8682670Y-10478577D01*
X8682670Y-10438577D02*
X8642670Y-10478577D01*
X8952550Y-11238550D02*
X8992550Y-11278550D01*
X8992550Y-11238550D02*
X8952550Y-11278550D01*
X9096060Y-12343577D02*
X9136060Y-12383577D01*
X9136060Y-12343577D02*
X9096060Y-12383577D01*
X9235780Y-9732310D02*
X9275780Y-9772310D01*
X9275780Y-9732310D02*
X9235780Y-9772310D01*
X9827613Y-8805197D02*
X9867613Y-8845197D01*
X9867613Y-8805197D02*
X9827613Y-8845197D01*
X9967280Y-12130090D02*
X10007280Y-12170090D01*
X10007280Y-12130090D02*
X9967280Y-12170090D01*
X10303863Y-14446537D02*
X10343863Y-14486537D01*
X10343863Y-14446537D02*
X10303863Y-14486537D01*
X10745790Y-12972100D02*
X10785790Y-13012100D01*
X10785790Y-12972100D02*
X10745790Y-13012100D01*
X10780113Y-10653113D02*
X10820113Y-10693113D01*
X10820113Y-10653113D02*
X10780113Y-10693113D01*
X10785160Y-16153577D02*
X10825160Y-16193577D01*
X10825160Y-16153577D02*
X10785160Y-16193577D01*
X11252520Y-12972100D02*
X11292520Y-13012100D01*
X11292520Y-12972100D02*
X11252520Y-13012100D01*
X11256363Y-12611387D02*
X11296363Y-12651387D01*
X11296363Y-12611387D02*
X11256363Y-12651387D01*
X11625900Y-15954060D02*
X11665900Y-15994060D01*
X11665900Y-15954060D02*
X11625900Y-15994060D01*
X11732613Y-8744303D02*
X11772613Y-8784303D01*
X11772613Y-8744303D02*
X11732613Y-8784303D01*
X12208863Y-14038933D02*
X12248863Y-14078933D01*
X12248863Y-14038933D02*
X12208863Y-14078933D01*
X12685113Y-10639077D02*
X12725113Y-10679077D01*
X12725113Y-10639077D02*
X12685113Y-10679077D01*
X12818430Y-14047790D02*
X12858430Y-14087790D01*
X12858430Y-14047790D02*
X12818430Y-14087790D01*
X13161363Y-12541537D02*
X13201363Y-12581537D01*
X13201363Y-12541537D02*
X13161363Y-12581537D01*
X13270550Y-14902500D02*
X13310550Y-14942500D01*
X13310550Y-14902500D02*
X13270550Y-14942500D01*
X13283250Y-8901750D02*
X13323250Y-8941750D01*
X13323250Y-8901750D02*
X13283250Y-8941750D01*
X13543600Y-13241340D02*
X13583600Y-13281340D01*
X13583600Y-13241340D02*
X13543600Y-13281340D01*
X13637613Y-8786147D02*
X13677613Y-8826147D01*
X13677613Y-8786147D02*
X13637613Y-8826147D01*
X13647760Y-15404130D02*
X13687760Y-15444130D01*
X13687760Y-15404130D02*
X13647760Y-15444130D01*
X14113863Y-14450347D02*
X14153863Y-14490347D01*
X14153863Y-14450347D02*
X14113863Y-14490347D01*
X14252260Y-9384350D02*
X14292260Y-9424350D01*
X14292260Y-9384350D02*
X14252260Y-9424350D01*
X14372867Y-15971506D02*
X14412867Y-16011506D01*
X14412867Y-15971506D02*
X14372867Y-16011506D01*
X14381800Y-16134400D02*
X14421800Y-16174400D01*
X14421800Y-16134400D02*
X14381800Y-16174400D01*
X14449067Y-16060406D02*
X14489067Y-16100406D01*
X14489067Y-16060406D02*
X14449067Y-16100406D01*
X14449067Y-16208394D02*
X14489067Y-16248394D01*
X14489067Y-16208394D02*
X14449067Y-16248394D01*
X14590113Y-10714007D02*
X14630113Y-10754007D01*
X14630113Y-10714007D02*
X14590113Y-10754007D01*
X14597700Y-16636050D02*
X14637700Y-16676050D01*
X14637700Y-16636050D02*
X14597700Y-16676050D01*
X15066363Y-12608847D02*
X15106363Y-12648847D01*
X15106363Y-12608847D02*
X15066363Y-12648847D01*
X15277150Y-14902500D02*
X15317150Y-14942500D01*
X15317150Y-14902500D02*
X15277150Y-14942500D01*
X15324536Y-15970759D02*
X15364536Y-16010759D01*
X15364536Y-15970759D02*
X15324536Y-16010759D01*
X15334300Y-16134400D02*
X15374300Y-16174400D01*
X15374300Y-16134400D02*
X15334300Y-16174400D01*
X15334300Y-16286800D02*
X15374300Y-16326800D01*
X15374300Y-16286800D02*
X15334300Y-16326800D01*
X15400736Y-16059659D02*
X15440736Y-16099659D01*
X15440736Y-16059659D02*
X15400736Y-16099659D01*
X15405011Y-16206900D02*
X15445011Y-16246900D01*
X15445011Y-16206900D02*
X15405011Y-16246900D01*
X15542613Y-8786147D02*
X15582613Y-8826147D01*
X15582613Y-8786147D02*
X15542613Y-8826147D01*
X15696250Y-15766100D02*
X15736250Y-15806100D01*
X15736250Y-15766100D02*
X15696250Y-15806100D01*
X15797850Y-16331250D02*
X15837850Y-16371250D01*
X15837850Y-16331250D02*
X15797850Y-16371250D01*
X16018863Y-14450347D02*
X16058863Y-14490347D01*
X16058863Y-14450347D02*
X16018863Y-14490347D01*
X16032800Y-14902500D02*
X16072800Y-14942500D01*
X16072800Y-14902500D02*
X16032800Y-14942500D01*
X16350300Y-14692950D02*
X16390300Y-14732950D01*
X16390300Y-14692950D02*
X16350300Y-14732950D01*
X16445550Y-16655100D02*
X16485550Y-16695100D01*
X16485550Y-16655100D02*
X16445550Y-16695100D01*
X16495113Y-10714007D02*
X16535113Y-10754007D01*
X16535113Y-10714007D02*
X16495113Y-10754007D01*
X16775750Y-14902500D02*
X16815750Y-14942500D01*
X16815750Y-14902500D02*
X16775750Y-14942500D01*
X16928150Y-16172500D02*
X16968150Y-16212500D01*
X16968150Y-16172500D02*
X16928150Y-16212500D01*
X16971363Y-12621547D02*
X17011363Y-12661547D01*
X17011363Y-12621547D02*
X16971363Y-12661547D01*
X16978950Y-14978700D02*
X17018950Y-15018700D01*
X17018950Y-14978700D02*
X16978950Y-15018700D01*
X17203740Y-8929690D02*
X17243740Y-8969690D01*
X17243740Y-8929690D02*
X17203740Y-8969690D01*
X17447613Y-8791227D02*
X17487613Y-8831227D01*
X17487613Y-8791227D02*
X17447613Y-8831227D01*
X17467900Y-16718600D02*
X17507900Y-16758600D01*
X17507900Y-16718600D02*
X17467900Y-16758600D01*
X17575850Y-16902750D02*
X17615850Y-16942750D01*
X17615850Y-16902750D02*
X17575850Y-16942750D01*
X17596170Y-12150410D02*
X17636170Y-12190410D01*
X17636170Y-12150410D02*
X17596170Y-12190410D01*
X17861600Y-15842300D02*
X17901600Y-15882300D01*
X17901600Y-15842300D02*
X17861600Y-15882300D01*
X17880650Y-12972100D02*
X17920650Y-13012100D01*
X17920650Y-12972100D02*
X17880650Y-13012100D01*
X18151160Y-9183690D02*
X18191160Y-9223690D01*
X18191160Y-9183690D02*
X18151160Y-9223690D01*
X18191800Y-14902500D02*
X18231800Y-14942500D01*
X18231800Y-14902500D02*
X18191800Y-14942500D01*
X18350550Y-11822750D02*
X18390550Y-11862750D01*
X18390550Y-11822750D02*
X18350550Y-11862750D01*
X18400113Y-10705117D02*
X18440113Y-10745117D01*
X18440113Y-10705117D02*
X18400113Y-10745117D01*
X18876363Y-12622817D02*
X18916363Y-12662817D01*
X18916363Y-12622817D02*
X18876363Y-12662817D01*
X19068100Y-12972100D02*
X19108100Y-13012100D01*
X19108100Y-12972100D02*
X19068100Y-13012100D01*
X19178570Y-15094290D02*
X19218570Y-15134290D01*
X19218570Y-15094290D02*
X19178570Y-15134290D01*
X19352613Y-8788687D02*
X19392613Y-8828687D01*
X19392613Y-8788687D02*
X19352613Y-8828687D01*
X19826180Y-14974890D02*
X19866180Y-15014890D01*
X19866180Y-14974890D02*
X19826180Y-15014890D01*
X20193320Y-11390950D02*
X20233320Y-11430950D01*
X20233320Y-11390950D02*
X20193320Y-11430950D01*
X20202210Y-13944920D02*
X20242210Y-13984920D01*
X20242210Y-13944920D02*
X20202210Y-13984920D01*
X20305113Y-10694957D02*
X20345113Y-10734957D01*
X20345113Y-10694957D02*
X20305113Y-10734957D01*
X20486690Y-9419910D02*
X20526690Y-9459910D01*
X20526690Y-9419910D02*
X20486690Y-9459910D01*
X20622580Y-11810050D02*
X20662580Y-11850050D01*
X20662580Y-11810050D02*
X20622580Y-11850050D01*
X20781330Y-11759250D02*
X20821330Y-11799250D01*
X20821330Y-11759250D02*
X20781330Y-11799250D01*
X20781363Y-12599957D02*
X20821363Y-12639957D01*
X20821363Y-12599957D02*
X20781363Y-12639957D01*
X20782600Y-14896150D02*
X20822600Y-14936150D01*
X20822600Y-14896150D02*
X20782600Y-14936150D01*
X21012470Y-9026210D02*
X21052470Y-9066210D01*
X21052470Y-9026210D02*
X21012470Y-9066210D01*
X21177570Y-15414310D02*
X21217570Y-15454310D01*
X21217570Y-15414310D02*
X21177570Y-15454310D01*
X21190270Y-15834680D02*
X21230270Y-15874680D01*
X21230270Y-15834680D02*
X21190270Y-15874680D01*
X21190270Y-16030260D02*
X21230270Y-16070260D01*
X21230270Y-16030260D02*
X21190270Y-16070260D01*
X21257613Y-8783607D02*
X21297613Y-8823607D01*
X21297613Y-8783607D02*
X21257613Y-8823607D01*
X21585240Y-15834680D02*
X21625240Y-15874680D01*
X21625240Y-15834680D02*
X21585240Y-15874680D01*
X21585240Y-16030260D02*
X21625240Y-16070260D01*
X21625240Y-16030260D02*
X21585240Y-16070260D01*
X21590320Y-15414310D02*
X21630320Y-15454310D01*
X21630320Y-15414310D02*
X21590320Y-15454310D01*
X21637310Y-14991400D02*
X21677310Y-15031400D01*
X21677310Y-14991400D02*
X21637310Y-15031400D01*
X22210113Y-10693687D02*
X22250113Y-10733687D01*
X22250113Y-10693687D02*
X22210113Y-10733687D01*
X22224050Y-14902500D02*
X22264050Y-14942500D01*
X22264050Y-14902500D02*
X22224050Y-14942500D01*
X22296440Y-13823000D02*
X22336440Y-13863000D01*
X22336440Y-13823000D02*
X22296440Y-13863000D01*
X22357400Y-14082080D02*
X22397400Y-14122080D01*
X22397400Y-14082080D02*
X22357400Y-14122080D01*
X22686363Y-11364247D02*
X22726363Y-11404247D01*
X22726363Y-11364247D02*
X22686363Y-11404247D01*
X22686363Y-12602497D02*
X22726363Y-12642497D01*
X22726363Y-12602497D02*
X22686363Y-12642497D01*
X23162613Y-8788687D02*
X23202613Y-8828687D01*
X23202613Y-8788687D02*
X23162613Y-8828687D01*
X24051580Y-13933490D02*
X24091580Y-13973490D01*
X24091580Y-13933490D02*
X24051580Y-13973490D01*
X24115113Y-10684797D02*
X24155113Y-10724797D01*
X24155113Y-10684797D02*
X24115113Y-10724797D01*
X24261130Y-14068110D02*
X24301130Y-14108110D01*
X24301130Y-14068110D02*
X24261130Y-14108110D01*
X24372890Y-15766100D02*
X24412890Y-15806100D01*
X24412890Y-15766100D02*
X24372890Y-15806100D01*
X24591330Y-11642410D02*
X24631330Y-11682410D01*
X24631330Y-11642410D02*
X24591330Y-11682410D01*
X24591363Y-12597417D02*
X24631363Y-12637417D01*
X24631363Y-12597417D02*
X24591363Y-12637417D01*
X24827550Y-9066850D02*
X24867550Y-9106850D01*
X24867550Y-9066850D02*
X24827550Y-9106850D01*
X25067613Y-8789957D02*
X25107613Y-8829957D01*
X25107613Y-8789957D02*
X25067613Y-8829957D01*
X25841010Y-15707680D02*
X25881010Y-15747680D01*
X25881010Y-15707680D02*
X25841010Y-15747680D01*
X25844820Y-9347520D02*
X25884820Y-9387520D01*
X25884820Y-9347520D02*
X25844820Y-9387520D01*
X25950230Y-13802680D02*
X25990230Y-13842680D01*
X25990230Y-13802680D02*
X25950230Y-13842680D01*
X26020113Y-10697497D02*
X26060113Y-10737497D01*
X26060113Y-10697497D02*
X26020113Y-10737497D01*
X26496330Y-13215940D02*
X26536330Y-13255940D01*
X26536330Y-13215940D02*
X26496330Y-13255940D01*
X26496363Y-12598687D02*
X26536363Y-12638687D01*
X26536363Y-12598687D02*
X26496363Y-12638687D01*
X26972613Y-8788687D02*
X27012613Y-8828687D01*
X27012613Y-8788687D02*
X26972613Y-8828687D01*
X27448863Y-14502417D02*
X27488863Y-14542417D01*
X27488863Y-14502417D02*
X27448863Y-14542417D01*
X27908570Y-13952540D02*
X27948570Y-13992540D01*
X27948570Y-13952540D02*
X27908570Y-13992540D01*
X27925113Y-10697497D02*
X27965113Y-10737497D01*
X27965113Y-10697497D02*
X27925113Y-10737497D01*
X28401363Y-12599957D02*
X28441363Y-12639957D01*
X28441363Y-12599957D02*
X28401363Y-12639957D01*
X28401363Y-13161297D02*
X28441363Y-13201297D01*
X28441363Y-13161297D02*
X28401363Y-13201297D01*
X28633740Y-9022400D02*
X28673740Y-9062400D01*
X28673740Y-9022400D02*
X28633740Y-9062400D01*
X28791220Y-15642910D02*
X28831220Y-15682910D01*
X28831220Y-15642910D02*
X28791220Y-15682910D01*
X28877613Y-8788687D02*
X28917613Y-8828687D01*
X28917613Y-8788687D02*
X28877613Y-8828687D01*
X29830113Y-10697497D02*
X29870113Y-10737497D01*
X29870113Y-10697497D02*
X29830113Y-10737497D01*
X30068238Y-13126372D02*
X30108238Y-13166372D01*
X30108238Y-13126372D02*
X30068238Y-13166372D01*
X30068238Y-14517022D02*
X30108238Y-14557022D01*
X30108238Y-14517022D02*
X30068238Y-14557022D01*
X30306363Y-12598687D02*
X30346363Y-12638687D01*
X30346363Y-12598687D02*
X30306363Y-12638687D01*
X30379990Y-9308150D02*
X30419990Y-9348150D01*
X30419990Y-9308150D02*
X30379990Y-9348150D01*
X31383290Y-15659420D02*
X31423290Y-15699420D01*
X31423290Y-15659420D02*
X31383290Y-15699420D01*
X31769370Y-11181400D02*
X31809370Y-11221400D01*
X31809370Y-11181400D02*
X31769370Y-11221400D01*
X31773180Y-10877870D02*
X31813180Y-10917870D01*
X31813180Y-10877870D02*
X31773180Y-10917870D01*
X32130050Y-13886500D02*
X32170050Y-13926500D01*
X32170050Y-13886500D02*
X32130050Y-13926500D01*
X32272290Y-13715050D02*
X32312290Y-13755050D01*
X32312290Y-13715050D02*
X32272290Y-13755050D01*
X32449488Y-11644282D02*
X32489488Y-11684282D01*
X32489488Y-11644282D02*
X32449488Y-11684282D01*
X32687613Y-14502417D02*
X32727613Y-14542417D01*
X32727613Y-14502417D02*
X32687613Y-14542417D01*
X33249047Y-8279577D02*
X33289047Y-8319577D01*
X33289047Y-8279577D02*
X33249047Y-8319577D01*
X33618300Y-15308900D02*
X33658300Y-15348900D01*
X33658300Y-15308900D02*
X33618300Y-15348900D01*
X34016000Y-9071930D02*
X34056000Y-9111930D01*
X34056000Y-9071930D02*
X34016000Y-9111930D01*
X34251200Y-10723180D02*
X34291200Y-10763180D01*
X34291200Y-10723180D02*
X34251200Y-10763180D01*
X34346200Y-13657900D02*
X34386200Y-13697900D01*
X34386200Y-13657900D02*
X34346200Y-13697900D01*
X34592613Y-8786147D02*
X34632613Y-8826147D01*
X34632613Y-8786147D02*
X34592613Y-8826147D01*
X34592613Y-10692417D02*
X34632613Y-10732417D01*
X34632613Y-10692417D02*
X34592613Y-10732417D01*
X34592613Y-12602497D02*
X34632613Y-12642497D01*
X34632613Y-12602497D02*
X34592613Y-12642497D01*
X34592613Y-15813123D02*
X34632613Y-15853123D01*
X34632613Y-15813123D02*
X34592613Y-15853123D01*
X34657350Y-13270550D02*
X34697350Y-13310550D01*
X34697350Y-13270550D02*
X34657350Y-13310550D01*
X34993900Y-13511850D02*
X35033900Y-13551850D01*
X35033900Y-13511850D02*
X34993900Y-13551850D01*
X35264410Y-9471980D02*
X35304410Y-9511980D01*
X35304410Y-9471980D02*
X35264410Y-9511980D01*
X35988310Y-11643680D02*
X36028310Y-11683680D01*
X36028310Y-11643680D02*
X35988310Y-11683680D01*
X7295724Y-7564276D02*
G75*
G03*
X7295724Y-7564276I-30000J0D01*
G01*
X7245724Y-7534276D02*
X7245724Y-7594276D01*
X7285724Y-7534276D02*
X7285724Y-7594276D01*
X7245724Y-7594276D02*
G75*
G03*
X7285724Y-7594276I20000J0D01*
G01*
X7285724Y-7534276D02*
G75*
G03*
X7245724Y-7534276I-20000J0D01*
G01*
X7295724Y-7982276D02*
G75*
G03*
X7295724Y-7982276I-30000J0D01*
G01*
X7245724Y-7927276D02*
X7245724Y-8037276D01*
X7285724Y-7927276D02*
X7285724Y-8037276D01*
X7245724Y-8037276D02*
G75*
G03*
X7285724Y-8037276I20000J0D01*
G01*
X7285724Y-7927276D02*
G75*
G03*
X7245724Y-7927276I-20000J0D01*
G01*
X8159724Y-7564276D02*
G75*
G03*
X8159724Y-7564276I-30000J0D01*
G01*
X8109724Y-7534276D02*
X8109724Y-7594276D01*
X8149724Y-7534276D02*
X8149724Y-7594276D01*
X8109724Y-7594276D02*
G75*
G03*
X8149724Y-7594276I20000J0D01*
G01*
X8149724Y-7534276D02*
G75*
G03*
X8109724Y-7534276I-20000J0D01*
G01*
X8159724Y-7982276D02*
G75*
G03*
X8159724Y-7982276I-30000J0D01*
G01*
X8109724Y-7927276D02*
X8109724Y-8037276D01*
X8149724Y-7927276D02*
X8149724Y-8037276D01*
X8109724Y-8037276D02*
G75*
G03*
X8149724Y-8037276I20000J0D01*
G01*
X8149724Y-7927276D02*
G75*
G03*
X8109724Y-7927276I-20000J0D01*
G01*
X22570440Y-16862430D02*
X22570440Y-16942430D01*
X22530440Y-16902430D02*
X22610440Y-16902430D01*
X22824440Y-16862430D02*
X22824440Y-16942430D01*
X22784440Y-16902430D02*
X22864440Y-16902430D01*
D12*
X6154522Y-17691925D02*
X6154522Y-17391925D01*
X6225951Y-17391925D01*
X6268808Y-17406210D01*
X6297379Y-17434782D01*
X6311665Y-17463353D01*
X6325951Y-17520496D01*
X6325951Y-17563353D01*
X6311665Y-17620496D01*
X6297379Y-17649067D01*
X6268808Y-17677639D01*
X6225951Y-17691925D01*
X6154522Y-17691925D01*
X6454522Y-17691925D02*
X6454522Y-17491925D01*
X6454522Y-17549067D02*
X6468808Y-17520496D01*
X6483094Y-17506210D01*
X6511665Y-17491925D01*
X6540237Y-17491925D01*
X6640237Y-17691925D02*
X6640237Y-17491925D01*
X6640237Y-17391925D02*
X6625951Y-17406210D01*
X6640237Y-17420496D01*
X6654522Y-17406210D01*
X6640237Y-17391925D01*
X6640237Y-17420496D01*
X6825951Y-17691925D02*
X6797379Y-17677639D01*
X6783094Y-17649067D01*
X6783094Y-17391925D01*
X6983094Y-17691925D02*
X6954522Y-17677639D01*
X6940237Y-17649067D01*
X6940237Y-17391925D01*
X7325951Y-17691925D02*
X7325951Y-17391925D01*
X7425951Y-17606210D01*
X7525951Y-17391925D01*
X7525951Y-17691925D01*
X7797379Y-17691925D02*
X7797379Y-17534782D01*
X7783094Y-17506210D01*
X7754522Y-17491925D01*
X7697379Y-17491925D01*
X7668808Y-17506210D01*
X7797379Y-17677639D02*
X7768808Y-17691925D01*
X7697379Y-17691925D01*
X7668808Y-17677639D01*
X7654522Y-17649067D01*
X7654522Y-17620496D01*
X7668808Y-17591925D01*
X7697379Y-17577639D01*
X7768808Y-17577639D01*
X7797379Y-17563353D01*
X7940237Y-17491925D02*
X7940237Y-17791925D01*
X7940237Y-17506210D02*
X7968808Y-17491925D01*
X8025951Y-17491925D01*
X8054522Y-17506210D01*
X8068808Y-17520496D01*
X8083094Y-17549067D01*
X8083094Y-17634782D01*
X8068808Y-17663353D01*
X8054522Y-17677639D01*
X8025951Y-17691925D01*
X7968808Y-17691925D01*
X7940237Y-17677639D01*
X8211665Y-17663353D02*
X8225951Y-17677639D01*
X8211665Y-17691925D01*
X8197379Y-17677639D01*
X8211665Y-17663353D01*
X8211665Y-17691925D01*
X8211665Y-17506210D02*
X8225951Y-17520496D01*
X8211665Y-17534782D01*
X8197379Y-17520496D01*
X8211665Y-17506210D01*
X8211665Y-17534782D01*
X5828094Y-18166210D02*
X5868094Y-18206210D01*
X5868094Y-18166210D02*
X5828094Y-18206210D01*
X6211665Y-18021925D02*
X6240237Y-18021925D01*
X6268808Y-18036210D01*
X6283094Y-18050496D01*
X6297379Y-18079067D01*
X6311665Y-18136210D01*
X6311665Y-18207639D01*
X6297379Y-18264782D01*
X6283094Y-18293353D01*
X6268808Y-18307639D01*
X6240237Y-18321925D01*
X6211665Y-18321925D01*
X6183094Y-18307639D01*
X6168808Y-18293353D01*
X6154522Y-18264782D01*
X6140237Y-18207639D01*
X6140237Y-18136210D01*
X6154522Y-18079067D01*
X6168808Y-18050496D01*
X6183094Y-18036210D01*
X6211665Y-18021925D01*
X6440237Y-18293353D02*
X6454522Y-18307639D01*
X6440237Y-18321925D01*
X6425951Y-18307639D01*
X6440237Y-18293353D01*
X6440237Y-18321925D01*
X6711665Y-18121925D02*
X6711665Y-18321925D01*
X6640237Y-18007639D02*
X6568808Y-18221925D01*
X6754522Y-18221925D01*
X6925951Y-18021925D02*
X6954522Y-18021925D01*
X6983094Y-18036210D01*
X6997379Y-18050496D01*
X7011665Y-18079067D01*
X7025951Y-18136210D01*
X7025951Y-18207639D01*
X7011665Y-18264782D01*
X6997379Y-18293353D01*
X6983094Y-18307639D01*
X6954522Y-18321925D01*
X6925951Y-18321925D01*
X6897379Y-18307639D01*
X6883094Y-18293353D01*
X6868808Y-18264782D01*
X6854522Y-18207639D01*
X6854522Y-18136210D01*
X6868808Y-18079067D01*
X6883094Y-18050496D01*
X6897379Y-18036210D01*
X6925951Y-18021925D01*
X7154522Y-18321925D02*
X7154522Y-18121925D01*
X7154522Y-18150496D02*
X7168808Y-18136210D01*
X7197379Y-18121925D01*
X7240237Y-18121925D01*
X7268808Y-18136210D01*
X7283094Y-18164782D01*
X7283094Y-18321925D01*
X7283094Y-18164782D02*
X7297379Y-18136210D01*
X7325951Y-18121925D01*
X7368808Y-18121925D01*
X7397379Y-18136210D01*
X7411665Y-18164782D01*
X7411665Y-18321925D01*
X7554522Y-18321925D02*
X7554522Y-18121925D01*
X7554522Y-18150496D02*
X7568808Y-18136210D01*
X7597379Y-18121925D01*
X7640237Y-18121925D01*
X7668808Y-18136210D01*
X7683094Y-18164782D01*
X7683094Y-18321925D01*
X7683094Y-18164782D02*
X7697379Y-18136210D01*
X7725951Y-18121925D01*
X7768808Y-18121925D01*
X7797379Y-18136210D01*
X7811665Y-18164782D01*
X7811665Y-18321925D01*
X8397380Y-18007639D02*
X8140237Y-18393353D01*
X8783094Y-18021925D02*
X8811665Y-18021925D01*
X8840237Y-18036210D01*
X8854522Y-18050496D01*
X8868808Y-18079067D01*
X8883094Y-18136210D01*
X8883094Y-18207639D01*
X8868808Y-18264782D01*
X8854522Y-18293353D01*
X8840237Y-18307639D01*
X8811665Y-18321925D01*
X8783094Y-18321925D01*
X8754522Y-18307639D01*
X8740237Y-18293353D01*
X8725951Y-18264782D01*
X8711665Y-18207639D01*
X8711665Y-18136210D01*
X8725951Y-18079067D01*
X8740237Y-18050496D01*
X8754522Y-18036210D01*
X8783094Y-18021925D01*
X9011665Y-18293353D02*
X9025951Y-18307639D01*
X9011665Y-18321925D01*
X8997380Y-18307639D01*
X9011665Y-18293353D01*
X9011665Y-18321925D01*
X9211665Y-18021925D02*
X9240237Y-18021925D01*
X9268808Y-18036210D01*
X9283094Y-18050496D01*
X9297380Y-18079067D01*
X9311665Y-18136210D01*
X9311665Y-18207639D01*
X9297380Y-18264782D01*
X9283094Y-18293353D01*
X9268808Y-18307639D01*
X9240237Y-18321925D01*
X9211665Y-18321925D01*
X9183094Y-18307639D01*
X9168808Y-18293353D01*
X9154522Y-18264782D01*
X9140237Y-18207639D01*
X9140237Y-18136210D01*
X9154522Y-18079067D01*
X9168808Y-18050496D01*
X9183094Y-18036210D01*
X9211665Y-18021925D01*
X9597380Y-18321925D02*
X9425951Y-18321925D01*
X9511665Y-18321925D02*
X9511665Y-18021925D01*
X9483094Y-18064782D01*
X9454522Y-18093353D01*
X9425951Y-18107639D01*
X9854522Y-18021925D02*
X9797380Y-18021925D01*
X9768808Y-18036210D01*
X9754522Y-18050496D01*
X9725951Y-18093353D01*
X9711665Y-18150496D01*
X9711665Y-18264782D01*
X9725951Y-18293353D01*
X9740237Y-18307639D01*
X9768808Y-18321925D01*
X9825951Y-18321925D01*
X9854522Y-18307639D01*
X9868808Y-18293353D01*
X9883094Y-18264782D01*
X9883094Y-18193353D01*
X9868808Y-18164782D01*
X9854522Y-18150496D01*
X9825951Y-18136210D01*
X9768808Y-18136210D01*
X9740237Y-18150496D01*
X9725951Y-18164782D01*
X9711665Y-18193353D01*
X9997380Y-18021925D02*
X9997380Y-18079067D01*
X10111665Y-18021925D02*
X10111665Y-18079067D01*
X10554522Y-18436210D02*
X10540237Y-18421925D01*
X10511665Y-18379067D01*
X10497380Y-18350496D01*
X10483094Y-18307639D01*
X10468808Y-18236210D01*
X10468808Y-18179067D01*
X10483094Y-18107639D01*
X10497380Y-18064782D01*
X10511665Y-18036210D01*
X10540237Y-17993353D01*
X10554522Y-17979067D01*
X10825951Y-18321925D02*
X10654522Y-18321925D01*
X10740237Y-18321925D02*
X10740237Y-18021925D01*
X10711665Y-18064782D01*
X10683094Y-18093353D01*
X10654522Y-18107639D01*
X11083094Y-18121925D02*
X11083094Y-18321925D01*
X11011665Y-18007639D02*
X10940237Y-18221925D01*
X11125951Y-18221925D01*
X11254522Y-18321925D02*
X11311665Y-18321925D01*
X11340237Y-18307639D01*
X11354522Y-18293353D01*
X11383094Y-18250496D01*
X11397379Y-18193353D01*
X11397379Y-18079067D01*
X11383094Y-18050496D01*
X11368808Y-18036210D01*
X11340237Y-18021925D01*
X11283094Y-18021925D01*
X11254522Y-18036210D01*
X11240237Y-18050496D01*
X11225951Y-18079067D01*
X11225951Y-18150496D01*
X11240237Y-18179067D01*
X11254522Y-18193353D01*
X11283094Y-18207639D01*
X11340237Y-18207639D01*
X11368808Y-18193353D01*
X11383094Y-18179067D01*
X11397379Y-18150496D01*
X11754522Y-18321925D02*
X11754522Y-18021925D01*
X11883094Y-18321925D02*
X11883094Y-18164782D01*
X11868808Y-18136210D01*
X11840237Y-18121925D01*
X11797379Y-18121925D01*
X11768808Y-18136210D01*
X11754522Y-18150496D01*
X12068808Y-18321925D02*
X12040237Y-18307639D01*
X12025951Y-18293353D01*
X12011665Y-18264782D01*
X12011665Y-18179067D01*
X12025951Y-18150496D01*
X12040237Y-18136210D01*
X12068808Y-18121925D01*
X12111665Y-18121925D01*
X12140237Y-18136210D01*
X12154522Y-18150496D01*
X12168808Y-18179067D01*
X12168808Y-18264782D01*
X12154522Y-18293353D01*
X12140237Y-18307639D01*
X12111665Y-18321925D01*
X12068808Y-18321925D01*
X12340237Y-18321925D02*
X12311665Y-18307639D01*
X12297379Y-18279067D01*
X12297379Y-18021925D01*
X12568808Y-18307639D02*
X12540237Y-18321925D01*
X12483094Y-18321925D01*
X12454522Y-18307639D01*
X12440237Y-18279067D01*
X12440237Y-18164782D01*
X12454522Y-18136210D01*
X12483094Y-18121925D01*
X12540237Y-18121925D01*
X12568808Y-18136210D01*
X12583094Y-18164782D01*
X12583094Y-18193353D01*
X12440237Y-18221925D01*
X12697379Y-18307639D02*
X12725951Y-18321925D01*
X12783094Y-18321925D01*
X12811665Y-18307639D01*
X12825951Y-18279067D01*
X12825951Y-18264782D01*
X12811665Y-18236210D01*
X12783094Y-18221925D01*
X12740237Y-18221925D01*
X12711665Y-18207639D01*
X12697379Y-18179067D01*
X12697379Y-18164782D01*
X12711665Y-18136210D01*
X12740237Y-18121925D01*
X12783094Y-18121925D01*
X12811665Y-18136210D01*
X12925951Y-18436210D02*
X12940237Y-18421925D01*
X12968808Y-18379067D01*
X12983094Y-18350496D01*
X12997379Y-18307639D01*
X13011665Y-18236210D01*
X13011665Y-18179067D01*
X12997379Y-18107639D01*
X12983094Y-18064782D01*
X12968808Y-18036210D01*
X12940237Y-17993353D01*
X12925951Y-17979067D01*
X5868094Y-18582210D02*
G75*
G03*
X5868094Y-18582210I-30000J0D01*
G01*
X6211665Y-18417925D02*
X6240237Y-18417925D01*
X6268808Y-18432210D01*
X6283094Y-18446496D01*
X6297379Y-18475067D01*
X6311665Y-18532210D01*
X6311665Y-18603639D01*
X6297379Y-18660782D01*
X6283094Y-18689353D01*
X6268808Y-18703639D01*
X6240237Y-18717925D01*
X6211665Y-18717925D01*
X6183094Y-18703639D01*
X6168808Y-18689353D01*
X6154522Y-18660782D01*
X6140237Y-18603639D01*
X6140237Y-18532210D01*
X6154522Y-18475067D01*
X6168808Y-18446496D01*
X6183094Y-18432210D01*
X6211665Y-18417925D01*
X6440237Y-18689353D02*
X6454522Y-18703639D01*
X6440237Y-18717925D01*
X6425951Y-18703639D01*
X6440237Y-18689353D01*
X6440237Y-18717925D01*
X6711665Y-18417925D02*
X6654522Y-18417925D01*
X6625951Y-18432210D01*
X6611665Y-18446496D01*
X6583094Y-18489353D01*
X6568808Y-18546496D01*
X6568808Y-18660782D01*
X6583094Y-18689353D01*
X6597379Y-18703639D01*
X6625951Y-18717925D01*
X6683094Y-18717925D01*
X6711665Y-18703639D01*
X6725951Y-18689353D01*
X6740237Y-18660782D01*
X6740237Y-18589353D01*
X6725951Y-18560782D01*
X6711665Y-18546496D01*
X6683094Y-18532210D01*
X6625951Y-18532210D01*
X6597379Y-18546496D01*
X6583094Y-18560782D01*
X6568808Y-18589353D01*
X6925951Y-18417925D02*
X6954522Y-18417925D01*
X6983094Y-18432210D01*
X6997379Y-18446496D01*
X7011665Y-18475067D01*
X7025951Y-18532210D01*
X7025951Y-18603639D01*
X7011665Y-18660782D01*
X6997379Y-18689353D01*
X6983094Y-18703639D01*
X6954522Y-18717925D01*
X6925951Y-18717925D01*
X6897379Y-18703639D01*
X6883094Y-18689353D01*
X6868808Y-18660782D01*
X6854522Y-18603639D01*
X6854522Y-18532210D01*
X6868808Y-18475067D01*
X6883094Y-18446496D01*
X6897379Y-18432210D01*
X6925951Y-18417925D01*
X7154522Y-18717925D02*
X7154522Y-18517925D01*
X7154522Y-18546496D02*
X7168808Y-18532210D01*
X7197379Y-18517925D01*
X7240237Y-18517925D01*
X7268808Y-18532210D01*
X7283094Y-18560782D01*
X7283094Y-18717925D01*
X7283094Y-18560782D02*
X7297379Y-18532210D01*
X7325951Y-18517925D01*
X7368808Y-18517925D01*
X7397379Y-18532210D01*
X7411665Y-18560782D01*
X7411665Y-18717925D01*
X7554522Y-18717925D02*
X7554522Y-18517925D01*
X7554522Y-18546496D02*
X7568808Y-18532210D01*
X7597379Y-18517925D01*
X7640237Y-18517925D01*
X7668808Y-18532210D01*
X7683094Y-18560782D01*
X7683094Y-18717925D01*
X7683094Y-18560782D02*
X7697379Y-18532210D01*
X7725951Y-18517925D01*
X7768808Y-18517925D01*
X7797379Y-18532210D01*
X7811665Y-18560782D01*
X7811665Y-18717925D01*
X8397380Y-18403639D02*
X8140237Y-18789353D01*
X8783094Y-18417925D02*
X8811665Y-18417925D01*
X8840237Y-18432210D01*
X8854522Y-18446496D01*
X8868808Y-18475067D01*
X8883094Y-18532210D01*
X8883094Y-18603639D01*
X8868808Y-18660782D01*
X8854522Y-18689353D01*
X8840237Y-18703639D01*
X8811665Y-18717925D01*
X8783094Y-18717925D01*
X8754522Y-18703639D01*
X8740237Y-18689353D01*
X8725951Y-18660782D01*
X8711665Y-18603639D01*
X8711665Y-18532210D01*
X8725951Y-18475067D01*
X8740237Y-18446496D01*
X8754522Y-18432210D01*
X8783094Y-18417925D01*
X9011665Y-18689353D02*
X9025951Y-18703639D01*
X9011665Y-18717925D01*
X8997380Y-18703639D01*
X9011665Y-18689353D01*
X9011665Y-18717925D01*
X9211665Y-18417925D02*
X9240237Y-18417925D01*
X9268808Y-18432210D01*
X9283094Y-18446496D01*
X9297380Y-18475067D01*
X9311665Y-18532210D01*
X9311665Y-18603639D01*
X9297380Y-18660782D01*
X9283094Y-18689353D01*
X9268808Y-18703639D01*
X9240237Y-18717925D01*
X9211665Y-18717925D01*
X9183094Y-18703639D01*
X9168808Y-18689353D01*
X9154522Y-18660782D01*
X9140237Y-18603639D01*
X9140237Y-18532210D01*
X9154522Y-18475067D01*
X9168808Y-18446496D01*
X9183094Y-18432210D01*
X9211665Y-18417925D01*
X9425951Y-18446496D02*
X9440237Y-18432210D01*
X9468808Y-18417925D01*
X9540237Y-18417925D01*
X9568808Y-18432210D01*
X9583094Y-18446496D01*
X9597380Y-18475067D01*
X9597380Y-18503639D01*
X9583094Y-18546496D01*
X9411665Y-18717925D01*
X9597380Y-18717925D01*
X9854522Y-18517925D02*
X9854522Y-18717925D01*
X9783094Y-18403639D02*
X9711665Y-18617925D01*
X9897380Y-18617925D01*
X9997380Y-18417925D02*
X9997380Y-18475067D01*
X10111665Y-18417925D02*
X10111665Y-18475067D01*
X10554522Y-18832210D02*
X10540237Y-18817925D01*
X10511665Y-18775067D01*
X10497380Y-18746496D01*
X10483094Y-18703639D01*
X10468808Y-18632210D01*
X10468808Y-18575067D01*
X10483094Y-18503639D01*
X10497380Y-18460782D01*
X10511665Y-18432210D01*
X10540237Y-18389353D01*
X10554522Y-18375067D01*
X10725951Y-18417925D02*
X10754522Y-18417925D01*
X10783094Y-18432210D01*
X10797380Y-18446496D01*
X10811665Y-18475067D01*
X10825951Y-18532210D01*
X10825951Y-18603639D01*
X10811665Y-18660782D01*
X10797380Y-18689353D01*
X10783094Y-18703639D01*
X10754522Y-18717925D01*
X10725951Y-18717925D01*
X10697380Y-18703639D01*
X10683094Y-18689353D01*
X10668808Y-18660782D01*
X10654522Y-18603639D01*
X10654522Y-18532210D01*
X10668808Y-18475067D01*
X10683094Y-18446496D01*
X10697380Y-18432210D01*
X10725951Y-18417925D01*
X11183094Y-18717925D02*
X11183094Y-18417925D01*
X11311665Y-18717925D02*
X11311665Y-18560782D01*
X11297379Y-18532210D01*
X11268808Y-18517925D01*
X11225951Y-18517925D01*
X11197379Y-18532210D01*
X11183094Y-18546496D01*
X11497379Y-18717925D02*
X11468808Y-18703639D01*
X11454522Y-18689353D01*
X11440237Y-18660782D01*
X11440237Y-18575067D01*
X11454522Y-18546496D01*
X11468808Y-18532210D01*
X11497379Y-18517925D01*
X11540237Y-18517925D01*
X11568808Y-18532210D01*
X11583094Y-18546496D01*
X11597379Y-18575067D01*
X11597379Y-18660782D01*
X11583094Y-18689353D01*
X11568808Y-18703639D01*
X11540237Y-18717925D01*
X11497379Y-18717925D01*
X11768808Y-18717925D02*
X11740237Y-18703639D01*
X11725951Y-18675067D01*
X11725951Y-18417925D01*
X11997379Y-18703639D02*
X11968808Y-18717925D01*
X11911665Y-18717925D01*
X11883094Y-18703639D01*
X11868808Y-18675067D01*
X11868808Y-18560782D01*
X11883094Y-18532210D01*
X11911665Y-18517925D01*
X11968808Y-18517925D01*
X11997379Y-18532210D01*
X12011665Y-18560782D01*
X12011665Y-18589353D01*
X11868808Y-18617925D01*
X12125951Y-18703639D02*
X12154522Y-18717925D01*
X12211665Y-18717925D01*
X12240237Y-18703639D01*
X12254522Y-18675067D01*
X12254522Y-18660782D01*
X12240237Y-18632210D01*
X12211665Y-18617925D01*
X12168808Y-18617925D01*
X12140237Y-18603639D01*
X12125951Y-18575067D01*
X12125951Y-18560782D01*
X12140237Y-18532210D01*
X12168808Y-18517925D01*
X12211665Y-18517925D01*
X12240237Y-18532210D01*
X12611665Y-18603639D02*
X12840237Y-18603639D01*
X12725951Y-18717925D02*
X12725951Y-18489353D01*
X13340237Y-18517925D02*
X13340237Y-18717925D01*
X13268808Y-18403639D02*
X13197379Y-18617925D01*
X13383094Y-18617925D01*
X13711665Y-18703639D02*
X13740237Y-18717925D01*
X13797379Y-18717925D01*
X13825951Y-18703639D01*
X13840237Y-18675067D01*
X13840237Y-18660782D01*
X13825951Y-18632210D01*
X13797379Y-18617925D01*
X13754522Y-18617925D01*
X13725951Y-18603639D01*
X13711665Y-18575067D01*
X13711665Y-18560782D01*
X13725951Y-18532210D01*
X13754522Y-18517925D01*
X13797379Y-18517925D01*
X13825951Y-18532210D01*
X14011665Y-18717925D02*
X13983094Y-18703639D01*
X13968808Y-18675067D01*
X13968808Y-18417925D01*
X14168808Y-18717925D02*
X14140237Y-18703639D01*
X14125951Y-18689353D01*
X14111665Y-18660782D01*
X14111665Y-18575067D01*
X14125951Y-18546496D01*
X14140237Y-18532210D01*
X14168808Y-18517925D01*
X14211665Y-18517925D01*
X14240237Y-18532210D01*
X14254522Y-18546496D01*
X14268808Y-18575067D01*
X14268808Y-18660782D01*
X14254522Y-18689353D01*
X14240237Y-18703639D01*
X14211665Y-18717925D01*
X14168808Y-18717925D01*
X14354522Y-18517925D02*
X14468808Y-18517925D01*
X14397379Y-18417925D02*
X14397379Y-18675067D01*
X14411665Y-18703639D01*
X14440237Y-18717925D01*
X14468808Y-18717925D01*
X14554522Y-18703639D02*
X14583094Y-18717925D01*
X14640237Y-18717925D01*
X14668808Y-18703639D01*
X14683094Y-18675067D01*
X14683094Y-18660782D01*
X14668808Y-18632210D01*
X14640237Y-18617925D01*
X14597379Y-18617925D01*
X14568808Y-18603639D01*
X14554522Y-18575067D01*
X14554522Y-18560782D01*
X14568808Y-18532210D01*
X14597379Y-18517925D01*
X14640237Y-18517925D01*
X14668808Y-18532210D01*
X14783094Y-18832210D02*
X14797379Y-18817925D01*
X14825951Y-18775067D01*
X14840237Y-18746496D01*
X14854522Y-18703639D01*
X14868808Y-18632210D01*
X14868808Y-18575067D01*
X14854522Y-18503639D01*
X14840237Y-18460782D01*
X14825951Y-18432210D01*
X14797379Y-18389353D01*
X14783094Y-18375067D01*
X5828094Y-18938210D02*
X5828094Y-19018210D01*
X5788094Y-18978210D02*
X5868094Y-18978210D01*
X6211665Y-18813925D02*
X6240237Y-18813925D01*
X6268808Y-18828210D01*
X6283094Y-18842496D01*
X6297379Y-18871067D01*
X6311665Y-18928210D01*
X6311665Y-18999639D01*
X6297379Y-19056782D01*
X6283094Y-19085353D01*
X6268808Y-19099639D01*
X6240237Y-19113925D01*
X6211665Y-19113925D01*
X6183094Y-19099639D01*
X6168808Y-19085353D01*
X6154522Y-19056782D01*
X6140237Y-18999639D01*
X6140237Y-18928210D01*
X6154522Y-18871067D01*
X6168808Y-18842496D01*
X6183094Y-18828210D01*
X6211665Y-18813925D01*
X6440237Y-19085353D02*
X6454522Y-19099639D01*
X6440237Y-19113925D01*
X6425951Y-19099639D01*
X6440237Y-19085353D01*
X6440237Y-19113925D01*
X6625951Y-18942496D02*
X6597379Y-18928210D01*
X6583094Y-18913925D01*
X6568808Y-18885353D01*
X6568808Y-18871067D01*
X6583094Y-18842496D01*
X6597379Y-18828210D01*
X6625951Y-18813925D01*
X6683094Y-18813925D01*
X6711665Y-18828210D01*
X6725951Y-18842496D01*
X6740237Y-18871067D01*
X6740237Y-18885353D01*
X6725951Y-18913925D01*
X6711665Y-18928210D01*
X6683094Y-18942496D01*
X6625951Y-18942496D01*
X6597379Y-18956782D01*
X6583094Y-18971067D01*
X6568808Y-18999639D01*
X6568808Y-19056782D01*
X6583094Y-19085353D01*
X6597379Y-19099639D01*
X6625951Y-19113925D01*
X6683094Y-19113925D01*
X6711665Y-19099639D01*
X6725951Y-19085353D01*
X6740237Y-19056782D01*
X6740237Y-18999639D01*
X6725951Y-18971067D01*
X6711665Y-18956782D01*
X6683094Y-18942496D01*
X6925951Y-18813925D02*
X6954522Y-18813925D01*
X6983094Y-18828210D01*
X6997379Y-18842496D01*
X7011665Y-18871067D01*
X7025951Y-18928210D01*
X7025951Y-18999639D01*
X7011665Y-19056782D01*
X6997379Y-19085353D01*
X6983094Y-19099639D01*
X6954522Y-19113925D01*
X6925951Y-19113925D01*
X6897379Y-19099639D01*
X6883094Y-19085353D01*
X6868808Y-19056782D01*
X6854522Y-18999639D01*
X6854522Y-18928210D01*
X6868808Y-18871067D01*
X6883094Y-18842496D01*
X6897379Y-18828210D01*
X6925951Y-18813925D01*
X7154522Y-19113925D02*
X7154522Y-18913925D01*
X7154522Y-18942496D02*
X7168808Y-18928210D01*
X7197379Y-18913925D01*
X7240237Y-18913925D01*
X7268808Y-18928210D01*
X7283094Y-18956782D01*
X7283094Y-19113925D01*
X7283094Y-18956782D02*
X7297379Y-18928210D01*
X7325951Y-18913925D01*
X7368808Y-18913925D01*
X7397379Y-18928210D01*
X7411665Y-18956782D01*
X7411665Y-19113925D01*
X7554522Y-19113925D02*
X7554522Y-18913925D01*
X7554522Y-18942496D02*
X7568808Y-18928210D01*
X7597379Y-18913925D01*
X7640237Y-18913925D01*
X7668808Y-18928210D01*
X7683094Y-18956782D01*
X7683094Y-19113925D01*
X7683094Y-18956782D02*
X7697379Y-18928210D01*
X7725951Y-18913925D01*
X7768808Y-18913925D01*
X7797379Y-18928210D01*
X7811665Y-18956782D01*
X7811665Y-19113925D01*
X8397380Y-18799639D02*
X8140237Y-19185353D01*
X8783094Y-18813925D02*
X8811665Y-18813925D01*
X8840237Y-18828210D01*
X8854522Y-18842496D01*
X8868808Y-18871067D01*
X8883094Y-18928210D01*
X8883094Y-18999639D01*
X8868808Y-19056782D01*
X8854522Y-19085353D01*
X8840237Y-19099639D01*
X8811665Y-19113925D01*
X8783094Y-19113925D01*
X8754522Y-19099639D01*
X8740237Y-19085353D01*
X8725951Y-19056782D01*
X8711665Y-18999639D01*
X8711665Y-18928210D01*
X8725951Y-18871067D01*
X8740237Y-18842496D01*
X8754522Y-18828210D01*
X8783094Y-18813925D01*
X9011665Y-19085353D02*
X9025951Y-19099639D01*
X9011665Y-19113925D01*
X8997380Y-19099639D01*
X9011665Y-19085353D01*
X9011665Y-19113925D01*
X9211665Y-18813925D02*
X9240237Y-18813925D01*
X9268808Y-18828210D01*
X9283094Y-18842496D01*
X9297380Y-18871067D01*
X9311665Y-18928210D01*
X9311665Y-18999639D01*
X9297380Y-19056782D01*
X9283094Y-19085353D01*
X9268808Y-19099639D01*
X9240237Y-19113925D01*
X9211665Y-19113925D01*
X9183094Y-19099639D01*
X9168808Y-19085353D01*
X9154522Y-19056782D01*
X9140237Y-18999639D01*
X9140237Y-18928210D01*
X9154522Y-18871067D01*
X9168808Y-18842496D01*
X9183094Y-18828210D01*
X9211665Y-18813925D01*
X9411665Y-18813925D02*
X9597380Y-18813925D01*
X9497380Y-18928210D01*
X9540237Y-18928210D01*
X9568808Y-18942496D01*
X9583094Y-18956782D01*
X9597380Y-18985353D01*
X9597380Y-19056782D01*
X9583094Y-19085353D01*
X9568808Y-19099639D01*
X9540237Y-19113925D01*
X9454522Y-19113925D01*
X9425951Y-19099639D01*
X9411665Y-19085353D01*
X9883094Y-19113925D02*
X9711665Y-19113925D01*
X9797380Y-19113925D02*
X9797380Y-18813925D01*
X9768808Y-18856782D01*
X9740237Y-18885353D01*
X9711665Y-18899639D01*
X9997380Y-18813925D02*
X9997380Y-18871067D01*
X10111665Y-18813925D02*
X10111665Y-18871067D01*
X10554522Y-19228210D02*
X10540237Y-19213925D01*
X10511665Y-19171067D01*
X10497380Y-19142496D01*
X10483094Y-19099639D01*
X10468808Y-19028210D01*
X10468808Y-18971067D01*
X10483094Y-18899639D01*
X10497380Y-18856782D01*
X10511665Y-18828210D01*
X10540237Y-18785353D01*
X10554522Y-18771067D01*
X10654522Y-18842496D02*
X10668808Y-18828210D01*
X10697380Y-18813925D01*
X10768808Y-18813925D01*
X10797380Y-18828210D01*
X10811665Y-18842496D01*
X10825951Y-18871067D01*
X10825951Y-18899639D01*
X10811665Y-18942496D01*
X10640237Y-19113925D01*
X10825951Y-19113925D01*
X11183094Y-19113925D02*
X11183094Y-18813925D01*
X11311665Y-19113925D02*
X11311665Y-18956782D01*
X11297379Y-18928210D01*
X11268808Y-18913925D01*
X11225951Y-18913925D01*
X11197379Y-18928210D01*
X11183094Y-18942496D01*
X11497379Y-19113925D02*
X11468808Y-19099639D01*
X11454522Y-19085353D01*
X11440237Y-19056782D01*
X11440237Y-18971067D01*
X11454522Y-18942496D01*
X11468808Y-18928210D01*
X11497379Y-18913925D01*
X11540237Y-18913925D01*
X11568808Y-18928210D01*
X11583094Y-18942496D01*
X11597379Y-18971067D01*
X11597379Y-19056782D01*
X11583094Y-19085353D01*
X11568808Y-19099639D01*
X11540237Y-19113925D01*
X11497379Y-19113925D01*
X11768808Y-19113925D02*
X11740237Y-19099639D01*
X11725951Y-19071067D01*
X11725951Y-18813925D01*
X11997379Y-19099639D02*
X11968808Y-19113925D01*
X11911665Y-19113925D01*
X11883094Y-19099639D01*
X11868808Y-19071067D01*
X11868808Y-18956782D01*
X11883094Y-18928210D01*
X11911665Y-18913925D01*
X11968808Y-18913925D01*
X11997379Y-18928210D01*
X12011665Y-18956782D01*
X12011665Y-18985353D01*
X11868808Y-19013925D01*
X12125951Y-19099639D02*
X12154522Y-19113925D01*
X12211665Y-19113925D01*
X12240237Y-19099639D01*
X12254522Y-19071067D01*
X12254522Y-19056782D01*
X12240237Y-19028210D01*
X12211665Y-19013925D01*
X12168808Y-19013925D01*
X12140237Y-18999639D01*
X12125951Y-18971067D01*
X12125951Y-18956782D01*
X12140237Y-18928210D01*
X12168808Y-18913925D01*
X12211665Y-18913925D01*
X12240237Y-18928210D01*
X12354522Y-19228210D02*
X12368808Y-19213925D01*
X12397379Y-19171067D01*
X12411665Y-19142496D01*
X12425951Y-19099639D01*
X12440237Y-19028210D01*
X12440237Y-18971067D01*
X12425951Y-18899639D01*
X12411665Y-18856782D01*
X12397379Y-18828210D01*
X12368808Y-18785353D01*
X12354522Y-18771067D01*
M02*
