%TF.GenerationSoftware,KiCad,Pcbnew,(5.1.6)-1*%
%TF.CreationDate,2021-08-22T23:35:52+02:00*%
%TF.ProjectId,67_E,36375f45-2e6b-4696-9361-645f70636258,rev?*%
%TF.SameCoordinates,Original*%
%TF.FileFunction,Legend,Top*%
%TF.FilePolarity,Positive*%
%FSLAX46Y46*%
G04 Gerber Fmt 4.6, Leading zero omitted, Abs format (unit mm)*
G04 Created by KiCad (PCBNEW (5.1.6)-1) date 2021-08-22 23:35:52*
%MOMM*%
%LPD*%
G01*
G04 APERTURE LIST*
%ADD10C,1.400000*%
%ADD11C,1.750000*%
%ADD12C,3.000000*%
%ADD13C,3.987800*%
%ADD14C,3.048000*%
%ADD15O,1.000000X2.100000*%
%ADD16C,0.650000*%
%ADD17O,1.000000X1.600000*%
G04 APERTURE END LIST*
%LPC*%
D10*
X228244400Y-169024300D03*
X225704400Y-169024300D03*
D11*
X79692500Y-126199900D03*
X69532500Y-126199900D03*
D12*
X70802500Y-123659900D03*
D13*
X74612500Y-126199900D03*
D12*
X77152500Y-121119900D03*
D11*
X129691130Y-88075770D03*
X119531130Y-88075770D03*
D12*
X120801130Y-85535770D03*
D13*
X124611130Y-88075770D03*
D12*
X127151130Y-82995770D03*
D13*
X312698130Y-96330770D03*
X336574130Y-96330770D03*
D14*
X312698130Y-81090770D03*
X336574130Y-81090770D03*
D11*
X329716130Y-88075770D03*
X319556130Y-88075770D03*
D12*
X320826130Y-85535770D03*
D13*
X324636130Y-88075770D03*
D12*
X327176130Y-82995770D03*
D11*
X358291130Y-88075770D03*
X348131130Y-88075770D03*
D12*
X349401130Y-85535770D03*
D13*
X353211130Y-88075770D03*
D12*
X355751130Y-82995770D03*
D11*
X201128630Y-126175770D03*
X190968630Y-126175770D03*
D12*
X192238630Y-123635770D03*
D13*
X196048630Y-126175770D03*
D12*
X198588630Y-121095770D03*
D11*
X172553630Y-145225770D03*
X162393630Y-145225770D03*
D12*
X163663630Y-142685770D03*
D13*
X167473630Y-145225770D03*
D12*
X170013630Y-140145770D03*
X74763630Y-102045770D03*
D13*
X72223630Y-107125770D03*
D12*
X68413630Y-104585770D03*
D11*
X67143630Y-107125770D03*
X77303630Y-107125770D03*
X243991130Y-88075770D03*
X233831130Y-88075770D03*
D12*
X235101130Y-85535770D03*
D13*
X238911130Y-88075770D03*
D12*
X241451130Y-82995770D03*
D11*
X358291130Y-164275770D03*
X348131130Y-164275770D03*
D12*
X349401130Y-161735770D03*
D13*
X353211130Y-164275770D03*
D12*
X355751130Y-159195770D03*
D11*
X339241130Y-164275770D03*
X329081130Y-164275770D03*
D12*
X330351130Y-161735770D03*
D13*
X334161130Y-164275770D03*
D12*
X336701130Y-159195770D03*
D11*
X320191130Y-164275770D03*
X310031130Y-164275770D03*
D12*
X311301130Y-161735770D03*
D13*
X315111130Y-164275770D03*
D12*
X317651130Y-159195770D03*
D11*
X289234880Y-164275770D03*
X279074880Y-164275770D03*
D12*
X280344880Y-161735770D03*
D13*
X284154880Y-164275770D03*
D12*
X286694880Y-159195770D03*
D11*
X265422380Y-164275770D03*
X255262380Y-164275770D03*
D12*
X256532380Y-161735770D03*
D13*
X260342380Y-164275770D03*
D12*
X262882380Y-159195770D03*
D13*
X138904980Y-156020770D03*
X238904780Y-156020770D03*
D14*
X138904980Y-171260770D03*
X238904780Y-171260770D03*
D11*
X193984880Y-164275770D03*
X183824880Y-164275770D03*
D12*
X185094880Y-161735770D03*
D13*
X188904880Y-164275770D03*
D12*
X191444880Y-159195770D03*
D11*
X122547380Y-164275770D03*
X112387380Y-164275770D03*
D12*
X113657380Y-161735770D03*
D13*
X117467380Y-164275770D03*
D12*
X120007380Y-159195770D03*
D11*
X98734880Y-164275770D03*
X88574880Y-164275770D03*
D12*
X89844880Y-161735770D03*
D13*
X93654880Y-164275770D03*
D12*
X96194880Y-159195770D03*
D11*
X74922380Y-164275770D03*
X64762380Y-164275770D03*
D12*
X66032380Y-161735770D03*
D13*
X69842380Y-164275770D03*
D12*
X72382380Y-159195770D03*
D11*
X358291130Y-145225770D03*
X348131130Y-145225770D03*
D12*
X349401130Y-142685770D03*
D13*
X353211130Y-145225770D03*
D12*
X355751130Y-140145770D03*
D11*
X339241130Y-145225770D03*
X329081130Y-145225770D03*
D12*
X330351130Y-142685770D03*
D13*
X334161130Y-145225770D03*
D12*
X336701130Y-140145770D03*
D11*
X313047380Y-145225770D03*
X302887380Y-145225770D03*
D12*
X304157380Y-142685770D03*
D13*
X307967380Y-145225770D03*
D12*
X310507380Y-140145770D03*
D11*
X286853630Y-145225770D03*
X276693630Y-145225770D03*
D12*
X277963630Y-142685770D03*
D13*
X281773630Y-145225770D03*
D12*
X284313630Y-140145770D03*
D11*
X267803630Y-145225770D03*
X257643630Y-145225770D03*
D12*
X258913630Y-142685770D03*
D13*
X262723630Y-145225770D03*
D12*
X265263630Y-140145770D03*
D11*
X248753630Y-145225770D03*
X238593630Y-145225770D03*
D12*
X239863630Y-142685770D03*
D13*
X243673630Y-145225770D03*
D12*
X246213630Y-140145770D03*
D11*
X229703630Y-145225770D03*
X219543630Y-145225770D03*
D12*
X220813630Y-142685770D03*
D13*
X224623630Y-145225770D03*
D12*
X227163630Y-140145770D03*
D11*
X210653630Y-145225770D03*
X200493630Y-145225770D03*
D12*
X201763630Y-142685770D03*
D13*
X205573630Y-145225770D03*
D12*
X208113630Y-140145770D03*
D11*
X191603630Y-145225770D03*
X181443630Y-145225770D03*
D12*
X182713630Y-142685770D03*
D13*
X186523630Y-145225770D03*
D12*
X189063630Y-140145770D03*
D11*
X153503630Y-145225770D03*
X143343630Y-145225770D03*
D12*
X144613630Y-142685770D03*
D13*
X148423630Y-145225770D03*
D12*
X150963630Y-140145770D03*
D11*
X134453630Y-145225770D03*
X124293630Y-145225770D03*
D12*
X125563630Y-142685770D03*
D13*
X129373630Y-145225770D03*
D12*
X131913630Y-140145770D03*
D11*
X115403630Y-145225770D03*
X105243630Y-145225770D03*
D12*
X106513630Y-142685770D03*
D13*
X110323630Y-145225770D03*
D12*
X112863630Y-140145770D03*
D11*
X96353630Y-145225770D03*
X86193630Y-145225770D03*
D12*
X87463630Y-142685770D03*
D13*
X91273630Y-145225770D03*
D12*
X93813630Y-140145770D03*
D11*
X74922380Y-145225770D03*
X64762380Y-145225770D03*
D12*
X66032380Y-142685770D03*
D13*
X69842380Y-145225770D03*
D12*
X72382380Y-140145770D03*
D11*
X358291130Y-126175770D03*
X348131130Y-126175770D03*
D12*
X349401130Y-123635770D03*
D13*
X353211130Y-126175770D03*
D12*
X355751130Y-121095770D03*
D11*
X296378630Y-126175770D03*
X286218630Y-126175770D03*
D12*
X287488630Y-123635770D03*
D13*
X291298630Y-126175770D03*
D12*
X293838630Y-121095770D03*
D11*
X277328630Y-126175770D03*
X267168630Y-126175770D03*
D12*
X268438630Y-123635770D03*
D13*
X272248630Y-126175770D03*
D12*
X274788630Y-121095770D03*
D11*
X258278630Y-126175770D03*
X248118630Y-126175770D03*
D12*
X249388630Y-123635770D03*
D13*
X253198630Y-126175770D03*
D12*
X255738630Y-121095770D03*
D11*
X239228630Y-126175770D03*
X229068630Y-126175770D03*
D12*
X230338630Y-123635770D03*
D13*
X234148630Y-126175770D03*
D12*
X236688630Y-121095770D03*
D11*
X220178630Y-126175770D03*
X210018630Y-126175770D03*
D12*
X211288630Y-123635770D03*
D13*
X215098630Y-126175770D03*
D12*
X217638630Y-121095770D03*
D11*
X182078630Y-126175770D03*
X171918630Y-126175770D03*
D12*
X173188630Y-123635770D03*
D13*
X176998630Y-126175770D03*
D12*
X179538630Y-121095770D03*
D11*
X163028630Y-126175770D03*
X152868630Y-126175770D03*
D12*
X154138630Y-123635770D03*
D13*
X157948630Y-126175770D03*
D12*
X160488630Y-121095770D03*
D11*
X143978630Y-126175770D03*
X133818630Y-126175770D03*
D12*
X135088630Y-123635770D03*
D13*
X138898630Y-126175770D03*
D12*
X141438630Y-121095770D03*
D11*
X124928630Y-126175770D03*
X114768630Y-126175770D03*
D12*
X116038630Y-123635770D03*
D13*
X119848630Y-126175770D03*
D12*
X122388630Y-121095770D03*
D11*
X105878630Y-126175770D03*
X95718630Y-126175770D03*
D12*
X96988630Y-123635770D03*
D13*
X100798630Y-126175770D03*
D12*
X103338630Y-121095770D03*
X327969880Y-114110770D03*
X334319880Y-111570770D03*
D13*
X331779880Y-116650770D03*
D11*
X326699880Y-116650770D03*
X336859880Y-116650770D03*
D14*
X338764880Y-128588770D03*
X338764880Y-104712770D03*
D13*
X323524880Y-128588770D03*
X323524880Y-104712770D03*
D11*
X358291130Y-107125770D03*
X348131130Y-107125770D03*
D12*
X349401130Y-104585770D03*
D13*
X353211130Y-107125770D03*
D12*
X355751130Y-102045770D03*
D11*
X310666130Y-107125770D03*
X300506130Y-107125770D03*
D12*
X301776130Y-104585770D03*
D13*
X305586130Y-107125770D03*
D12*
X308126130Y-102045770D03*
D11*
X291616130Y-107125770D03*
X281456130Y-107125770D03*
D12*
X282726130Y-104585770D03*
D13*
X286536130Y-107125770D03*
D12*
X289076130Y-102045770D03*
D11*
X272566130Y-107125770D03*
X262406130Y-107125770D03*
D12*
X263676130Y-104585770D03*
D13*
X267486130Y-107125770D03*
D12*
X270026130Y-102045770D03*
D11*
X253516130Y-107125770D03*
X243356130Y-107125770D03*
D12*
X244626130Y-104585770D03*
D13*
X248436130Y-107125770D03*
D12*
X250976130Y-102045770D03*
D11*
X234466130Y-107125770D03*
X224306130Y-107125770D03*
D12*
X225576130Y-104585770D03*
D13*
X229386130Y-107125770D03*
D12*
X231926130Y-102045770D03*
D11*
X215416130Y-107125770D03*
X205256130Y-107125770D03*
D12*
X206526130Y-104585770D03*
D13*
X210336130Y-107125770D03*
D12*
X212876130Y-102045770D03*
D11*
X196366130Y-107125770D03*
X186206130Y-107125770D03*
D12*
X187476130Y-104585770D03*
D13*
X191286130Y-107125770D03*
D12*
X193826130Y-102045770D03*
D11*
X177316130Y-107125770D03*
X167156130Y-107125770D03*
D12*
X168426130Y-104585770D03*
D13*
X172236130Y-107125770D03*
D12*
X174776130Y-102045770D03*
D11*
X158266130Y-107125770D03*
X148106130Y-107125770D03*
D12*
X149376130Y-104585770D03*
D13*
X153186130Y-107125770D03*
D12*
X155726130Y-102045770D03*
D11*
X139216130Y-107125770D03*
X129056130Y-107125770D03*
D12*
X130326130Y-104585770D03*
D13*
X134136130Y-107125770D03*
D12*
X136676130Y-102045770D03*
D11*
X120166130Y-107125770D03*
X110006130Y-107125770D03*
D12*
X111276130Y-104585770D03*
D13*
X115086130Y-107125770D03*
D12*
X117626130Y-102045770D03*
D11*
X101116130Y-107125770D03*
X90956130Y-107125770D03*
D12*
X92226130Y-104585770D03*
D13*
X96036130Y-107125770D03*
D12*
X98576130Y-102045770D03*
D11*
X315428630Y-126175770D03*
X305268630Y-126175770D03*
D12*
X306538630Y-123635770D03*
D13*
X310348630Y-126175770D03*
D12*
X312888630Y-121095770D03*
D11*
X301141130Y-88075770D03*
X290981130Y-88075770D03*
D12*
X292251130Y-85535770D03*
D13*
X296061130Y-88075770D03*
D12*
X298601130Y-82995770D03*
D11*
X282091130Y-88075770D03*
X271931130Y-88075770D03*
D12*
X273201130Y-85535770D03*
D13*
X277011130Y-88075770D03*
D12*
X279551130Y-82995770D03*
D11*
X263041130Y-88075770D03*
X252881130Y-88075770D03*
D12*
X254151130Y-85535770D03*
D13*
X257961130Y-88075770D03*
D12*
X260501130Y-82995770D03*
D11*
X224941130Y-88075770D03*
X214781130Y-88075770D03*
D12*
X216051130Y-85535770D03*
D13*
X219861130Y-88075770D03*
D12*
X222401130Y-82995770D03*
D11*
X205891130Y-88075770D03*
X195731130Y-88075770D03*
D12*
X197001130Y-85535770D03*
D13*
X200811130Y-88075770D03*
D12*
X203351130Y-82995770D03*
D11*
X186841130Y-88075770D03*
X176681130Y-88075770D03*
D12*
X177951130Y-85535770D03*
D13*
X181761130Y-88075770D03*
D12*
X184301130Y-82995770D03*
D11*
X167791130Y-88075770D03*
X157631130Y-88075770D03*
D12*
X158901130Y-85535770D03*
D13*
X162711130Y-88075770D03*
D12*
X165251130Y-82995770D03*
D11*
X148741130Y-88075770D03*
X138581130Y-88075770D03*
D12*
X139851130Y-85535770D03*
D13*
X143661130Y-88075770D03*
D12*
X146201130Y-82995770D03*
D11*
X110641130Y-88075770D03*
X100481130Y-88075770D03*
D12*
X101751130Y-85535770D03*
D13*
X105561130Y-88075770D03*
D12*
X108101130Y-82995770D03*
D11*
X81431130Y-88075770D03*
X91591130Y-88075770D03*
D12*
X90321130Y-90615770D03*
D13*
X86511130Y-88075770D03*
D12*
X83971130Y-93155770D03*
D11*
X62381130Y-88075770D03*
X72541130Y-88075770D03*
D12*
X71271130Y-90615770D03*
D13*
X67461130Y-88075770D03*
D12*
X64921130Y-93155770D03*
D15*
X81297240Y-79822760D03*
X72657240Y-79822760D03*
D16*
X74087240Y-79292760D03*
D17*
X72657240Y-75642760D03*
D16*
X79867240Y-79292760D03*
D17*
X81297240Y-75642760D03*
M02*
